<svg version="1.1" id="Layer_1" xmlns="http://www.w3.org/2000/svg" x="0" y="0" width="1473" height="916" viewBox="431 -62 1473 916" style="enable-background:new 431 -62 1473 916" xml:space="preserve"><style>.st0{opacity:.12}</style><g class="st0"><linearGradient id="SVGID_1_" gradientUnits="userSpaceOnUse" x1="1938.534" y1="-399.581" x2="1028.517" y2="312.132" gradientTransform="matrix(1 0 0 -1 0 792)"><stop offset=".069" style="stop-color:#15e682"/><stop offset="1" style="stop-color:#fff"/></linearGradient><path d="M484.1 347c0 14.9-11.9 27-26.5 27S431 361.9 431 347s11.9-27 26.5-27 26.6 12.1 26.6 27zm67.8 27c14.7 0 26.5-12.1 26.5-27s-11.9-27-26.5-27-26.5 12.1-26.5 27 11.9 27 26.5 27zm94.4 0c14.7 0 26.5-12.1 26.5-27s-11.9-27-26.5-27c-14.7 0-26.5 12.1-26.5 27s11.9 27 26.5 27zm0 96c14.7 0 26.5-12.1 26.5-27s-11.9-27-26.5-27c-14.7 0-26.5 12.1-26.5 27s11.9 27 26.5 27zm-67.8-27c0 14.9-11.9 27-26.5 27s-26.5-12.1-26.5-27 11.9-27 26.5-27 26.5 12.1 26.5 27zm-121 27c14.7 0 26.5-12.1 26.5-27s-11.9-27-26.5-27-26.5 12.1-26.5 27 11.9 27 26.5 27zm593-27c0 14.9-11.9 27-26.5 27-14.7 0-26.5-12.1-26.5-27s11.9-27 26.5-27 26.5 12.1 26.5 27zm351-69c14.7 0 26.5-12.1 26.5-27s-11.9-27-26.5-27-26.5 12.1-26.5 27 11.8 27 26.5 27zm26.5 69c0 14.9-11.9 27-26.5 27s-26.5-12.1-26.5-27 11.9-27 26.5-27 26.5 12.1 26.5 27zm-687.3 27c14.7 0 26.5-12.1 26.5-27s-11.9-27-26.5-27-26.5 12.1-26.5 27 11.9 27 26.5 27zm404.2-27c0 14.9-11.9 27-26.5 27-14.7 0-26.5-12.1-26.5-27s11.9-27 26.5-27 26.5 12.1 26.5 27zm351-69c14.7 0 26.6-12.1 26.6-27s-11.9-27-26.6-27-26.6 12.1-26.6 27 11.9 27 26.6 27zm26.5 69c0 14.9-11.9 27-26.6 27s-26.6-12.1-26.6-27 11.9-27 26.6-27 26.6 12.1 26.6 27zm-687.3 27c14.7 0 26.5-12.1 26.5-27s-11.9-27-26.5-27c-14.7 0-26.5 12.1-26.5 27s11.9 27 26.5 27zm404.1-27c0 14.9-11.9 27-26.5 27-14.7 0-26.5-12.1-26.5-27s11.9-27 26.5-27c14.7 0 26.5 12.1 26.5 27zm351.1-69c14.7 0 26.5-12.1 26.5-27s-11.9-27-26.5-27-26.6 12.1-26.6 27 11.9 27 26.6 27zm26.5 69c0 14.9-11.9 27-26.5 27s-26.6-12.1-26.6-27 11.9-27 26.6-27 26.5 12.1 26.5 27zm-687.3-69c14.7 0 26.5-12.1 26.5-27s-11.9-27-26.5-27-26.5 12.1-26.5 27 11.9 27 26.5 27zm26.6 69c0 14.9-11.9 27-26.5 27S903 457.9 903 443s11.9-27 26.5-27 26.6 12.1 26.6 27zm351-69c14.7 0 26.5-12.1 26.5-27s-11.9-27-26.5-27c-14.7 0-26.5 12.1-26.5 27s11.8 27 26.5 27zm26.5 69c0 14.9-11.9 27-26.5 27-14.7 0-26.5-12.1-26.5-27s11.9-27 26.5-27c14.7 0 26.5 12.1 26.5 27zm351.1-69c14.7 0 26.5-12.1 26.5-27s-11.9-27-26.5-27c-14.7 0-26.5 12.1-26.5 27s11.8 27 26.5 27zm120.9-27c0 14.9-11.9 27-26.5 27-14.7 0-26.6-12.1-26.6-27s11.9-27 26.6-27c14.6 0 26.5 12.1 26.5 27zm67.8 27c14.7 0 26.6-12.1 26.6-27s-11.9-27-26.6-27c-14.7 0-26.5 12.1-26.5 27s11.9 27 26.5 27zm-67.8 69c0 14.9-11.9 27-26.5 27-14.7 0-26.6-12.1-26.6-27s11.9-27 26.6-27c14.6 0 26.5 12.1 26.5 27zM646.3 566c14.7 0 26.5-12.1 26.5-27s-11.9-27-26.5-27c-14.7 0-26.5 12.1-26.5 27s11.9 27 26.5 27zm-162.2-27c0 14.9-11.9 27-26.5 27S431 553.9 431 539s11.9-27 26.5-27 26.6 12.1 26.6 27zm-26.6 123c14.7 0 26.5-12.1 26.5-27s-11.9-27-26.5-27-26.5 12.1-26.5 27 11.9 27 26.5 27zm593-123c0 14.9-11.9 27-26.5 27-14.7 0-26.5-12.1-26.5-27s11.9-27 26.5-27 26.5 12.1 26.5 27zm-26.6 123c14.7 0 26.5-12.1 26.5-27s-11.9-27-26.5-27c-14.7 0-26.5 12.1-26.5 27s11.8 27 26.5 27zm404.1-27c0 14.9-11.9 27-26.5 27s-26.5-12.1-26.5-27 11.9-27 26.5-27 26.5 12.1 26.5 27zm-687.3-69c14.7 0 26.5-12.1 26.5-27s-11.9-27-26.5-27-26.5 12.1-26.5 27 11.9 27 26.5 27zm404.2-27c0 14.9-11.9 27-26.5 27-14.7 0-26.5-12.1-26.5-27s11.9-27 26.5-27 26.5 12.1 26.5 27zm-26.6 123c14.7 0 26.5-12.1 26.5-27s-11.9-27-26.5-27c-14.7 0-26.5 12.1-26.5 27s11.8 27 26.5 27zm404.1-27c0 14.9-11.9 27-26.6 27s-26.6-12.1-26.6-27 11.9-27 26.6-27 26.6 12.1 26.6 27zm-687.3-69c14.7 0 26.5-12.1 26.5-27s-11.9-27-26.5-27c-14.7 0-26.5 12.1-26.5 27s11.9 27 26.5 27zm26.6 69c0 14.9-11.9 27-26.5 27-14.7 0-26.5-12.1-26.5-27s11.9-27 26.5-27 26.5 12.1 26.5 27zm351-69c14.7 0 26.5-12.1 26.5-27s-11.9-27-26.5-27c-14.7 0-26.5 12.1-26.5 27s11.8 27 26.5 27zm26.5 69c0 14.9-11.9 27-26.5 27-14.7 0-26.5-12.1-26.5-27s11.9-27 26.5-27c14.7 0 26.5 12.1 26.5 27zm351.1 27c14.7 0 26.5-12.1 26.5-27s-11.9-27-26.5-27-26.6 12.1-26.6 27 11.9 27 26.6 27zM956.1 539c0 14.9-11.9 27-26.5 27S903 553.9 903 539s11.9-27 26.5-27 26.6 12.1 26.6 27zm351 27c14.7 0 26.5-12.1 26.5-27s-11.9-27-26.5-27c-14.7 0-26.5 12.1-26.5 27s11.8 27 26.5 27zm26.5 69c0 14.9-11.9 27-26.5 27-14.7 0-26.5-12.1-26.5-27s11.9-27 26.5-27c14.7 0 26.5 12.1 26.5 27zm445.5-69c14.7 0 26.5-12.1 26.5-27s-11.9-27-26.5-27c-14.7 0-26.6 12.1-26.6 27s11.9 27 26.6 27zm-67.9 69c0 14.9-11.9 27-26.5 27-14.7 0-26.5-12.1-26.5-27s11.9-27 26.5-27 26.5 12.1 26.5 27zm67.9 27c14.7 0 26.5-12.1 26.5-27s-11.9-27-26.5-27c-14.7 0-26.6 12.1-26.6 27s11.9 27 26.6 27zm120.9-27c0 14.9-11.9 27-26.6 27-14.7 0-26.5-12.1-26.5-27s11.9-27 26.5-27c14.7 0 26.6 12.1 26.6 27zM551.9 758c14.7 0 26.5-12.1 26.5-27s-11.9-27-26.5-27-26.5 12.1-26.5 27 11.9 27 26.5 27zm26.6-123c0 14.9-11.9 27-26.5 27s-26.5-12.1-26.5-27 11.9-27 26.5-27 26.5 12.1 26.5 27zm-121 123c14.7 0 26.5-12.1 26.5-27s-11.9-27-26.5-27-26.5 12.1-26.5 27 11.9 27 26.5 27zm26.6 69c0 14.9-11.9 27-26.5 27S431 841.9 431 827s11.9-27 26.5-27 26.6 12.1 26.6 27zm539.8 27c14.7 0 26.5-12.1 26.5-27s-11.9-27-26.5-27c-14.7 0-26.5 12.1-26.5 27s11.8 27 26.5 27zM1428 731c0 14.9-11.9 27-26.5 27s-26.5-12.1-26.5-27 11.9-27 26.5-27 26.5 12.1 26.5 27zm-26.5 123c14.7 0 26.5-12.1 26.5-27s-11.9-27-26.5-27-26.5 12.1-26.5 27 11.8 27 26.5 27zm-256.6-27c0 14.9-11.9 27-26.5 27-14.7 0-26.5-12.1-26.5-27s11.9-27 26.5-27 26.5 12.1 26.5 27zm351-69c14.7 0 26.6-12.1 26.6-27s-11.9-27-26.6-27-26.6 12.1-26.6 27 11.9 27 26.6 27zm26.5 69c0 14.9-11.9 27-26.6 27s-26.6-12.1-26.6-27 11.9-27 26.6-27 26.6 12.1 26.6 27zm-687.3 27c14.7 0 26.5-12.1 26.5-27s-11.9-27-26.5-27c-14.7 0-26.5 12.1-26.5 27s11.9 27 26.5 27zm404.1-27c0 14.9-11.9 27-26.5 27-14.7 0-26.5-12.1-26.5-27s11.9-27 26.5-27c14.7 0 26.5 12.1 26.5 27zm351.1-69c14.7 0 26.5-12.1 26.5-27s-11.9-27-26.5-27-26.6 12.1-26.6 27 11.9 27 26.6 27zm26.5 69c0 14.9-11.9 27-26.5 27s-26.6-12.1-26.6-27 11.9-27 26.6-27 26.5 12.1 26.5 27zm-687.3 27c14.7 0 26.5-12.1 26.5-27s-11.9-27-26.5-27-26.5 12.1-26.5 27 11.9 27 26.5 27zm404.1-27c0 14.9-11.9 27-26.5 27-14.7 0-26.5-12.1-26.5-27s11.9-27 26.5-27c14.7 0 26.5 12.1 26.5 27zm351.1-69c14.7 0 26.5-12.1 26.5-27s-11.9-27-26.5-27c-14.7 0-26.5 12.1-26.5 27s11.8 27 26.5 27zm120.9-27c0 14.9-11.9 27-26.5 27-14.7 0-26.6-12.1-26.6-27s11.9-27 26.6-27c14.6 0 26.5 12.1 26.5 27zm67.8 27c14.7 0 26.6-12.1 26.6-27s-11.9-27-26.6-27c-14.7 0-26.5 12.1-26.5 27s11.9 27 26.5 27zm-162.2 69c0 14.9-11.9 27-26.5 27-14.7 0-26.5-12.1-26.5-27s11.9-27 26.5-27 26.5 12.1 26.5 27zm162.2 27c14.7 0 26.6-12.1 26.6-27s-11.9-27-26.6-27c-14.7 0-26.5 12.1-26.5 27s11.9 27 26.5 27z" style="fill:url(#SVGID_1_)"/></g><g class="st0"><linearGradient id="SVGID_2_" gradientUnits="userSpaceOnUse" x1="1942.534" y1="-17.582" x2="1032.517" y2="694.132" gradientTransform="matrix(1 0 0 -1 0 792)"><stop offset=".069" style="stop-color:#15e682"/><stop offset="1" style="stop-color:#fff"/></linearGradient><path d="M488.1-35c0 14.9-11.9 27-26.5 27S435-20.1 435-35s11.9-27 26.5-27 26.6 12.1 26.6 27zm67.8 27c14.7 0 26.5-12.1 26.5-27s-11.9-27-26.5-27-26.5 12.1-26.5 27 11.9 27 26.5 27zm94.4 0c14.7 0 26.5-12.1 26.5-27S665-62 650.3-62s-26.5 12.1-26.5 27 11.9 27 26.5 27zm0 96c14.7 0 26.5-12.1 26.5-27S665 34 650.3 34s-26.5 12.1-26.5 27 11.9 27 26.5 27zm-67.8-27c0 14.9-11.9 27-26.5 27s-26.5-12.1-26.5-27 11.9-27 26.5-27 26.5 12.1 26.5 27zm-121 27c14.7 0 26.5-12.1 26.5-27s-11.9-27-26.5-27S435 46.1 435 61s11.9 27 26.5 27zm593-27c0 14.9-11.9 27-26.5 27-14.7 0-26.5-12.1-26.5-27s11.9-27 26.5-27 26.5 12.1 26.5 27zm351-69c14.7 0 26.5-12.1 26.5-27s-11.9-27-26.5-27-26.5 12.1-26.5 27 11.8 27 26.5 27zm26.5 69c0 14.9-11.9 27-26.5 27S1379 75.9 1379 61s11.9-27 26.5-27 26.5 12.1 26.5 27zM744.7 88c14.7 0 26.5-12.1 26.5-27s-11.9-27-26.5-27-26.5 12.1-26.5 27 11.9 27 26.5 27zm404.2-27c0 14.9-11.9 27-26.5 27-14.7 0-26.5-12.1-26.5-27s11.9-27 26.5-27 26.5 12.1 26.5 27zm351-69c14.7 0 26.6-12.1 26.6-27s-11.9-27-26.6-27-26.6 12.1-26.6 27 11.9 27 26.6 27zm26.5 69c0 14.9-11.9 27-26.6 27s-26.6-12.1-26.6-27 11.9-27 26.6-27 26.6 12.1 26.6 27zM839.1 88c14.7 0 26.5-12.1 26.5-27s-11.9-27-26.5-27c-14.7 0-26.5 12.1-26.5 27s11.9 27 26.5 27zm404.1-27c0 14.9-11.9 27-26.5 27-14.7 0-26.5-12.1-26.5-27s11.9-27 26.5-27c14.7 0 26.5 12.1 26.5 27zm351.1-69c14.7 0 26.5-12.1 26.5-27s-11.9-27-26.5-27-26.6 12.1-26.6 27 11.9 27 26.6 27zm26.5 69c0 14.9-11.9 27-26.5 27s-26.6-12.1-26.6-27 11.9-27 26.6-27 26.5 12.1 26.5 27zM933.5-8C948.2-8 960-20.1 960-35s-11.9-27-26.5-27S907-49.9 907-35s11.9 27 26.5 27zm26.6 69c0 14.9-11.9 27-26.5 27S907 75.9 907 61s11.9-27 26.5-27 26.6 12.1 26.6 27zm351-69c14.7 0 26.5-12.1 26.5-27s-11.9-27-26.5-27c-14.7 0-26.5 12.1-26.5 27s11.8 27 26.5 27zm26.5 69c0 14.9-11.9 27-26.5 27-14.7 0-26.5-12.1-26.5-27s11.9-27 26.5-27c14.7 0 26.5 12.1 26.5 27zm351.1-69c14.7 0 26.5-12.1 26.5-27s-11.9-27-26.5-27c-14.7 0-26.5 12.1-26.5 27s11.8 27 26.5 27zm120.9-27c0 14.9-11.9 27-26.5 27-14.7 0-26.6-12.1-26.6-27s11.9-27 26.6-27c14.6 0 26.5 12.1 26.5 27zm67.8 27c14.7 0 26.6-12.1 26.6-27s-11.9-27-26.6-27c-14.7 0-26.5 12.1-26.5 27s11.9 27 26.5 27zm-67.8 69c0 14.9-11.9 27-26.5 27-14.7 0-26.6-12.1-26.6-27s11.9-27 26.6-27c14.6 0 26.5 12.1 26.5 27zM650.3 184c14.7 0 26.5-12.1 26.5-27s-11.9-27-26.5-27c-14.7 0-26.5 12.1-26.5 27s11.9 27 26.5 27zm-162.2-27c0 14.9-11.9 27-26.5 27S435 171.9 435 157s11.9-27 26.5-27 26.6 12.1 26.6 27zm-26.6 123c14.7 0 26.5-12.1 26.5-27s-11.9-27-26.5-27-26.5 12.1-26.5 27 11.9 27 26.5 27zm593-123c0 14.9-11.9 27-26.5 27-14.7 0-26.5-12.1-26.5-27s11.9-27 26.5-27 26.5 12.1 26.5 27zm-26.6 123c14.7 0 26.5-12.1 26.5-27s-11.9-27-26.5-27c-14.7 0-26.5 12.1-26.5 27s11.8 27 26.5 27zm404.1-27c0 14.9-11.9 27-26.5 27s-26.5-12.1-26.5-27 11.9-27 26.5-27 26.5 12.1 26.5 27zm-687.3-69c14.7 0 26.5-12.1 26.5-27s-11.9-27-26.5-27-26.5 12.1-26.5 27 11.9 27 26.5 27zm404.2-27c0 14.9-11.9 27-26.5 27-14.7 0-26.5-12.1-26.5-27s11.9-27 26.5-27 26.5 12.1 26.5 27zm-26.6 123c14.7 0 26.5-12.1 26.5-27s-11.9-27-26.5-27c-14.7 0-26.5 12.1-26.5 27s11.8 27 26.5 27zm404.1-27c0 14.9-11.9 27-26.6 27s-26.6-12.1-26.6-27 11.9-27 26.6-27 26.6 12.1 26.6 27zm-687.3-69c14.7 0 26.5-12.1 26.5-27s-11.9-27-26.5-27c-14.7 0-26.5 12.1-26.5 27s11.9 27 26.5 27zm26.6 69c0 14.9-11.9 27-26.5 27-14.7 0-26.5-12.1-26.5-27s11.9-27 26.5-27 26.5 12.1 26.5 27zm351-69c14.7 0 26.5-12.1 26.5-27s-11.9-27-26.5-27c-14.7 0-26.5 12.1-26.5 27s11.8 27 26.5 27zm26.5 69c0 14.9-11.9 27-26.5 27-14.7 0-26.5-12.1-26.5-27s11.9-27 26.5-27c14.7 0 26.5 12.1 26.5 27zm351.1 27c14.7 0 26.5-12.1 26.5-27s-11.9-27-26.5-27-26.6 12.1-26.6 27 11.9 27 26.6 27zM960.1 157c0 14.9-11.9 27-26.5 27S907 171.9 907 157s11.9-27 26.5-27 26.6 12.1 26.6 27zm351 27c14.7 0 26.5-12.1 26.5-27s-11.9-27-26.5-27c-14.7 0-26.5 12.1-26.5 27s11.8 27 26.5 27zm26.5 69c0 14.9-11.9 27-26.5 27-14.7 0-26.5-12.1-26.5-27s11.9-27 26.5-27c14.7 0 26.5 12.1 26.5 27zm445.5-69c14.7 0 26.5-12.1 26.5-27s-11.9-27-26.5-27c-14.7 0-26.6 12.1-26.6 27s11.9 27 26.6 27zm-67.9 69c0 14.9-11.9 27-26.5 27-14.7 0-26.5-12.1-26.5-27s11.9-27 26.5-27 26.5 12.1 26.5 27zm67.9 27c14.7 0 26.5-12.1 26.5-27s-11.9-27-26.5-27c-14.7 0-26.6 12.1-26.6 27s11.9 27 26.6 27zm120.9-27c0 14.9-11.9 27-26.6 27-14.7 0-26.5-12.1-26.5-27s11.9-27 26.5-27c14.7 0 26.6 12.1 26.6 27zM555.9 376c14.7 0 26.5-12.1 26.5-27s-11.9-27-26.5-27-26.5 12.1-26.5 27 11.9 27 26.5 27zm26.6-123c0 14.9-11.9 27-26.5 27s-26.5-12.1-26.5-27 11.9-27 26.5-27 26.5 12.1 26.5 27zm-121 123c14.7 0 26.5-12.1 26.5-27s-11.9-27-26.5-27-26.5 12.1-26.5 27 11.9 27 26.5 27zm26.6 69c0 14.9-11.9 27-26.5 27S435 459.9 435 445s11.9-27 26.5-27 26.6 12.1 26.6 27zm539.8 27c14.7 0 26.5-12.1 26.5-27s-11.9-27-26.5-27c-14.7 0-26.5 12.1-26.5 27s11.8 27 26.5 27zM1432 349c0 14.9-11.9 27-26.5 27s-26.5-12.1-26.5-27 11.9-27 26.5-27 26.5 12.1 26.5 27zm-26.5 123c14.7 0 26.5-12.1 26.5-27s-11.9-27-26.5-27-26.5 12.1-26.5 27 11.8 27 26.5 27zm-256.6-27c0 14.9-11.9 27-26.5 27-14.7 0-26.5-12.1-26.5-27s11.9-27 26.5-27 26.5 12.1 26.5 27zm351-69c14.7 0 26.6-12.1 26.6-27s-11.9-27-26.6-27-26.6 12.1-26.6 27 11.9 27 26.6 27zm26.5 69c0 14.9-11.9 27-26.6 27s-26.6-12.1-26.6-27 11.9-27 26.6-27 26.6 12.1 26.6 27zm-687.3 27c14.7 0 26.5-12.1 26.5-27s-11.9-27-26.5-27c-14.7 0-26.5 12.1-26.5 27s11.9 27 26.5 27zm404.1-27c0 14.9-11.9 27-26.5 27-14.7 0-26.5-12.1-26.5-27s11.9-27 26.5-27c14.7 0 26.5 12.1 26.5 27zm351.1-69c14.7 0 26.5-12.1 26.5-27s-11.9-27-26.5-27-26.6 12.1-26.6 27 11.9 27 26.6 27zm26.5 69c0 14.9-11.9 27-26.5 27s-26.6-12.1-26.6-27 11.9-27 26.6-27 26.5 12.1 26.5 27zm-687.3 27c14.7 0 26.5-12.1 26.5-27s-11.9-27-26.5-27-26.5 12.1-26.5 27 11.9 27 26.5 27zm404.1-27c0 14.9-11.9 27-26.5 27-14.7 0-26.5-12.1-26.5-27s11.9-27 26.5-27c14.7 0 26.5 12.1 26.5 27zm351.1-69c14.7 0 26.5-12.1 26.5-27s-11.9-27-26.5-27c-14.7 0-26.5 12.1-26.5 27s11.8 27 26.5 27zm120.9-27c0 14.9-11.9 27-26.5 27-14.7 0-26.6-12.1-26.6-27s11.9-27 26.6-27c14.6 0 26.5 12.1 26.5 27zm67.8 27c14.7 0 26.6-12.1 26.6-27s-11.9-27-26.6-27c-14.7 0-26.5 12.1-26.5 27s11.9 27 26.5 27zm-162.2 69c0 14.9-11.9 27-26.5 27-14.7 0-26.5-12.1-26.5-27s11.9-27 26.5-27 26.5 12.1 26.5 27zm162.2 27c14.7 0 26.6-12.1 26.6-27s-11.9-27-26.6-27c-14.7 0-26.5 12.1-26.5 27s11.9 27 26.5 27z" style="fill:url(#SVGID_2_)"/></g></svg>