<svg width="176" height="676" fill="none" xmlns="http://www.w3.org/2000/svg"><g opacity=".04" fill="#15E682"><circle cx="107" cy="489" r="15"/><circle cx="107" cy="435" r="15"/><circle cx="107" cy="375" r="15"/><circle cx="-1" cy="375" r="15"/><circle cx="107" cy="315" r="15"/><circle cx="-1" cy="315" r="15"/><circle cx="107" cy="255" r="15"/><circle cx="-1" cy="255" r="15"/><circle cx="107" cy="195" r="15"/><circle cx="107" cy="135" r="15"/><circle cx="-1" cy="135" r="15"/><circle cx="107" cy="75" r="15"/><circle cx="-1" cy="75" r="15"/><circle cx="-1" cy="15" r="15"/><circle cx="107" cy="543" r="15"/><circle cx="161" cy="435" r="15"/><circle cx="161" cy="375" r="15"/><circle cx="53" cy="375" r="15"/><circle cx="161" cy="315" r="15"/><circle cx="53" cy="315" r="15"/><circle cx="161" cy="255" r="15"/><circle cx="53" cy="255" r="15"/><circle cx="161" cy="195" r="15"/><circle cx="53" cy="195" r="15"/><circle cx="161" cy="135" r="15"/><circle cx="53" cy="135" r="15"/><circle cx="161" cy="75" r="15"/><circle cx="53" cy="75" r="15"/><circle cx="161" cy="15" r="15"/><circle cx="53" cy="15" r="15"/><circle cx="161" cy="489" r="15"/><circle cx="161" cy="661" r="15"/></g></svg>