<svg width="1494" height="630" fill="none" xmlns="http://www.w3.org/2000/svg"><g opacity=".02" fill="#15E682"><circle cx="219" cy="27" r="27"/><circle cx="219" cy="123" r="27"/><circle cx="123" cy="123" r="27"/><circle cx="603" cy="27" r="27"/><circle cx="603" cy="123" r="27"/><circle cx="987" cy="27" r="27"/><circle cx="987" cy="123" r="27"/><circle cx="315" cy="27" r="27"/><circle cx="315" cy="123" r="27"/><circle cx="699" cy="27" r="27"/><circle cx="699" cy="123" r="27"/><circle cx="1083" cy="27" r="27"/><circle cx="1083" cy="123" r="27"/><circle cx="411" cy="123" r="27"/><circle cx="795" cy="27" r="27"/><circle cx="795" cy="123" r="27"/><circle cx="1179" cy="27" r="27"/><circle cx="1179" cy="123" r="27"/><circle cx="507" cy="27" r="27"/><circle cx="507" cy="123" r="27"/><circle cx="891" cy="27" r="27"/><circle cx="891" cy="123" r="27"/><circle cx="1275" cy="27" r="27"/><circle cx="1371" cy="27" r="27"/><circle cx="1467" cy="27" r="27"/><circle cx="1275" cy="123" r="27"/><circle cx="1371" cy="123" r="27"/><circle cx="1467" cy="123" r="27"/><circle cx="219" cy="219" r="27"/><circle cx="27" cy="315" r="27"/><circle cx="603" cy="219" r="27"/><circle cx="603" cy="315" r="27"/><circle cx="987" cy="219" r="27"/><circle cx="987" cy="315" r="27"/><circle cx="315" cy="219" r="27"/><circle cx="699" cy="219" r="27"/><circle cx="699" cy="315" r="27"/><circle cx="1083" cy="219" r="27"/><circle cx="1083" cy="315" r="27"/><circle cx="411" cy="219" r="27"/><circle cx="411" cy="315" r="27"/><circle cx="507" cy="315" r="27"/><circle cx="795" cy="219" r="27"/><circle cx="795" cy="315" r="27"/><circle cx="1179" cy="219" r="27"/><circle cx="1179" cy="315" r="27"/><circle cx="507" cy="219" r="27"/><circle cx="891" cy="219" r="27"/><circle cx="891" cy="315" r="27"/><circle cx="1275" cy="219" r="27"/><circle cx="1371" cy="219" r="27"/><circle cx="1467" cy="219" r="27"/><circle cx="1275" cy="315" r="27"/><circle cx="1371" cy="315" r="27"/><circle cx="1467" cy="315" r="27"/><circle cx="123" cy="411" r="27"/><circle cx="219" cy="411" r="27"/><circle cx="315" cy="411" r="27"/><circle cx="315" cy="315" r="27"/><circle cx="123" cy="315" r="27"/><circle cx="27" cy="507" r="27"/><circle cx="123" cy="507" r="27"/><circle cx="603" cy="411" r="27"/><circle cx="603" cy="507" r="27"/><circle cx="987" cy="411" r="27"/><circle cx="987" cy="507" r="27"/><circle cx="1083" cy="411" r="27"/><circle cx="1083" cy="507" r="27"/><circle cx="411" cy="411" r="27"/><circle cx="411" cy="507" r="27"/><circle cx="795" cy="411" r="27"/><circle cx="795" cy="507" r="27"/><circle cx="1179" cy="411" r="27"/><circle cx="1179" cy="507" r="27"/><circle cx="507" cy="411" r="27"/><circle cx="507" cy="507" r="27"/><circle cx="891" cy="411" r="27"/><circle cx="891" cy="507" r="27"/><circle cx="1275" cy="411" r="27"/><circle cx="1371" cy="411" r="27"/><circle cx="1467" cy="411" r="27"/><circle cx="1275" cy="507" r="27"/><circle cx="1371" cy="507" r="27"/><circle cx="1467" cy="507" r="27"/><circle cx="219" cy="603" r="27"/><circle cx="219" cy="507" r="27"/><circle cx="603" cy="603" r="27"/><circle cx="987" cy="603" r="27"/><circle cx="315" cy="603" r="27"/><circle cx="315" cy="507" r="27"/><circle cx="699" cy="603" r="27"/><circle cx="1083" cy="603" r="27"/><circle cx="411" cy="603" r="27"/><circle cx="795" cy="603" r="27"/><circle cx="1179" cy="603" r="27"/><circle cx="507" cy="603" r="27"/><circle cx="891" cy="603" r="27"/><circle cx="1275" cy="603" r="27"/><circle cx="1371" cy="603" r="27"/><circle cx="1467" cy="603" r="27"/></g></svg>