<svg width="300" height="676" fill="none" xmlns="http://www.w3.org/2000/svg"><g opacity=".04" fill="#15E682"><circle cx="231" cy="489" r="15"/><circle cx="231" cy="435" r="15"/><circle cx="231" cy="375" r="15"/><circle cx="123" cy="375" r="15"/><circle cx="231" cy="315" r="15"/><circle cx="123" cy="315" r="15"/><circle cx="231" cy="255" r="15"/><circle cx="123" cy="255" r="15"/><circle cx="231" cy="195" r="15"/><circle cx="231" cy="135" r="15"/><circle cx="123" cy="135" r="15"/><circle cx="231" cy="75" r="15"/><circle cx="123" cy="75" r="15"/><circle cx="123" cy="15" r="15"/><circle cx="231" cy="543" r="15"/><circle cx="285" cy="435" r="15"/><circle cx="285" cy="375" r="15"/><circle cx="177" cy="375" r="15"/><circle cx="69" cy="375" r="15"/><circle cx="285" cy="315" r="15"/><circle cx="177" cy="315" r="15"/><circle cx="69" cy="315" r="15"/><circle cx="15" cy="315" r="15"/><circle cx="285" cy="255" r="15"/><circle cx="177" cy="255" r="15"/><circle cx="69" cy="255" r="15"/><circle cx="285" cy="195" r="15"/><circle cx="177" cy="195" r="15"/><circle cx="15" cy="195" r="15"/><circle cx="285" cy="135" r="15"/><circle cx="177" cy="135" r="15"/><circle cx="285" cy="75" r="15"/><circle cx="177" cy="75" r="15"/><circle cx="69" cy="75" r="15"/><circle cx="285" cy="15" r="15"/><circle cx="177" cy="15" r="15"/><circle cx="285" cy="489" r="15"/><circle cx="285" cy="602" r="15"/><circle cx="285" cy="661" r="15"/></g></svg>