<svg width="181" height="82" fill="none" xmlns="http://www.w3.org/2000/svg"><path d="m14.76 16.909-.032-6.897 9.49-7.062-11.384 5.853L7 5.081 28.785 0l-5.104 17-7.15-5.4-1.77 5.309z" fill="#1A1A1B"/><path d="m16.011 16.336.891-3.54 1.68 1.745-2.57 1.795z" fill="#1A1A1B"/><path d="M36.86 4.53h-2.62v2.636h-1.942V4.53h-2.604V2.637h2.604V0h1.943v2.637h2.62v1.892zM14.66 16.632l-.034-6.784 9.366-6.947L12.758 8.66 7 4.998 28.5 0l-5.038 16.722-7.056-5.313-1.747 5.223z" fill="#0F8354"/><path d="m16.556 16.721.828-3.583 1.56 1.767-2.388 1.816zM126.44 15.696a4.388 4.388 0 0 1-2.773 1.025c-2.115 0-3.602-1.492-3.602-3.652V7.206h-1.645c-2.523 0-4.116.615-4.116 3.62v5.638h-3.391V4.636h3.391v1.287c1.492-1.44 2.313-1.44 4.116-1.44h1.645v-3.29h3.234v3.29h2.571v2.723h-2.571v5.3a1.227 1.227 0 0 0 1.132 1.335 1.504 1.504 0 0 0 1.132-.402l.877 2.257zM45.336 3.236V6.58h8.56v3.235h-8.56v3.67h9.44v3.236H41.639V0h13.139v3.236h-9.44z" fill="#0F8354"/><path d="M54.777 10.091c0-3.549 3.156-6.505 6.916-6.505a6.49 6.49 0 0 1 2.735.536c.86.375 1.626.931 2.242 1.63L64.27 7.74a3.682 3.682 0 0 0-1.185-.852 3.74 3.74 0 0 0-1.431-.33 3.601 3.601 0 0 0-2.447 1.092 3.473 3.473 0 0 0-.98 2.458c0 1.934 1.58 3.603 3.427 3.603a3.87 3.87 0 0 0 1.457-.33 3.81 3.81 0 0 0 1.215-.855l2.394 1.989a6.656 6.656 0 0 1-2.288 1.646 6.765 6.765 0 0 1-2.778.561c-3.705-.071-6.878-3.082-6.878-6.631zM66.72 10.126c0-3.569 3.286-6.542 7.2-6.542s7.133 2.96 7.133 6.542-3.29 6.597-7.133 6.597-7.2-3.028-7.2-6.597zm10.829 0a3.284 3.284 0 0 0-.223-1.37 3.425 3.425 0 0 0-.774-1.177 3.643 3.643 0 0 0-1.2-.791 3.804 3.804 0 0 0-2.864 0c-.452.184-.86.453-1.2.791-.34.339-.603.739-.774 1.177a3.286 3.286 0 0 0-.223 1.37c-.024.466.052.933.223 1.37.171.438.435.838.774 1.176.34.339.748.608 1.2.792a3.804 3.804 0 0 0 2.864 0c.452-.184.86-.453 1.2-.792.34-.338.603-.738.774-1.176.172-.437.247-.904.223-1.37z" fill="#0F8354"/><path d="M81.053 8.387C81.053 3.825 85.209 0 90.022 0a9.355 9.355 0 0 1 3.576.713 8.992 8.992 0 0 1 2.982 2.013l-2.626 2.255a5.122 5.122 0 0 0-1.751-1.336 5.362 5.362 0 0 0-2.181-.5c-2.845 0-5.252 2.41-5.252 5.189 0 2.78 2.407 5.243 5.252 5.243a5.445 5.445 0 0 0 2.177-.508 5.205 5.205 0 0 0 1.755-1.329l2.626 2.255a8.992 8.992 0 0 1-2.982 2.013 9.353 9.353 0 0 1-3.576.713c-4.814.053-8.97-3.775-8.97-8.334zM108.524 8.883v7.514h-3.088v-1.243c-.427.5-.944.897-1.519 1.167a4.187 4.187 0 0 1-1.82.401c-2.454 0-4.323-1.623-4.323-4 0-2.49 2.112-4.164 4.763-4.164a7.06 7.06 0 0 1 2.899.647v-.267c0-1.353-.737-2.49-2.652-2.49a5.617 5.617 0 0 0-2.956.922l-1.08-2.38a9.616 9.616 0 0 1 4.762-1.405c2.953-.055 5.014 2.055 5.014 5.298zm-3.142 3.569v-1.137a7.147 7.147 0 0 0-2.466-.478c-1.178 0-2.112.757-2.112 1.784 0 1.028.834 1.691 1.93 1.691 1.274-.093 2.451-.672 2.648-1.86zM132.428 0h7.134c3.444 0 5.989 2.34 5.989 5.653 0 3.314-2.545 5.654-5.989 5.654h-3.747v5.415h-3.403L132.428 0zm6.78 8.02c1.685 0 2.842-.926 2.842-2.367 0-1.44-1.157-2.36-2.842-2.36h-3.378V8.02h3.378zM146.745 0h3.583v16.722h-3.583V0zM163.466 4.777v11.671h-3.533v-1.47a4.379 4.379 0 0 1-1.648 1.312 4.712 4.712 0 0 1-2.116.429c-2.689 0-4.647-1.876-4.647-4.514V4.777h3.415v6.726c0 1.444.968 2.437 2.372 2.437.331.016.663-.03.975-.136.312-.106.598-.269.841-.479.244-.21.44-.464.577-.746.137-.282.212-.586.221-.896v.07-6.976h3.543zM164.661 14.829l1.533-2.455a7.123 7.123 0 0 0 4.198 1.408c.95 0 1.619-.389 1.619-.944 0-.777-.923-1.02-2.212-1.36-2.575-.631-4.566-1.338-4.587-3.815-.027-2.38 1.942-4.079 4.905-4.079a9.144 9.144 0 0 1 4.954 1.554l-1.436 2.525a7.115 7.115 0 0 0-3.518-1.117c-.874 0-1.484.319-1.484.756 0 .68.54.874 2.212 1.333 2.159.54 4.566 1.29 4.566 4.03 0 2.477-2.018 4.058-5.1 4.058a9.32 9.32 0 0 1-5.65-1.894zM18.742 69.836c-2.904 0-5.397-.499-7.48-1.496-2.082-1.027-3.783-2.361-5.103-4.004-1.32-1.672-2.303-3.461-2.948-5.368-.616-1.936-.924-3.813-.924-5.632v-.968c0-1.995.322-3.96.968-5.896a16.076 16.076 0 0 1 2.948-5.324c1.349-1.584 3.036-2.845 5.06-3.784 2.053-.968 4.473-1.452 7.26-1.452 2.904 0 5.47.543 7.7 1.628 2.229 1.085 4.004 2.596 5.324 4.532 1.349 1.907 2.14 4.15 2.375 6.732h-7.26c-.205-1.29-.674-2.39-1.407-3.3-.734-.91-1.687-1.613-2.86-2.112-1.145-.499-2.435-.748-3.872-.748-1.438 0-2.714.25-3.829.748a7.755 7.755 0 0 0-2.816 2.112c-.733.91-1.305 1.995-1.716 3.256-.38 1.232-.571 2.61-.571 4.136 0 1.496.19 2.875.572 4.136.41 1.232.997 2.317 1.76 3.256a8.073 8.073 0 0 0 2.903 2.112c1.144.47 2.45.704 3.916.704 2.23 0 4.107-.543 5.633-1.628 1.554-1.085 2.493-2.581 2.816-4.488h7.216a14.307 14.307 0 0 1-2.376 6.468c-1.291 1.936-3.066 3.49-5.325 4.664-2.229 1.144-4.883 1.716-7.963 1.716zm28.196-.088c-2.787 0-4.928-.895-6.424-2.684-1.496-1.819-2.244-4.547-2.244-8.184V44.888h7.04v14.344c0 1.29.367 2.317 1.1 3.08.733.763 1.716 1.144 2.948 1.144 1.261 0 2.288-.396 3.08-1.188.792-.792 1.188-1.863 1.188-3.212V44.888h7.04V69h-5.588V58.836h.484c0 2.435-.323 4.473-.968 6.116-.616 1.613-1.54 2.816-2.772 3.608-1.232.792-2.757 1.188-4.576 1.188h-.308zm29.371 0c-3.432 0-6.116-.704-8.052-2.112-1.936-1.408-2.962-3.388-3.08-5.94h6.248c.118.763.572 1.452 1.364 2.068.822.587 2.039.88 3.652.88 1.232 0 2.244-.205 3.036-.616.822-.44 1.232-1.056 1.232-1.848 0-.704-.308-1.261-.924-1.672-.616-.44-1.716-.748-3.3-.924l-1.892-.176c-2.904-.293-5.089-1.1-6.556-2.42-1.437-1.32-2.156-3.007-2.156-5.06 0-1.701.426-3.124 1.276-4.268.851-1.144 2.024-2.01 3.52-2.596 1.526-.587 3.256-.88 5.192-.88 3.11 0 5.618.69 7.524 2.068 1.907 1.35 2.904 3.315 2.992 5.896h-6.248c-.117-.792-.528-1.452-1.232-1.98-.704-.557-1.745-.836-3.124-.836-1.085 0-1.95.205-2.596.616-.645.41-.968.968-.968 1.672 0 .675.279 1.188.836 1.54.558.352 1.467.601 2.728.748l1.892.176c2.963.323 5.266 1.144 6.908 2.464 1.643 1.32 2.464 3.095 2.464 5.324 0 1.613-.44 3.021-1.32 4.224-.88 1.173-2.126 2.083-3.74 2.728-1.613.616-3.505.924-5.676.924zm26.254-.44c-2.435 0-4.4-.293-5.897-.88-1.495-.616-2.596-1.628-3.3-3.036-.674-1.437-1.011-3.373-1.011-5.808V38.376h6.555v21.472c0 1.144.294 2.024.88 2.64.617.587 1.482.88 2.597.88h3.564v5.94h-3.388zm-13.86-19.272v-5.148h17.248v5.148H88.703zm33.644 19.8c-2.112 0-3.99-.323-5.632-.968-1.643-.675-3.036-1.584-4.18-2.728a11.874 11.874 0 0 1-2.552-3.916 12.774 12.774 0 0 1-.88-4.708v-1.012c0-1.672.293-3.256.88-4.752a11.905 11.905 0 0 1 2.64-4.004c1.173-1.144 2.581-2.039 4.224-2.684 1.642-.675 3.476-1.012 5.5-1.012 2.082 0 3.93.337 5.544 1.012 1.642.645 3.036 1.54 4.18 2.684a11.905 11.905 0 0 1 2.64 4.004c.616 1.496.924 3.08.924 4.752v1.012c0 1.643-.294 3.212-.88 4.708a11.571 11.571 0 0 1-2.596 3.916c-1.115 1.144-2.494 2.053-4.136 2.728-1.643.645-3.535.968-5.676.968zm0-5.94c1.378 0 2.522-.293 3.432-.88.909-.587 1.598-1.408 2.068-2.464.498-1.056.748-2.23.748-3.52 0-1.379-.25-2.581-.748-3.608-.499-1.056-1.218-1.892-2.156-2.508-.91-.616-2.024-.924-3.344-.924-1.291 0-2.406.308-3.344.924-.939.616-1.658 1.452-2.156 2.508-.47 1.027-.704 2.23-.704 3.608 0 1.29.234 2.464.704 3.52.469 1.056 1.173 1.877 2.112 2.464.938.587 2.068.88 3.388.88zM140.548 69V44.888h5.588v10.384h-.396c0-2.464.308-4.517.924-6.16.616-1.643 1.54-2.875 2.772-3.696 1.232-.85 2.743-1.276 4.532-1.276h.308c1.819 0 3.329.425 4.532 1.276 1.232.821 2.156 2.053 2.772 3.696.645 1.643.968 3.696.968 6.16h-1.716c0-2.464.308-4.517.924-6.16.645-1.643 1.584-2.875 2.816-3.696 1.232-.85 2.743-1.276 4.532-1.276h.308c1.819 0 3.344.425 4.576 1.276 1.261.821 2.215 2.053 2.86 3.696.645 1.643.968 3.696.968 6.16V69h-7.04V54.876c0-1.32-.352-2.39-1.056-3.212-.675-.821-1.643-1.232-2.904-1.232s-2.259.425-2.992 1.276c-.733.821-1.1 1.921-1.1 3.3V69h-7.084V54.876c0-1.32-.352-2.39-1.056-3.212-.675-.821-1.628-1.232-2.86-1.232-1.291 0-2.303.425-3.036 1.276-.733.821-1.1 1.921-1.1 3.3V69h-7.04z" fill="#0F8354"/></svg>