<svg width="166" height="80" fill="none" xmlns="http://www.w3.org/2000/svg"><path d="m7.729 16.838-.033-6.867 9.45-7.034L5.81 8.767 0 5.06 21.695 0l-5.083 16.93-7.12-5.379-1.763 5.287z" fill="#1A1A1B"/><path d="m8.974 16.268.887-3.525 1.672 1.738-2.56 1.787zM109.553 15.82a4.425 4.425 0 0 1-2.818 1.056c-2.149 0-3.661-1.535-3.661-3.757V7.087h-1.672c-2.564 0-4.183.633-4.183 3.724v5.8h-3.447V4.444h3.447v1.323c1.516-1.48 2.35-1.48 4.183-1.48h1.672V.901h3.287v3.384h2.613v2.801h-2.613v5.453a1.267 1.267 0 0 0 .677 1.237c.147.077.308.123.473.137a1.513 1.513 0 0 0 1.151-.414l.891 2.32zM29.534 3.437v3.281h8.102v3.173h-8.102v3.6h8.937v3.173H26.033V.264h12.438v3.173h-8.937zM39.033 10.475c0-3.492 3.028-6.4 6.636-6.4.903-.02 1.798.16 2.624.528.825.368 1.56.915 2.15 1.603l-2.3 1.957A3.534 3.534 0 0 0 45.631 7a3.417 3.417 0 0 0-2.348 1.074 3.464 3.464 0 0 0-.94 2.418c0 1.903 1.517 3.545 3.288 3.545a3.637 3.637 0 0 0 2.564-1.166l2.297 1.957a6.391 6.391 0 0 1-2.196 1.619 6.351 6.351 0 0 1-2.665.553c-3.554-.07-6.599-3.033-6.599-6.525zM50.982 10.475c0-3.492 3.029-6.4 6.636-6.4 3.608 0 6.574 2.896 6.574 6.4 0 3.504-3.032 6.454-6.574 6.454s-6.636-2.962-6.636-6.454zm9.98 0a3.393 3.393 0 0 0-.918-2.491 3.348 3.348 0 0 0-2.426-1.048 3.33 3.33 0 0 0-2.426 1.048 3.375 3.375 0 0 0-.918 2.49 3.393 3.393 0 0 0 .918 2.492 3.347 3.347 0 0 0 2.426 1.048 3.328 3.328 0 0 0 2.426-1.048 3.377 3.377 0 0 0 .919-2.491zM65.08 8.465C65.08 3.86 69.053 0 73.655 0a8.537 8.537 0 0 1 3.418.72 8.588 8.588 0 0 1 2.852 2.031l-2.51 2.276a4.936 4.936 0 0 0-1.675-1.349 4.903 4.903 0 0 0-2.085-.505c-2.72 0-5.021 2.433-5.021 5.238 0 2.805 2.3 5.291 5.02 5.291a4.983 4.983 0 0 0 3.76-1.853l2.51 2.275a8.587 8.587 0 0 1-2.85 2.032 8.538 8.538 0 0 1-3.42.72c-4.601.053-8.574-3.81-8.574-8.411zM92.255 9.258v7.352h-3.287v-1.216a4.786 4.786 0 0 1-3.554 1.535c-2.613 0-4.602-1.59-4.602-3.914 0-2.437 2.248-4.075 5.07-4.075a8.075 8.075 0 0 1 3.086.633v-.26c0-1.325-.785-2.438-2.823-2.438a6.352 6.352 0 0 0-3.147.902l-1.15-2.33a10.905 10.905 0 0 1 5.07-1.373c3.143-.053 5.337 2.011 5.337 5.184zm-3.344 3.492v-1.113a8.196 8.196 0 0 0-2.626-.467c-1.253 0-2.248.74-2.248 1.746 0 1.005.888 1.654 2.055 1.654 1.356-.09 2.609-.657 2.819-1.82z" fill="#1A1A1B"/><path d="M117.693 17.142c-.66 0-1.294-.087-1.899-.26-.606-.18-1.094-.413-1.464-.696l.649-1.44c.354.252.771.46 1.251.626.488.157.98.236 1.475.236.378 0 .681-.036.909-.107.236-.078.409-.184.519-.318a.704.704 0 0 0 .165-.46.607.607 0 0 0-.259-.52 1.983 1.983 0 0 0-.685-.318 10.33 10.33 0 0 0-.944-.236c-.338-.079-.68-.173-1.026-.283a4.386 4.386 0 0 1-.933-.425 2.145 2.145 0 0 1-.696-.685c-.173-.283-.259-.645-.259-1.085 0-.472.125-.9.377-1.286.26-.394.645-.704 1.157-.933.519-.236 1.168-.354 1.947-.354.519 0 1.03.063 1.534.19.503.117.948.298 1.333.542l-.59 1.451a4.826 4.826 0 0 0-1.156-.483 4.116 4.116 0 0 0-1.133-.166c-.37 0-.673.044-.909.13-.236.087-.405.2-.507.342a.757.757 0 0 0-.154.472c0 .213.087.386.26.52.173.126.401.228.684.306.284.08.594.158.933.236.346.08.688.17 1.026.272.346.102.661.24.944.413.283.173.512.401.685.684.181.283.271.641.271 1.074 0 .464-.13.889-.389 1.274-.26.386-.649.697-1.169.933-.511.236-1.16.354-1.947.354zm6.569-.048c-.747 0-1.329-.188-1.746-.566-.417-.386-.625-.956-.625-1.711v-5.57h1.84v5.546c0 .268.071.476.213.626.141.141.334.212.578.212.291 0 .539-.079.743-.236l.496 1.298a2.11 2.11 0 0 1-.684.307 3.45 3.45 0 0 1-.815.094zm-3.351-4.885v-1.416h4.402v1.416h-4.402zM129.98 17v-1.239l-.118-.271V13.27c0-.393-.122-.7-.365-.92-.236-.22-.602-.33-1.098-.33-.338 0-.672.054-1.003.165a2.565 2.565 0 0 0-.826.424l-.661-1.286a3.976 3.976 0 0 1 1.251-.566 5.6 5.6 0 0 1 1.487-.2c.968 0 1.719.227 2.254.684.535.456.802 1.168.802 2.135V17h-1.723zm-1.935.094c-.495 0-.92-.082-1.274-.247a1.97 1.97 0 0 1-.814-.697 1.76 1.76 0 0 1-.284-.979 1.8 1.8 0 0 1 .272-.991c.189-.283.484-.504.885-.661.401-.165.924-.248 1.569-.248h1.688v1.074H128.6c-.433 0-.732.07-.897.212a.686.686 0 0 0-.236.531c0 .236.09.425.271.567.189.134.445.2.767.2.307 0 .582-.07.826-.212a1.28 1.28 0 0 0 .531-.649l.284.85c-.134.409-.378.72-.732.932-.354.212-.81.318-1.369.318zm8.475-6.537c.503 0 .952.102 1.345.307.401.197.716.503.944.92.228.41.342.936.342 1.582V17h-1.841v-3.351c0-.511-.114-.89-.342-1.133-.22-.244-.535-.366-.944-.366a1.65 1.65 0 0 0-.79.189c-.229.118-.41.303-.543.555-.126.251-.189.574-.189.967V17h-1.841v-6.348h1.758v1.758l-.33-.531c.228-.425.555-.752.979-.98a3.022 3.022 0 0 1 1.452-.342zm6.364 6.537a3.264 3.264 0 0 1-1.617-.4 3.08 3.08 0 0 1-1.145-1.145c-.275-.488-.413-1.062-.413-1.723 0-.669.138-1.247.413-1.735a2.993 2.993 0 0 1 1.145-1.133 3.264 3.264 0 0 1 1.617-.4c.535 0 1.003.117 1.404.353s.712.594.932 1.074c.22.48.33 1.094.33 1.84 0 .74-.106 1.354-.318 1.842-.213.48-.519.837-.921 1.073-.393.236-.869.354-1.427.354zm.318-1.51c.299 0 .571-.07.814-.212.244-.142.437-.343.579-.602a1.91 1.91 0 0 0 .224-.944c0-.37-.075-.685-.224-.944a1.526 1.526 0 0 0-.579-.602 1.589 1.589 0 0 0-.814-.212c-.307 0-.582.07-.826.212s-.44.342-.59.602c-.141.26-.212.574-.212.944 0 .362.071.676.212.944.15.26.346.46.59.602.244.141.519.212.826.212zM144.866 17v-1.298l.035-1.888-.118-1.876V8.244h1.841V17h-1.758zm6.648 0v-1.239l-.118-.271V13.27c0-.393-.122-.7-.366-.92-.236-.22-.602-.33-1.097-.33-.339 0-.673.054-1.003.165a2.555 2.555 0 0 0-.826.424l-.661-1.286a3.976 3.976 0 0 1 1.251-.566c.487-.134.983-.2 1.487-.2.967 0 1.718.227 2.253.684.535.456.803 1.168.803 2.135V17h-1.723zm-1.935.094c-.496 0-.921-.082-1.275-.247a1.977 1.977 0 0 1-.814-.697 1.76 1.76 0 0 1-.283-.979c0-.378.09-.708.271-.991.189-.283.484-.504.885-.661.402-.165.925-.248 1.57-.248h1.687v1.074h-1.487c-.432 0-.731.07-.896.212a.683.683 0 0 0-.236.531c0 .236.09.425.271.567.189.134.444.2.767.2.307 0 .582-.07.826-.212a1.28 1.28 0 0 0 .531-.649l.283.85c-.134.409-.377.72-.731.932-.354.212-.811.318-1.369.318zm4.616-.094v-6.348h1.758v1.793l-.248-.519c.189-.448.492-.787.909-1.015.417-.236.924-.354 1.522-.354v1.7a2.158 2.158 0 0 0-.212-.012 1.618 1.618 0 0 0-.201-.012c-.504 0-.913.145-1.227.436-.307.284-.46.728-.46 1.334V17h-1.841zm7.007.094a3.258 3.258 0 0 1-1.616-.4 3.072 3.072 0 0 1-1.145-1.145c-.275-.488-.413-1.062-.413-1.723 0-.669.138-1.247.413-1.735a2.986 2.986 0 0 1 1.145-1.133 3.258 3.258 0 0 1 1.616-.4c.535 0 1.003.117 1.404.353.402.236.712.594.933 1.074.22.48.33 1.094.33 1.84 0 .74-.106 1.354-.319 1.842-.212.48-.519.837-.92 1.073-.393.236-.869.354-1.428.354zm.319-1.51c.299 0 .57-.07.814-.212s.437-.343.578-.602c.15-.268.224-.582.224-.944 0-.37-.074-.685-.224-.944a1.517 1.517 0 0 0-.578-.602 1.591 1.591 0 0 0-.814-.212c-.307 0-.582.07-.826.212a1.602 1.602 0 0 0-.59.602c-.142.26-.213.574-.213.944 0 .362.071.676.213.944.149.26.346.46.59.602.244.141.519.212.826.212zM163.185 17v-1.298l.035-1.888-.118-1.876V8.244h1.841V17h-1.758z" fill="#1A1A1B" fill-opacity=".5"/><path d="M37.774 67V34.88h7.216V67h-7.216zm6.336-12.936V48.08h12.408v5.984H44.11zm0-13.2V34.88h12.936v5.984H44.11zM61.741 67V42.888h5.588v10.34h-.132c0-3.403.719-6.028 2.156-7.876 1.467-1.848 3.579-2.772 6.336-2.772h.924v6.072h-1.76c-1.936 0-3.432.528-4.488 1.584-1.056 1.027-1.584 2.523-1.584 4.488V67h-7.04zm29.435.836c-2.053 0-3.872-.352-5.456-1.056-1.555-.704-2.86-1.643-3.916-2.816a13.526 13.526 0 0 1-2.376-4.004 13.656 13.656 0 0 1-.792-4.576v-.88c0-1.613.264-3.153.792-4.62a12.823 12.823 0 0 1 2.376-4.004c1.027-1.173 2.303-2.097 3.828-2.772 1.555-.704 3.315-1.056 5.28-1.056 2.581 0 4.752.587 6.512 1.76a11.281 11.281 0 0 1 4.092 4.532c.939 1.848 1.408 3.872 1.408 6.072v2.376h-21.34v-4.004h17.072l-2.288 1.848c0-1.437-.205-2.67-.616-3.696-.41-1.027-1.027-1.804-1.848-2.332-.792-.557-1.79-.836-2.992-.836-1.232 0-2.273.279-3.124.836-.85.557-1.496 1.379-1.936 2.464-.44 1.056-.66 2.361-.66 3.916 0 1.437.205 2.699.616 3.784.41 1.056 1.056 1.877 1.936 2.464.88.587 2.024.88 3.432.88 1.29 0 2.347-.25 3.168-.748.821-.499 1.379-1.115 1.672-1.848h6.468a10.162 10.162 0 0 1-2.068 4.312c-1.027 1.261-2.317 2.244-3.872 2.948-1.555.704-3.344 1.056-5.368 1.056zm27.457 0c-2.053 0-3.872-.352-5.456-1.056-1.555-.704-2.86-1.643-3.916-2.816a13.509 13.509 0 0 1-2.376-4.004 13.656 13.656 0 0 1-.792-4.576v-.88c0-1.613.264-3.153.792-4.62a12.808 12.808 0 0 1 2.376-4.004c1.027-1.173 2.303-2.097 3.828-2.772 1.555-.704 3.315-1.056 5.28-1.056 2.581 0 4.752.587 6.512 1.76a11.284 11.284 0 0 1 4.092 4.532c.939 1.848 1.408 3.872 1.408 6.072v2.376h-21.34v-4.004h17.072l-2.288 1.848c0-1.437-.205-2.67-.616-3.696-.411-1.027-1.027-1.804-1.848-2.332-.792-.557-1.789-.836-2.992-.836-1.232 0-2.273.279-3.124.836-.851.557-1.496 1.379-1.936 2.464-.44 1.056-.66 2.361-.66 3.916 0 1.437.205 2.699.616 3.784.411 1.056 1.056 1.877 1.936 2.464.88.587 2.024.88 3.432.88 1.291 0 2.347-.25 3.168-.748.821-.499 1.379-1.115 1.672-1.848h6.468a10.162 10.162 0 0 1-2.068 4.312c-1.027 1.261-2.317 2.244-3.872 2.948-1.555.704-3.344 1.056-5.368 1.056z" fill="#1A1A1B"/></svg>