<svg width="434" height="564" fill="none" xmlns="http://www.w3.org/2000/svg"><g filter="url(#a)"><g clip-path="url(#b)"><rect x="103" y="32" width="227" height="491.531" rx="18" fill="#F9F9F9"/><g filter="url(#c)"><path fill="#FFFFFE" d="M103 229h217.315v158H103z"/><path d="m122.008 241.107 1.549 4.768h5.014l-4.056 2.947 1.549 4.769-4.056-2.947-4.057 2.947 1.55-4.769-4.057-2.947h5.014l1.55-4.768zM139.057 241.107l1.549 4.768h5.014l-4.056 2.947 1.549 4.769-4.056-2.947-4.056 2.947 1.549-4.769-4.056-2.947h5.014l1.549-4.768zM156.107 241.107l1.549 4.768h5.014l-4.056 2.947 1.549 4.769-4.056-2.947-4.057 2.947 1.55-4.769-4.056-2.947h5.013l1.55-4.768zM173.156 241.107l1.55 4.768h5.013l-4.056 2.947 1.549 4.769-4.056-2.947-4.056 2.947 1.549-4.769-4.056-2.947h5.014l1.549-4.768zM190.206 241.107l1.549 4.768h5.014l-4.056 2.947 1.549 4.769-4.056-2.947-4.056 2.947 1.549-4.769-4.056-2.947h5.014l1.549-4.768z" fill="#727C81"/><rect x="115.107" y="267.015" width="193.101" height="6.659" rx="1.816" fill="#F1F1F1"/><rect x="115.107" y="279.122" width="174.941" height="6.659" rx="1.816" fill="#F1F1F1"/><rect x="115.107" y="291.229" width="193.101" height="6.659" rx="1.816" fill="#F1F1F1"/><rect opacity=".4" x="115.107" y="303.335" width="148.307" height="6.659" rx="1.816" fill="#F1F1F1"/></g><g filter="url(#d)"><path fill="#FFFFFE" d="M103 404h227v41.163H103z"/><g opacity=".5" fill="#EAEAEA"><rect opacity=".4" x="119.344" y="415.199" width="96.248" height="6.659" rx="1.816"/><rect opacity=".4" x="119.344" y="427.305" width="43.584" height="6.659" rx="1.816"/></g><rect x="227.093" y="410.053" width="88.481" height="29.056" rx="4.843" fill="#727C81"/><path d="M248.28 427.436h3.421c.908 0 1.617-.218 2.125-.654.516-.443.774-1.053.774-1.83a2.55 2.55 0 0 0-.218-1.046c-.146-.327-.4-.607-.763-.839a1.87 1.87 0 0 0 .49-.676 1.92 1.92 0 0 0 .164-.784c0-.712-.229-1.271-.687-1.678-.457-.407-1.086-.61-1.885-.61h-3.421v8.117zm1.482-4.968v-1.886h2.016c.305 0 .548.084.73.251.181.167.272.392.272.676a.947.947 0 0 1-.272.697c-.182.174-.425.262-.73.262h-2.016zm0 3.661v-2.365h2.092c.385 0 .69.109.915.327.233.211.349.498.349.861 0 .356-.116.643-.349.861-.225.21-.53.316-.915.316h-2.092zM257.808 427.567c.37 0 .697-.069.98-.207.291-.145.52-.356.687-.632v.708h1.351v-5.927h-1.428v3.475c0 .393-.112.705-.337.938-.226.225-.513.337-.861.337-.356 0-.647-.112-.872-.337-.218-.226-.327-.527-.327-.905v-3.508h-1.427v3.628c0 .726.196 1.315.588 1.765.4.443.948.665 1.646.665zM262.872 429.844c.559 0 1.024-.16 1.394-.479.378-.313.68-.756.905-1.33l2.582-6.526h-1.547l-1.526 4.086-1.536-4.086h-1.536l2.342 5.927-.13.316a2.124 2.124 0 0 1-.403.599c-.146.153-.382.229-.709.229-.116 0-.239-.011-.37-.033a2.092 2.092 0 0 1-.349-.065v1.199c.124.058.262.098.414.12.153.029.309.043.469.043zM270.593 427.436h1.482v-5.306l3.857 5.306h1.166v-8.117h-1.482v5.208l-3.868-5.208h-1.155v8.117zM281.448 427.567c.574 0 1.097-.131 1.569-.392.472-.269.85-.636 1.133-1.101a3.046 3.046 0 0 0 .425-1.602c0-.595-.141-1.126-.425-1.59a3.024 3.024 0 0 0-1.122-1.101 3.135 3.135 0 0 0-1.58-.403 3.107 3.107 0 0 0-2.724 1.504c-.276.464-.414.995-.414 1.59 0 .596.138 1.126.414 1.591a3.107 3.107 0 0 0 2.724 1.504zm0-1.308c-.32 0-.606-.076-.861-.229a1.642 1.642 0 0 1-.588-.631 2.047 2.047 0 0 1-.207-.927c0-.341.069-.646.207-.915.145-.269.341-.479.588-.632.255-.16.541-.24.861-.24.32 0 .599.08.839.24.247.153.44.363.578.632.145.269.218.574.218.915 0 .342-.073.65-.218.927a1.567 1.567 0 0 1-.578.631c-.24.153-.519.229-.839.229zM287.044 427.436h1.264l1.395-3.999 1.373 3.999h1.274l2.038-5.927h-1.504l-1.242 3.726-1.307-3.726h-1.264l-1.319 3.737-1.242-3.737h-1.503l2.037 5.927z" fill="#FFFFFE"/></g><path opacity=".35" d="M225.658 38.654h4.833c.724 0 1.311.587 1.311 1.312v.924c0 .724-.587 1.312-1.311 1.312h-4.833a1.312 1.312 0 0 1-1.312-1.312v-.924c0-.725.587-1.312 1.312-1.312z" stroke="#212529" stroke-width=".605"/><path opacity=".4" d="M232.471 39.695v1.466a.795.795 0 0 0 0-1.466" fill="#212529"/><path d="M224.776 39.891c0-.445.362-.807.808-.807h4.981c.446 0 .807.362.807.807v1.073a.807.807 0 0 1-.807.807h-4.981a.808.808 0 0 1-.808-.807v-1.073z" fill="#212529"/><path fill-rule="evenodd" clip-rule="evenodd" d="M219.401 39.185c.812 0 1.593.312 2.181.871a.113.113 0 0 0 .159 0l.424-.428a.119.119 0 0 0-.001-.167 3.993 3.993 0 0 0-5.526 0 .118.118 0 0 0-.001.167l.424.427a.112.112 0 0 0 .158.001 3.168 3.168 0 0 1 2.182-.871zm0 1.39a1.8 1.8 0 0 1 1.207.466.114.114 0 0 0 .159-.002l.423-.428a.116.116 0 0 0 .034-.084.116.116 0 0 0-.036-.084 2.623 2.623 0 0 0-3.573 0 .116.116 0 0 0-.036.084.116.116 0 0 0 .034.084l.423.428a.114.114 0 0 0 .159.002c.33-.3.76-.465 1.206-.465zm.848.937a.116.116 0 0 1-.035.084l-.732.739a.114.114 0 0 1-.162 0l-.732-.739a.117.117 0 0 1-.035-.084.118.118 0 0 1 .038-.083 1.254 1.254 0 0 1 1.62 0 .119.119 0 0 1 .038.083zM214.394 38.474h-.366a.366.366 0 0 0-.367.366v3.176c0 .202.164.366.367.366h.366a.366.366 0 0 0 .367-.366V38.84a.366.366 0 0 0-.367-.366zm-2.076.855h.366c.203 0 .367.164.367.366v2.32a.366.366 0 0 1-.367.367h-.366a.366.366 0 0 1-.367-.366v-2.321c0-.202.164-.366.367-.366zm-1.344.855h-.366a.366.366 0 0 0-.367.366v1.466c0 .202.164.366.367.366h.366a.366.366 0 0 0 .367-.366V40.55a.366.366 0 0 0-.367-.366zm-1.71.732h-.366a.367.367 0 0 0-.367.367v.733c0 .202.164.366.367.366h.366a.366.366 0 0 0 .367-.366v-.733a.367.367 0 0 0-.367-.367z" fill="#212529"/><path d="M113.473 34.356c.358 0 .675.06.954.182.284.121.523.306.717.554.194.248.342.566.445.953.103.388.154.845.154 1.371v.273c0 1.138-.233 2.003-.699 2.597-.466.587-1.204.88-2.215.88a6.74 6.74 0 0 1-.481-.018 5.294 5.294 0 0 1-.509-.063v-.273c.176.03.354.052.536.064.181.012.342.018.481.018.605 0 1.102-.124 1.489-.372.394-.248.681-.612.863-1.09.187-.484.281-1.071.281-1.762v-1.116h.109a2.614 2.614 0 0 1-.254 1.126c-.157.333-.397.599-.717.799-.315.193-.706.29-1.172.29-.472 0-.871-.1-1.198-.3a2.008 2.008 0 0 1-.736-.79 2.444 2.444 0 0 1-.245-1.089c0-.394.082-.76.245-1.099.164-.339.409-.611.736-.817.327-.212.732-.318 1.216-.318zm0 .273c-.423 0-.777.09-1.062.272-.278.182-.49.42-.635.717-.14.297-.209.62-.209.972 0 .351.069.672.209.962.139.285.348.515.626.69.285.17.642.255 1.071.255.418 0 .769-.085 1.054-.254.284-.17.499-.4.644-.69.146-.291.218-.618.218-.981 0-.315-.072-.62-.218-.917a1.736 1.736 0 0 0-.635-.736c-.285-.193-.639-.29-1.063-.29zm3.801 6.501v-.49h.436v.49h-.436zm0-3.541v-.49h.436v.49h-.436zm1.698 1.725v-.418l2.942-4.449.2.164-2.888 4.358.064.09h4.385v.255h-4.703zm3.468 1.816v-4.613h.291v4.613h-.291zm3.436 0v-6.447l.091.091h-1.671v-.272h1.87v6.628h-.29zM122.341 93.206a.454.454 0 1 1 .629.654l-5.008 4.818h11.351a.454.454 0 1 1 0 .908h-11.351l5.008 4.818a.454.454 0 1 1-.629.654l-5.707-5.49a.605.605 0 0 1 0-.873l5.707-5.49zM146.487 103.107v-2.516h-.327l-1.934-4.113h1.526l1.353 2.997h.29l1.217-2.997h1.444l-1.78 4.113h-.327v2.516h-1.462zm6.043.172c-.581 0-1.077-.118-1.489-.354a2.436 2.436 0 0 1-.926-.926 2.588 2.588 0 0 1-.318-1.262v-.209c0-.466.109-.893.327-1.28.224-.394.539-.706.945-.936.411-.236.898-.354 1.461-.354.563 0 1.051.118 1.462.354.412.23.727.542.945.936.224.387.336.814.336 1.28v.209c0 .454-.109.874-.327 1.262-.212.381-.521.69-.926.926-.406.236-.902.354-1.49.354zm0-1.226c.418 0 .736-.133.954-.399.224-.273.336-.612.336-1.017 0-.418-.115-.763-.345-1.035-.224-.279-.539-.418-.945-.418-.405 0-.72.14-.944.418-.224.272-.336.617-.336 1.035 0 .405.109.744.327 1.017.218.266.536.399.953.399zm5.255 1.208c-.575 0-1.017-.185-1.326-.554-.309-.369-.463-.932-.463-1.689v-2.887h1.453v2.96c0 .266.075.478.227.635.151.158.354.237.608.237a.86.86 0 0 0 .636-.246c.163-.163.245-.384.245-.662v-2.924h1.453v4.976h-1.153v-1.163c-.206.878-.745 1.317-1.617 1.317h-.063zm3.991-.154v-4.976h1.153v1.689c.054-.563.227-.996.517-1.299.297-.302.7-.454 1.208-.454h.191v1.253h-.363c-.406 0-.718.11-.936.327-.212.218-.318.527-.318.926v2.534h-1.452zm5.446.045v-6.728h2.488c.763 0 1.347.16 1.753.481.411.32.617.778.617 1.371v.136c0 .303-.057.56-.172.772a1.387 1.387 0 0 1-.463.509c.278.127.499.308.662.544.164.236.246.539.246.908v.127c0 .6-.203 1.063-.609 1.39-.405.327-.996.49-1.77.49h-2.752zm2.579-5.566h-1.126v1.616h1.126c.279 0 .481-.072.608-.218.134-.145.2-.339.2-.58 0-.255-.066-.455-.2-.6-.127-.145-.329-.218-.608-.218zm.245 2.742h-1.371v1.662h1.371c.279 0 .488-.07.627-.209.139-.145.209-.354.209-.627 0-.55-.279-.826-.836-.826zm3.2 2.779v-4.976h1.153v1.689c.055-.563.227-.996.518-1.299.296-.302.699-.454 1.207-.454h.191v1.253h-.363c-.406 0-.718.11-.935.327-.212.218-.318.527-.318.926v2.534h-1.453zm5.03.127c-.539 0-.975-.139-1.308-.418-.326-.278-.49-.672-.49-1.18 0-.364.094-.66.282-.89.187-.236.451-.409.79-.518a3.64 3.64 0 0 1 1.171-.172h.899v-.018c0-.509-.254-.763-.763-.763-.133 0-.309.006-.527.018-.217.006-.444.015-.681.027-.23.006-.435.015-.617.028v-1.226c.212-.018.472-.034.781-.046.309-.018.593-.027.853-.027.763 0 1.344.163 1.744.49.405.321.608.827.608 1.517v3.051h-1.153v-.936a1.447 1.447 0 0 1-.563.79c-.266.182-.608.273-1.026.273zm.436-1.008a.992.992 0 0 0 .617-.2c.176-.133.273-.387.291-.763v-.399h-.908c-.254 0-.451.063-.59.191a.655.655 0 0 0-.2.499c0 .2.066.363.2.49.139.121.336.182.59.182zm3.357.881v-4.976h1.153v1.271c.2-.95.76-1.425 1.68-1.425h.064c.575 0 1.017.19 1.325.572.309.375.463.947.463 1.716v2.842h-1.452v-2.924a.925.925 0 0 0-.236-.654c-.158-.17-.37-.254-.636-.254a.882.882 0 0 0-.663.263c-.163.17-.245.394-.245.672v2.897h-1.453zm7.794.163c-.466 0-.878-.109-1.235-.327a2.337 2.337 0 0 1-.826-.908c-.2-.381-.3-.811-.3-1.289v-.209c0-.478.094-.911.282-1.298a2.22 2.22 0 0 1 .799-.918 2.227 2.227 0 0 1 1.225-.335c.727 0 1.263.275 1.608.826v-2.334h1.461v6.629h-1.153v-1.045c-.163.394-.405.694-.726.899-.321.206-.699.309-1.135.309zm.363-1.217c.333 0 .621-.112.863-.336.242-.224.363-.541.363-.953v-.336c0-.26-.058-.481-.173-.663a1.136 1.136 0 0 0-.454-.427 1.303 1.303 0 0 0-.608-.145c-.369 0-.672.133-.908.4-.236.266-.354.614-.354 1.044 0 .436.118.781.354 1.035.242.254.548.381.917.381zM289.867 103.107v-5.648l.4.309h-1.698v-1.29h2.778v6.629h-1.48z" fill="#212529"/><g clip-path="url(#e)"><path d="M312.759 95.167a.562.562 0 0 0-.45-.21h-10.53l-.18-1.065a.582.582 0 0 0-.585-.48h-1.785c-.33 0-.585.27-.585.585 0 .315.27.585.585.585h1.275l1.545 8.775c.045.285.3.48.585.48h.705c-.33.18-.555.525-.555.93 0 .585.465 1.05 1.05 1.05s1.05-.465 1.05-1.05c0-.405-.225-.75-.555-.93h4.65c-.33.18-.555.525-.555.93 0 .585.465 1.05 1.05 1.05s1.05-.465 1.05-1.05c0-.405-.225-.75-.555-.93h.615a.586.586 0 0 0 0-1.17h-7.47l-.18-1.005h8.4c.285 0 .525-.21.585-.48l.96-5.52a.636.636 0 0 0-.12-.495z" fill="#15E682"/></g><rect x="115" y="59" width="202" height="20" rx="10" fill="#EEECEC"/><path d="M184.237 65.544h1.02l1.854 3.103 1.855-3.103h1.024l-2.439 3.854V72h-.875v-2.602l-2.439-3.854zm7.62 5.946c.525 0 .884-.197 1.077-.593.196-.398.294-.84.294-1.327 0-.44-.07-.797-.211-1.072-.222-.434-.606-.65-1.151-.65-.483 0-.835.184-1.055.553-.219.369-.329.814-.329 1.336 0 .5.11.918.329 1.252.22.334.569.501 1.046.501zm.031-4.333c.607 0 1.119.202 1.538.607.419.404.629.999.629 1.784 0 .759-.185 1.386-.554 1.88-.369.496-.942.743-1.718.743-.648 0-1.162-.218-1.543-.654-.381-.44-.571-1.029-.571-1.767 0-.791.201-1.42.602-1.89.401-.468.94-.703 1.617-.703zm4.082.136v3.125c0 .24.039.436.115.589.14.281.403.422.786.422.551 0 .926-.246 1.125-.739.109-.263.163-.625.163-1.085v-2.312h.791V72h-.747l.009-.694c-.103.178-.23.33-.383.452-.301.246-.668.37-1.098.37-.671 0-1.128-.225-1.371-.673-.132-.24-.198-.561-.198-.962v-3.2h.808zm4.421 0h.752v.813c.061-.158.212-.35.452-.575a1.17 1.17 0 0 1 .906-.339l.18.018v.835a1.192 1.192 0 0 0-.26-.022c-.398 0-.704.129-.918.387-.214.255-.321.549-.321.883V72h-.791v-4.707zm5.686.98c.37 0 .657-.05.862-.153.322-.162.483-.452.483-.87 0-.422-.171-.707-.514-.853-.193-.082-.48-.123-.861-.123h-1.56v2h1.59zm.295 2.98c.536 0 .918-.155 1.147-.466.143-.196.215-.434.215-.712 0-.469-.209-.788-.628-.958-.223-.09-.517-.136-.883-.136h-1.736v2.272h1.885zm-2.742-5.709h2.773c.756 0 1.293.226 1.612.677.188.267.282.574.282.923 0 .407-.116.741-.347 1.002a1.704 1.704 0 0 1-.519.378c.331.126.579.268.743.426.29.281.435.67.435 1.165 0 .416-.131.792-.391 1.13-.39.503-1.01.755-1.859.755h-2.729v-6.456zm6.121 1.75h.752v.812c.061-.158.212-.35.452-.575a1.17 1.17 0 0 1 .906-.339l.18.018v.835a1.192 1.192 0 0 0-.26-.022c-.398 0-.704.129-.918.387-.214.255-.321.549-.321.883V72h-.791v-4.707zm3.762 3.454c0 .228.083.408.25.54a.93.93 0 0 0 .593.198c.279 0 .548-.065.809-.194.439-.213.659-.564.659-1.05v-.637a1.345 1.345 0 0 1-.373.154c-.153.04-.302.07-.449.088l-.479.061c-.287.038-.502.098-.646.18-.243.138-.364.358-.364.66zm1.916-1.6c.181-.023.303-.1.364-.229a.683.683 0 0 0 .053-.303c0-.27-.096-.464-.29-.584-.19-.123-.464-.185-.822-.185-.413 0-.706.112-.879.334-.096.123-.159.306-.188.55h-.739c.015-.58.202-.983.563-1.209a2.316 2.316 0 0 1 1.261-.343c.554 0 1.003.106 1.349.317.343.21.514.539.514.984v2.711c0 .082.016.148.049.198.035.05.107.075.215.075.035 0 .075-.002.119-.004l.14-.022v.584a2.229 2.229 0 0 1-.281.066 2.057 2.057 0 0 1-.264.013c-.272 0-.47-.097-.593-.29a1.12 1.12 0 0 1-.136-.435c-.161.21-.393.394-.695.55a2.144 2.144 0 0 1-.997.232c-.437 0-.794-.132-1.072-.395a1.33 1.33 0 0 1-.413-.998c0-.436.136-.775.408-1.015.273-.24.63-.388 1.072-.444l1.262-.158zm2.667-1.855h.751v.668c.223-.275.459-.473.708-.593.249-.12.526-.18.831-.18.668 0 1.119.233 1.353.699.129.255.193.62.193 1.094V72h-.804v-2.966c0-.287-.042-.519-.127-.695-.141-.293-.396-.44-.765-.44-.187 0-.341.02-.461.058a1.194 1.194 0 0 0-.572.387 1.195 1.195 0 0 0-.259.483c-.038.164-.057.4-.057.708V72h-.791v-4.707zm5.691 2.409c0 .504.107.925.321 1.265.213.34.556.51 1.028.51.366 0 .666-.157.901-.47.237-.317.356-.77.356-1.358 0-.595-.122-1.034-.365-1.318a1.135 1.135 0 0 0-.901-.431c-.398 0-.722.152-.971.457-.246.305-.369.753-.369 1.345zm1.191-2.492c.36 0 .662.076.905.229.141.087.3.241.479.46v-2.377h.76V72h-.712v-.655c-.184.29-.403.5-.654.629a1.876 1.876 0 0 1-.866.193c-.525 0-.979-.22-1.363-.66-.383-.442-.575-1.029-.575-1.761 0-.686.174-1.28.523-1.78.351-.504.852-.756 1.503-.756zm3.687 3.832h.918V72h-.918v-.958zm4.31-3.885c.531 0 .961.13 1.292.387.334.258.535.702.602 1.332h-.769a1.407 1.407 0 0 0-.32-.721c-.167-.194-.435-.29-.805-.29-.504 0-.864.246-1.081.738-.14.32-.211.713-.211 1.182 0 .472.1.869.299 1.191.199.322.513.484.941.484.328 0 .587-.1.777-.3.194-.201.327-.477.4-.825h.769c-.087.624-.307 1.08-.659 1.37-.351.288-.801.431-1.349.431-.615 0-1.106-.224-1.472-.672-.366-.451-.549-1.014-.549-1.688 0-.826.2-1.469.602-1.929.401-.46.912-.69 1.533-.69zm4.733 4.333c.525 0 .883-.197 1.077-.593.196-.398.294-.84.294-1.327 0-.44-.07-.797-.211-1.072-.222-.434-.606-.65-1.151-.65-.484 0-.835.184-1.055.553-.22.369-.329.814-.329 1.336 0 .5.109.918.329 1.252.22.334.569.501 1.046.501zm.031-4.333c.606 0 1.119.202 1.538.607.419.404.628.999.628 1.784 0 .759-.184 1.386-.553 1.88-.369.496-.942.743-1.719.743-.647 0-1.161-.218-1.542-.654-.381-.44-.571-1.029-.571-1.767 0-.791.2-1.42.602-1.89.401-.468.94-.703 1.617-.703zm3.291.136h.782v.668c.188-.231.358-.4.51-.505.261-.179.557-.268.888-.268.375 0 .677.092.905.277.129.105.246.26.352.466.176-.252.382-.438.619-.558.238-.124.504-.185.8-.185.633 0 1.064.228 1.292.686.123.246.185.577.185.993V72h-.822v-3.27c0-.313-.079-.528-.237-.645a.924.924 0 0 0-.572-.176c-.31 0-.578.104-.804.312-.223.208-.334.555-.334 1.041V72h-.804v-3.072c0-.32-.038-.552-.114-.698-.12-.22-.345-.33-.673-.33-.298 0-.571.116-.817.347-.243.231-.365.65-.365 1.257V72h-.791v-4.707z" fill="#1A1A1B"/></g><rect x="100" y="29" width="233" height="497.531" rx="21" stroke="#1A1A1B" stroke-width="6"/></g><path opacity=".5" d="M194.593 188.697c.385.3.855.47 1.342.486 5.555.675 11.068-1.12 16.594-2.002 4.727-.758 10.046-.664 14.012 1.866a37.105 37.105 0 0 1 11.63-3.904c3.41-.545 7.28-.794 9.526-3.424 1.637-1.907 1.944-4.573 2.453-7.038.508-2.464 1.506-5.135 3.793-6.178.822-.373 1.773-.533 2.4-1.185a3.766 3.766 0 0 0 .727-1.736c1.938-8.571 2.157-17.546 5.076-25.833a3.792 3.792 0 0 1 .887-1.6c.945-.859 2.222-.592 3.392.101.465-2.03.963-4.054 1.495-6.072-13.504-.883-26.794-4.224-39.926-7.802 0 .083-.041.166-.065.255a115.228 115.228 0 0 1-3.865 11.812 204.567 204.567 0 0 1-10.637 22.552c-2.642 4.941-5.413 9.881-9.178 14.034a37.036 37.036 0 0 1-9.904 7.73l-.201 6.025c-.053.681-.041 1.445.449 1.913z" fill="#39B54A"/><path d="M263.033 138.131a3.792 3.792 0 0 0-.887 1.6c-2.919 8.293-3.138 17.262-5.076 25.834a3.767 3.767 0 0 1-.727 1.735c-.591.67-1.578.83-2.399 1.185-2.287 1.043-3.286 3.72-3.794 6.179-.509 2.458-.816 5.13-2.453 7.037-2.246 2.63-6.116 2.879-9.526 3.424a37.105 37.105 0 0 0-11.63 3.904c.651.422 1.261.906 1.82 1.445a16.223 16.223 0 0 1 3.439 5.521 169.827 169.827 0 0 1 15.223-1.777c6.064-.426 12.375-.592 17.936-2.873a4.74 4.74 0 0 1-.502-1.742l-2.092-14.033a56.69 56.69 0 0 1-.839-8.702c.11-3.286.506-6.557 1.182-9.775 1.14-6.297 2.287-12.605 3.711-18.849-1.158-.687-2.441-.972-3.386-.113z" fill="#39B54A"/><path d="M194.345 180.759a37.028 37.028 0 0 1-13.291 4.188c-5.318.593-11.411.35-15.051 4.272a17.386 17.386 0 0 0-2.654 4.277c-.419.847-.833 1.694-1.253 2.535 12.239 5.112 25.305 8.59 38.348 6.901 5.75-.746 11.311-2.476 16.925-3.904a165.574 165.574 0 0 1 14.461-3.015 16.254 16.254 0 0 0-3.439-5.521 12.08 12.08 0 0 0-1.821-1.445c-3.941-2.53-9.26-2.625-14.011-1.866-5.526.882-11.04 2.677-16.595 2.002a2.304 2.304 0 0 1-1.341-.486c-.491-.468-.502-1.232-.479-1.913.051-2.006.118-4.015.201-6.025zM269.173 127.705a161.992 161.992 0 0 0-32.763-6.397c-1.773-.16-3.93-.522-5.691-.137-2.364.516-2.163.972-2.725 3.187 13.132 3.555 26.422 6.92 39.926 7.802.396-1.493.81-2.98 1.253-4.455z" fill="#39B54A"/><path d="m162.066 196.031-4.172 8.465a43.763 43.763 0 0 0 7.145 1.878c15.649 3.104 31.912 5.563 47.46 1.961 5.91-1.369 11.613-3.596 17.434-5.332 12.41-3.761 25.382-5.367 38.341-6.563l-.319-1.096a5.333 5.333 0 0 0-1.241-2.417 14.467 14.467 0 0 1-1.589-1.28 1.596 1.596 0 0 1-.166-.242c-5.561 2.286-11.872 2.446-17.936 2.873-5.094.363-10.168.955-15.223 1.777-4.858.79-9.678 1.795-14.461 3.015-5.614 1.428-11.175 3.157-16.925 3.904-13.043 1.623-26.109-1.831-38.348-6.943zM248.667 202.577c-5.1.811-10.466 1.895-14.851 4.437.082 1.508.138 3.015.165 4.519a29.513 29.513 0 0 1 3.765-1.018 122.144 122.144 0 0 1 32.786-2.571 71.909 71.909 0 0 0-1.353-8.003 347.532 347.532 0 0 0-20.512 2.636z" fill="#001D2C"/><path d="M237.745 210.521a29.339 29.339 0 0 0-3.764 1.019 133.54 133.54 0 0 1-.03 6.516 97.26 97.26 0 0 0 11.453-.178c.207-.889.42-1.777.627-2.666a2.486 2.486 0 0 1 2.916 1.537c.143.376.193.782.145 1.182l9.697-.592c.101-1.066.195-2.133.296-3.199h1.773c.575.892.873 1.935.857 2.998l9.231-.848a71.606 71.606 0 0 0-.426-8.334 122.144 122.144 0 0 0-32.775 2.565z" fill="#001D2C"/><path d="M269.179 199.941a79.8 79.8 0 0 0-.904-3.555c-12.96 1.185-25.902 2.802-38.342 6.564-5.821 1.777-11.512 3.981-17.434 5.332-15.548 3.601-31.811 1.143-47.46-1.961a43.845 43.845 0 0 1-7.145-1.854l-.886 1.777c-.562 1.143-1.141 2.369-.981 3.631.159 1.262 1.395 2.464 2.606 2.085.112-.592.231-1.185.343-1.824l1.737-.237c.142 1.777 1.56 3.311 3.203 4.069 1.643.759 3.487.913 5.289 1.055.124-.545.254-1.09.379-1.635 1.725-.628 4.325-.829 4.727.965.178.759-.177 1.653.266 2.293.349.385.826.63 1.342.687a55.28 55.28 0 0 0 6.619 1.102l.07-2.571c1.407-.918 3.546.966 2.79 2.476l8.971.356.266-1.778 2.641.214a6.44 6.44 0 0 0 6.974 1.303 2.83 2.83 0 0 1 1.277-3.479 2.815 2.815 0 0 1 3.615.784 2.824 2.824 0 0 1 .426 2.559l7.913-1.232c-1.004-1.31-.52-3.312.621-4.503 1.14-1.19 2.754-1.777 4.314-2.31l11.37-3.88v.658c4.385-2.542 9.751-3.626 14.851-4.437a340.025 340.025 0 0 1 20.542-2.654z" fill="#001D2C"/><path d="M195.066 187.82c15.04-5.598 26.103-18.802 32.054-33.404a138.812 138.812 0 0 0 4.727-13.459c1.354-4.561 2.494-9.277 3.546-13.921l.172.03a90.123 90.123 0 0 1-1.277 9.555 77.187 77.187 0 0 1-10.194 27.042c-6.678 10.947-16.695 20.343-29.016 24.323l-.054-.166h.042z" fill="#39B54A"/><path d="M204.61 178.698a1.555 1.555 0 0 1-.372-.042 1.424 1.424 0 0 1-.763-.403 1.562 1.562 0 0 1-.384-1.184 2.617 2.617 0 0 1 .952-1.849 2.897 2.897 0 0 1 1.902-.687c.322.059.621.202.869.415a1.4 1.4 0 0 1 .591 1.327 1.567 1.567 0 0 1-.272.592 5.436 5.436 0 0 1-1.046 1.274 2.306 2.306 0 0 1-1.477.557zm-.437-1.588a.541.541 0 0 0 .088.391.38.38 0 0 0 .195.095c.168.019.339.003.5-.049a1.2 1.2 0 0 0 .434-.253c.322-.306.601-.655.827-1.037.044-.061.081-.127.113-.195 0-.036-.048-.16-.201-.285a.855.855 0 0 0-.355-.183c-.384.052-.746.21-1.046.456a1.488 1.488 0 0 0-.555 1.06zM210.39 173.574a1.345 1.345 0 0 1-.798-.314 1.915 1.915 0 0 1-.632-1.837 3.039 3.039 0 0 1 2.594-2.191 1.56 1.56 0 0 1 1.595 1.303 2.039 2.039 0 0 1-.59 1.854c-.438.482-.985.85-1.596 1.072a1.45 1.45 0 0 1-.573.113zm1.182-3.258h-.036a2.02 2.02 0 0 0-1.566 1.303.855.855 0 0 0 .248.794.298.298 0 0 0 .148.077c.06-.01.12-.026.177-.048a2.871 2.871 0 0 0 1.182-.782 1.03 1.03 0 0 0 .349-.829c-.106-.444-.296-.515-.479-.515h-.023zM214.136 167.543a2.157 2.157 0 0 1-.638-.094 1.183 1.183 0 0 1-.508-.291 1.19 1.19 0 0 1-.29-.527 2.58 2.58 0 0 1 .142-1.819 2.154 2.154 0 0 1 1.525-1.226 1.624 1.624 0 0 1 1.454.51 1.853 1.853 0 0 1 .484 1.504 2.172 2.172 0 0 1-.71 1.392 2.158 2.158 0 0 1-1.459.551zm-.372-1.149h.053a1.088 1.088 0 0 0 1.259-.475c.084-.139.136-.294.154-.455a.797.797 0 0 0-.184-.628.548.548 0 0 0-.502-.195 1.093 1.093 0 0 0-.727.622 1.477 1.477 0 0 0-.053 1.131zM219.071 160.482a1.766 1.766 0 0 1-1.501-.823 2.103 2.103 0 0 1-.171-1.517c.048-.351.177-.686.375-.979.199-.292.463-.535.771-.709a1.655 1.655 0 0 1 1.548.083c.222.107.422.253.591.432.211.259.341.574.373.907.044.352.014.709-.089 1.048a2.197 2.197 0 0 1-1.407 1.481 1.89 1.89 0 0 1-.49.077zm-.591-2.126c-.069.251-.05.518.053.758a.69.69 0 0 0 .762.249 1.121 1.121 0 0 0 .686-.753c.059-.191.075-.394.047-.592a.59.59 0 0 0-.106-.32 1.271 1.271 0 0 0-.307-.196.591.591 0 0 0-.591-.059 1.293 1.293 0 0 0-.556.918l.012-.005zM198.783 182.845a1.753 1.753 0 0 1-.591-.101 1.32 1.32 0 0 1-.727-.711 1.606 1.606 0 0 1 0-1.238 3.17 3.17 0 0 1 1.058-1.244c.845-.646 1.667-.871 2.252-.634a1.276 1.276 0 0 1 .762 1.072c.048.241.048.488 0 .729a2.119 2.119 0 0 1-.479.883 3.813 3.813 0 0 1-.845.758 2.693 2.693 0 0 1-1.43.486zm1.507-2.933a2.066 2.066 0 0 0-1.093.504 2.102 2.102 0 0 0-.704.799.492.492 0 0 0 0 .391.225.225 0 0 0 .119.125 1.364 1.364 0 0 0 1.057-.279c.223-.151.422-.335.591-.545a.735.735 0 0 0 .243-.758c0-.059-.036-.201-.101-.225a.25.25 0 0 0-.112-.012zM221.695 154.836a1.666 1.666 0 0 1-.727-.171 1.586 1.586 0 0 1-.845-.96 2.723 2.723 0 0 1-.071-.93c.004-.202.04-.402.106-.592.26-.711 1.389-1.6 2.281-1.357a1.901 1.901 0 0 1 1.147.966 1.811 1.811 0 0 1 .177 1.415 2.369 2.369 0 0 1-.774 1.031c-.218.208-.47.376-.745.498-.175.066-.361.1-.549.1zm.413-2.961a1.394 1.394 0 0 0-.939.693c-.024.088-.036.18-.036.272a1.925 1.925 0 0 0 0 .557.526.526 0 0 0 .284.296.506.506 0 0 0 .408.036c.159-.075.303-.177.425-.302.195-.145.353-.334.461-.551a.792.792 0 0 0-.1-.593.867.867 0 0 0-.473-.432l-.03.024zM224.52 148.113a2.787 2.787 0 0 1-.491-.047 1.492 1.492 0 0 1-.632-.291 1.382 1.382 0 0 1-.414-.65 1.385 1.385 0 0 1-.006-.771 3.212 3.212 0 0 1 1.714-1.973 1.334 1.334 0 0 1 1.182.136 2.05 2.05 0 0 1 .91 1.422 1.868 1.868 0 0 1-.591 1.528 2.39 2.39 0 0 1-1.672.646zm-.491-1.499a.344.344 0 0 0 .053.32.598.598 0 0 0 .178.071 1.306 1.306 0 0 0 1.146-.326.767.767 0 0 0 .278-.592.996.996 0 0 0-.402-.628.235.235 0 0 0-.104-.047.224.224 0 0 0-.115.006c-.483.253-.853.68-1.034 1.196zM226.47 142.787a2.306 2.306 0 0 1-.709-.118.921.921 0 0 1-.532-.397.94.94 0 0 1-.124-.521 5.671 5.671 0 0 1 .124-1.375 2.454 2.454 0 0 1 1.241-1.717 1.294 1.294 0 0 1 1.253.177 2.066 2.066 0 0 1 .75 2.08 2.824 2.824 0 0 1-.236.592 2.425 2.425 0 0 1-.786.995 1.77 1.77 0 0 1-.981.284zm-.284-1.131a.834.834 0 0 0 .668-.059c.182-.164.326-.366.419-.593.063-.11.112-.227.148-.349a1.003 1.003 0 0 0 0-.279.868.868 0 0 0-.319-.645c-.154-.107-.225-.077-.254-.065-.314.23-.526.574-.591.959-.062.34-.086.686-.071 1.031zM227.634 134.695a2.62 2.62 0 0 1-.307 0 1.18 1.18 0 0 1-.633-.231 1.19 1.19 0 0 1-.343-.468 2.447 2.447 0 0 1-.011-1.818 2.437 2.437 0 0 1 1.247-1.321 1.474 1.474 0 0 1 1.501.16 2.021 2.021 0 0 1 .857 1.747 2.105 2.105 0 0 1-.94 1.552 2.488 2.488 0 0 1-1.371.379zm-.266-1.107h.077c.335.045.676-.029.963-.208a.986.986 0 0 0 .455-.728.947.947 0 0 0-.396-.776.415.415 0 0 0-.425-.066 1.382 1.382 0 0 0-.704 1.718l.03.054v.006z" fill="#001D2C"/><path d="M199.02 181.127a1.006 1.006 0 0 1-.491-.551 8.098 8.098 0 0 1-.68-3.312 4.016 4.016 0 0 1 .326-1.706 2.255 2.255 0 0 1 1.465-1.256c.833-.201 1.903.871 2.21 1.185l-.792.735a3.132 3.132 0 0 0-1.182-.883 1.183 1.183 0 0 0-.709.663c-.163.394-.24.818-.224 1.244a6.518 6.518 0 0 0 .591 2.868c.1.213.272.533.136.758a.746.746 0 0 1-.65.255zM204.799 176.82a3.802 3.802 0 0 1-.886-1.226 7.788 7.788 0 0 1-1.052-2.962 2.861 2.861 0 0 1 .313-1.665 1.947 1.947 0 0 1 1.542-1.025 1.858 1.858 0 0 1 1.371.741l.16.16-.709.817a3.652 3.652 0 0 1-.225-.219c-.083-.089-.413-.421-.532-.415a.85.85 0 0 0-.39.154.851.851 0 0 0-.272.32 1.843 1.843 0 0 0-.183 1.043c.141.891.459 1.745.934 2.512.148.335.359.638.62.894a.59.59 0 0 1-.691.841v.03zM210.396 171.548c-1.129-1.185-2.536-2.672-2.955-4.561a2.813 2.813 0 0 1 .1-1.831 1.287 1.287 0 0 1 .78-.729c.692-.195 1.342.35 1.732.676l.077.065-.692.835-.082-.065c-.39-.332-.639-.486-.739-.462a.368.368 0 0 0-.095.136c-.121.366-.121.76 0 1.126.373 1.599 1.614 2.908 2.707 4.058a.591.591 0 0 1-.118.592.592.592 0 0 1-.715.16zM213.965 166.056a17.307 17.307 0 0 1-2.647-4.188c-.243-.509-.757-1.558-.29-2.5a1.29 1.29 0 0 1 .898-.728 1.41 1.41 0 0 1 1.224.551c.067.071.14.136.218.195l-.543.942a2.373 2.373 0 0 1-.432-.361 1.738 1.738 0 0 0-.307-.261s-.047.053-.089.148c-.201.403.036 1.001.296 1.534a16.587 16.587 0 0 0 2.47 3.94.684.684 0 0 1-.225.592.668.668 0 0 1-.573.136zM218.504 158.699a3.34 3.34 0 0 1-2.033-.971 5.866 5.866 0 0 1-1.034-1.031 5.475 5.475 0 0 1-.65-1.416 3.801 3.801 0 0 1-.278-1.262 1.695 1.695 0 0 1 .679-1.433 1.824 1.824 0 0 1 1.631 0l-.342 1.03a1.275 1.275 0 0 0-.686-.112.671.671 0 0 0-.201.527c.027.313.101.621.219.912.118.403.291.788.514 1.144.242.308.524.583.839.817.479.403.987.788 1.46.717a.594.594 0 0 1 .148 1.078 2.36 2.36 0 0 1-.266 0zM221.529 153.148a8.378 8.378 0 0 1-3.758-2.671 2.789 2.789 0 0 1-.491-.824 2.723 2.723 0 0 1-.053-1.309c.037-.331.18-.64.408-.883.094-.088.384-.367 1.471-.106l-.254 1.054a2.967 2.967 0 0 0-.514-.077c0 .042 0 .101-.041.196a1.592 1.592 0 0 0 0 .776c.076.179.179.345.307.491a7.442 7.442 0 0 0 3.28 2.334.6.6 0 0 1 .149.627.596.596 0 0 1-.51.392h.006zM224.484 146.508a13.214 13.214 0 0 1-2.476-.901 4.734 4.734 0 0 1-2.051-1.943 1.29 1.29 0 0 1-.147-.977 1.076 1.076 0 0 1 .839-.717 2.68 2.68 0 0 1 1.028.142h.071l-.254 1.055h-.083a3.945 3.945 0 0 0-.55-.113l.054.118a3.707 3.707 0 0 0 1.595 1.475c.73.349 1.492.625 2.275.824a.59.59 0 0 1 .219.563.596.596 0 0 1-.52.474zM225.666 141.289a5.037 5.037 0 0 1-1.991-.385 3.723 3.723 0 0 1-1.85-1.677 1.777 1.777 0 0 1-.16-1.457 1.236 1.236 0 0 1 .792-.699 1 1 0 0 1 .881.148c.113.076.234.139.36.19l-.248 1.06a2.64 2.64 0 0 1-.715-.35.112.112 0 0 0-.059.06.696.696 0 0 0 .106.545c.293.535.76.953 1.324 1.184a4.077 4.077 0 0 0 1.879.285.596.596 0 0 1 .497.551.551.551 0 0 1-.426.533l-.39.012z" fill="#001D2C"/><path d="M220.595 142.716a10.508 10.508 0 0 1-.992-.432c-1.484-.735-2.453-1.736-2.807-2.897-.461-1.528.177-3.08.856-4.395a14.843 14.843 0 0 1 2.01-3.039 6.967 6.967 0 0 1 3.126-2.091 1.49 1.49 0 0 1 .94.029c.318.025.621.147.868.35l.467.337a7.76 7.76 0 0 0 2.725 1.499.593.593 0 0 1 .271.658.588.588 0 0 1-.514.397 13.665 13.665 0 0 1-3.12-1.677l-.39-.284c.35 1.231.827 2.422 1.424 3.554l.272.557c.745 1.564 1.536 3.394 1.442 5.331a3.028 3.028 0 0 1-.443 1.57c-.556.853-1.679 1.262-3.156 1.185a10.718 10.718 0 0 1-2.979-.652zm2.293-11.747a6.06 6.06 0 0 0-2.423 1.706c-.73.86-1.351 1.807-1.849 2.82-.591 1.12-1.135 2.423-.78 3.554.354 1.132 1.406 1.825 2.245 2.24a9.62 9.62 0 0 0 3.546.965c.621.048 1.726 0 2.175-.675.179-.311.271-.665.266-1.025.083-1.718-.65-3.394-1.336-4.84l-.266-.545a17.036 17.036 0 0 1-1.578-4.2z" fill="#001D2C"/><path d="M217.351 147.136a1.986 1.986 0 0 1-.727-.131c-.798-.296-1.341-1.066-1.619-2.286a11.984 11.984 0 0 1 .337-6.137 20.951 20.951 0 0 1 2.7-5.432 11.573 11.573 0 0 1 1.738-2.133c.591-.592 1.519-1.309 2.364-1.262.473 0 1.27.332 1.347 2.121a16.228 16.228 0 0 1-.248 3.151 58.802 58.802 0 0 1-1.525 6.996 12.493 12.493 0 0 1-.963 2.595 5.214 5.214 0 0 1-1.997 2.127c-.428.25-.912.385-1.407.391zm3.162-15.319a10.537 10.537 0 0 0-1.572 1.937 19.925 19.925 0 0 0-2.565 5.148 10.93 10.93 0 0 0-.319 5.574c.136.592.402 1.309.945 1.516a1.524 1.524 0 0 0 1.182-.195 4.137 4.137 0 0 0 1.572-1.7c.377-.756.67-1.55.875-2.37a58.92 58.92 0 0 0 1.495-6.865c.173-.978.252-1.97.236-2.962-.035-.759-.224-1.084-.325-1.084-.1 0-.508.106-1.524 1.013v-.012z" fill="#001D2C"/><path d="M231.458 162.241a.527.527 0 0 1-.266-.071 22.811 22.811 0 0 1-4.533-3.104c-2.258-2.126-3.853-5.171-4.881-9.318a37.002 37.002 0 0 1-.491-15.325c.146-.855.362-1.697.644-2.517a4.935 4.935 0 0 0-.993 1.012 9.264 9.264 0 0 0-1.252 2.761 25.83 25.83 0 0 0-.875 4.39c-.053.408-.095.823-.136 1.232a20.1 20.1 0 0 1-.833 4.614 10.788 10.788 0 0 1-5.484 6.102 11.748 11.748 0 0 1-8.167.687.543.543 0 0 1-.281-.855.54.54 0 0 1 .57-.187c2.463.688 5.091.467 7.405-.622a9.702 9.702 0 0 0 4.934-5.486c.431-1.417.693-2.881.78-4.36.042-.421.083-.841.136-1.256a26.88 26.88 0 0 1 .916-4.573 10.606 10.606 0 0 1 1.407-3.074 5.317 5.317 0 0 1 2.813-2.109.547.547 0 0 1 .571.183.543.543 0 0 1 .055.599 11.981 11.981 0 0 0-1.182 3.637c-.879 4.935-.716 10 .479 14.869.975 3.933 2.47 6.806 4.574 8.785a22.147 22.147 0 0 0 4.32 2.962.541.541 0 0 1 .207.734.544.544 0 0 1-.437.29z" fill="#001D2C"/><rect x="333" y="100" width="7" height="43.579" rx="3.5" fill="#1A1A1B"/><rect x="333" y="148.421" width="7" height="43.579" rx="3.5" fill="#1A1A1B"/><g filter="url(#f)"><rect x="36" y="296" width="362" height="60.214" rx="9" fill="#FFFFFE" shape-rendering="crispEdges"/><g clip-path="url(#g)"><path d="M82.3 317.205c-2.56-2.056-6.504-3.284-10.547-3.284-5 0-9.075 1.849-11.177 5.074-.988 1.514-1.534 3.309-1.624 5.331-.08 1.8.206 3.793.848 5.935 2.194-6.971 8.324-12.428 15.39-12.428 0 0-6.611 1.843-10.769 7.555a16.81 16.81 0 0 0-2.26 4.265 25.383 25.383 0 0 0-1.776 9.357h2.961s-.45-2.996.332-6.441c1.156.175 2.322.267 3.49.278 2.722 0 4.657-.625 6.092-1.964 1.285-1.2 1.994-2.815 2.745-4.521 1.146-2.609 2.445-5.564 6.216-7.847a.757.757 0 0 0 .26-.265.82.82 0 0 0-.18-1.041v-.004z" fill="#39B54A"/></g><path d="M99.574 321.213c-.818 0-1.56-.176-2.225-.528a4.084 4.084 0 0 1-1.56-1.479c-.374-.635-.561-1.35-.561-2.145 0-.795.187-1.506.562-2.133a3.978 3.978 0 0 1 1.56-1.48c.665-.359 1.41-.539 2.236-.539.696 0 1.323.123 1.881.367.566.245 1.04.597 1.422 1.055l-1.193 1.101c-.543-.626-1.216-.94-2.018-.94-.497 0-.94.111-1.33.333-.39.214-.697.516-.918.906-.215.39-.322.833-.322 1.33 0 .497.108.941.322 1.331.221.39.527.695.917.917.39.214.834.321 1.33.321.803 0 1.476-.317 2.019-.952l1.193 1.101a3.712 3.712 0 0 1-1.422 1.067c-.566.245-1.197.367-1.893.367zm6.888-6.4c.955 0 1.689.23 2.202.688.512.451.768 1.136.768 2.053v3.521h-1.674v-.768c-.337.573-.964.86-1.881.86-.474 0-.887-.08-1.239-.241a1.835 1.835 0 0 1-.791-.665 1.728 1.728 0 0 1-.276-.963c0-.574.214-1.025.643-1.354.435-.329 1.104-.493 2.007-.493h1.422c0-.39-.119-.688-.356-.895-.237-.214-.592-.321-1.066-.321-.329 0-.654.054-.975.161a2.476 2.476 0 0 0-.803.413l-.642-1.25a3.882 3.882 0 0 1 1.204-.551c.474-.13.96-.195 1.457-.195zm-.138 5.15c.306 0 .577-.069.814-.207.237-.145.406-.355.505-.63v-.631h-1.227c-.734 0-1.101.241-1.101.722 0 .23.088.413.263.551.184.13.432.195.746.195zm6.436-4.244c.214-.298.501-.524.861-.676.367-.153.787-.23 1.261-.23v1.652a5.931 5.931 0 0 0-.401-.023c-.513 0-.914.145-1.204.436-.291.283-.436.711-.436 1.284v2.913h-1.79v-6.17h1.709v.814zm6.833-.906c.574 0 1.094.134 1.56.402.474.26.845.63 1.113 1.112.267.474.401 1.029.401 1.663 0 .635-.134 1.193-.401 1.675a2.88 2.88 0 0 1-1.113 1.112c-.466.26-.986.39-1.56.39-.848 0-1.495-.267-1.938-.803v.711h-1.709v-8.51h1.789v2.994c.451-.497 1.071-.746 1.858-.746zm-.309 4.886c.458 0 .833-.153 1.124-.459.298-.313.447-.73.447-1.25s-.149-.933-.447-1.239c-.291-.313-.666-.47-1.124-.47-.459 0-.838.157-1.136.47-.29.306-.436.719-.436 1.239 0 .52.146.937.436 1.25.298.306.677.459 1.136.459zm7.517 1.468c-.65 0-1.235-.134-1.755-.401a3.079 3.079 0 0 1-1.204-1.136 3.106 3.106 0 0 1-.436-1.64c0-.612.145-1.158.436-1.64.29-.482.692-.856 1.204-1.124a3.696 3.696 0 0 1 1.755-.413c.65 0 1.231.138 1.743.413.513.268.914.642 1.205 1.124.29.482.435 1.028.435 1.64 0 .612-.145 1.159-.435 1.64-.291.482-.692.86-1.205 1.136-.512.267-1.093.401-1.743.401zm0-1.468c.459 0 .833-.153 1.124-.459.298-.313.447-.73.447-1.25s-.149-.933-.447-1.239c-.291-.313-.665-.47-1.124-.47-.459 0-.837.157-1.135.47-.299.306-.448.719-.448 1.239 0 .52.149.937.448 1.25.298.306.676.459 1.135.459zm8.33-4.886c.764 0 1.38.23 1.846.688.474.459.711 1.14.711 2.042v3.532h-1.789v-3.257c0-.489-.107-.852-.321-1.089-.214-.245-.524-.367-.929-.367-.451 0-.81.141-1.078.424-.268.275-.401.688-.401 1.239v3.05h-1.79v-6.17h1.709v.722c.237-.259.532-.458.883-.596a3.013 3.013 0 0 1 1.159-.218zm14.917-1.766v8.028h-1.525l-4.003-4.874v4.874h-1.835v-8.028h1.537l3.991 4.874v-4.874h1.835zm7.818 4.966c0 .023-.012.184-.035.482h-4.668c.084.382.283.684.597.906.313.222.703.332 1.169.332a2.4 2.4 0 0 0 .849-.137c.253-.1.486-.252.7-.459l.952 1.032c-.581.666-1.43.998-2.546.998-.696 0-1.312-.134-1.847-.401a3.032 3.032 0 0 1-1.239-1.136 3.114 3.114 0 0 1-.435-1.64c0-.604.141-1.147.424-1.628.29-.49.684-.868 1.181-1.136a3.468 3.468 0 0 1 1.686-.413c.604 0 1.151.13 1.64.39.49.26.872.635 1.147 1.124.283.482.425 1.044.425 1.686zm-3.2-1.846c-.406 0-.746.114-1.021.344-.275.229-.444.542-.505.94h3.04c-.062-.39-.23-.7-.505-.929-.275-.237-.612-.355-1.009-.355zm10.607-1.262v6.17h-1.697v-.734a2.44 2.44 0 0 1-.849.62 2.746 2.746 0 0 1-1.067.206c-.81 0-1.452-.233-1.927-.699-.474-.467-.711-1.159-.711-2.076v-3.487h1.79v3.223c0 .994.416 1.491 1.25 1.491.428 0 .772-.138 1.032-.413.26-.283.39-.7.39-1.25v-3.051h1.789zm5.638 5.872c-.176.13-.394.23-.654.298-.252.062-.52.092-.803.092-.734 0-1.304-.187-1.709-.562-.398-.375-.596-.925-.596-1.651v-2.535h-.952v-1.376h.952v-1.503h1.789v1.503h1.537v1.376h-1.537v2.512c0 .26.065.462.195.608.137.137.329.206.573.206.283 0 .524-.077.723-.229l.482 1.261zm2.713-5.058a1.99 1.99 0 0 1 .86-.676c.367-.153.788-.23 1.262-.23v1.652a5.95 5.95 0 0 0-.402-.023c-.512 0-.913.145-1.204.436-.291.283-.436.711-.436 1.284v2.913h-1.789v-6.17h1.709v.814zm5.641-.906c.956 0 1.69.23 2.202.688.512.451.768 1.136.768 2.053v3.521h-1.674v-.768c-.337.573-.964.86-1.881.86-.474 0-.887-.08-1.239-.241a1.835 1.835 0 0 1-.791-.665 1.727 1.727 0 0 1-.275-.963c0-.574.214-1.025.642-1.354.436-.329 1.105-.493 2.007-.493h1.422c0-.39-.118-.688-.355-.895-.237-.214-.593-.321-1.067-.321-.329 0-.654.054-.975.161a2.486 2.486 0 0 0-.803.413l-.642-1.25a3.882 3.882 0 0 1 1.204-.551c.474-.13.96-.195 1.457-.195zm-.138 5.15c.306 0 .577-.069.815-.207.237-.145.405-.355.504-.63v-.631h-1.227c-.734 0-1.101.241-1.101.722 0 .23.088.413.264.551.183.13.432.195.745.195zm4.728-7.398h1.789v8.51h-1.789v-8.51zm10.712 8.648c-.834 0-1.587-.18-2.26-.539a4.063 4.063 0 0 1-1.571-1.48c-.375-.634-.562-1.345-.562-2.133 0-.787.187-1.495.562-2.122a4.047 4.047 0 0 1 1.571-1.491c.673-.359 1.426-.539 2.26-.539.833 0 1.583.18 2.248.539.665.36 1.189.857 1.571 1.491.382.627.574 1.335.574 2.122 0 .788-.192 1.499-.574 2.133a4.063 4.063 0 0 1-1.571 1.48c-.665.359-1.415.539-2.248.539zm0-1.583c.474 0 .902-.107 1.284-.321.383-.222.681-.527.895-.917.222-.39.333-.834.333-1.331s-.111-.94-.333-1.33a2.262 2.262 0 0 0-.895-.906 2.508 2.508 0 0 0-1.284-.333c-.474 0-.902.111-1.285.333a2.348 2.348 0 0 0-.906.906c-.214.39-.321.833-.321 1.33 0 .497.107.941.321 1.331.222.39.524.695.906.917.383.214.811.321 1.285.321zm7.372-3.911a1.99 1.99 0 0 1 .86-.676c.367-.153.788-.23 1.262-.23v1.652a5.95 5.95 0 0 0-.402-.023c-.512 0-.914.145-1.204.436-.291.283-.436.711-.436 1.284v2.913h-1.789v-6.17h1.709v.814zm9.415-3.154v8.51h-1.709v-.711c-.444.536-1.086.803-1.927.803-.581 0-1.109-.13-1.583-.39a2.811 2.811 0 0 1-1.101-1.112c-.268-.482-.401-1.04-.401-1.675 0-.634.133-1.193.401-1.674a2.807 2.807 0 0 1 1.101-1.113 3.237 3.237 0 0 1 1.583-.39c.787 0 1.403.249 1.846.746v-2.994h1.79zm-3.326 7.134c.451 0 .825-.153 1.124-.459.298-.313.447-.73.447-1.25s-.149-.933-.447-1.239a1.49 1.49 0 0 0-1.124-.47c-.459 0-.838.157-1.136.47-.298.306-.447.719-.447 1.239 0 .52.149.937.447 1.25.298.306.677.459 1.136.459zm11.026-1.686c0 .023-.012.184-.034.482h-4.669c.085.382.283.684.597.906.313.222.703.332 1.17.332.321 0 .604-.045.849-.137.252-.1.485-.252.699-.459l.952 1.032c-.581.666-1.43.998-2.546.998-.696 0-1.311-.134-1.847-.401a3.023 3.023 0 0 1-1.238-1.136 3.106 3.106 0 0 1-.436-1.64c0-.604.141-1.147.424-1.628.291-.49.685-.868 1.182-1.136a3.462 3.462 0 0 1 1.686-.413c.604 0 1.15.13 1.64.39.489.26.871.635 1.147 1.124.282.482.424 1.044.424 1.686zm-3.2-1.846c-.405 0-.746.114-1.021.344-.275.229-.443.542-.504.94h3.039c-.061-.39-.229-.7-.505-.929-.275-.237-.611-.355-1.009-.355zm6.1-.448a1.99 1.99 0 0 1 .86-.676c.367-.153.788-.23 1.262-.23v1.652a5.95 5.95 0 0 0-.402-.023c-.512 0-.913.145-1.204.436-.29.283-.436.711-.436 1.284v2.913h-1.789v-6.17h1.709v.814zm8.44-.676h1.583v1.376h-1.537v4.656h-1.789v-4.656h-.952v-1.376h.952v-.276c0-.703.206-1.261.619-1.674.42-.413 1.009-.62 1.766-.62.268 0 .52.031.757.092.245.054.447.134.608.241l-.47 1.296a1.229 1.229 0 0 0-.723-.218c-.543 0-.814.298-.814.895v.264zm5.332 6.124c-.65 0-1.235-.134-1.755-.401a3.079 3.079 0 0 1-1.204-1.136 3.106 3.106 0 0 1-.436-1.64c0-.612.145-1.158.436-1.64.29-.482.692-.856 1.204-1.124a3.696 3.696 0 0 1 1.755-.413c.65 0 1.231.138 1.743.413.512.268.914.642 1.204 1.124.291.482.436 1.028.436 1.64 0 .612-.145 1.159-.436 1.64-.29.482-.692.86-1.204 1.136-.512.267-1.093.401-1.743.401zm0-1.468c.459 0 .833-.153 1.124-.459.298-.313.447-.73.447-1.25s-.149-.933-.447-1.239c-.291-.313-.665-.47-1.124-.47-.459 0-.837.157-1.136.47-.298.306-.447.719-.447 1.239 0 .52.149.937.447 1.25.299.306.677.459 1.136.459zm6.288-3.98a1.99 1.99 0 0 1 .86-.676c.367-.153.788-.23 1.262-.23v1.652a5.965 5.965 0 0 0-.401-.023c-.513 0-.914.145-1.205.436-.29.283-.436.711-.436 1.284v2.913h-1.789v-6.17h1.709v.814zm12.649 3.005c0 .627-.229 1.166-.688 1.617-.459.444-1.12.719-1.984.826v1.285h-1.147v-1.25a6.22 6.22 0 0 1-1.617-.299c-.513-.168-.925-.374-1.239-.619l.631-1.399c.29.214.631.394 1.021.539.39.145.791.237 1.204.275v-1.915a8.68 8.68 0 0 1-1.376-.436 2.452 2.452 0 0 1-.941-.7c-.252-.313-.378-.726-.378-1.238a2.2 2.2 0 0 1 .688-1.629c.466-.459 1.135-.738 2.007-.837v-1.273h1.147v1.25c.94.076 1.716.309 2.328.699l-.573 1.411a4.55 4.55 0 0 0-1.755-.596v1.949a7.71 7.71 0 0 1 1.353.425c.375.153.688.386.941.699.252.306.378.712.378 1.216zm-4.668-3.406c0 .191.073.348.218.47.145.122.356.226.631.31v-1.629c-.291.069-.505.18-.642.333a.723.723 0 0 0-.207.516zm1.996 4.335c.275-.061.482-.16.619-.298a.673.673 0 0 0 .207-.493.587.587 0 0 0-.218-.47c-.138-.123-.34-.23-.608-.322v1.583zm6.878 1.56c-.665 0-1.258-.164-1.778-.493-.52-.329-.929-.803-1.227-1.422-.291-.627-.436-1.373-.436-2.237 0-.864.145-1.606.436-2.225.298-.627.707-1.105 1.227-1.434.52-.328 1.113-.493 1.778-.493s1.258.165 1.778.493c.52.329.925.807 1.215 1.434.299.619.448 1.361.448 2.225 0 .864-.149 1.61-.448 2.237-.29.619-.695 1.093-1.215 1.422-.52.329-1.113.493-1.778.493zm0-1.571c.489 0 .872-.211 1.147-.631.283-.421.424-1.071.424-1.95s-.141-1.529-.424-1.95c-.275-.42-.658-.63-1.147-.63-.482 0-.864.21-1.147.63-.275.421-.413 1.071-.413 1.95s.138 1.529.413 1.95c.283.42.665.631 1.147.631zm5.253 1.525c-.313 0-.577-.107-.791-.321a1.09 1.09 0 0 1-.321-.803c0-.329.107-.592.321-.791.214-.207.478-.31.791-.31.314 0 .577.103.791.31.215.199.322.462.322.791 0 .321-.107.589-.322.803a1.074 1.074 0 0 1-.791.321zm7.552-4.312c.398.198.7.458.907.78.214.321.321.692.321 1.112 0 .497-.142.933-.425 1.308-.283.367-.68.653-1.192.86-.513.199-1.105.298-1.778.298s-1.266-.099-1.778-.298c-.505-.207-.898-.493-1.181-.86a2.147 2.147 0 0 1-.413-1.308c0-.42.103-.791.309-1.112.215-.322.517-.582.907-.78a1.981 1.981 0 0 1-.689-.688 1.926 1.926 0 0 1-.24-.964c0-.466.13-.872.389-1.216.26-.344.624-.608 1.09-.791.466-.191 1.002-.287 1.606-.287.611 0 1.151.096 1.617.287.474.183.841.447 1.101.791.26.344.39.75.39 1.216 0 .359-.08.681-.241.964a1.95 1.95 0 0 1-.7.688zm-2.167-2.581c-.375 0-.677.092-.906.275-.222.176-.333.421-.333.734 0 .306.111.547.333.723.221.176.523.264.906.264.382 0 .688-.088.917-.264a.86.86 0 0 0 .344-.723c0-.313-.114-.558-.344-.734-.229-.183-.535-.275-.917-.275zm0 5.574c.466 0 .833-.103 1.101-.309.275-.215.413-.497.413-.849a.991.991 0 0 0-.413-.837c-.268-.207-.635-.31-1.101-.31-.459 0-.822.103-1.09.31a1.002 1.002 0 0 0-.401.837c0 .359.134.642.401.849.268.206.631.309 1.09.309zm6.998-3.785c1.131 0 1.965.226 2.5.677.543.451.814 1.055.814 1.812 0 .49-.122.937-.367 1.342-.244.398-.619.719-1.124.963-.497.238-1.112.356-1.846.356a6.554 6.554 0 0 1-1.675-.218 4.39 4.39 0 0 1-1.387-.642l.734-1.422c.305.229.657.409 1.055.539.397.122.806.183 1.227.183.466 0 .833-.092 1.101-.275a.88.88 0 0 0 .402-.769c0-.344-.142-.604-.425-.779-.275-.176-.757-.264-1.445-.264h-2.053l.413-4.519h4.897v1.491h-3.349l-.126 1.525h.654z" fill="#000"/><path d="M98.014 332.842c.769 0 1.371.184 1.807.551.436.367.654.871.654 1.514 0 .642-.218 1.147-.654 1.514-.436.361-1.038.541-1.806.541h-1.618v1.902h-.636v-6.022h2.254zm-.017 3.561c.597 0 1.053-.129 1.368-.387.316-.264.473-.633.473-1.109 0-.488-.157-.861-.473-1.119-.315-.263-.771-.395-1.368-.395h-1.6v3.01h1.6zm5.549 2.504c-.436 0-.828-.098-1.178-.293a2.198 2.198 0 0 1-.826-.826 2.338 2.338 0 0 1-.301-1.187c0-.441.1-.837.301-1.187.201-.35.476-.622.826-.817.35-.195.742-.293 1.178-.293.436 0 .829.098 1.179.293.35.195.622.467.817.817.201.35.301.746.301 1.187 0 .442-.1.837-.301 1.187-.195.35-.467.625-.817.826-.35.195-.743.293-1.179.293zm0-.542c.321 0 .608-.072.86-.215.259-.15.459-.359.603-.628.143-.27.215-.577.215-.921a1.93 1.93 0 0 0-.215-.92 1.496 1.496 0 0 0-.603-.62 1.658 1.658 0 0 0-.86-.223c-.321 0-.61.074-.869.223a1.57 1.57 0 0 0-.602.62 1.93 1.93 0 0 0-.215.92c0 .344.072.651.215.921.149.269.35.478.602.628.259.143.548.215.869.215zm10.059-4.026-1.712 4.525h-.577l-1.427-3.708-1.428 3.708h-.577l-1.703-4.525h.585l1.419 3.845 1.454-3.845h.525l1.445 3.845 1.436-3.845h.56zm4.733 2.451h-3.785c.034.471.215.852.542 1.144.327.287.74.431 1.239.431.281 0 .539-.049.774-.147.235-.103.439-.252.611-.447l.344.396a1.929 1.929 0 0 1-.757.55c-.299.126-.628.19-.99.19-.464 0-.877-.098-1.238-.293a2.18 2.18 0 0 1-.835-.826c-.2-.35-.301-.745-.301-1.187 0-.441.095-.837.284-1.187.195-.35.459-.622.792-.817a2.23 2.23 0 0 1 1.135-.293c.419 0 .794.098 1.127.293.332.195.593.467.783.817.189.344.284.74.284 1.187l-.009.189zm-2.185-1.961c-.436 0-.803.141-1.101.422-.292.275-.459.636-.499 1.084h3.209c-.041-.448-.21-.809-.508-1.084-.292-.281-.659-.422-1.101-.422zm4.022.396c.143-.304.355-.533.636-.688.287-.155.64-.233 1.058-.233v.594l-.146-.009c-.476 0-.849.147-1.118.439-.27.293-.405.703-.405 1.23v2.306h-.61v-4.525h.585v.886zm6.698 1.565h-3.785c.034.471.215.852.542 1.144.327.287.74.431 1.238.431.281 0 .54-.049.775-.147.235-.103.438-.252.61-.447l.344.396c-.2.241-.453.424-.757.55-.298.126-.627.19-.989.19-.464 0-.877-.098-1.238-.293a2.18 2.18 0 0 1-.835-.826 2.338 2.338 0 0 1-.301-1.187c0-.441.095-.837.284-1.187.195-.35.459-.622.791-.817a2.236 2.236 0 0 1 1.136-.293c.418 0 .794.098 1.127.293.332.195.593.467.782.817.19.344.284.74.284 1.187l-.008.189zm-2.185-1.961c-.436 0-.803.141-1.101.422-.293.275-.459.636-.499 1.084h3.208c-.04-.448-.209-.809-.507-1.084-.293-.281-.66-.422-1.101-.422zm7.565-2.348v6.383h-.585v-.895a1.853 1.853 0 0 1-.731.697c-.298.16-.636.241-1.015.241-.424 0-.808-.098-1.152-.293a2.09 2.09 0 0 1-.809-.817 2.416 2.416 0 0 1-.292-1.196c0-.447.097-.846.292-1.195.195-.35.465-.62.809-.809a2.295 2.295 0 0 1 1.152-.293c.367 0 .697.078.989.233.299.149.542.37.732.662v-2.718h.61zm-2.279 5.884c.315 0 .599-.072.851-.215.259-.15.459-.359.603-.628.149-.27.223-.577.223-.921 0-.344-.074-.651-.223-.92a1.496 1.496 0 0 0-.603-.62 1.64 1.64 0 0 0-.851-.223c-.321 0-.611.074-.869.223a1.57 1.57 0 0 0-.602.62 1.93 1.93 0 0 0-.215.92c0 .344.072.651.215.921.149.269.35.478.602.628.258.143.548.215.869.215zm8.563-4.061c.424 0 .808.098 1.152.293.344.189.614.459.809.809.195.349.292.748.292 1.195 0 .447-.097.846-.292 1.196a2.09 2.09 0 0 1-.809.817 2.295 2.295 0 0 1-1.152.293c-.379 0-.72-.081-1.024-.241a1.87 1.87 0 0 1-.722-.697v.895h-.585v-6.383h.61v2.718c.19-.292.43-.513.723-.662.298-.155.631-.233.998-.233zm-.043 4.061c.315 0 .602-.072.86-.215.258-.15.459-.359.602-.628.149-.27.224-.577.224-.921 0-.344-.075-.651-.224-.92a1.494 1.494 0 0 0-.602-.62 1.689 1.689 0 0 0-.86-.223c-.321 0-.611.074-.869.223a1.57 1.57 0 0 0-.602.62 1.92 1.92 0 0 0-.215.92c0 .344.071.651.215.921.149.269.35.478.602.628.258.143.548.215.869.215zm7.218-4.026-2.263 5.066c-.183.425-.395.726-.636.904a1.429 1.429 0 0 1-.869.266 1.77 1.77 0 0 1-.611-.103 1.317 1.317 0 0 1-.49-.31l.284-.455c.229.229.504.344.825.344a.816.816 0 0 0 .525-.172c.149-.115.287-.31.413-.585l.198-.439-2.022-4.516h.637l1.703 3.845 1.703-3.845h.603z" fill="#828282"/><path d="M291.53 321.903a5.376 5.376 0 1 0 0-10.752 5.376 5.376 0 0 0 0 10.752z" fill="#000"/><path d="M291.53 318.677v-2.151M291.53 314.376h.007" stroke="#FFFFFE" stroke-width="1.075" stroke-linecap="round" stroke-linejoin="round"/><rect x="332.052" y="317.505" width="43.01" height="17.204" rx="8.602" fill="#39B54A"/><circle cx="366.459" cy="326.107" r="6.451" fill="#FFFFFE"/><path d="M343.55 329.141a3.356 3.356 0 0 1-1.626-.396 2.99 2.99 0 0 1-1.136-1.101 3.065 3.065 0 0 1-.404-1.566c0-.579.135-1.101.404-1.565a2.934 2.934 0 0 1 1.136-1.093 3.306 3.306 0 0 1 1.626-.404c.596 0 1.132.132 1.608.396.482.264.86.631 1.136 1.101.275.464.413.986.413 1.565 0 .58-.138 1.104-.413 1.575a2.938 2.938 0 0 1-1.136 1.092 3.259 3.259 0 0 1-1.608.396zm0-.568c.476 0 .906-.106 1.29-.318.384-.218.685-.516.903-.895a2.55 2.55 0 0 0 .327-1.282c0-.47-.109-.894-.327-1.273a2.297 2.297 0 0 0-.903-.894 2.567 2.567 0 0 0-1.29-.327c-.476 0-.909.109-1.299.327-.385.212-.688.51-.912.894a2.506 2.506 0 0 0-.327 1.273c0 .471.109.898.327 1.282.224.379.527.677.912.895.39.212.823.318 1.299.318zm9.615-5.505v6.021h-.524l-3.871-4.886v4.886h-.637v-6.021h.525l3.88 4.886v-4.886h.627z" fill="#FFFFFE"/><rect x="36.358" y="296.358" width="361.283" height="59.497" rx="8.642" stroke="#DEDEDE" stroke-width=".717" shape-rendering="crispEdges"/></g><g clip-path="url(#h)"><path d="m150.53 339.056-.015-2.994 4.128-3.067-4.951 2.542-2.538-1.617 9.475-2.206-2.22 7.382-3.109-2.345-.77 2.305z" fill="#0F8354"/><path d="m151.073 338.807.388-1.537.73.758-1.118.779z" fill="#0F8354"/><path d="M195 338.612c-.344.292-.78.455-1.231.46-.938 0-1.598-.669-1.598-1.638v-2.63h-.731c-1.12 0-1.827.276-1.827 1.624v2.529h-1.505v-5.306h1.505v.578c.663-.646 1.027-.646 1.827-.646h.731v-1.476h1.435v1.476h1.141v1.221h-1.141v2.378a.581.581 0 0 0 .023.215.54.54 0 0 0 .48.383.655.655 0 0 0 .502-.18l.389 1.012zM160.053 333.213v1.431h3.539v1.383h-3.539v1.569h3.903v1.384h-5.432v-7.15h5.432v1.383h-3.903zM164.202 336.281c0-1.522 1.322-2.79 2.898-2.79a2.662 2.662 0 0 1 2.085.929l-1.005.853a1.55 1.55 0 0 0-1.096-.507 1.497 1.497 0 0 0-1.436 1.523c0 .829.662 1.546 1.436 1.546a1.606 1.606 0 0 0 1.119-.509l1.004.853a2.793 2.793 0 0 1-2.123.947c-1.553-.031-2.882-1.322-2.882-2.845zM169.42 336.282c0-1.523 1.323-2.791 2.898-2.791 1.576 0 2.871 1.263 2.871 2.791 0 1.527-1.324 2.813-2.871 2.813s-2.898-1.291-2.898-2.813zm4.359 0a1.476 1.476 0 0 0-.884-1.424 1.454 1.454 0 0 0-1.636.337 1.472 1.472 0 0 0-.401 1.087 1.473 1.473 0 0 0 .401 1.086 1.452 1.452 0 0 0 1.059.456 1.454 1.454 0 0 0 1.06-.456 1.485 1.485 0 0 0 .401-1.086zM175.577 335.405c0-2.008 1.735-3.691 3.745-3.691a3.743 3.743 0 0 1 2.738 1.2l-1.096.992a2.136 2.136 0 0 0-1.642-.808c-1.188 0-2.193 1.06-2.193 2.283 0 1.223 1.005 2.308 2.193 2.308a2.173 2.173 0 0 0 1.642-.809l1.096.993a3.752 3.752 0 0 1-2.738 1.199c-2.01.024-3.745-1.661-3.745-3.667zM187.446 335.751v3.206h-1.436v-.531a2.094 2.094 0 0 1-1.552.669c-1.141 0-2.01-.692-2.01-1.706 0-1.062.982-1.777 2.214-1.777.463.003.921.097 1.348.276v-.113c0-.578-.343-1.063-1.233-1.063a2.776 2.776 0 0 0-1.374.393l-.503-1.015a4.765 4.765 0 0 1 2.215-.599c1.372-.024 2.331.877 2.331 2.26zm-1.461 1.523v-.486a3.588 3.588 0 0 0-1.147-.204c-.547 0-.981.323-.981.762 0 .438.387.721.897.721.592-.039 1.139-.287 1.231-.793z" fill="#1A1A1B"/></g><defs><clipPath id="b"><rect x="103" y="32" width="227" height="491.531" rx="18" fill="#fff"/></clipPath><clipPath id="e"><path fill="#fff" transform="translate(298.269 92.107)" d="M0 0h15v15H0z"/></clipPath><clipPath id="g"><path fill="#fff" transform="translate(57.505 313.204)" d="M0 0h25.806v25.806H0z"/></clipPath><clipPath id="h"><path fill="#fff" transform="translate(147.154 331.714)" d="M0 0h47.846v7.405H0z"/></clipPath><filter id="a" x="67" y="0" width="299" height="563.531" filterUnits="userSpaceOnUse" color-interpolation-filters="sRGB"><feFlood flood-opacity="0" result="BackgroundImageFix"/><feColorMatrix in="SourceAlpha" values="0 0 0 0 0 0 0 0 0 0 0 0 0 0 0 0 0 0 127 0" result="hardAlpha"/><feOffset dy="4"/><feGaussianBlur stdDeviation="15"/><feComposite in2="hardAlpha" operator="out"/><feColorMatrix values="0 0 0 0 0 0 0 0 0 0 0 0 0 0 0 0 0 0 0.25 0"/><feBlend in2="BackgroundImageFix" result="effect1_dropShadow_1_227"/><feBlend in="SourceGraphic" in2="effect1_dropShadow_1_227" result="shape"/></filter><filter id="c" x="103" y="229" width="217.315" height="158" filterUnits="userSpaceOnUse" color-interpolation-filters="sRGB"><feFlood flood-opacity="0" result="BackgroundImageFix"/><feBlend in="SourceGraphic" in2="BackgroundImageFix" result="shape"/><feColorMatrix in="SourceAlpha" values="0 0 0 0 0 0 0 0 0 0 0 0 0 0 0 0 0 0 127 0" result="hardAlpha"/><feOffset dy="-.605"/><feComposite in2="hardAlpha" operator="arithmetic" k2="-1" k3="1"/><feColorMatrix values="0 0 0 0 0.129412 0 0 0 0 0.145098 0 0 0 0 0.160784 0 0 0 0.1 0"/><feBlend in2="shape" result="effect1_innerShadow_1_227"/></filter><filter id="d" x="96.947" y="397.947" width="239.107" height="53.269" filterUnits="userSpaceOnUse" color-interpolation-filters="sRGB"><feFlood flood-opacity="0" result="BackgroundImageFix"/><feColorMatrix in="SourceAlpha" values="0 0 0 0 0 0 0 0 0 0 0 0 0 0 0 0 0 0 127 0" result="hardAlpha"/><feOffset/><feGaussianBlur stdDeviation="3.027"/><feComposite in2="hardAlpha" operator="out"/><feColorMatrix values="0 0 0 0 0 0 0 0 0 0 0 0 0 0 0 0 0 0 0.05 0"/><feBlend in2="BackgroundImageFix" result="effect1_dropShadow_1_227"/><feBlend in="SourceGraphic" in2="effect1_dropShadow_1_227" result="shape"/></filter><filter id="f" x=".969" y="265.64" width="432.061" height="130.275" filterUnits="userSpaceOnUse" color-interpolation-filters="sRGB"><feFlood flood-opacity="0" result="BackgroundImageFix"/><feColorMatrix in="SourceAlpha" values="0 0 0 0 0 0 0 0 0 0 0 0 0 0 0 0 0 0 127 0" result="hardAlpha"/><feOffset dy="4.671"/><feGaussianBlur stdDeviation="17.515"/><feComposite in2="hardAlpha" operator="out"/><feColorMatrix values="0 0 0 0 0 0 0 0 0 0 0 0 0 0 0 0 0 0 0.5 0"/><feBlend in2="BackgroundImageFix" result="effect1_dropShadow_1_227"/><feBlend in="SourceGraphic" in2="effect1_dropShadow_1_227" result="shape"/></filter></defs></svg>