<svg xmlns="http://www.w3.org/2000/svg" width="1469" height="534" viewBox="429 130 1469 534" style="enable-background:new 429 130 1469 534" xml:space="preserve"><g style="opacity:.12"><linearGradient id="a" gradientUnits="userSpaceOnUse" x1="1936.534" y1="-205.582" x2="1026.517" y2="506.132" gradientTransform="matrix(1 0 0 -1 0 796)"><stop offset=".069" style="stop-color:#15e682"/><stop offset="1" style="stop-color:#fff"/></linearGradient><path d="M482.1 157c0 14.9-11.9 27-26.5 27S429 171.9 429 157s11.9-27 26.5-27 26.6 12.1 26.6 27zm67.8 27c14.7 0 26.5-12.1 26.5-27s-11.9-27-26.5-27-26.5 12.1-26.5 27 11.9 27 26.5 27zm94.4 0c14.7 0 26.5-12.1 26.5-27s-11.9-27-26.5-27c-14.7 0-26.5 12.1-26.5 27s11.9 27 26.5 27zm0 96c14.7 0 26.5-12.1 26.5-27s-11.9-27-26.5-27c-14.7 0-26.5 12.1-26.5 27s11.9 27 26.5 27zm-67.8-27c0 14.9-11.9 27-26.5 27s-26.5-12.1-26.5-27 11.9-27 26.5-27 26.5 12.1 26.5 27zm-121 27c14.7 0 26.5-12.1 26.5-27s-11.9-27-26.5-27-26.5 12.1-26.5 27 11.9 27 26.5 27zm593-27c0 14.9-11.9 27-26.5 27-14.7 0-26.5-12.1-26.5-27s11.9-27 26.5-27 26.5 12.1 26.5 27zm351-69c14.7 0 26.5-12.1 26.5-27s-11.9-27-26.5-27-26.5 12.1-26.5 27 11.8 27 26.5 27zm26.5 69c0 14.9-11.9 27-26.5 27s-26.5-12.1-26.5-27 11.9-27 26.5-27 26.5 12.1 26.5 27zm-687.3 27c14.7 0 26.5-12.1 26.5-27s-11.9-27-26.5-27-26.5 12.1-26.5 27 11.9 27 26.5 27zm404.2-27c0 14.9-11.9 27-26.5 27-14.7 0-26.5-12.1-26.5-27s11.9-27 26.5-27 26.5 12.1 26.5 27zm351-69c14.7 0 26.6-12.1 26.6-27s-11.9-27-26.6-27-26.6 12.1-26.6 27 11.9 27 26.6 27zm26.5 69c0 14.9-11.9 27-26.6 27s-26.6-12.1-26.6-27 11.9-27 26.6-27 26.6 12.1 26.6 27zm-687.3 27c14.7 0 26.5-12.1 26.5-27s-11.9-27-26.5-27c-14.7 0-26.5 12.1-26.5 27s11.9 27 26.5 27zm404.1-27c0 14.9-11.9 27-26.5 27-14.7 0-26.5-12.1-26.5-27s11.9-27 26.5-27c14.7 0 26.5 12.1 26.5 27zm351.1-69c14.7 0 26.5-12.1 26.5-27s-11.9-27-26.5-27-26.6 12.1-26.6 27 11.9 27 26.6 27zm26.5 69c0 14.9-11.9 27-26.5 27s-26.6-12.1-26.6-27 11.9-27 26.6-27 26.5 12.1 26.5 27zm-687.3-69c14.7 0 26.5-12.1 26.5-27s-11.9-27-26.5-27-26.5 12.1-26.5 27 11.9 27 26.5 27zm26.6 69c0 14.9-11.9 27-26.5 27S901 267.9 901 253s11.9-27 26.5-27 26.6 12.1 26.6 27zm351-69c14.7 0 26.5-12.1 26.5-27s-11.9-27-26.5-27c-14.7 0-26.5 12.1-26.5 27s11.8 27 26.5 27zm26.5 69c0 14.9-11.9 27-26.5 27-14.7 0-26.5-12.1-26.5-27s11.9-27 26.5-27c14.7 0 26.5 12.1 26.5 27zm351.1-69c14.7 0 26.5-12.1 26.5-27s-11.9-27-26.5-27c-14.7 0-26.5 12.1-26.5 27s11.8 27 26.5 27zm120.9-27c0 14.9-11.9 27-26.5 27-14.7 0-26.6-12.1-26.6-27s11.9-27 26.6-27c14.6 0 26.5 12.1 26.5 27zm67.8 27c14.7 0 26.6-12.1 26.6-27s-11.9-27-26.6-27c-14.7 0-26.5 12.1-26.5 27s11.9 27 26.5 27zm-67.8 69c0 14.9-11.9 27-26.5 27-14.7 0-26.6-12.1-26.6-27s11.9-27 26.6-27c14.6 0 26.5 12.1 26.5 27zM644.3 376c14.7 0 26.5-12.1 26.5-27s-11.9-27-26.5-27c-14.7 0-26.5 12.1-26.5 27s11.9 27 26.5 27zm-162.2-27c0 14.9-11.9 27-26.5 27S429 363.9 429 349s11.9-27 26.5-27 26.6 12.1 26.6 27zm-26.6 123c14.7 0 26.5-12.1 26.5-27s-11.9-27-26.5-27-26.5 12.1-26.5 27 11.9 27 26.5 27zm593-123c0 14.9-11.9 27-26.5 27-14.7 0-26.5-12.1-26.5-27s11.9-27 26.5-27 26.5 12.1 26.5 27zm-26.6 123c14.7 0 26.5-12.1 26.5-27s-11.9-27-26.5-27c-14.7 0-26.5 12.1-26.5 27s11.8 27 26.5 27zm404.1-27c0 14.9-11.9 27-26.5 27s-26.5-12.1-26.5-27 11.9-27 26.5-27 26.5 12.1 26.5 27zm-687.3-69c14.7 0 26.5-12.1 26.5-27s-11.9-27-26.5-27-26.5 12.1-26.5 27 11.9 27 26.5 27zm404.2-27c0 14.9-11.9 27-26.5 27-14.7 0-26.5-12.1-26.5-27s11.9-27 26.5-27 26.5 12.1 26.5 27zm-26.6 123c14.7 0 26.5-12.1 26.5-27s-11.9-27-26.5-27c-14.7 0-26.5 12.1-26.5 27s11.8 27 26.5 27zm404.1-27c0 14.9-11.9 27-26.6 27s-26.6-12.1-26.6-27 11.9-27 26.6-27 26.6 12.1 26.6 27zm-687.3-69c14.7 0 26.5-12.1 26.5-27s-11.9-27-26.5-27c-14.7 0-26.5 12.1-26.5 27s11.9 27 26.5 27zm26.6 69c0 14.9-11.9 27-26.5 27-14.7 0-26.5-12.1-26.5-27s11.9-27 26.5-27 26.5 12.1 26.5 27zm351-69c14.7 0 26.5-12.1 26.5-27s-11.9-27-26.5-27c-14.7 0-26.5 12.1-26.5 27s11.8 27 26.5 27zm26.5 69c0 14.9-11.9 27-26.5 27-14.7 0-26.5-12.1-26.5-27s11.9-27 26.5-27c14.7 0 26.5 12.1 26.5 27zm351.1 27c14.7 0 26.5-12.1 26.5-27s-11.9-27-26.5-27-26.6 12.1-26.6 27 11.9 27 26.6 27zM954.1 349c0 14.9-11.9 27-26.5 27S901 363.9 901 349s11.9-27 26.5-27 26.6 12.1 26.6 27zm351 27c14.7 0 26.5-12.1 26.5-27s-11.9-27-26.5-27c-14.7 0-26.5 12.1-26.5 27s11.8 27 26.5 27zm26.5 69c0 14.9-11.9 27-26.5 27-14.7 0-26.5-12.1-26.5-27s11.9-27 26.5-27c14.7 0 26.5 12.1 26.5 27zm445.5-69c14.7 0 26.5-12.1 26.5-27s-11.9-27-26.5-27c-14.7 0-26.6 12.1-26.6 27s11.9 27 26.6 27zm-67.9 69c0 14.9-11.9 27-26.5 27-14.7 0-26.5-12.1-26.5-27s11.9-27 26.5-27 26.5 12.1 26.5 27zm67.9 27c14.7 0 26.5-12.1 26.5-27s-11.9-27-26.5-27c-14.7 0-26.6 12.1-26.6 27s11.9 27 26.6 27zm120.9-27c0 14.9-11.9 27-26.6 27-14.7 0-26.5-12.1-26.5-27s11.9-27 26.5-27c14.7 0 26.6 12.1 26.6 27zM549.9 568c14.7 0 26.5-12.1 26.5-27s-11.9-27-26.5-27-26.5 12.1-26.5 27 11.9 27 26.5 27zm26.6-123c0 14.9-11.9 27-26.5 27s-26.5-12.1-26.5-27 11.9-27 26.5-27 26.5 12.1 26.5 27zm-121 123c14.7 0 26.5-12.1 26.5-27s-11.9-27-26.5-27-26.5 12.1-26.5 27 11.9 27 26.5 27zm26.6 69c0 14.9-11.9 27-26.5 27S429 651.9 429 637s11.9-27 26.5-27 26.6 12.1 26.6 27zm539.8 27c14.7 0 26.5-12.1 26.5-27s-11.9-27-26.5-27c-14.7 0-26.5 12.1-26.5 27s11.8 27 26.5 27zM1426 541c0 14.9-11.9 27-26.5 27s-26.5-12.1-26.5-27 11.9-27 26.5-27 26.5 12.1 26.5 27zm-26.5 123c14.7 0 26.5-12.1 26.5-27s-11.9-27-26.5-27-26.5 12.1-26.5 27 11.8 27 26.5 27zm-256.6-27c0 14.9-11.9 27-26.5 27-14.7 0-26.5-12.1-26.5-27s11.9-27 26.5-27 26.5 12.1 26.5 27zm351-69c14.7 0 26.6-12.1 26.6-27s-11.9-27-26.6-27-26.6 12.1-26.6 27 11.9 27 26.6 27zm26.5 69c0 14.9-11.9 27-26.6 27s-26.6-12.1-26.6-27 11.9-27 26.6-27 26.6 12.1 26.6 27zm-687.3 27c14.7 0 26.5-12.1 26.5-27s-11.9-27-26.5-27c-14.7 0-26.5 12.1-26.5 27s11.9 27 26.5 27zm404.1-27c0 14.9-11.9 27-26.5 27-14.7 0-26.5-12.1-26.5-27s11.9-27 26.5-27c14.7 0 26.5 12.1 26.5 27zm351.1-69c14.7 0 26.5-12.1 26.5-27s-11.9-27-26.5-27-26.6 12.1-26.6 27 11.9 27 26.6 27zm26.5 69c0 14.9-11.9 27-26.5 27s-26.6-12.1-26.6-27 11.9-27 26.6-27 26.5 12.1 26.5 27zm-687.3 27c14.7 0 26.5-12.1 26.5-27s-11.9-27-26.5-27-26.5 12.1-26.5 27 11.9 27 26.5 27zm404.1-27c0 14.9-11.9 27-26.5 27-14.7 0-26.5-12.1-26.5-27s11.9-27 26.5-27c14.7 0 26.5 12.1 26.5 27zm351.1-69c14.7 0 26.5-12.1 26.5-27s-11.9-27-26.5-27c-14.7 0-26.5 12.1-26.5 27s11.8 27 26.5 27zm120.9-27c0 14.9-11.9 27-26.5 27-14.7 0-26.6-12.1-26.6-27s11.9-27 26.6-27c14.6 0 26.5 12.1 26.5 27zm67.8 27c14.7 0 26.6-12.1 26.6-27s-11.9-27-26.6-27c-14.7 0-26.5 12.1-26.5 27s11.9 27 26.5 27zm-162.2 69c0 14.9-11.9 27-26.5 27-14.7 0-26.5-12.1-26.5-27s11.9-27 26.5-27 26.5 12.1 26.5 27zm162.2 27c14.7 0 26.6-12.1 26.6-27s-11.9-27-26.6-27c-14.7 0-26.5 12.1-26.5 27s11.9 27 26.5 27z" style="fill:url(#a)"/></g></svg>