<svg version="1.1" id="Layer_1" xmlns="http://www.w3.org/2000/svg" x="0" y="0" width="1494" height="630" viewBox="441 82 1494 630" style="enable-background:new 441 82 1494 630" xml:space="preserve"><style>.st1{fill:#15e682}</style><g style="opacity:2.000000e-002"><circle class="st1" cx="660" cy="109" r="27"/><circle class="st1" cx="660" cy="205" r="27"/><circle class="st1" cx="564" cy="205" r="27"/><circle class="st1" cx="1044" cy="109" r="27"/><circle class="st1" cx="1428" cy="109" r="27"/><circle class="st1" cx="1428" cy="205" r="27"/><circle class="st1" cx="756" cy="109" r="27"/><circle class="st1" cx="756" cy="205" r="27"/><circle class="st1" cx="1140" cy="109" r="27"/><circle class="st1" cx="1140" cy="205" r="27"/><circle class="st1" cx="1524" cy="109" r="27"/><circle class="st1" cx="1524" cy="205" r="27"/><circle class="st1" cx="852" cy="205" r="27"/><circle class="st1" cx="1236" cy="109" r="27"/><circle class="st1" cx="1236" cy="205" r="27"/><circle class="st1" cx="1620" cy="109" r="27"/><circle class="st1" cx="1620" cy="205" r="27"/><circle class="st1" cx="948" cy="109" r="27"/><circle class="st1" cx="1332" cy="109" r="27"/><circle class="st1" cx="1332" cy="205" r="27"/><circle class="st1" cx="1716" cy="109" r="27"/><circle class="st1" cx="1812" cy="109" r="27"/><circle class="st1" cx="1908" cy="109" r="27"/><circle class="st1" cx="1716" cy="205" r="27"/><circle class="st1" cx="1812" cy="205" r="27"/><circle class="st1" cx="1908" cy="205" r="27"/><circle class="st1" cx="660" cy="301" r="27"/><circle class="st1" cx="468" cy="397" r="27"/><circle class="st1" cx="1044" cy="397" r="27"/><circle class="st1" cx="1428" cy="301" r="27"/><circle class="st1" cx="1428" cy="397" r="27"/><circle class="st1" cx="756" cy="301" r="27"/><circle class="st1" cx="1140" cy="301" r="27"/><circle class="st1" cx="1140" cy="397" r="27"/><circle class="st1" cx="1524" cy="301" r="27"/><circle class="st1" cx="1524" cy="397" r="27"/><circle class="st1" cx="852" cy="301" r="27"/><circle class="st1" cx="852" cy="397" r="27"/><circle class="st1" cx="948" cy="397" r="27"/><circle class="st1" cx="1236" cy="301" r="27"/><circle class="st1" cx="1236" cy="397" r="27"/><circle class="st1" cx="1620" cy="301" r="27"/><circle class="st1" cx="1620" cy="397" r="27"/><circle class="st1" cx="948" cy="301" r="27"/><circle class="st1" cx="1332" cy="301" r="27"/><circle class="st1" cx="1332" cy="397" r="27"/><circle class="st1" cx="1716" cy="301" r="27"/><circle class="st1" cx="1812" cy="301" r="27"/><circle class="st1" cx="1908" cy="301" r="27"/><circle class="st1" cx="1716" cy="397" r="27"/><circle class="st1" cx="1812" cy="397" r="27"/><circle class="st1" cx="1908" cy="397" r="27"/><circle class="st1" cx="564" cy="493" r="27"/><circle class="st1" cx="660" cy="493" r="27"/><circle class="st1" cx="756" cy="493" r="27"/><circle class="st1" cx="756" cy="397" r="27"/><circle class="st1" cx="564" cy="397" r="27"/><circle class="st1" cx="468" cy="589" r="27"/><circle class="st1" cx="564" cy="589" r="27"/><circle class="st1" cx="1044" cy="493" r="27"/><circle class="st1" cx="1044" cy="589" r="27"/><circle class="st1" cx="1428" cy="493" r="27"/><circle class="st1" cx="1428" cy="589" r="27"/><circle class="st1" cx="1140" cy="493" r="27"/><circle class="st1" cx="1524" cy="493" r="27"/><circle class="st1" cx="1524" cy="589" r="27"/><circle class="st1" cx="852" cy="493" r="27"/><circle class="st1" cx="852" cy="589" r="27"/><circle class="st1" cx="1620" cy="493" r="27"/><circle class="st1" cx="1620" cy="589" r="27"/><circle class="st1" cx="948" cy="493" r="27"/><circle class="st1" cx="948" cy="589" r="27"/><circle class="st1" cx="1332" cy="493" r="27"/><circle class="st1" cx="1332" cy="589" r="27"/><circle class="st1" cx="1716" cy="493" r="27"/><circle class="st1" cx="1812" cy="493" r="27"/><circle class="st1" cx="1908" cy="493" r="27"/><circle class="st1" cx="1716" cy="589" r="27"/><circle class="st1" cx="1812" cy="589" r="27"/><circle class="st1" cx="1908" cy="589" r="27"/><circle class="st1" cx="660" cy="685" r="27"/><circle class="st1" cx="660" cy="589" r="27"/><circle class="st1" cx="1044" cy="685" r="27"/><circle class="st1" cx="1428" cy="685" r="27"/><circle class="st1" cx="756" cy="685" r="27"/><circle class="st1" cx="756" cy="589" r="27"/><circle class="st1" cx="1140" cy="685" r="27"/><circle class="st1" cx="1524" cy="685" r="27"/><circle class="st1" cx="852" cy="685" r="27"/><circle class="st1" cx="1236" cy="685" r="27"/><circle class="st1" cx="1620" cy="685" r="27"/><circle class="st1" cx="948" cy="685" r="27"/><circle class="st1" cx="1332" cy="685" r="27"/><circle class="st1" cx="1716" cy="685" r="27"/><circle class="st1" cx="1812" cy="685" r="27"/><circle class="st1" cx="1908" cy="685" r="27"/></g></svg>