<svg version="1.1" id="Layer_1" xmlns="http://www.w3.org/2000/svg" x="0" y="0" width="300" height="676" viewBox="-164 59 300 676" style="enable-background:new -164 59 300 676" xml:space="preserve"><style>.st1{fill:#15e682}</style><g style="opacity:4.000000e-002"><circle class="st1" cx="67" cy="548" r="15"/><circle class="st1" cx="67" cy="494" r="15"/><circle class="st1" cx="67" cy="434" r="15"/><circle class="st1" cx="-41" cy="434" r="15"/><circle class="st1" cx="67" cy="374" r="15"/><circle class="st1" cx="-41" cy="374" r="15"/><circle class="st1" cx="67" cy="314" r="15"/><circle class="st1" cx="-41" cy="314" r="15"/><circle class="st1" cx="67" cy="254" r="15"/><circle class="st1" cx="67" cy="194" r="15"/><circle class="st1" cx="-41" cy="194" r="15"/><circle class="st1" cx="67" cy="134" r="15"/><circle class="st1" cx="-41" cy="134" r="15"/><circle class="st1" cx="-41" cy="74" r="15"/><circle class="st1" cx="67" cy="602" r="15"/><circle class="st1" cx="121" cy="494" r="15"/><circle class="st1" cx="121" cy="434" r="15"/><circle class="st1" cx="13" cy="434" r="15"/><circle class="st1" cx="-95" cy="434" r="15"/><circle class="st1" cx="121" cy="374" r="15"/><circle class="st1" cx="13" cy="374" r="15"/><circle class="st1" cx="-95" cy="374" r="15"/><circle class="st1" cx="-149" cy="374" r="15"/><circle class="st1" cx="121" cy="314" r="15"/><circle class="st1" cx="13" cy="314" r="15"/><circle class="st1" cx="-95" cy="314" r="15"/><circle class="st1" cx="121" cy="254" r="15"/><circle class="st1" cx="13" cy="254" r="15"/><circle class="st1" cx="-149" cy="254" r="15"/><circle class="st1" cx="121" cy="194" r="15"/><circle class="st1" cx="13" cy="194" r="15"/><circle class="st1" cx="121" cy="134" r="15"/><circle class="st1" cx="13" cy="134" r="15"/><circle class="st1" cx="-95" cy="134" r="15"/><circle class="st1" cx="121" cy="74" r="15"/><circle class="st1" cx="13" cy="74" r="15"/><circle class="st1" cx="121" cy="548" r="15"/><circle class="st1" cx="121" cy="661" r="15"/><circle class="st1" cx="121" cy="720" r="15"/></g></svg>