<svg width="168" height="26" viewBox="0 0 168 26" fill="none" xmlns="http://www.w3.org/2000/svg"><path d="m11.852 25.778-.05-10.514L26.294 4.497 8.909 13.42 0 7.746 33.269 0l-7.795 25.918-10.919-8.234-2.703 8.094z" fill="#FFFFFE"/><path d="m13.76 24.904 1.362-5.396 2.564 2.66-3.925 2.736zM168 24.22a6.794 6.794 0 0 1-4.322 1.615c-3.295 0-5.614-2.35-5.614-5.75V10.85H155.5c-3.932 0-6.415.969-6.415 5.7v8.88h-5.286V6.803h5.286v2.026c2.325-2.267 3.604-2.267 6.415-2.267h2.564V1.38h5.041v5.18h4.007v4.289h-4.007v8.348a1.93 1.93 0 0 0 .446 1.42 1.931 1.931 0 0 0 1.318.683 2.32 2.32 0 0 0 1.764-.634L168 24.22zM45.29 5.263v5.023h12.425v4.858H45.29v5.51h13.705v4.858H39.922V.405h19.073v4.858H45.29zM59.858 16.037c0-5.346 4.644-9.798 10.176-9.798a9.359 9.359 0 0 1 4.024.808A9.404 9.404 0 0 1 77.356 9.5l-3.529 2.995a5.42 5.42 0 0 0-3.85-1.78 5.243 5.243 0 0 0-3.6 1.645 5.298 5.298 0 0 0-1.44 3.701c0 2.914 2.325 5.428 5.04 5.428a5.584 5.584 0 0 0 3.932-1.786l3.522 2.996a9.801 9.801 0 0 1-3.366 2.48 9.755 9.755 0 0 1-4.087.845c-5.45-.107-10.12-4.642-10.12-9.988zM78.182 16.037c0-5.346 4.643-9.798 10.175-9.798 5.533 0 10.082 4.433 10.082 9.798s-4.65 9.88-10.081 9.88c-5.432 0-10.176-4.534-10.176-9.88zm15.304 0a5.186 5.186 0 0 0-1.409-3.814 5.134 5.134 0 0 0-3.72-1.604 5.113 5.113 0 0 0-3.72 1.604 5.165 5.165 0 0 0-1.408 3.814 5.188 5.188 0 0 0 1.409 3.814 5.134 5.134 0 0 0 3.72 1.604 5.111 5.111 0 0 0 3.72-1.604 5.167 5.167 0 0 0 1.408-3.814zM99.8 12.959C99.8 5.909 105.893 0 112.95 0c1.804.003 3.588.378 5.242 1.102a13.17 13.17 0 0 1 4.373 3.11l-3.85 3.483a7.57 7.57 0 0 0-2.568-2.064 7.532 7.532 0 0 0-3.197-.773c-4.171 0-7.7 3.724-7.7 8.018 0 4.295 3.529 8.101 7.7 8.101a7.676 7.676 0 0 0 5.765-2.837l3.85 3.483a13.17 13.17 0 0 1-4.373 3.11 13.107 13.107 0 0 1-5.242 1.102c-7.057.083-13.15-5.833-13.15-12.876zM141.474 14.175V25.43h-5.041v-1.862a7.353 7.353 0 0 1-5.45 2.35c-4.008 0-7.057-2.432-7.057-5.992 0-3.73 3.446-6.239 7.775-6.239a12.4 12.4 0 0 1 4.732.97v-.4c0-2.026-1.203-3.73-4.329-3.73a9.754 9.754 0 0 0-4.826 1.38l-1.764-3.565a16.742 16.742 0 0 1 7.775-2.103c4.82-.082 8.185 3.078 8.185 7.936zm-5.129 5.346v-1.704a12.597 12.597 0 0 0-4.026-.716c-1.922 0-3.447 1.134-3.447 2.673 0 1.54 1.361 2.534 3.15 2.534 2.08-.14 4.001-1.008 4.323-2.787z" fill="#FFFFFE"/></svg>