<svg width="168" height="26" viewBox="0 0 168 26" fill="none" xmlns="http://www.w3.org/2000/svg"><path d="m11.852 25.778-.05-10.514L26.294 4.497 8.909 13.42 0 7.746 33.269 0l-7.795 25.918-10.919-8.234-2.703 8.094z" fill="#0F8354"/><path d="m13.761 24.904 1.361-5.396 2.565 2.66-3.926 2.736z" fill="#0F8354"/><path d="M168 24.22a6.796 6.796 0 0 1-4.322 1.615c-3.296 0-5.614-2.35-5.614-5.75V10.85h-2.565c-3.932 0-6.414.969-6.414 5.7v8.88h-5.287V6.803h5.287v2.026c2.325-2.267 3.604-2.267 6.414-2.267h2.565V1.38h5.04v5.18h4.008v4.289h-4.008v8.348a1.947 1.947 0 0 0 1.038 1.894c.226.117.473.188.726.209a2.324 2.324 0 0 0 1.765-.634L168 24.22zM45.29 5.263v5.023h12.426v4.858H45.291v5.51h13.704v4.858H39.922V.405h19.073v4.858H45.291zM59.858 16.037c0-5.346 4.644-9.798 10.176-9.798a9.359 9.359 0 0 1 4.024.808A9.404 9.404 0 0 1 77.356 9.5l-3.529 2.995a5.42 5.42 0 0 0-3.85-1.78 5.243 5.243 0 0 0-3.6 1.645 5.298 5.298 0 0 0-1.44 3.701c0 2.914 2.325 5.428 5.04 5.428a5.583 5.583 0 0 0 3.932-1.786l3.522 2.996a9.801 9.801 0 0 1-3.366 2.48 9.755 9.755 0 0 1-4.087.845c-5.45-.107-10.12-4.642-10.12-9.988zM78.181 16.037c0-5.346 4.644-9.798 10.176-9.798s10.081 4.433 10.081 9.798-4.65 9.88-10.081 9.88c-5.431 0-10.176-4.534-10.176-9.88zm15.305 0a5.188 5.188 0 0 0-1.409-3.814 5.133 5.133 0 0 0-3.72-1.604 5.113 5.113 0 0 0-3.72 1.604 5.165 5.165 0 0 0-1.409 3.814 5.188 5.188 0 0 0 1.41 3.814 5.134 5.134 0 0 0 3.719 1.604 5.111 5.111 0 0 0 3.72-1.604 5.167 5.167 0 0 0 1.409-3.814zM99.8 12.959C99.8 5.909 105.891 0 112.948 0c1.804.003 3.589.378 5.243 1.102a13.166 13.166 0 0 1 4.372 3.11l-3.849 3.483a7.574 7.574 0 0 0-2.569-2.064 7.528 7.528 0 0 0-3.197-.773c-4.171 0-7.699 3.724-7.699 8.018 0 4.295 3.528 8.101 7.699 8.101a7.649 7.649 0 0 0 3.192-.784 7.696 7.696 0 0 0 2.574-2.053l3.849 3.483a13.166 13.166 0 0 1-4.372 3.11 13.112 13.112 0 0 1-5.243 1.102c-7.057.083-13.15-5.833-13.15-12.876zM141.473 14.175V25.43h-5.04v-1.863a7.393 7.393 0 0 1-2.481 1.75 7.348 7.348 0 0 1-2.97.6c-4.007 0-7.057-2.432-7.057-5.991 0-3.731 3.447-6.24 7.776-6.24 1.625.01 3.232.34 4.732.97v-.4c0-2.026-1.204-3.73-4.329-3.73a9.757 9.757 0 0 0-4.827 1.381l-1.764-3.566a16.742 16.742 0 0 1 7.775-2.103c4.821-.082 8.185 3.079 8.185 7.937zm-5.129 5.345v-1.703a12.584 12.584 0 0 0-4.026-.716c-1.922 0-3.447 1.134-3.447 2.673 0 1.539 1.361 2.533 3.151 2.533 2.079-.14 4.001-1.007 4.322-2.787z" fill="#1A1A1B"/></svg>