<svg width="1468" height="534" fill="none" xmlns="http://www.w3.org/2000/svg"><path fill-rule="evenodd" clip-rule="evenodd" d="M1414.94 27c0 14.912 11.88 27 26.53 27S1468 41.912 1468 27s-11.88-27-26.53-27-26.53 12.088-26.53 27zm-67.8 27c-14.65 0-26.53-12.088-26.53-27s11.88-27 26.53-27 26.53 12.088 26.53 27-11.88 27-26.53 27zm-94.33 0c-14.65 0-26.53-12.088-26.53-27s11.88-27 26.53-27 26.53 12.088 26.53 27-11.88 27-26.53 27zm0 96c-14.65 0-26.53-12.088-26.53-27s11.88-27 26.53-27 26.53 12.088 26.53 27-11.88 27-26.53 27zm67.8-27c0 14.912 11.88 27 26.53 27s26.53-12.088 26.53-27-11.88-27-26.53-27-26.53 12.088-26.53 27zm120.86 27c-14.65 0-26.53-12.088-26.53-27s11.88-27 26.53-27 26.53 12.088 26.53 27-11.88 27-26.53 27zm-592.505-27c0 14.912 11.878 27 26.53 27 14.652 0 26.53-12.088 26.53-27s-11.878-27-26.53-27c-14.652 0-26.53 12.088-26.53 27zM498.178 54c-14.653 0-26.53-12.088-26.53-27s11.877-27 26.53-27c14.652 0 26.53 12.088 26.53 27s-11.878 27-26.53 27zm-26.53 69c0 14.912 11.877 27 26.53 27 14.652 0 26.53-12.088 26.53-27s-11.878-27-26.53-27c-14.653 0-26.53 12.088-26.53 27zm686.832 27c-14.65 0-26.53-12.088-26.53-27s11.88-27 26.53-27 26.53 12.088 26.53 27-11.88 27-26.53 27zm-403.846-27c0 14.912 11.878 27 26.531 27 14.652 0 26.53-12.088 26.53-27s-11.878-27-26.53-27c-14.653 0-26.531 12.088-26.531 27zM403.847 54c-14.652 0-26.53-12.088-26.53-27s11.878-27 26.53-27c14.653 0 26.53 12.088 26.53 27s-11.877 27-26.53 27zm-26.53 69c0 14.912 11.878 27 26.53 27 14.653 0 26.53-12.088 26.53-27s-11.877-27-26.53-27c-14.652 0-26.53 12.088-26.53 27zm686.833 27c-14.65 0-26.53-12.088-26.53-27s11.88-27 26.53-27c14.66 0 26.53 12.088 26.53 27s-11.87 27-26.53 27zm-403.844-27c0 14.912 11.878 27 26.53 27 14.652 0 26.53-12.088 26.53-27s-11.878-27-26.53-27c-14.652 0-26.53 12.088-26.53 27zM309.519 54c-14.652 0-26.53-12.088-26.53-27s11.878-27 26.53-27c14.652 0 26.53 12.088 26.53 27s-11.878 27-26.53 27zm-26.53 69c0 14.912 11.878 27 26.53 27 14.652 0 26.53-12.088 26.53-27s-11.878-27-26.53-27c-14.652 0-26.53 12.088-26.53 27zm686.834-69c-14.652 0-26.53-12.088-26.53-27s11.878-27 26.53-27c14.652 0 26.53 12.088 26.53 27s-11.878 27-26.53 27zm-26.53 69c0 14.912 11.878 27 26.53 27 14.652 0 26.53-12.088 26.53-27s-11.878-27-26.53-27c-14.652 0-26.53 12.088-26.53 27zM592.506 54c-14.652 0-26.53-12.088-26.53-27s11.878-27 26.53-27c14.652 0 26.53 12.088 26.53 27s-11.878 27-26.53 27zm-26.53 69c0 14.912 11.878 27 26.53 27 14.652 0 26.53-12.088 26.53-27s-11.878-27-26.53-27c-14.652 0-26.53 12.088-26.53 27zM215.189 54c-14.652 0-26.53-12.088-26.53-27s11.878-27 26.53-27c14.652 0 26.53 12.088 26.53 27s-11.878 27-26.53 27zM94.33 27c0 14.912 11.878 27 26.53 27 14.653 0 26.531-12.088 26.531-27S135.513 0 120.86 0c-14.652 0-26.53 12.088-26.53 27zm-67.8 27C11.878 54 0 41.912 0 27S11.878 0 26.53 0c14.652 0 26.53 12.088 26.53 27S41.182 54 26.53 54zm67.8 69c0 14.912 11.878 27 26.53 27 14.653 0 26.531-12.088 26.531-27s-11.878-27-26.531-27c-14.652 0-26.53 12.088-26.53 27zm1158.48 123c-14.65 0-26.53-12.088-26.53-27s11.88-27 26.53-27 26.53 12.088 26.53 27-11.88 27-26.53 27zm162.13-27c0 14.912 11.88 27 26.53 27s26.53-12.088 26.53-27-11.88-27-26.53-27-26.53 12.088-26.53 27zm26.53 123c-14.65 0-26.53-12.088-26.53-27s11.88-27 26.53-27 26.53 12.088 26.53 27-11.88 27-26.53 27zM848.965 219c0 14.912 11.878 27 26.53 27 14.652 0 26.53-12.088 26.53-27s-11.878-27-26.53-27c-14.652 0-26.53 12.088-26.53 27zm26.53 123c-14.652 0-26.53-12.088-26.53-27s11.878-27 26.53-27c14.652 0 26.53 12.088 26.53 27s-11.878 27-26.53 27zm-403.847-27c0 14.912 11.877 27 26.53 27 14.652 0 26.53-12.088 26.53-27s-11.878-27-26.53-27c-14.653 0-26.53 12.088-26.53 27zm686.832-69c-14.65 0-26.53-12.088-26.53-27s11.88-27 26.53-27 26.53 12.088 26.53 27-11.88 27-26.53 27zm-403.846-27c0 14.912 11.878 27 26.531 27 14.652 0 26.53-12.088 26.53-27s-11.878-27-26.53-27c-14.653 0-26.531 12.088-26.531 27zm26.531 123c-14.653 0-26.531-12.088-26.531-27s11.878-27 26.531-27c14.652 0 26.53 12.088 26.53 27s-11.878 27-26.53 27zm-403.848-27c0 14.912 11.878 27 26.53 27 14.653 0 26.53-12.088 26.53-27s-11.877-27-26.53-27c-14.652 0-26.53 12.088-26.53 27zm686.833-69c-14.65 0-26.53-12.088-26.53-27s11.88-27 26.53-27c14.66 0 26.53 12.088 26.53 27s-11.87 27-26.53 27zm-26.53 69c0 14.912 11.88 27 26.53 27 14.66 0 26.53-12.088 26.53-27s-11.87-27-26.53-27c-14.65 0-26.53 12.088-26.53 27zm-350.784-69c-14.652 0-26.53-12.088-26.53-27s11.878-27 26.53-27c14.652 0 26.53 12.088 26.53 27s-11.878 27-26.53 27zm-26.53 69c0 14.912 11.878 27 26.53 27 14.652 0 26.53-12.088 26.53-27s-11.878-27-26.53-27c-14.652 0-26.53 12.088-26.53 27zm-350.787 27c-14.652 0-26.53-12.088-26.53-27s11.878-27 26.53-27c14.652 0 26.53 12.088 26.53 27s-11.878 27-26.53 27zm633.774-123c0 14.912 11.878 27 26.53 27 14.652 0 26.53-12.088 26.53-27s-11.878-27-26.53-27c-14.652 0-26.53 12.088-26.53 27zm-350.787 27c-14.652 0-26.53-12.088-26.53-27s11.878-27 26.53-27c14.652 0 26.53 12.088 26.53 27s-11.878 27-26.53 27zm-26.53 69c0 14.912 11.878 27 26.53 27 14.652 0 26.53-12.088 26.53-27s-11.878-27-26.53-27c-14.652 0-26.53 12.088-26.53 27zM120.86 246c-14.652 0-26.53-12.088-26.53-27s11.878-27 26.53-27c14.653 0 26.531 12.088 26.531 27s-11.878 27-26.531 27zm67.799 69c0 14.912 11.878 27 26.53 27 14.652 0 26.53-12.088 26.53-27s-11.878-27-26.53-27c-14.652 0-26.53 12.088-26.53 27zm-67.798 27c-14.653 0-26.53-12.088-26.53-27s11.877-27 26.529-27c14.653 0 26.531 12.088 26.531 27s-11.878 27-26.53 27zM0 315c0 14.912 11.878 27 26.53 27 14.652 0 26.53-12.088 26.53-27s-11.878-27-26.53-27C11.878 288 0 300.088 0 315zm1347.14 123c-14.65 0-26.53-12.088-26.53-27s11.88-27 26.53-27 26.53 12.088 26.53 27-11.88 27-26.53 27zm-26.53-123c0 14.912 11.88 27 26.53 27s26.53-12.088 26.53-27-11.88-27-26.53-27-26.53 12.088-26.53 27zm120.86 123c-14.65 0-26.53-12.088-26.53-27s11.88-27 26.53-27 26.53 12.088 26.53 27-11.88 27-26.53 27zm-26.53 69c0 14.912 11.88 27 26.53 27s26.53-12.088 26.53-27-11.88-27-26.53-27-26.53 12.088-26.53 27zm-539.445 27c-14.652 0-26.53-12.088-26.53-27s11.878-27 26.53-27c14.652 0 26.53 12.088 26.53 27s-11.878 27-26.53 27zM471.648 411c0 14.912 11.877 27 26.53 27 14.652 0 26.53-12.088 26.53-27s-11.878-27-26.53-27c-14.653 0-26.53 12.088-26.53 27zm26.53 123c-14.653 0-26.53-12.088-26.53-27s11.877-27 26.53-27c14.652 0 26.53 12.088 26.53 27s-11.878 27-26.53 27zm256.457-27c0 14.912 11.877 27 26.53 27 14.652 0 26.53-12.088 26.53-27s-11.878-27-26.53-27c-14.653 0-26.53 12.088-26.53 27zm-350.788-69c-14.652 0-26.53-12.088-26.53-27s11.878-27 26.53-27c14.653 0 26.53 12.088 26.53 27s-11.877 27-26.53 27zm-26.53 69c0 14.912 11.878 27 26.53 27 14.653 0 26.53-12.088 26.53-27s-11.877-27-26.53-27c-14.652 0-26.53 12.088-26.53 27zm686.833 27c-14.65 0-26.53-12.088-26.53-27s11.88-27 26.53-27c14.66 0 26.53 12.088 26.53 27s-11.87 27-26.53 27zm-403.844-27c0 14.912 11.878 27 26.53 27 14.652 0 26.53-12.088 26.53-27s-11.878-27-26.53-27c-14.652 0-26.53 12.088-26.53 27zm-350.787-69c-14.652 0-26.53-12.088-26.53-27s11.878-27 26.53-27c14.652 0 26.53 12.088 26.53 27s-11.878 27-26.53 27zm-26.53 69c0 14.912 11.878 27 26.53 27 14.652 0 26.53-12.088 26.53-27s-11.878-27-26.53-27c-14.652 0-26.53 12.088-26.53 27zm686.834 27c-14.652 0-26.53-12.088-26.53-27s11.878-27 26.53-27c14.652 0 26.53 12.088 26.53 27s-11.878 27-26.53 27zm-403.847-27c0 14.912 11.878 27 26.53 27 14.652 0 26.53-12.088 26.53-27s-11.878-27-26.53-27c-14.652 0-26.53 12.088-26.53 27zm-350.787-69c-14.652 0-26.53-12.088-26.53-27s11.878-27 26.53-27c14.652 0 26.53 12.088 26.53 27s-11.878 27-26.53 27zM94.33 411c0 14.912 11.878 27 26.531 27 14.652 0 26.53-12.088 26.53-27s-11.878-27-26.53-27c-14.653 0-26.53 12.088-26.53 27zm-67.8 27C11.878 438 0 425.912 0 411s11.878-27 26.53-27c14.652 0 26.53 12.088 26.53 27s-11.878 27-26.53 27zm162.129 69c0 14.912 11.878 27 26.53 27 14.652 0 26.53-12.088 26.53-27s-11.878-27-26.53-27c-14.652 0-26.53 12.088-26.53 27zM26.53 534C11.878 534 0 521.912 0 507s11.878-27 26.53-27c14.652 0 26.53 12.088 26.53 27s-11.878 27-26.53 27z" fill="url(#a)" opacity=".12"/><defs><linearGradient id="a" x1="-197.011" y1="668.772" x2="712.851" y2="-42.342" gradientUnits="userSpaceOnUse"><stop offset=".069" stop-color="#15E682"/><stop offset="1" stop-color="#fff"/></linearGradient></defs></svg>