<svg width="26" height="26" viewBox="0 0 26 26" fill="none" xmlns="http://www.w3.org/2000/svg"><path d="M12.925.799c-3.424 0-3.851.016-5.191.073-1.346.066-2.256.275-3.059.586a6.178 6.178 0 0 0-2.23 1.456 6.108 6.108 0 0 0-1.456 2.23c-.312.804-.52 1.714-.587 3.06C.342 9.544.33 9.97.33 13.394c0 3.425.016 3.852.073 5.192.066 1.341.275 2.256.587 3.059.317.84.814 1.601 1.455 2.23a6.106 6.106 0 0 0 2.231 1.456c.803.308 1.717.52 3.059.587 1.34.06 1.767.073 5.191.073s3.85-.017 5.191-.073c1.342-.066 2.256-.28 3.059-.587a6.179 6.179 0 0 0 2.23-1.456 6.075 6.075 0 0 0 1.456-2.23c.308-.803.52-1.718.587-3.06.06-1.34.073-1.766.073-5.19 0-3.425-.016-3.851-.073-5.191-.066-1.342-.28-2.26-.587-3.06a6.18 6.18 0 0 0-1.456-2.23 6.075 6.075 0 0 0-2.23-1.456c-.803-.311-1.717-.52-3.059-.586-1.34-.06-1.767-.073-5.191-.073zm0 2.267c3.363 0 3.764.017 5.093.073 1.226.058 1.894.263 2.337.436a3.927 3.927 0 0 1 1.452.942c.418.406.738.901.939 1.448.173.443.378 1.111.435 2.337.057 1.33.073 1.732.073 5.094 0 3.361-.016 3.764-.078 5.093-.066 1.226-.27 1.893-.443 2.337a4.097 4.097 0 0 1-.944 1.452c-.41.415-.905.736-1.452.938-.438.173-1.115.378-2.345.436-1.337.056-1.73.073-5.102.073-3.371 0-3.764-.017-5.102-.078-1.226-.066-1.902-.271-2.345-.443a3.952 3.952 0 0 1-1.448-.945 3.782 3.782 0 0 1-.943-1.451c-.176-.438-.378-1.115-.443-2.346-.045-1.32-.066-1.73-.066-5.085 0-3.354.021-3.765.066-5.102.065-1.23.267-1.906.443-2.345.218-.6.5-1.009.943-1.452.438-.439.85-.722 1.448-.944.443-.173 1.103-.377 2.333-.439 1.337-.048 1.73-.065 5.097-.065l.052.036zm0 3.864A6.464 6.464 0 0 0 6.95 15.87a6.464 6.464 0 0 0 8.45 3.5 6.463 6.463 0 0 0 3.992-5.975 6.464 6.464 0 0 0-6.467-6.466zm0 10.665a4.196 4.196 0 0 1-4.199-4.199 4.196 4.196 0 0 1 4.199-4.199 4.196 4.196 0 0 1 4.199 4.2 4.196 4.196 0 0 1-4.199 4.198zm8.239-10.924a1.514 1.514 0 0 1-2.583 1.07 1.51 1.51 0 0 1 1.069-2.579c.832 0 1.514.677 1.514 1.51z" fill="#FFFFFE"/></svg>