<svg width="23" height="23" fill="none" xmlns="http://www.w3.org/2000/svg"><path d="M21.297 0H1.698C.759 0 0 .741 0 1.658v19.68C0 22.254.76 23 1.698 23h19.6c.938 0 1.702-.746 1.702-1.658V1.658C23 .74 22.236 0 21.297 0zM6.824 19.6H3.41V8.62h3.414V19.6zM5.117 7.124a1.978 1.978 0 1 1 0-3.954 1.977 1.977 0 0 1 0 3.954zm14.482 12.474h-3.41v-5.336c0-1.272-.022-2.911-1.774-2.911-1.774 0-2.043 1.388-2.043 2.82V19.6H8.965V8.621h3.27v1.5h.046c.453-.863 1.567-1.775 3.225-1.775 3.455 0 4.092 2.274 4.092 5.23v6.023z" fill="#FFFFFE"/></svg>