<svg width="22" height="23" fill="none" xmlns="http://www.w3.org/2000/svg"><path d="M6.921 20.843c8.3 0 12.84-7.19 12.84-13.424 0-.202-.003-.409-.012-.61A9.41 9.41 0 0 0 22 4.364a8.6 8.6 0 0 1-2.59.741 4.713 4.713 0 0 0 1.984-2.61 8.837 8.837 0 0 1-2.865 1.146 4.462 4.462 0 0 0-2.561-1.425 4.349 4.349 0 0 0-2.862.497 4.646 4.646 0 0 0-1.983 2.213 4.922 4.922 0 0 0-.288 3.018 12.385 12.385 0 0 1-5.152-1.43 12.944 12.944 0 0 1-4.15-3.497 4.91 4.91 0 0 0-.493 3.437 4.73 4.73 0 0 0 1.89 2.86 4.37 4.37 0 0 1-2.045-.589v.059c0 1.09.36 2.146 1.02 2.99a4.482 4.482 0 0 0 2.602 1.637c-.664.19-1.361.217-2.037.08.289.938.85 1.758 1.605 2.345a4.397 4.397 0 0 0 2.61.935 8.804 8.804 0 0 1-5.606 2.021c-.361 0-.721-.023-1.079-.069a12.403 12.403 0 0 0 6.921 2.12z" fill="#FFFFFE"/></svg>