<?xml version="1.0" encoding="utf-8"?>
<!-- Generator: Adobe Illustrator 19.0.0, SVG Export Plug-In . SVG Version: 6.00 Build 0)  -->
<svg version="1.1" id="Layer_1" xmlns="http://www.w3.org/2000/svg" xmlns:xlink="http://www.w3.org/1999/xlink" x="0px" y="0px"
	 width="124px" height="100px" viewBox="-185.9 343 124 100" style="enable-background:new -185.9 343 124 100;"
	 xml:space="preserve">
<style type="text/css">
	.st0{opacity:0.5;}
	.st1{fill:#15E682;}
	.st2{fill:none;stroke:#15E682;stroke-dasharray:4,8;}
	.st3{fill:#001D2C;}
	.st4{fill:#808E96;}
	.st5{fill:#FFFFFF;}
</style>
<g class="st0">
	<circle class="st1" cx="-81.9" cy="430" r="13"/>
</g>
<circle class="st2" cx="-110.9" cy="392" r="48.5"/>
<g>
	<circle class="st3" cx="-135.9" cy="393" r="50"/>
</g>
<g class="st0">
	<circle class="st1" cx="-172.9" cy="356" r="13"/>
</g>
<ellipse class="st4" cx="-130.2" cy="411.8" rx="3.5" ry="0.7"/>
<ellipse class="st4" cx="-120.3" cy="409.2" rx="1.9" ry="0.4"/>
<ellipse class="st4" cx="-143.2" cy="409.9" rx="2.8" ry="0.6"/>
<path class="st1" d="M-154.7,388.7c0.4-0.9,1-1.8,2.1-2.4l-1.4-3.7l0,0l-3.7-10h0c-0.1-0.5-0.5-1-1.1-1h0h0c-0.6,0-1.1,0.4-1.1,1h0
	l-3.7,10l0,0l-4.6,12.4h0c-0.1,0.2-0.1,0.3-0.1,0.5c0,0.8,0.7,1.5,1.5,1.5h6.6v4.4c0,0.8,0.6,1.4,1.4,1.4c0,0,0,0,0,0c0,0,0,0,0,0
	c0,0,0,0,0,0c0.8,0,1.4-0.6,1.4-1.4V397h1.2l0.6-2.8h-6.5h-3l6.2-16.8L-154.7,388.7z"/>
<path class="st5" d="M-127.5,409.6c-0.5,0-0.9,0-1.4-0.1c-1.7-0.3-3-1.4-3.6-2.9c-0.7-1.7-1.1-3.4-1.3-4.9c-1.7,0.1-3.1-0.3-4.1-0.7
	c0,0.5-0.1,1-0.2,1.5c-0.1,0.5-0.2,1-0.2,1.3c0,0.1,0,0.1,0,0.2v0.2c0,0.3,0,0.6,0,0.7c0.1,0,0.2,0,0.3,0.1c0.1,0,0.3,0.1,0.6,0.2
	c0.4,0.1,0.9,0.3,1.3,0.6c0.3,0.3,0.6,0.8,0.5,1.2c-0.1,0.4-0.6,0.8-1,0.9c-1.7,0.3-3.3,0.1-4.7-0.6c-0.2-0.1-0.7-0.4-0.9-0.9
	c-0.8-1.8-2-3.4-3.4-5.3c-0.1-0.1-0.1-0.2-0.2-0.3c-0.2-0.3-0.4-0.7-0.5-1.1c-0.3,0.2-0.5,0.5-0.7,0.8c-0.9,1.9-2.2,3.5-3.9,4.9
	c-0.4,0.3-0.7,0.6-0.9,1c0,0.1-0.1,0.1-0.1,0.1c0.1,0,0.1,0,0.2,0c0.6,0.1,1.6,0.3,1.6,1.4c0,0.4-0.3,0.9-0.7,1.1
	c-0.3,0.2-0.6,0.2-0.9,0.2h-0.2c-3.2,0.3-4-0.3-4.8-3.4c-0.1-0.5-0.4-1.6-0.1-2.4l0-0.1l0.1-0.1c0.9-0.9,1.2-2.2,1.4-3.4
	c0.1-0.4,0.2-0.9,0.3-1.3c0.3-1.1,0.6-2.3,0.8-3.4c0.1-0.4,0.2-0.9,0.3-1.4c0.3-1.9,0.7-4,1.8-5.3c0.9-1,2-1.7,3.1-2.3
	c0.9-0.5,1.7-1,2.4-1.6c2.7-2.4,6.2-3.4,10.4-3c1.5,0.2,2.9,0.5,4.4,0.8l0.4,0.1c1.2,0.2,2.2,0.2,3-0.2c0.9-0.4,1.8-0.5,2.7-0.4
	v-0.2l0.7,0.3c0.2,0,0.3,0.1,0.5,0.2c1.8,0.5,4.4,0.7,5,0.7h0c0.1-0.1,0.3-0.2,0.6-0.7c0.2-0.5,0.6-0.8,1.2-0.8c0.4,0,0.8,0.2,1,0.5
	c0.6,0,1.2,0.6,1.2,1.3l0.1,0.1l-0.2,0.4c0,0.1,0.1,0.2,0.1,0.2l0.6,0.4l0,0c2.2,1.7,2.7,3.4,2.7,3.5l0,0.1v0.1c0,0.5,0.6,1.5,1,1.9
	l0.3,0.4c0.2,0.2,0.3,0.4,0.3,0.5c0.1,0.2,0.3,0.5,0.4,0.6l0,0c0.4,0.4,0.5,0.6,0.5,0.9l0,0.2c0,0.1,0,0.4-0.3,0.6
	c-0.1,0.1-0.3,0.2-0.5,0.3c-0.2,0.4-0.6,0.6-0.8,0.8c-0.1,0.1-0.3,0.2-0.7,0.1c-0.3,0.2-0.6,0.1-0.9,0c-0.1,0-0.2,0-0.3-0.1
	c-0.4,0-0.9-0.3-1.3-0.6c-0.1,0-0.1-0.1-0.1-0.1c-0.7-0.3-1.6-0.6-2.8-0.7c0,0.1,0.1,0.3,0.1,0.3l0.8,0.7l-1.1,0.2
	c-0.4,0-0.7-0.1-1.1-0.4l-0.4,0.1c-0.3,0-0.7,0-1.1-0.6c-0.3,0.3-0.4,0.4-0.4,0.4c0,0-0.4,0.6-0.6,1.3l-0.5,1.7
	c-0.2,0.6,0,1.1,0.5,1.7l0.2,0.2c0.8,1,1.7,2.1,2.4,3.3c1.3,2.3,0.9,4.4-1.2,6.7c-0.4,0.4-1.4,0.8-1.9,0.4c-0.5-0.4-0.6-1.1-0.6-1.6
	c0-0.3,0-0.6,0.1-0.9c0-0.1,0-0.2,0.1-0.3c0.1-0.3,0.1-0.5-0.4-0.7c-2-0.8-3.3-2.4-4.5-3.8c-0.1-0.1-0.2-0.2-0.3-0.3
	c-0.2,1.2-0.3,2.5-0.3,3.7c0,0.5,0,1-0.1,1.5c0,0.2,0,0.4,0.1,0.5c0.2,0.2,0.4,0.2,0.6,0.2c0.5,0,1,0.1,1.6,0.2
	c0.8,0.1,1.2,0.6,1.2,1.4c0,0.7-0.5,1.2-1.3,1.2c-0.3,0-0.6,0-0.9,0C-126.6,409.5-127,409.6-127.5,409.6L-127.5,409.6z
	 M-132.8,400.9v0.2c0.1,1.5,0.5,3.2,1.2,5c0.5,1.3,1.6,2.1,2.9,2.3c0.8,0.1,1.6,0.1,2.5,0.1c0.3,0,0.6,0,0.9,0
	c0.3,0,0.3-0.1,0.3-0.2c0-0.2-0.1-0.3-0.3-0.4c-0.5-0.1-1-0.2-1.4-0.2c-0.6,0-1-0.2-1.3-0.5c-0.3-0.3-0.4-0.7-0.4-1.2s0-1,0.1-1.5
	c0.1-1.6,0.1-3.2,0.5-4.7c0-0.1,0.1-0.3,0.1-0.4l0.5-1.6l0.5,1.5c0.3,0.8,0.7,1.2,0.7,1.2c1.2,1.4,2.4,2.8,4.2,3.6
	c0.9,0.4,1.2,1,1,1.8c0,0.1,0,0.2-0.1,0.3c-0.1,0.2-0.1,0.4-0.1,0.5c0,0.3,0.1,0.7,0.2,0.9c0.2,0,0.5-0.1,0.6-0.2
	c1.8-2,2.1-3.6,1.1-5.5c-0.6-1.1-1.5-2.1-2.3-3.1l-0.2-0.2c-0.5-0.6-1-1.5-0.7-2.6l0.5-1.7c0.3-0.9,0.8-1.6,0.8-1.6
	c0,0,0.2-0.3,0.9-1l0.5-0.6l0.2,0.4l1.1,0l0.1,0.3c0,0.1,0.1,0.2,0.1,0.3c0,0,0,0,0-0.1l0-0.5l0.5,0c1.6,0.1,2.8,0.4,3.7,0.9
	c0.1,0,0.1,0.1,0.3,0.2c0.4,0.3,0.7,0.4,0.8,0.4c0.2,0,0.4,0.1,0.5,0.1c0.1,0,0.1,0,0.2,0v0l0.4-0.2l0.2,0.1
	c0.2-0.1,0.4-0.3,0.5-0.6l0.2-0.3l0.3,0c0,0,0.1,0,0.1-0.1c0,0-0.1-0.1-0.2-0.3c-0.2-0.2-0.6-0.7-0.7-1c0,0-0.1-0.1-0.2-0.3
	l-0.3-0.4c0,0-1.3-1.4-1.3-2.5c-0.1-0.3-0.7-1.8-2.8-3.3l-0.5-0.4l0.1-0.1c-0.1-0.1-0.1-0.2-0.1-0.4l0,0l0-0.3v-0.1
	c0-0.4-0.2-0.6-0.3-0.6l-0.4,0.1l-0.2-0.4c-0.1-0.3-0.4-0.3-0.6,0c-0.5,0.9-0.9,1.1-1.1,1.2l0,0c-0.9,0.3-4.5-0.3-5.7-0.6
	c-0.2-0.1-0.3-0.1-0.5-0.1l-0.1,0c-0.9-0.2-1.8-0.2-2.6,0.2c-1.1,0.5-2.2,0.6-3.6,0.3l-0.4-0.1c-1.4-0.3-2.9-0.6-4.3-0.7
	c-4-0.4-7.1,0.4-9.7,2.7c-0.8,0.7-1.7,1.3-2.6,1.8c-1.1,0.6-2.1,1.2-2.9,2.1c-0.9,1.1-1.3,3.1-1.6,4.8c-0.1,0.5-0.2,1-0.3,1.5
	c-0.2,1.1-0.5,2.3-0.8,3.5c-0.1,0.4-0.2,0.8-0.3,1.3c-0.3,1.3-0.6,2.7-1.6,3.8c-0.1,0.5,0,1.2,0.2,1.8c0.6,2.6,1,2.9,3.7,2.7h0.2
	c0.2,0,0.4,0,0.5-0.1c0.1,0,0.2-0.2,0.2-0.2c0-0.2-0.1-0.3-0.7-0.4c-0.5-0.1-0.9-0.2-1-0.6c-0.2-0.4,0-0.8,0.2-1.1
	c0.3-0.4,0.7-0.9,1.1-1.2c1.6-1.3,2.8-2.8,3.7-4.6c0.2-0.5,0.6-0.9,1.1-1.2c1-1.2,1.7-2.4,2-3.5l1,0.3c-0.3,1.2-0.8,2.4-1.5,3.5
	c0,0.3,0.3,0.8,0.5,1.1c0.1,0.1,0.2,0.3,0.2,0.3c1.4,1.8,2.6,3.5,3.4,5.4c0.1,0.1,0.3,0.3,0.5,0.4c1.2,0.6,2.6,0.8,4.1,0.5
	c0.1,0,0.2-0.1,0.2-0.1c0,0-0.1-0.1-0.1-0.2c-0.3-0.2-0.6-0.3-1-0.4c-0.2-0.1-0.4-0.1-0.5-0.1c-1.1-0.3-1-0.7-1-1.8l0-0.3
	c0-0.5,0.1-1,0.2-1.5c0.1-0.7,0.3-1.5,0.2-2.1l-0.1-1l0.9,0.4c0.9,0.5,2.2,1,4.1,0.9c0.1-1.1,0.4-2.1,0.7-3l0.1-0.3l1.1-0.3
	l-0.2,0.8c-0.2,0.5-0.3,1.1-0.4,1.7c0,0.1,0,0.3-0.1,0.4l-0.2,0v0.1l0.2,0C-132.8,400.4-132.9,400.6-132.8,400.9L-132.8,400.9
	L-132.8,400.9z"/>
</svg>
