<?xml version="1.0" encoding="utf-8"?>
<!-- Generator: Adobe Illustrator 19.0.0, SVG Export Plug-In . SVG Version: 6.00 Build 0)  -->
<svg version="1.1" id="Layer_1" xmlns="http://www.w3.org/2000/svg" xmlns:xlink="http://www.w3.org/1999/xlink" x="0px" y="0px"
	 width="124px" height="100px" viewBox="-187 343 124 100" style="enable-background:new -187 343 124 100;" xml:space="preserve">
<style type="text/css">
	.st0{opacity:0.5;}
	.st1{fill:#15E682;}
	.st2{fill:none;stroke:#15E682;stroke-dasharray:4,8;}
	.st3{fill:#001D2C;}
	.st4{fill:#FFFFFF;}
	.st5{fill:#808E96;}
</style>
<g class="st0">
	<circle class="st1" cx="-83" cy="430" r="13"/>
</g>
<circle class="st2" cx="-112" cy="392" r="48.5"/>
<g>
	<circle class="st3" cx="-137" cy="393" r="50"/>
</g>
<g class="st0">
	<circle class="st1" cx="-174" cy="356" r="13"/>
</g>
<path class="st1" d="M-143.3,391.9h-1.5v1.5c0,1.1,0.4,2.1,1.2,2.9c0.8,0.8,1.8,1.2,2.9,1.2h1.5V396c0-1.1-0.4-2.1-1.2-2.9
	C-141.1,392.4-142.2,391.9-143.3,391.9z"/>
<path class="st1" d="M-137.6,396v1.5h1.5c1.1,0,2.1-0.4,2.9-1.2c0.8-0.8,1.2-1.8,1.2-2.9v-1.5h-1.5c-1.1,0-2.1,0.4-2.9,1.2
	C-137.2,393.9-137.6,394.9-137.6,396L-137.6,396z"/>
<path class="st1" d="M-137.2,391.7c0.3-1.8-0.1-3.6-1.2-5c-1.1,1.4-1.5,3.3-1.2,5c0.5,0.4,0.9,0.9,1.2,1.4
	C-138.1,392.6-137.7,392.1-137.2,391.7z"/>
<path class="st4" d="M-146.6,370h16.5v4.2h-16.5V370z"/>
<path class="st5" d="M-126.7,404.9c0.6,1.8,1.8,3.4,3.4,4.4l0,0c0,0,0,0,0,0v0c1.3,0.8,2.8,1.3,4.3,1.3c1.4,0,2.8-0.4,4.1-1.1
	c1.2-0.7,2.3-1.8,3-3c1.3-2.3,1.3-4.9,0.1-7.1l-7.1-9.9l-7.1,9.8C-127,401-127.3,403-126.7,404.9L-126.7,404.9z M-119,406.5
	c1,0,2-0.4,2.8-1.1c0.7-0.7,1.1-1.7,1.2-2.8c0-0.4,0.4-0.8,0.8-0.8c0.4,0,0.8,0.4,0.8,0.8c0,1.5-0.6,2.8-1.6,3.9
	c-1,1-2.4,1.6-3.9,1.6c-0.4,0-0.8-0.4-0.8-0.8C-119.8,406.9-119.5,406.5-119,406.5L-119,406.5z"/>
<path class="st4" d="M-128.2,405.3c-0.7-2.3-0.4-4.7,0.8-6.8c0,0,0,0,0-0.1l7.6-10.6v-4.1c0-0.3-0.2-0.7-0.4-0.9l-8.4-6.8
	c-0.2-0.2-0.5-0.3-0.7-0.3h-18c-0.3,0-0.5,0.1-0.7,0.3l-8.4,6.8c-0.3,0.2-0.4,0.5-0.4,0.9v25.4h31.1
	C-127,408.1-127.8,406.8-128.2,405.3L-128.2,405.3z M-130.4,393.4c0,1.5-0.6,2.9-1.7,4c-1.1,1.1-2.5,1.7-4,1.7h-1.5v6
	c0,0.4-0.4,0.8-0.8,0.8s-0.8-0.4-0.8-0.8v-6h-1.5c-1.5,0-2.9-0.6-4-1.7c-1.1-1.1-1.7-2.5-1.7-4v-2.3c0-0.4,0.4-0.8,0.8-0.8h2.3
	c0.7,0,1.3,0.1,2,0.4c0-2.2,0.8-4.3,2.3-5.8c0.3-0.3,0.8-0.3,1.1,0c1.5,1.5,2.4,3.6,2.3,5.8c0.6-0.2,1.3-0.4,2-0.4h2.3
	c0.4,0,0.8,0.4,0.8,0.8L-130.4,393.4z"/>
<path class="st4" d="M-155.9,415h34.9c0.6,0,1.1-0.5,1.1-1.1v-1.7c-1.5-0.1-2.9-0.6-4.2-1.4h-33v3.1C-157,414.5-156.5,415-155.9,415
	L-155.9,415z"/>
</svg>
