<?xml version="1.0" encoding="utf-8"?>
<!-- Generator: Adobe Illustrator 19.0.0, SVG Export Plug-In . SVG Version: 6.00 Build 0)  -->
<svg version="1.1" id="Layer_1" xmlns="http://www.w3.org/2000/svg" xmlns:xlink="http://www.w3.org/1999/xlink" x="0px" y="0px"
	 width="124px" height="100px" viewBox="-187 343 124 100" style="enable-background:new -187 343 124 100;" xml:space="preserve">
<style type="text/css">
	.st0{opacity:0.5;}
	.st1{fill:#15E682;}
	.st2{fill:none;stroke:#15E682;stroke-dasharray:4,8;}
	.st3{fill:#001D2C;}
	.st4{fill:#808E96;}
	.st5{fill:#FFFFFF;}
	.st6{fill:none;stroke:#15E682;stroke-width:2;}
</style>
<g class="st0">
	<circle class="st1" cx="-83" cy="430" r="13"/>
</g>
<circle class="st2" cx="-112" cy="392" r="48.5"/>
<g>
	<circle class="st3" cx="-137" cy="393" r="50"/>
</g>
<g class="st0">
	<circle class="st1" cx="-174" cy="356" r="13"/>
</g>
<path class="st4" d="M-109.3,400.3v-9.7c0,0-0.1-1.1-1.3-3.9c-1.2-2.8-4.2-13.8-9.4-15.6c-5.2-1.8-14.2-2.4-18.4-1.8
	c-4.2,0.5-13.5,10.4-16.2,17.7c0,0-10.1,1.8-13.1,8.7c0,0-0.5,2.7-0.5,4.7c0,0-1.8,1.6-1.8,4.7c0,0-1,4.4,2.6,4.4h0.9
	c-0.1-0.5-0.2-1.1-0.2-1.6c0-4.9,4-8.9,8.9-8.9s8.9,4,8.9,8.9c0,0.6-0.1,1.1-0.2,1.6h20.7c-0.1-0.5-0.2-1.1-0.2-1.6
	c0-4.9,4-8.9,8.9-8.9c4.9,0,8.9,4,8.9,8.9c0,0.6-0.1,1.1-0.2,1.6h0.3c0,0,2.4,0.1,2.4-1.4v-6.2
	C-108.1,401.7-108.6,400.3-109.3,400.3L-109.3,400.3z"/>
<path class="st3" d="M-150.4,385.3c0,0,4.6-10.5,8.3-11.9s11.2-1.2,12.4-0.4c1.1,0.8,4.5,9.9,3.4,11.7c-1,1.3-1.4,1.1-4.4,1.1
	c-3,0-19.3,0.2-19.3,0.2S-150.6,385.8-150.4,385.3L-150.4,385.3z"/>
<path class="st5" d="M-119.4,415.2c3.8,0,6.9-3.1,6.9-6.9c0-3.8-3.1-6.9-6.9-6.9c-3.8,0-6.9,3.1-6.9,6.9
	C-126.3,412.1-123.2,415.2-119.4,415.2z"/>
<path class="st5" d="M-157.9,415.2c3.8,0,6.9-3.1,6.9-6.9c0-3.8-3.1-6.9-6.9-6.9s-6.9,3.1-6.9,6.9
	C-164.8,412.1-161.7,415.2-157.9,415.2z"/>
<path class="st6" d="M-115.9,408.3c0,1.9-1.6,3.5-3.5,3.5s-3.5-1.6-3.5-3.5c0-1.9,1.6-3.5,3.5-3.5S-115.9,406.4-115.9,408.3z"/>
<path class="st6" d="M-154.4,408.3c0,1.9-1.6,3.5-3.5,3.5s-3.5-1.6-3.5-3.5c0-1.9,1.6-3.5,3.5-3.5S-154.4,406.4-154.4,408.3z"/>
<path class="st3" d="M-116.6,384.1c0.8,1.6,2.4,1.7,3.2,1.6c0,0,0,0,0,0c0.6-0.1,0.2-1.1,0-1.6c-0.6-1.5-1.9-4.8-2.5-6.2
	c-0.7-1.8-2.5-3.4-3.7-4.1c-1-0.6-0.9,0.3-0.7,0.8C-119.3,377-117.3,382.4-116.6,384.1z"/>
<path class="st1" d="M-130.8,390.8h2.8c0.5,0,0.8,0.4,0.8,0.8l0,0c0,0.5-0.4,0.8-0.8,0.8h-2.8c-0.5,0-0.8-0.4-0.8-0.8l0,0
	C-131.7,391.2-131.3,390.8-130.8,390.8z"/>
</svg>
