<?xml version="1.0" encoding="utf-8"?>
<!-- Generator: Adobe Illustrator 19.0.0, SVG Export Plug-In . SVG Version: 6.00 Build 0)  -->
<svg version="1.1" id="Layer_1" xmlns="http://www.w3.org/2000/svg" xmlns:xlink="http://www.w3.org/1999/xlink" x="0px" y="0px"
	 width="124px" height="100px" viewBox="-187 343 124 100" style="enable-background:new -187 343 124 100;" xml:space="preserve">
<style type="text/css">
	.st0{opacity:0.5;}
	.st1{fill:#15E682;}
	.st2{fill:none;stroke:#15E682;stroke-dasharray:4,8;}
	.st3{fill:#001D2C;}
	.st4{fill:#808E96;}
	.st5{fill:#FFFFFF;}
</style>
<g class="st0">
	<circle class="st1" cx="-83" cy="430" r="13"/>
</g>
<circle class="st2" cx="-112" cy="392" r="48.5"/>
<g>
	<circle class="st3" cx="-137" cy="393" r="50"/>
</g>
<g class="st0">
	<circle class="st1" cx="-174" cy="356" r="13"/>
</g>
<path class="st4" d="M-142.5,405.4h-3.9c-5,0-9.2,3.7-9.8,8.6h39.1c-0.6-4.8-4.8-8.6-9.8-8.6h-3.9v-1.9h-11.7L-142.5,405.4
	L-142.5,405.4z"/>
<path class="st5" d="M-150.6,399.4h27.8c2.9,0,5.4-2,6-4.8l1.4-6.1H-158l1.4,6.1C-156,397.4-153.5,399.4-150.6,399.4z"/>
<path class="st1" d="M-132.4,382.7c-0.5,0.5-0.5,1.2,0,1.7c0.2,0.2,0.6,0.4,0.9,0.4c0.3,0,0.6-0.1,0.9-0.4c2-2,2-5.4,0-7.4
	c-1.1-1.1-1.1-2.9,0-3.9c0.5-0.5,0.5-1.2,0-1.7c-0.5-0.5-1.2-0.5-1.7,0c-2,2-2,5.4,0,7.4C-131.3,379.8-131.3,381.6-132.4,382.7z"/>
<path class="st1" d="M-138.4,382.7c-0.5,0.5-0.5,1.2,0,1.7c0.2,0.2,0.6,0.4,0.9,0.4c0.3,0,0.6-0.1,0.9-0.4c2-2,2-5.4,0-7.4
	c-0.5-0.5-0.8-1.2-0.8-2c0-0.7,0.3-1.4,0.8-2c0.5-0.5,0.5-1.2,0-1.7c-0.5-0.5-1.2-0.5-1.7,0c-1,1-1.5,2.3-1.5,3.7
	c0,1.4,0.6,2.7,1.5,3.7C-137.3,379.8-137.3,381.6-138.4,382.7z"/>
<path class="st1" d="M-143.6,380.7c0,0.7-0.3,1.4-0.8,2c-0.5,0.5-0.5,1.2,0,1.7c0.2,0.2,0.6,0.4,0.9,0.4c0.3,0,0.6-0.1,0.9-0.4
	c1-1,1.5-2.3,1.5-3.7c0-1.4-0.5-2.7-1.5-3.7c-1.1-1.1-1.1-2.9,0-3.9c0.5-0.5,0.5-1.2,0-1.7c-0.5-0.5-1.2-0.5-1.7,0c-2,2-2,5.4,0,7.4
	C-143.9,379.3-143.6,380-143.6,380.7z"/>
</svg>
