<?xml version="1.0" encoding="utf-8"?>
<!-- Generator: Adobe Illustrator 19.0.0, SVG Export Plug-In . SVG Version: 6.00 Build 0)  -->
<svg version="1.1" id="Layer_1" xmlns="http://www.w3.org/2000/svg" xmlns:xlink="http://www.w3.org/1999/xlink" x="0px" y="0px"
	 width="154px" height="124px" viewBox="-173 331 154 124" style="enable-background:new -173 331 154 124;" xml:space="preserve">
<style type="text/css">
	.st0{opacity:0.5;}
	.st1{fill:#15E682;}
	.st2{fill:none;stroke:#15E682;stroke-dasharray:4,8;}
	.st3{fill:#001D2C;}
	.st4{fill:#FFFFFF;}
	.st5{fill:#15E380;}
	.st6{fill:#808E96;}
</style>
<g class="st0">
	<circle class="st1" cx="-44" cy="439" r="16"/>
</g>
<circle class="st2" cx="-80" cy="392" r="60.5"/>
<g>
	<circle class="st3" cx="-111" cy="393" r="62"/>
</g>
<g class="st0">
	<circle class="st1" cx="-157" cy="347" r="16"/>
</g>
<path class="st4" d="M-99.2,405.2h12.4l-9.9-25.8l-6.2,16.2l-2.1-5.5l6.5-16.9c0,0,0.3-1.3,1.9-1.3c0,0,1.3,0,1.7,1.3l12.7,33.2
	c0,0,0.4,1-0.2,1.8c-0.6,0.9-1.4,0.9-1.6,0.9h-10.8v5.9c0,0-0.1,2-2,2c0,0-2,0-2-2v-5.9h0.9L-99.2,405.2L-99.2,405.2z"/>
<path class="st5" d="M-123.8,405.2h-12.4l9.9-25.8l6.2,16.2l2.1-5.5l-6.5-16.9c0,0-0.3-1.3-1.9-1.3c0,0-1.3,0-1.7,1.3l-12.7,33.2
	c0,0-0.4,1,0.2,1.8c0.6,0.9,1.4,0.9,1.6,0.9h10.8v5.9c0,0,0.1,2,2,2c0,0,2,0,2-2v-5.9h-0.9L-123.8,405.2L-123.8,405.2z"/>
<path class="st6" d="M-95.1,405.4c0,0-13.8-38.4-14.3-39.9c0,0,0,0,0,0c0,0,0,0,0,0c-0.4-1-1.1-1.3-1.6-1.4c0,0,0,0,0,0
	c-0.1,0-0.3,0-0.4-0.1c-0.2,0-0.3,0-0.5,0.1c0,0,0,0,0,0c-0.5,0.1-1.2,0.4-1.6,1.4c0,0,0,0,0,0c0,0,0,0,0,0
	c-0.5,1.5-14.3,39.9-14.3,39.9s-0.4,1.1,0.2,2.2c0.7,1,1.6,1,1.8,1h12.1v7.1c0,0,0,0,0,0.1c0,0.3,0.2,1.2,0.8,1.8c0,0,0,0,0,0
	c0.5,0.3,1,0.4,1.2,0.5c0,0,0,0,0,0c0,0,0.1,0,0.1,0c0,0,0,0,0,0c0,0,0,0,0,0c0.2,0,0.8-0.1,1.2-0.5c0,0,0,0,0,0
	c0.6-0.5,0.8-1.4,0.9-1.8c0-0.1,0-0.1,0-0.1v-7.1h12.1c0.2,0,1.1,0,1.8-1C-94.7,406.5-95.1,405.4-95.1,405.4L-95.1,405.4z
	 M-109.3,403.9h-13.3l11.1-30.9l11.1,30.9L-109.3,403.9L-109.3,403.9z"/>
</svg>
