<?xml version="1.0" encoding="utf-8"?>
<!-- Generator: Adobe Illustrator 19.0.0, SVG Export Plug-In . SVG Version: 6.00 Build 0)  -->
<svg version="1.1" id="Layer_1" xmlns="http://www.w3.org/2000/svg" xmlns:xlink="http://www.w3.org/1999/xlink" x="0px" y="0px"
	 width="124px" height="100px" viewBox="-187 343 124 100" style="enable-background:new -187 343 124 100;" xml:space="preserve">
<style type="text/css">
	.st0{opacity:0.5;}
	.st1{fill:#15E682;}
	.st2{fill:none;stroke:#15E682;stroke-dasharray:4,8;}
	.st3{fill:#001D2C;}
	.st4{fill:#FFFFFF;}
	.st5{fill:#808E96;}
</style>
<g class="st0">
	<circle class="st1" cx="-83" cy="430" r="13"/>
</g>
<circle class="st2" cx="-112" cy="392" r="48.5"/>
<g>
	<circle class="st3" cx="-137" cy="393" r="50"/>
</g>
<g class="st0">
	<circle class="st1" cx="-174" cy="356" r="13"/>
</g>
<path class="st1" d="M-112.2,382.2c-0.3,0-0.6-0.1-0.9-0.1c-0.9-0.2-1.6-0.9-2.2-1.5c-1-1-1.9-1.8-3-2.6c-1.8-1.1-3.7-1.3-5.7-0.4
	c-1,0.5-2,1.2-2.9,2c-0.7,0.7-1.5,1.5-2.4,2.1c-1.4,0.9-3,0.8-4.3-0.2c-0.2-0.1-0.3-0.3-0.5-0.4l0,0c-0.5-0.4-1-0.9-1.4-1.4
	c-0.7-0.8-1.6-1.4-2.6-1.9c-1.4-0.8-2.9-0.9-4.5-0.4c-1.2,0.4-2.2,1.2-3.2,2l0,0c-0.1,0.1-0.2,0.2-0.3,0.2c-0.3,0.2-0.6,0.5-0.8,0.8
	l0,0l0,0c-0.6,0.5-1.1,1.1-1.9,1.5c-1.4,0.6-2.8,0.6-4.1-0.5c-0.3-0.3-0.6-0.6-1-0.9l0,0h0l0,0l0,0c-0.3-0.3-0.6-0.6-1-0.9
	c-0.8-0.8-1.7-1.6-2.8-2.1c-1.4-0.6-2.9-0.7-4.4-0.2l0,0v3.9c0.3-0.2,0.5-0.4,0.8-0.5c1-0.5,1.8-0.4,2.7,0.2c0.7,0.5,1.4,1,2,1.7
	c0.8,0.8,1.6,1.5,2.6,2.1c2.3,1.2,4.6,1.3,6.9,0.1c1.1-0.6,2-1.4,2.9-2.2c0.6-0.6,1.4-1.3,2.2-1.8c1-0.6,1.9-0.5,2.9,0.2
	c0.5,0.3,1,0.7,1.4,1.1l1,0.9l1.1,1c0.5,0.4,1,0.8,1.7,1c2.8,1.1,5.3,0.7,7.6-1.2c0.7-0.6,1.4-1.2,2.1-1.8c0.4-0.4,0.9-0.7,1.4-1
	c1-0.6,1.9-0.6,3,0c0.6,0.3,1,0.7,1.5,1.2l0,0c0.6,0.6,1.3,1.3,2,1.8c1.2,1,2.6,1.6,4.1,1.7V382.2z"/>
<path class="st4" d="M-112.2,393.9c-0.3,0-0.6-0.1-0.9-0.1c-0.9-0.2-1.6-0.9-2.2-1.5c-1-1-1.9-1.8-3-2.6c-1.8-1.1-3.7-1.3-5.7-0.4
	c-1,0.5-2,1.2-2.9,2c-0.7,0.7-1.5,1.5-2.4,2.1c-1.4,0.9-3,0.8-4.3-0.2c-0.2-0.1-0.3-0.3-0.5-0.4l0,0c-0.5-0.4-1-0.9-1.4-1.4
	c-0.7-0.8-1.6-1.4-2.6-1.9c-1.4-0.8-2.9-0.9-4.5-0.4c-1.2,0.4-2.2,1.2-3.2,2l0,0c-0.1,0.1-0.2,0.2-0.3,0.2c-0.3,0.2-0.6,0.5-0.8,0.8
	l0,0l0,0c-0.6,0.5-1.1,1.1-1.9,1.5c-1.4,0.6-2.8,0.6-4.1-0.5c-0.3-0.3-0.6-0.6-1-0.9l0,0h0l0,0l0,0c-0.3-0.3-0.6-0.6-1-0.9
	c-0.8-0.8-1.7-1.6-2.8-2.1c-1.4-0.6-2.9-0.7-4.4-0.2l0,0v3.9c0.3-0.2,0.5-0.4,0.8-0.5c1-0.5,1.8-0.4,2.7,0.2c0.7,0.5,1.4,1,2,1.7
	c0.8,0.8,1.6,1.5,2.6,2.1c2.3,1.2,4.6,1.3,6.9,0.1c1.1-0.6,2-1.4,2.9-2.2c0.6-0.6,1.4-1.3,2.2-1.8c1-0.6,1.9-0.5,2.9,0.2
	c0.5,0.3,1,0.7,1.4,1.1l1,0.9l1.1,1c0.5,0.4,1,0.8,1.7,1c2.8,1.1,5.3,0.7,7.6-1.2c0.7-0.6,1.4-1.2,2.1-1.8c0.4-0.4,0.9-0.7,1.4-1
	c1-0.6,1.9-0.6,3,0c0.6,0.3,1,0.7,1.5,1.2l0,0c0.6,0.6,1.3,1.3,2,1.8c1.2,1,2.6,1.6,4.1,1.7V393.9z"/>
<path class="st5" d="M-112.2,405.6c-0.3,0-0.6-0.1-0.9-0.1c-0.9-0.2-1.6-0.9-2.2-1.5c-1-1-1.9-1.8-3-2.6c-1.8-1.1-3.7-1.3-5.7-0.4
	c-1,0.5-2,1.2-2.9,2c-0.7,0.7-1.5,1.5-2.4,2.1c-1.4,0.9-3,0.8-4.3-0.2c-0.2-0.1-0.3-0.3-0.5-0.4l0,0c-0.5-0.4-1-0.9-1.4-1.4
	c-0.7-0.8-1.6-1.4-2.6-1.9c-1.4-0.8-2.9-0.9-4.5-0.4c-1.2,0.4-2.2,1.2-3.2,2l0,0c-0.1,0.1-0.2,0.2-0.3,0.2c-0.3,0.2-0.6,0.5-0.8,0.8
	l0,0l0,0c-0.6,0.5-1.1,1.1-1.9,1.5c-1.4,0.6-2.8,0.6-4.1-0.5c-0.3-0.3-0.6-0.6-1-0.9l0,0h0l0,0l0,0c-0.3-0.3-0.6-0.6-1-0.9
	c-0.8-0.8-1.7-1.6-2.8-2.1c-1.4-0.6-2.9-0.7-4.4-0.2l0,0v3.9c0.3-0.2,0.5-0.4,0.8-0.5c1-0.5,1.8-0.4,2.7,0.2c0.7,0.5,1.4,1,2,1.7
	c0.8,0.8,1.6,1.5,2.6,2.1c2.3,1.2,4.6,1.3,6.9,0.1c1.1-0.6,2-1.4,2.9-2.2c0.6-0.6,1.4-1.3,2.2-1.8c1-0.6,1.9-0.5,2.9,0.2
	c0.5,0.3,1,0.7,1.4,1.1l1,0.9l1.1,1c0.5,0.4,1,0.8,1.7,1c2.8,1.1,5.3,0.7,7.6-1.2c0.7-0.6,1.4-1.2,2.1-1.8c0.4-0.4,0.9-0.7,1.4-1
	c1-0.6,1.9-0.6,3,0c0.6,0.3,1,0.7,1.5,1.2l0,0c0.6,0.6,1.3,1.3,2,1.8c1.2,1,2.6,1.6,4.1,1.7V405.6z"/>
</svg>
