<?xml version="1.0" encoding="utf-8"?>
<!-- Generator: Adobe Illustrator 19.0.0, SVG Export Plug-In . SVG Version: 6.00 Build 0)  -->
<svg version="1.1" id="Layer_1" xmlns="http://www.w3.org/2000/svg" xmlns:xlink="http://www.w3.org/1999/xlink" x="0px" y="0px"
	 width="124px" height="100px" viewBox="-187 343 124 100" style="enable-background:new -187 343 124 100;" xml:space="preserve">
<style type="text/css">
	.st0{opacity:0.5;}
	.st1{fill:#15E682;}
	.st2{fill:none;stroke:#15E682;stroke-dasharray:4,8;}
	.st3{fill:#001D2C;}
	.st4{fill:#808E96;}
	.st5{fill:#FFFFFF;}
</style>
<g class="st0">
	<circle class="st1" cx="-83" cy="430" r="13"/>
</g>
<circle class="st2" cx="-112" cy="392" r="48.5"/>
<g>
	<circle class="st3" cx="-137" cy="393" r="50"/>
</g>
<g class="st0">
	<circle class="st1" cx="-174" cy="356" r="13"/>
</g>
<path class="st1" d="M-147.4,420.2c0-4.2,3.4-7.6,7.6-7.6h6.8c4.2,0,7.6,3.4,7.6,7.6l0,0H-147.4L-147.4,420.2z"/>
<path class="st4" d="M-124.8,394.3l-7.9-7.8c0,0-0.1,0-0.1,0.1l0,0c-0.2,0.1-0.5,0.2-0.8,0.3v15.8h0v8h-5.5v-8h0v-15.8
	c-2.1-0.7-3.8-2.3-4.7-4.2l-5.7,1.8c0,0-5.2,1.7-6.9-3.4l12.2-3.9c0.9-3.1,3.6-5.4,7-5.7l2.2-6.9c0,0,1.6-5.1,6.8-3.5l-3.7,11.7
	c2.2,1.4,3.7,3.9,3.7,6.7c0,1.2-0.3,2.3-0.8,3.3l4.1,4C-124.8,386.8-121,390.5-124.8,394.3z M-139.3,376.6c-0.8,0.7-1.2,1.8-1.2,2.8
	s0.4,2.1,1.2,2.8c0.8,0.7,1.8,1.2,2.9,1.2c1.1,0,2.1-0.4,2.9-1.2c0.8-0.7,1.2-1.8,1.2-2.8s-0.4-2.1-1.2-2.8
	c-0.8-0.7-1.8-1.2-2.9-1.2C-137.4,375.4-138.5,375.9-139.3,376.6z"/>
<circle class="st5" cx="-136.4" cy="379.4" r="2.1"/>
</svg>
