<svg version="1.1" id="Layer_1" xmlns="http://www.w3.org/2000/svg" x="0" y="0" width="192" height="676" viewBox="-209 59 192 676" style="enable-background:new -209 59 192 676" xml:space="preserve"><style>.st1{fill:#fff}.st2{fill:#0f8354}</style><g style="opacity:4.000000e-002"><circle class="st1" cx="-86" cy="548" r="15"/><circle class="st1" cx="-86" cy="494" r="15"/><circle class="st2" cx="-194" cy="494" r="15"/><circle class="st2" cx="-194" cy="548" r="15"/><circle class="st1" cx="-194" cy="661" r="15"/><circle class="st1" cx="-86" cy="314" r="15"/><circle class="st1" cx="-194" cy="314" r="15"/><circle class="st1" cx="-86" cy="254" r="15"/><circle class="st1" cx="-194" cy="254" r="15"/><circle class="st1" cx="-86" cy="194" r="15"/><circle class="st1" cx="-194" cy="194" r="15"/><circle class="st1" cx="-86" cy="134" r="15"/><circle class="st1" cx="-194" cy="134" r="15"/><circle class="st1" cx="-194" cy="74" r="15"/><circle class="st1" cx="-86" cy="602" r="15"/><circle class="st1" cx="-86" cy="661" r="15"/><circle class="st1" cx="-86" cy="720" r="15"/><circle class="st1" cx="-32" cy="494" r="15"/><circle class="st1" cx="-32" cy="434" r="15"/><circle class="st2" cx="-140" cy="494" r="15"/><circle class="st1" cx="-140" cy="548" r="15"/><circle class="st1" cx="-140" cy="602" r="15"/><circle class="st1" cx="-140" cy="720" r="15"/><circle class="st1" cx="-32" cy="374" r="15"/><circle class="st1" cx="-32" cy="314" r="15"/><circle class="st1" cx="-32" cy="254" r="15"/><circle class="st1" cx="-32" cy="194" r="15"/><circle class="st1" cx="-140" cy="194" r="15"/><circle class="st1" cx="-140" cy="254" r="15"/><circle class="st1" cx="-32" cy="134" r="15"/><circle class="st1" cx="-140" cy="134" r="15"/><circle class="st1" cx="-32" cy="74" r="15"/><circle class="st1" cx="-140" cy="74" r="15"/><circle class="st1" cx="-32" cy="548" r="15"/><circle class="st1" cx="-32" cy="602" r="15"/><circle class="st1" cx="-32" cy="661" r="15"/><circle class="st1" cx="-32" cy="720" r="15"/></g></svg>