<svg version="1.1" id="Layer_1" xmlns="http://www.w3.org/2000/svg" x="0" y="0" width="923" height="1621" viewBox="112 -414 923 1621" style="enable-background:new 112 -414 923 1621" xml:space="preserve"><style>.st0,.st1{opacity:4.000000e-002;fill:#fffffe;enable-background:new}.st1{fill:#0f8354}</style><circle class="st0" cx="427" cy="-99" r="27"/><circle class="st0" cx="331" cy="-99" r="27"/><circle class="st0" cx="235" cy="-99" r="27"/><circle class="st0" cx="139" cy="-99" r="27"/><circle class="st0" cx="427" cy="-291" r="27"/><circle class="st0" cx="427" cy="-387" r="27"/><circle class="st0" cx="331" cy="-291" r="27"/><circle class="st0" cx="331" cy="-387" r="27"/><path class="st0" d="M912 673c-14.9 0-27 12.1-27 27s12.1 27 27 27 27-12.1 27-27-12.1-27-27-27zm-96 0c-14.9 0-27 12.1-27 27s12.1 27 27 27 27-12.1 27-27-12.1-27-27-27zm165-70c0-14.9 12.1-27 27-27s27 12.1 27 27-12.1 27-27 27-27-12.1-27-27zm-69-27c-14.9 0-27 12.1-27 27s12.1 27 27 27 27-12.1 27-27-12.1-27-27-27z"/><circle class="st0" cx="1008" cy="1180" r="27"/><circle class="st0" cx="1008" cy="1084" r="27"/><circle class="st0" cx="912" cy="1180" r="27"/><circle class="st0" cx="720" cy="1180" r="27"/><circle class="st0" cx="912" cy="1084" r="27"/><circle class="st0" cx="816" cy="1084" r="27"/><circle class="st0" cx="720" cy="1084" r="27"/><circle class="st0" cx="1008" cy="988" r="27"/><circle class="st0" cx="1008" cy="892" r="27"/><circle class="st0" cx="912" cy="988" r="27"/><circle class="st0" cx="816" cy="988" r="27"/><circle class="st0" cx="720" cy="988" r="27"/><circle class="st0" cx="912" cy="892" r="27"/><circle class="st0" cx="816" cy="892" r="27"/><circle class="st0" cx="720" cy="892" r="27"/><circle class="st0" cx="1008" cy="796" r="27"/><circle class="st0" cx="816" cy="796" r="27"/><circle class="st0" cx="720" cy="796" r="27"/><circle class="st0" cx="720" cy="700" r="27"/><circle class="st1" cx="1008" cy="507" r="27"/><circle class="st0" cx="720" cy="603" r="27"/><circle class="st1" cx="912" cy="507" r="27"/><circle class="st0" cx="816" cy="507" r="27"/><circle class="st0" cx="720" cy="507" r="27"/><circle class="st1" cx="1008" cy="411" r="27"/><circle class="st0" cx="912" cy="411" r="27"/><circle class="st0" cx="816" cy="411" r="27"/><circle class="st0" cx="720" cy="411" r="27"/><circle class="st0" cx="912" cy="315" r="27"/><circle class="st0" cx="816" cy="315" r="27"/><circle class="st0" cx="720" cy="315" r="27"/><circle class="st0" cx="1008" cy="219" r="27"/><circle class="st0" cx="816" cy="219" r="27"/><circle class="st0" cx="720" cy="219" r="27"/><circle class="st0" cx="912" cy="123" r="27"/><circle class="st0" cx="816" cy="123" r="27"/><circle class="st0" cx="720" cy="123" r="27"/></svg>