<svg version="1.1" id="Layer_1" xmlns="http://www.w3.org/2000/svg" x="0" y="0" width="342" height="1491" viewBox="-268 -698 342 1491" style="enable-background:new -268 -698 342 1491" xml:space="preserve"><style>.st0,.st1{opacity:4.000000e-002;fill:#fffffe;enable-background:new}.st1{fill:#0f8354}</style><circle class="st0" cx="-241" cy="478" r="27"/><circle class="st0" cx="-145" cy="478" r="27"/><circle class="st0" cx="-49" cy="478" r="27"/><circle class="st0" cx="47" cy="478" r="27"/><circle class="st0" cx="-241" cy="670" r="27"/><circle class="st0" cx="-241" cy="766" r="27"/><circle class="st0" cx="-145" cy="670" r="27"/><circle class="st0" cx="-145" cy="766" r="27"/><path class="st0" d="M-145-164c14.9 0 27-12.1 27-27s-12.1-27-27-27-27 12.1-27 27 12.1 27 27 27zm96 0c14.9 0 27-12.1 27-27s-12.1-27-27-27-27 12.1-27 27 12.1 27 27 27zm-165 70c0 14.9-12.1 27-27 27s-27-12.1-27-27 12.1-27 27-27 27 12.1 27 27zm69 27c14.9 0 27-12.1 27-27s-12.1-27-27-27-27 12.1-27 27 12.1 27 27 27z"/><circle class="st0" cx="-241" cy="-671" r="27"/><circle class="st0" cx="-241" cy="-575" r="27"/><circle class="st0" cx="-145" cy="-671" r="27"/><circle class="st0" cx="47" cy="-671" r="27"/><circle class="st0" cx="-145" cy="-575" r="27"/><circle class="st0" cx="-49" cy="-575" r="27"/><circle class="st0" cx="47" cy="-575" r="27"/><circle class="st0" cx="-241" cy="-479" r="27"/><circle class="st0" cx="-241" cy="-383" r="27"/><circle class="st0" cx="-145" cy="-479" r="27"/><circle class="st0" cx="-49" cy="-479" r="27"/><circle class="st0" cx="47" cy="-479" r="27"/><circle class="st0" cx="-145" cy="-383" r="27"/><circle class="st0" cx="-49" cy="-383" r="27"/><circle class="st0" cx="47" cy="-383" r="27"/><circle class="st0" cx="-241" cy="-287" r="27"/><circle class="st0" cx="-49" cy="-287" r="27"/><circle class="st0" cx="47" cy="-287" r="27"/><circle class="st0" cx="47" cy="-191" r="27"/><circle class="st1" cx="-241" cy="2" r="27"/><circle class="st0" cx="47" cy="-94" r="27"/><circle class="st1" cx="-145" cy="2" r="27"/><circle class="st0" cx="-49" cy="2" r="27"/><circle class="st0" cx="47" cy="2" r="27"/><circle class="st1" cx="-241" cy="98" r="27"/><circle class="st0" cx="-145" cy="98" r="27"/><circle class="st0" cx="-49" cy="98" r="27"/><circle class="st0" cx="47" cy="98" r="27"/><circle class="st0" cx="-145" cy="194" r="27"/><circle class="st0" cx="-49" cy="194" r="27"/><circle class="st0" cx="47" cy="194" r="27"/><circle class="st0" cx="-241" cy="290" r="27"/><circle class="st0" cx="-49" cy="290" r="27"/><circle class="st0" cx="47" cy="290" r="27"/><circle class="st0" cx="-145" cy="386" r="27"/><circle class="st0" cx="-49" cy="386" r="27"/><circle class="st0" cx="47" cy="386" r="27"/></svg>