<svg version="1.1" id="Layer_1" xmlns="http://www.w3.org/2000/svg" x="0" y="0" width="366.3" height="501.3" viewBox="-129 146 366.3 501.3" style="enable-background:new -129 146 366.3 501.3" xml:space="preserve"><style>.st0{opacity:4.000000e-002;fill:#15e682;enable-background:new}</style><circle class="st0" cx="168.1" cy="522.1" r="15.1"/><circle class="st0" cx="222.2" cy="522.1" r="15.1"/><circle class="st0" cx="222.2" cy="632.2" r="15.1"/><ellipse class="st0" cx="222.1" cy="281.5" rx="15" ry="15.5"/><circle class="st0" cx="222.1" cy="221" r="15"/><circle class="st0" cx="222.1" cy="161" r="15"/><circle class="st0" cx="-64" cy="341" r="15"/><circle class="st0" cx="168" cy="342" r="15"/><circle class="st0" cx="-114" cy="341" r="15"/><circle class="st0" cx="168" cy="161" r="15"/><circle class="st0" cx="168" cy="221" r="15"/><ellipse class="st0" cx="168" cy="281.5" rx="15" ry="15.5"/><ellipse class="st0" cx="-64" cy="282.5" rx="15" ry="15.5"/><circle class="st0" cx="222.1" cy="342" r="15"/><circle class="st0" cx="222.1" cy="402" r="15"/><circle class="st0" cx="222.1" cy="462" r="15"/><circle class="st0" cx="168" cy="402" r="15"/><circle class="st0" cx="168" cy="462" r="15"/></svg>