<svg width="676" height="2493" fill="none" xmlns="http://www.w3.org/2000/svg"><path opacity=".12" fill-rule="evenodd" clip-rule="evenodd" d="M30 69c0-8.284-6.716-15-15-15-8.284 0-15 6.716-15 15 0 8.284 6.716 15 15 15 8.284 0 15-6.716 15-15zm60 0c0-8.284-6.716-15-15-15-8.284 0-15 6.716-15 15 0 8.284 6.716 15 15 15 8.284 0 15-6.716 15-15zm45 93c8.284 0 15 6.716 15 15 0 8.284-6.716 15-15 15-8.284 0-15-6.716-15-15 0-8.284 6.716-15 15-15zm60-108c8.284 0 15 6.716 15 15 0 8.284-6.716 15-15 15-8.284 0-15-6.716-15-15 0-8.284 6.716-15 15-15zm60 0c8.284 0 15 6.716 15 15 0 8.284-6.716 15-15 15-8.284 0-15-6.716-15-15 0-8.284 6.716-15 15-15zm75 15c0-8.284-6.716-15-15-15-8.284 0-15 6.716-15 15 0 8.284 6.716 15 15 15 8.284 0 15-6.716 15-15zm60 216c0-8.284-6.716-15-15-15-8.284 0-15 6.716-15 15 0 8.284 6.716 15 15 15 8.284 0 15-6.716 15-15zm-15-123c8.284 0 15 6.716 15 15 0 8.284-6.716 15-15 15-8.284 0-15-6.716-15-15 0-8.284 6.716-15 15-15zm15-93c0-8.284-6.716-15-15-15-8.284 0-15 6.716-15 15 0 8.284 6.716 15 15 15 8.284 0 15-6.716 15-15zm45-15c8.284 0 15 6.716 15 15 0 8.284-6.716 15-15 15-8.284 0-15-6.716-15-15 0-8.284 6.716-15 15-15zm54 0c8.284 0 15 6.716 15 15 0 8.284-6.716 15-15 15-8.284 0-15-6.716-15-15 0-8.284 6.716-15 15-15zm115 324c8.284 0 15 6.716 15 15 0 8.284-6.716 15-15 15-8.284 0-15-6.716-15-15 0-8.284 6.716-15 15-15zm-100 15c0-8.284-6.716-15-15-15-8.284 0-15 6.716-15 15 0 8.284 6.716 15 15 15 8.284 0 15-6.716 15-15zm-75-15c8.284 0 15 6.716 15 15 0 8.284-6.716 15-15 15-8.284 0-15-6.716-15-15 0-8.284 6.716-15 15-15zm-114 0c8.284 0 15 6.716 15 15 0 8.284-6.716 15-15 15-8.284 0-15-6.716-15-15 0-8.284 6.716-15 15-15zm244 15c0-8.284-6.716-15-15-15-8.284 0-15 6.716-15 15 0 8.284 6.716 15 15 15 8.284 0 15-6.716 15-15zm-289 0c0-8.284-6.716-15-15-15-8.284 0-15 6.716-15 15 0 8.284 6.716 15 15 15 8.284 0 15-6.716 15-15zm-60-216c0-8.284-6.716-15-15-15-8.284 0-15 6.716-15 15 0 8.284 6.716 15 15 15 8.284 0 15-6.716 15-15zm-15 93c8.284 0 15 6.716 15 15 0 8.284-6.716 15-15 15-8.284 0-15-6.716-15-15 0-8.284 6.716-15 15-15zm15 123c0-8.284-6.716-15-15-15-8.284 0-15 6.716-15 15 0 8.284 6.716 15 15 15 8.284 0 15-6.716 15-15zm-60-108c0-8.284-6.716-15-15-15-8.284 0-15 6.716-15 15 0 8.284 6.716 15 15 15 8.284 0 15-6.716 15-15zm-15 93c8.284 0 15 6.716 15 15 0 8.284-6.716 15-15 15-8.284 0-15-6.716-15-15 0-8.284 6.716-15 15-15zM75 162c8.284 0 15 6.716 15 15 0 8.284-6.716 15-15 15-8.284 0-15-6.716-15-15 0-8.284 6.716-15 15-15zm15 123c0-8.284-6.716-15-15-15-8.284 0-15 6.716-15 15 0 8.284 6.716 15 15 15 8.284 0 15-6.716 15-15zm-15 93c8.284 0 15 6.716 15 15 0 8.284-6.716 15-15 15-8.284 0-15-6.716-15-15 0-8.284 6.716-15 15-15zM15 270c8.284 0 15 6.716 15 15 0 8.284-6.716 15-15 15-8.284 0-15-6.716-15-15 0-8.284 6.716-15 15-15zm15 123c0-8.284-6.716-15-15-15-8.284 0-15 6.716-15 15 0 8.284 6.716 15 15 15 8.284 0 15-6.716 15-15zM602 54c8.284 0 15 6.716 15 15 0 8.284-6.716 15-15 15-8.284 0-15-6.716-15-15 0-8.284 6.716-15 15-15zm74 15c0-8.284-6.716-15-15-15-8.284 0-15 6.716-15 15 0 8.284 6.716 15 15 15 8.284 0 15-6.716 15-15zM435 0c8.284 0 15 6.716 15 15 0 8.284-6.716 15-15 15-8.284 0-15-6.716-15-15 0-8.284 6.716-15 15-15zm-45 15c0-8.284-6.716-15-15-15-8.284 0-15 6.716-15 15 0 8.284 6.716 15 15 15 8.284 0 15-6.716 15-15zm-15 93c8.284 0 15 6.716 15 15 0 8.284-6.716 15-15 15-8.284 0-15-6.716-15-15 0-8.284 6.716-15 15-15zm15 123c0-8.284-6.716-15-15-15-8.284 0-15 6.716-15 15 0 8.284 6.716 15 15 15 8.284 0 15-6.716 15-15zm-15 93c8.284 0 15 6.716 15 15 0 8.284-6.716 15-15 15-8.284 0-15-6.716-15-15 0-8.284 6.716-15 15-15zm244 15c0-8.284-6.716-15-15-15-8.284 0-15 6.716-15 15 0 8.284 6.716 15 15 15 8.284 0 15-6.716 15-15zm-190-15c8.284 0 15 6.716 15 15 0 8.284-6.716 15-15 15-8.284 0-15-6.716-15-15 0-8.284 6.716-15 15-15zM330 15c0-8.284-6.716-15-15-15-8.284 0-15 6.716-15 15 0 8.284 6.716 15 15 15 8.284 0 15-6.716 15-15zm214 309c8.284 0 15 6.716 15 15 0 8.284-6.716 15-15 15-8.284 0-15-6.716-15-15 0-8.284 6.716-15 15-15zM270 15c0-8.284-6.716-15-15-15-8.284 0-15 6.716-15 15 0 8.284 6.716 15 15 15 8.284 0 15-6.716 15-15zm-15 309c8.284 0 15 6.716 15 15 0 8.284-6.716 15-15 15-8.284 0-15-6.716-15-15 0-8.284 6.716-15 15-15zM210 15c0-8.284-6.716-15-15-15-8.284 0-15 6.716-15 15 0 8.284 6.716 15 15 15 8.284 0 15-6.716 15-15zm-15 93c8.284 0 15 6.716 15 15 0 8.284-6.716 15-15 15-8.284 0-15-6.716-15-15 0-8.284 6.716-15 15-15zm15 123c0-8.284-6.716-15-15-15-8.284 0-15 6.716-15 15 0 8.284 6.716 15 15 15 8.284 0 15-6.716 15-15zm-15 93c8.284 0 15 6.716 15 15 0 8.284-6.716 15-15 15-8.284 0-15-6.716-15-15 0-8.284 6.716-15 15-15zm-45-201c0-8.284-6.716-15-15-15-8.284 0-15 6.716-15 15 0 8.284 6.716 15 15 15 8.284 0 15-6.716 15-15zm-15 93c8.284 0 15 6.716 15 15 0 8.284-6.716 15-15 15-8.284 0-15-6.716-15-15 0-8.284 6.716-15 15-15zm15 123c0-8.284-6.716-15-15-15-8.284 0-15 6.716-15 15 0 8.284 6.716 15 15 15 8.284 0 15-6.716 15-15zM75 0c8.284 0 15 6.716 15 15 0 8.284-6.716 15-15 15-8.284 0-15-6.716-15-15 0-8.284 6.716-15 15-15zm15 123c0-8.284-6.716-15-15-15-8.284 0-15 6.716-15 15 0 8.284 6.716 15 15 15 8.284 0 15-6.716 15-15zm-15 93c8.284 0 15 6.716 15 15 0 8.284-6.716 15-15 15-8.284 0-15-6.716-15-15 0-8.284 6.716-15 15-15zm15 123c0-8.284-6.716-15-15-15-8.284 0-15 6.716-15 15 0 8.284 6.716 15 15 15 8.284 0 15-6.716 15-15zM15 0c8.284 0 15 6.716 15 15 0 8.284-6.716 15-15 15-8.284 0-15-6.716-15-15C0 6.716 6.716 0 15 0zm15 123c0-8.284-6.716-15-15-15-8.284 0-15 6.716-15 15 0 8.284 6.716 15 15 15 8.284 0 15-6.716 15-15zM489 0c8.284 0 15 6.716 15 15 0 8.284-6.716 15-15 15-8.284 0-15-6.716-15-15 0-8.284 6.716-15 15-15zm69 15c0-8.284-6.716-15-15-15-8.284 0-15 6.716-15 15 0 8.284 6.716 15 15 15 8.284 0 15-6.716 15-15zm44-15c8.284 0 15 6.716 15 15 0 8.284-6.716 15-15 15-8.284 0-15-6.716-15-15 0-8.284 6.716-15 15-15zm74 15c0-8.284-6.716-15-15-15-8.284 0-15 6.716-15 15 0 8.284 6.716 15 15 15 8.284 0 15-6.716 15-15z" fill="url(#a)"/><path opacity=".12" fill-rule="evenodd" clip-rule="evenodd" d="M535 1832c0 8.28-6.716 15-15 15-8.284 0-15-6.72-15-15 0-8.28 6.716-15 15-15 8.284 0 15 6.72 15 15zm0 60c0 8.28-6.716 15-15 15-8.284 0-15-6.72-15-15 0-8.28 6.716-15 15-15 8.284 0 15 6.72 15 15zm-123 75c8.284 0 15-6.72 15-15 0-8.28-6.716-15-15-15-8.284 0-15 6.72-15 15 0 8.28 6.716 15 15 15zm108 60c8.284 0 15-6.72 15-15 0-8.28-6.716-15-15-15-8.284 0-15 6.72-15 15 0 8.28 6.716 15 15 15zm0 60c8.284 0 15-6.72 15-15 0-8.28-6.716-15-15-15-8.284 0-15 6.72-15 15 0 8.28 6.716 15 15 15zm0 60c8.284 0 15-6.72 15-15 0-8.28-6.716-15-15-15-8.284 0-15 6.72-15 15 0 8.28 6.716 15 15 15zm-216 60c8.284 0 15-6.72 15-15 0-8.28-6.716-15-15-15-8.284 0-15 6.72-15 15 0 8.28 6.716 15 15 15zm123-15c0 8.28-6.716 15-15 15-8.284 0-15-6.72-15-15 0-8.28 6.716-15 15-15 8.284 0 15 6.72 15 15zm93 15c8.284 0 15-6.72 15-15 0-8.28-6.716-15-15-15-8.284 0-15 6.72-15 15 0 8.28 6.716 15 15 15zm15 45c0 8.28-6.716 15-15 15-8.284 0-15-6.72-15-15 0-8.28 6.716-15 15-15 8.284 0 15 6.72 15 15zm0 54c0 8.28-6.716 15-15 15-8.284 0-15-6.72-15-15 0-8.28 6.716-15 15-15 8.284 0 15 6.72 15 15zm-324 115c0 8.28-6.716 15-15 15-8.284 0-15-6.72-15-15 0-8.28 6.716-15 15-15 8.284 0 15 6.72 15 15zm-15-100c8.284 0 15-6.72 15-15 0-8.28-6.716-15-15-15-8.284 0-15 6.72-15 15 0 8.28 6.716 15 15 15zm15-75c0 8.28-6.716 15-15 15-8.284 0-15-6.72-15-15 0-8.28 6.716-15 15-15 8.284 0 15 6.72 15 15zm0-114c0 8.28-6.716 15-15 15-8.284 0-15-6.72-15-15 0-8.28 6.716-15 15-15 8.284 0 15 6.72 15 15zm0-60c0 8.28-6.716 15-15 15-8.284 0-15-6.72-15-15 0-8.28 6.716-15 15-15 8.284 0 15 6.72 15 15zm216-60c0 8.28-6.716 15-15 15-8.284 0-15-6.72-15-15 0-8.28 6.716-15 15-15 8.284 0 15 6.72 15 15zm-123 15c8.284 0 15-6.72 15-15 0-8.28-6.716-15-15-15-8.284 0-15 6.72-15 15 0 8.28 6.716 15 15 15zm-93-15c0 8.28-6.716 15-15 15-8.284 0-15-6.72-15-15 0-8.28 6.716-15 15-15 8.284 0 15 6.72 15 15zm108-60c0 8.28-6.716 15-15 15-8.284 0-15-6.72-15-15 0-8.28 6.716-15 15-15 8.284 0 15 6.72 15 15zm-123 15c8.284 0 15-6.72 15-15 0-8.28-6.716-15-15-15-8.284 0-15 6.72-15 15 0 8.28 6.716 15 15 15zm216-60c8.284 0 15-6.72 15-15 0-8.28-6.716-15-15-15-8.284 0-15 6.72-15 15 0 8.28 6.716 15 15 15zm-93-15c0 8.28-6.716 15-15 15-8.284 0-15-6.72-15-15 0-8.28 6.716-15 15-15 8.284 0 15 6.72 15 15zm-123 15c8.284 0 15-6.72 15-15 0-8.28-6.716-15-15-15-8.284 0-15 6.72-15 15 0 8.28 6.716 15 15 15zm108-60c8.284 0 15-6.72 15-15 0-8.28-6.716-15-15-15-8.284 0-15 6.72-15 15 0 8.28 6.716 15 15 15zm-93-15c0 8.28-6.716 15-15 15-8.284 0-15-6.72-15-15 0-8.28 6.716-15 15-15 8.284 0 15 6.72 15 15zm363 435c8.284 0 15-6.72 15-15 0-8.28-6.716-15-15-15-8.284 0-15 6.72-15 15 0 8.28 6.716 15 15 15zm15-75c0 8.28-6.716 15-15 15-8.284 0-15-6.72-15-15 0-8.28 6.716-15 15-15 8.284 0 15 6.72 15 15zm-123 15c8.284 0 15-6.72 15-15 0-8.28-6.716-15-15-15-8.284 0-15 6.72-15 15 0 8.28 6.716 15 15 15zm-93-15c0 8.28-6.716 15-15 15-8.284 0-15-6.72-15-15 0-8.28 6.716-15 15-15 8.284 0 15 6.72 15 15zm-123 15c8.284 0 15-6.72 15-15 0-8.28-6.716-15-15-15-8.284 0-15 6.72-15 15 0 8.28 6.716 15 15 15zm15 214c0 8.28-6.716 15-15 15-8.284 0-15-6.72-15-15 0-8.28 6.716-15 15-15 8.284 0 15 6.72 15 15zm309-274c8.284 0 15-6.72 15-15 0-8.28-6.716-15-15-15-8.284 0-15 6.72-15 15 0 8.28 6.716 15 15 15zm-309 214c0 8.28-6.716 15-15 15-8.284 0-15-6.72-15-15 0-8.28 6.716-15 15-15 8.284 0 15 6.72 15 15zm309-274c8.284 0 15-6.72 15-15 0-8.28-6.716-15-15-15-8.284 0-15 6.72-15 15 0 8.28 6.716 15 15 15zm-309-15c0 8.28-6.716 15-15 15-8.284 0-15-6.72-15-15 0-8.28 6.716-15 15-15 8.284 0 15 6.72 15 15zm309-45c8.284 0 15-6.72 15-15 0-8.28-6.716-15-15-15-8.284 0-15 6.72-15 15 0 8.28 6.716 15 15 15zm-93-15c0 8.28-6.716 15-15 15-8.284 0-15-6.72-15-15 0-8.28 6.716-15 15-15 8.284 0 15 6.72 15 15zm-123 15c8.284 0 15-6.72 15-15 0-8.28-6.716-15-15-15-8.284 0-15 6.72-15 15 0 8.28 6.716 15 15 15zm-93-15c0 8.28-6.716 15-15 15-8.284 0-15-6.72-15-15 0-8.28 6.716-15 15-15 8.284 0 15 6.72 15 15zm201-45c8.284 0 15-6.72 15-15 0-8.28-6.716-15-15-15-8.284 0-15 6.72-15 15 0 8.28 6.716 15 15 15zm-93-15c0 8.28-6.716 15-15 15-8.284 0-15-6.72-15-15 0-8.28 6.716-15 15-15 8.284 0 15 6.72 15 15zm-123 15c8.284 0 15-6.72 15-15 0-8.28-6.716-15-15-15-8.284 0-15 6.72-15 15 0 8.28 6.716 15 15 15zm339-75c0 8.28-6.716 15-15 15-8.284 0-15-6.72-15-15 0-8.28 6.716-15 15-15 8.284 0 15 6.72 15 15zm-123 15c8.284 0 15-6.72 15-15 0-8.28-6.716-15-15-15-8.284 0-15 6.72-15 15 0 8.28 6.716 15 15 15zm-93-15c0 8.28-6.716 15-15 15-8.284 0-15-6.72-15-15 0-8.28 6.716-15 15-15 8.284 0 15 6.72 15 15zm-123 15c8.284 0 15-6.72 15-15 0-8.28-6.716-15-15-15-8.284 0-15 6.72-15 15 0 8.28 6.716 15 15 15zm339-75c0 8.28-6.716 15-15 15-8.284 0-15-6.72-15-15 0-8.28 6.716-15 15-15 8.284 0 15 6.72 15 15zm-123 15c8.284 0 15-6.72 15-15 0-8.28-6.716-15-15-15-8.284 0-15 6.72-15 15 0 8.28 6.716 15 15 15zm123 459c0 8.28-6.716 15-15 15-8.284 0-15-6.72-15-15 0-8.28 6.716-15 15-15 8.284 0 15 6.72 15 15zm-15 69c8.284 0 15-6.72 15-15 0-8.28-6.716-15-15-15-8.284 0-15 6.72-15 15 0 8.28 6.716 15 15 15zm15 44c0 8.28-6.716 15-15 15-8.284 0-15-6.72-15-15 0-8.28 6.716-15 15-15 8.284 0 15 6.72 15 15zm-15 74c8.284 0 15-6.72 15-15 0-8.28-6.716-15-15-15-8.284 0-15 6.72-15 15 0 8.28 6.716 15 15 15z" fill="url(#b)"/><defs><linearGradient id="a" x1="846.609" y1="-54.755" x2="463.671" y2="674.032" gradientUnits="userSpaceOnUse"><stop offset=".069" stop-color="#15E682"/><stop offset="1" stop-color="#fff"/></linearGradient><linearGradient id="b" x1="643.755" y1="2663.61" x2="-85.032" y2="2280.67" gradientUnits="userSpaceOnUse"><stop offset=".069" stop-color="#15E682"/><stop offset="1" stop-color="#fff"/></linearGradient></defs></svg>