<svg width="1494" height="2473" fill="none" xmlns="http://www.w3.org/2000/svg"><path fill-rule="evenodd" clip-rule="evenodd" d="M1440 1349c0-14.91 12.09-27 27-27s27 12.09 27 27-12.09 27-27 27-27-12.09-27-27zm-69-27c-14.91 0-27 12.09-27 27s12.09 27 27 27 27-12.09 27-27-12.09-27-27-27zm-96 0c-14.91 0-27 12.09-27 27s12.09 27 27 27 27-12.09 27-27-12.09-27-27-27zm0-96c-14.91 0-27 12.09-27 27s12.09 27 27 27 27-12.09 27-27-12.09-27-27-27zm69 27c0-14.91 12.09-27 27-27s27 12.09 27 27-12.09 27-27 27-27-12.09-27-27zm123-27c-14.91 0-27 12.09-27 27s12.09 27 27 27 27-12.09 27-27-12.09-27-27-27zm-603 27c0-14.91 12.088-27 27-27s27 12.09 27 27-12.088 27-27 27-27-12.09-27-27zm-357 69c-14.912 0-27 12.09-27 27s12.088 27 27 27 27-12.09 27-27-12.088-27-27-27zm-27-69c0-14.91 12.088-27 27-27s27 12.09 27 27-12.088 27-27 27-27-12.09-27-27zm699-27c-14.91 0-27 12.09-27 27s12.09 27 27 27 27-12.09 27-27-12.09-27-27-27zm-411 27c0-14.91 12.088-27 27-27s27 12.09 27 27-12.088 27-27 27-27-12.09-27-27zm-357 69c-14.912 0-27 12.09-27 27s12.088 27 27 27 27-12.09 27-27-12.088-27-27-27zm-27-69c0-14.91 12.088-27 27-27s27 12.09 27 27-12.088 27-27 27-27-12.09-27-27zm699-27c-14.91 0-27 12.09-27 27s12.09 27 27 27 27-12.09 27-27-12.09-27-27-27zm-411 27c0-14.91 12.088-27 27-27s27 12.09 27 27-12.088 27-27 27-27-12.09-27-27zm-357 69c-14.912 0-27 12.09-27 27s12.088 27 27 27 27-12.09 27-27-12.088-27-27-27zm-27-69c0-14.91 12.088-27 27-27s27 12.09 27 27-12.088 27-27 27-27-12.09-27-27zm699 69c-14.912 0-27 12.09-27 27s12.088 27 27 27c14.91 0 27-12.09 27-27s-12.09-27-27-27zm-27-69c0-14.91 12.088-27 27-27 14.91 0 27 12.09 27 27s-12.09 27-27 27c-14.912 0-27-12.09-27-27zm-357 69c-14.912 0-27 12.09-27 27s12.088 27 27 27 27-12.09 27-27-12.088-27-27-27zm-27-69c0-14.91 12.088-27 27-27s27 12.09 27 27-12.088 27-27 27-27-12.09-27-27zm-357 69c-14.912 0-27 12.09-27 27s12.088 27 27 27 27-12.09 27-27-12.088-27-27-27zm-123 27c0-14.91 12.088-27 27-27s27 12.09 27 27-12.088 27-27 27-27-12.09-27-27zm-69-27c-14.912 0-27 12.09-27 27s12.088 27 27 27 27-12.09 27-27-12.088-27-27-27zm69-69c0-14.91 12.088-27 27-27s27 12.09 27 27-12.088 27-27 27-27-12.09-27-27zm1179-123c-14.91 0-27 12.09-27 27s12.09 27 27 27 27-12.09 27-27-12.09-27-27-27zm165 27c0-14.91 12.09-27 27-27s27 12.09 27 27-12.09 27-27 27-27-12.09-27-27zm27-123c-14.91 0-27 12.09-27 27s12.09 27 27 27 27-12.09 27-27-12.09-27-27-27zm-603 123c0-14.91 12.088-27 27-27s27 12.09 27 27-12.088 27-27 27-27-12.09-27-27zm27-123c-14.912 0-27 12.09-27 27s12.088 27 27 27 27-12.09 27-27-12.088-27-27-27zm-411 27c0-14.91 12.088-27 27-27s27 12.09 27 27-12.088 27-27 27-27-12.09-27-27zm699 69c-14.91 0-27 12.09-27 27s12.09 27 27 27 27-12.09 27-27-12.09-27-27-27zm-411 27c0-14.91 12.088-27 27-27s27 12.09 27 27-12.088 27-27 27-27-12.09-27-27zm27-123c-14.912 0-27 12.09-27 27s12.088 27 27 27 27-12.09 27-27-12.088-27-27-27zm-411 27c0-14.91 12.088-27 27-27s27 12.09 27 27-12.088 27-27 27-27-12.09-27-27zm699 69c-14.91 0-27 12.09-27 27s12.09 27 27 27 27-12.09 27-27-12.09-27-27-27zm-27-69c0-14.91 12.09-27 27-27s27 12.09 27 27-12.09 27-27 27-27-12.09-27-27zm-357 69c-14.912 0-27 12.09-27 27s12.088 27 27 27 27-12.09 27-27-12.088-27-27-27zm-27-69c0-14.91 12.088-27 27-27s27 12.09 27 27-12.088 27-27 27-27-12.09-27-27zm-357-27c-14.912 0-27 12.09-27 27s12.088 27 27 27 27-12.09 27-27-12.088-27-27-27zm645 123c0-14.91 12.088-27 27-27 14.91 0 27 12.09 27 27s-12.09 27-27 27c-14.912 0-27-12.09-27-27zm-357-27c-14.912 0-27 12.09-27 27s12.088 27 27 27 27-12.09 27-27-12.088-27-27-27zm-27-69c0-14.91 12.088-27 27-27s27 12.09 27 27-12.088 27-27 27-27-12.09-27-27zm-453 69c-14.912 0-27 12.09-27 27s12.088 27 27 27 27-12.09 27-27-12.088-27-27-27zm69-69c0-14.91 12.088-27 27-27s27 12.09 27 27-12.088 27-27 27-27-12.09-27-27zm-69-27c-14.912 0-27 12.09-27 27s12.088 27 27 27 27-12.09 27-27-12.088-27-27-27zM0 1061c0-14.91 12.088-27 27-27s27 12.09 27 27-12.088 27-27 27-27-12.09-27-27zm1275-315c-14.91 0-27 12.088-27 27s12.09 27 27 27 27-12.088 27-27-12.09-27-27-27zm69 27c0-14.912 12.09-27 27-27s27 12.088 27 27-12.09 27-27 27-27-12.088-27-27zm123-27c-14.91 0-27 12.088-27 27s12.09 27 27 27 27-12.088 27-27-12.09-27-27-27zm-603 27c0-14.912 12.088-27 27-27s27 12.088 27 27-12.088 27-27 27-27-12.088-27-27zm315-27c-14.91 0-27 12.088-27 27s12.09 27 27 27 27-12.088 27-27-12.09-27-27-27zm-411 27c0-14.912 12.088-27 27-27s27 12.088 27 27-12.088 27-27 27-27-12.088-27-27zm315-27c-14.91 0-27 12.088-27 27s12.09 27 27 27 27-12.088 27-27-12.09-27-27-27zm-411 27c0-14.912 12.088-27 27-27s27 12.088 27 27-12.088 27-27 27-27-12.088-27-27zm315-27c-14.912 0-27 12.088-27 27s12.088 27 27 27c14.91 0 27-12.088 27-27s-12.09-27-27-27zm-411 27c0-14.912 12.088-27 27-27s27 12.088 27 27-12.088 27-27 27-27-12.088-27-27zm795 165c-14.91 0-27 12.088-27 27s12.09 27 27 27 27-12.088 27-27-12.09-27-27-27zm-27 123c0-14.91 12.09-27 27-27s27 12.09 27 27-12.09 27-27 27-27-12.09-27-27zm123-123c-14.91 0-27 12.088-27 27s12.09 27 27 27 27-12.088 27-27-12.09-27-27-27zm-27-69c0-14.912 12.09-27 27-27s27 12.088 27 27-12.09 27-27 27-27-12.088-27-27zm-549-27c-14.912 0-27 12.088-27 27s12.088 27 27 27 27-12.088 27-27-12.088-27-27-27zM480 965c0-14.912 12.088-27 27-27s27 12.088 27 27-12.088 27-27 27-27-12.088-27-27zm27-123c-14.912 0-27 12.088-27 27s12.088 27 27 27 27-12.088 27-27-12.088-27-27-27zm261 27c0-14.912 12.088-27 27-27s27 12.088 27 27-12.088 27-27 27-27-12.088-27-27zm-357 69c-14.912 0-27 12.088-27 27s12.088 27 27 27 27-12.088 27-27-12.088-27-27-27zm-27-69c0-14.912 12.088-27 27-27s27 12.088 27 27-12.088 27-27 27-27-12.088-27-27zm699-27c-14.91 0-27 12.088-27 27s12.09 27 27 27 27-12.088 27-27-12.09-27-27-27zm-411 27c0-14.912 12.088-27 27-27s27 12.088 27 27-12.088 27-27 27-27-12.088-27-27zm-357 69c-14.912 0-27 12.088-27 27s12.088 27 27 27 27-12.088 27-27-12.088-27-27-27zm-27-69c0-14.912 12.088-27 27-27s27 12.088 27 27-12.088 27-27 27-27-12.088-27-27zm699-27c-14.912 0-27 12.088-27 27s12.088 27 27 27c14.91 0 27-12.088 27-27s-12.09-27-27-27zm-411 27c0-14.912 12.088-27 27-27s27 12.088 27 27-12.088 27-27 27-27-12.088-27-27zm-357 69c-14.912 0-27 12.088-27 27s12.088 27 27 27 27-12.088 27-27-12.088-27-27-27zM96 965c0-14.912 12.088-27 27-27s27 12.088 27 27-12.088 27-27 27-27-12.088-27-27zm-69-27c-14.912 0-27 12.088-27 27s12.088 27 27 27 27-12.088 27-27-12.088-27-27-27zm165-69c0-14.912 12.088-27 27-27s27 12.088 27 27-12.088 27-27 27-27-12.088-27-27zM27 842c-14.912 0-27 12.088-27 27s12.088 27 27 27 27-12.088 27-27-12.088-27-27-27z" fill="url(#a)" opacity=".12"/><path fill-rule="evenodd" clip-rule="evenodd" d="M54 1870c0 14.91-12.088 27-27 27s-27-12.09-27-27 12.088-27 27-27 27 12.09 27 27zm69 27c14.912 0 27-12.09 27-27s-12.088-27-27-27-27 12.09-27 27 12.088 27 27 27zm96 0c14.912 0 27-12.09 27-27s-12.088-27-27-27-27 12.09-27 27 12.088 27 27 27zm0 96c14.912 0 27-12.09 27-27s-12.088-27-27-27-27 12.09-27 27 12.088 27 27 27zm-69-27c0 14.91-12.088 27-27 27s-27-12.09-27-27 12.088-27 27-27 27 12.09 27 27zm-123 27c14.912 0 27-12.09 27-27s-12.088-27-27-27-27 12.09-27 27 12.088 27 27 27zm603-27c0 14.91-12.088 27-27 27s-27-12.09-27-27 12.088-27 27-27 27 12.09 27 27zm357-69c14.91 0 27-12.09 27-27s-12.09-27-27-27c-14.912 0-27 12.09-27 27s12.088 27 27 27zm27 69c0 14.91-12.09 27-27 27-14.912 0-27-12.09-27-27s12.088-27 27-27c14.91 0 27 12.09 27 27zm-699 27c14.912 0 27-12.09 27-27s-12.088-27-27-27-27 12.09-27 27 12.088 27 27 27zm411-27c0 14.91-12.088 27-27 27s-27-12.09-27-27 12.088-27 27-27 27 12.09 27 27zm357-69c14.91 0 27-12.09 27-27s-12.09-27-27-27-27 12.09-27 27 12.09 27 27 27zm27 69c0 14.91-12.09 27-27 27s-27-12.09-27-27 12.09-27 27-27 27 12.09 27 27zm-699 27c14.912 0 27-12.09 27-27s-12.088-27-27-27-27 12.09-27 27 12.088 27 27 27zm411-27c0 14.91-12.088 27-27 27s-27-12.09-27-27 12.088-27 27-27 27 12.09 27 27zm357-69c14.91 0 27-12.09 27-27s-12.09-27-27-27-27 12.09-27 27 12.09 27 27 27zm27 69c0 14.91-12.09 27-27 27s-27-12.09-27-27 12.09-27 27-27 27 12.09 27 27zm-699-69c14.912 0 27-12.09 27-27s-12.088-27-27-27-27 12.09-27 27 12.088 27 27 27zm27 69c0 14.91-12.088 27-27 27s-27-12.09-27-27 12.088-27 27-27 27 12.09 27 27zm357-69c14.912 0 27-12.09 27-27s-12.088-27-27-27-27 12.09-27 27 12.088 27 27 27zm27 69c0 14.91-12.088 27-27 27s-27-12.09-27-27 12.088-27 27-27 27 12.09 27 27zm357-69c14.91 0 27-12.09 27-27s-12.09-27-27-27-27 12.09-27 27 12.09 27 27 27zm123-27c0 14.91-12.09 27-27 27s-27-12.09-27-27 12.09-27 27-27 27 12.09 27 27zm69 27c14.91 0 27-12.09 27-27s-12.09-27-27-27-27 12.09-27 27 12.09 27 27 27zm-69 69c0 14.91-12.09 27-27 27s-27-12.09-27-27 12.09-27 27-27 27 12.09 27 27zM219 2089c14.912 0 27-12.09 27-27s-12.088-27-27-27-27 12.09-27 27 12.088 27 27 27zm-165-27c0 14.91-12.088 27-27 27s-27-12.09-27-27 12.088-27 27-27 27 12.09 27 27zm-27 123c14.912 0 27-12.09 27-27s-12.088-27-27-27-27 12.09-27 27 12.088 27 27 27zm603-123c0 14.91-12.088 27-27 27s-27-12.09-27-27 12.088-27 27-27 27 12.09 27 27zm-27 123c14.912 0 27-12.09 27-27s-12.088-27-27-27-27 12.09-27 27 12.088 27 27 27zm411-27c0 14.91-12.09 27-27 27-14.912 0-27-12.09-27-27s12.088-27 27-27c14.91 0 27 12.09 27 27zm-699-69c14.912 0 27-12.09 27-27s-12.088-27-27-27-27 12.09-27 27 12.088 27 27 27zm411-27c0 14.91-12.088 27-27 27s-27-12.09-27-27 12.088-27 27-27 27 12.09 27 27zm-27 123c14.912 0 27-12.09 27-27s-12.088-27-27-27-27 12.09-27 27 12.088 27 27 27zm411-27c0 14.91-12.09 27-27 27s-27-12.09-27-27 12.09-27 27-27 27 12.09 27 27zm-699-69c14.912 0 27-12.09 27-27s-12.088-27-27-27-27 12.09-27 27 12.088 27 27 27zm27 69c0 14.91-12.088 27-27 27s-27-12.09-27-27 12.088-27 27-27 27 12.09 27 27zm357-69c14.912 0 27-12.09 27-27s-12.088-27-27-27-27 12.09-27 27 12.088 27 27 27zm27 69c0 14.91-12.088 27-27 27s-27-12.09-27-27 12.088-27 27-27 27 12.09 27 27zm357 27c14.91 0 27-12.09 27-27s-12.09-27-27-27-27 12.09-27 27 12.09 27 27 27zm-645-123c0 14.91-12.088 27-27 27s-27-12.09-27-27 12.088-27 27-27 27 12.09 27 27zm357 27c14.912 0 27-12.09 27-27s-12.088-27-27-27-27 12.09-27 27 12.088 27 27 27zm27 69c0 14.91-12.088 27-27 27s-27-12.09-27-27 12.088-27 27-27 27 12.09 27 27zm453-69c14.91 0 27-12.09 27-27s-12.09-27-27-27-27 12.09-27 27 12.09 27 27 27zm-69 69c0 14.91-12.09 27-27 27s-27-12.09-27-27 12.09-27 27-27 27 12.09 27 27zm69 27c14.91 0 27-12.09 27-27s-12.09-27-27-27-27 12.09-27 27 12.09 27 27 27zm123-27c0 14.91-12.09 27-27 27s-27-12.09-27-27 12.09-27 27-27 27 12.09 27 27zM219 2473c14.912 0 27-12.09 27-27s-12.088-27-27-27-27 12.09-27 27 12.088 27 27 27zm-69-27c0 14.91-12.088 27-27 27s-27-12.09-27-27 12.088-27 27-27 27 12.09 27 27zm-123 27c14.912 0 27-12.09 27-27s-12.088-27-27-27-27 12.09-27 27 12.088 27 27 27zm603-27c0 14.91-12.088 27-27 27s-27-12.09-27-27 12.088-27 27-27 27 12.09 27 27zm-315 27c14.912 0 27-12.09 27-27s-12.088-27-27-27-27 12.09-27 27 12.088 27 27 27zm411-27c0 14.91-12.088 27-27 27s-27-12.09-27-27 12.088-27 27-27 27 12.09 27 27zm-315 27c14.912 0 27-12.09 27-27s-12.088-27-27-27-27 12.09-27 27 12.088 27 27 27zm411-27c0 14.91-12.088 27-27 27s-27-12.09-27-27 12.088-27 27-27 27 12.09 27 27zm-315 27c14.912 0 27-12.09 27-27s-12.088-27-27-27-27 12.09-27 27 12.088 27 27 27zm411-27c0 14.91-12.088 27-27 27s-27-12.09-27-27 12.088-27 27-27 27 12.09 27 27zm-795-165c14.912 0 27-12.09 27-27s-12.088-27-27-27-27 12.09-27 27 12.088 27 27 27zm27-123c0 14.91-12.088 27-27 27s-27-12.09-27-27 12.088-27 27-27 27 12.09 27 27zM27 2281c14.912 0 27-12.09 27-27s-12.088-27-27-27-27 12.09-27 27 12.088 27 27 27zm27 69c0 14.91-12.088 27-27 27s-27-12.09-27-27 12.088-27 27-27 27 12.09 27 27zm549 27c14.912 0 27-12.09 27-27s-12.088-27-27-27-27 12.09-27 27 12.088 27 27 27zm411-123c0 14.91-12.09 27-27 27-14.912 0-27-12.09-27-27s12.088-27 27-27c14.91 0 27 12.09 27 27zm-27 123c14.91 0 27-12.09 27-27s-12.09-27-27-27c-14.912 0-27 12.09-27 27s12.088 27 27 27zm-261-27c0 14.91-12.088 27-27 27s-27-12.09-27-27 12.088-27 27-27 27 12.09 27 27zm357-69c14.91 0 27-12.09 27-27s-12.09-27-27-27-27 12.09-27 27 12.09 27 27 27zm27 69c0 14.91-12.09 27-27 27s-27-12.09-27-27 12.09-27 27-27 27 12.09 27 27zm-699 27c14.912 0 27-12.09 27-27s-12.088-27-27-27-27 12.09-27 27 12.088 27 27 27zm411-27c0 14.91-12.088 27-27 27s-27-12.09-27-27 12.088-27 27-27 27 12.09 27 27zm357-69c14.91 0 27-12.09 27-27s-12.09-27-27-27-27 12.09-27 27 12.09 27 27 27zm27 69c0 14.91-12.09 27-27 27s-27-12.09-27-27 12.09-27 27-27 27 12.09 27 27zm-699 27c14.912 0 27-12.09 27-27s-12.088-27-27-27-27 12.09-27 27 12.088 27 27 27zm411-27c0 14.91-12.088 27-27 27s-27-12.09-27-27 12.088-27 27-27 27 12.09 27 27zm357-69c14.91 0 27-12.09 27-27s-12.09-27-27-27-27 12.09-27 27 12.09 27 27 27zm123-27c0 14.91-12.09 27-27 27s-27-12.09-27-27 12.09-27 27-27 27 12.09 27 27zm69 27c14.91 0 27-12.09 27-27s-12.09-27-27-27-27 12.09-27 27 12.09 27 27 27zm-165 69c0 14.91-12.09 27-27 27s-27-12.09-27-27 12.09-27 27-27 27 12.09 27 27zm165 27c14.91 0 27-12.09 27-27s-12.09-27-27-27-27 12.09-27 27 12.09 27 27 27z" fill="url(#b)" opacity=".12"/><path fill-rule="evenodd" clip-rule="evenodd" d="M54 27c0 14.912-12.088 27-27 27S0 41.912 0 27 12.088 0 27 0s27 12.088 27 27zm69 27c14.912 0 27-12.088 27-27S137.912 0 123 0 96 12.088 96 27s12.088 27 27 27zm96 0c14.912 0 27-12.088 27-27S233.912 0 219 0s-27 12.088-27 27 12.088 27 27 27zm0 96c14.912 0 27-12.088 27-27s-12.088-27-27-27-27 12.088-27 27 12.088 27 27 27zm-69-27c0 14.912-12.088 27-27 27s-27-12.088-27-27 12.088-27 27-27 27 12.088 27 27zM27 150c14.912 0 27-12.088 27-27S41.912 96 27 96 0 108.088 0 123s12.088 27 27 27zm603-27c0 14.912-12.088 27-27 27s-27-12.088-27-27 12.088-27 27-27 27 12.088 27 27zm357-69c14.91 0 27-12.088 27-27s-12.09-27-27-27c-14.912 0-27 12.088-27 27s12.088 27 27 27zm27 69c0 14.912-12.09 27-27 27-14.912 0-27-12.088-27-27s12.088-27 27-27c14.91 0 27 12.088 27 27zm-699 27c14.912 0 27-12.088 27-27s-12.088-27-27-27-27 12.088-27 27 12.088 27 27 27zm411-27c0 14.912-12.088 27-27 27s-27-12.088-27-27 12.088-27 27-27 27 12.088 27 27zm357-69c14.91 0 27-12.088 27-27s-12.09-27-27-27-27 12.088-27 27 12.09 27 27 27zm27 69c0 14.912-12.09 27-27 27s-27-12.088-27-27 12.09-27 27-27 27 12.088 27 27zm-699 27c14.912 0 27-12.088 27-27s-12.088-27-27-27-27 12.088-27 27 12.088 27 27 27zm411-27c0 14.912-12.088 27-27 27s-27-12.088-27-27 12.088-27 27-27 27 12.088 27 27zm357-69c14.91 0 27-12.088 27-27s-12.09-27-27-27-27 12.088-27 27 12.09 27 27 27zm27 69c0 14.912-12.09 27-27 27s-27-12.088-27-27 12.09-27 27-27 27 12.088 27 27zM507 54c14.912 0 27-12.088 27-27S521.912 0 507 0s-27 12.088-27 27 12.088 27 27 27zm27 69c0 14.912-12.088 27-27 27s-27-12.088-27-27 12.088-27 27-27 27 12.088 27 27zm357-69c14.912 0 27-12.088 27-27S905.912 0 891 0s-27 12.088-27 27 12.088 27 27 27zm27 69c0 14.912-12.088 27-27 27s-27-12.088-27-27 12.088-27 27-27 27 12.088 27 27zm357-69c14.91 0 27-12.088 27-27s-12.09-27-27-27-27 12.088-27 27 12.09 27 27 27zm123-27c0 14.912-12.09 27-27 27s-27-12.088-27-27 12.09-27 27-27 27 12.088 27 27zm69 27c14.91 0 27-12.088 27-27s-12.09-27-27-27-27 12.088-27 27 12.09 27 27 27zm-69 69c0 14.912-12.09 27-27 27s-27-12.088-27-27 12.09-27 27-27 27 12.088 27 27zM219 246c14.912 0 27-12.088 27-27s-12.088-27-27-27-27 12.088-27 27 12.088 27 27 27zM54 219c0 14.912-12.088 27-27 27S0 233.912 0 219s12.088-27 27-27 27 12.088 27 27zM27 342c14.912 0 27-12.088 27-27s-12.088-27-27-27-27 12.088-27 27 12.088 27 27 27zm603-123c0 14.912-12.088 27-27 27s-27-12.088-27-27 12.088-27 27-27 27 12.088 27 27zm-27 123c14.912 0 27-12.088 27-27s-12.088-27-27-27-27 12.088-27 27 12.088 27 27 27zm411-27c0 14.912-12.09 27-27 27-14.912 0-27-12.088-27-27s12.088-27 27-27c14.91 0 27 12.088 27 27zm-699-69c14.912 0 27-12.088 27-27s-12.088-27-27-27-27 12.088-27 27 12.088 27 27 27zm411-27c0 14.912-12.088 27-27 27s-27-12.088-27-27 12.088-27 27-27 27 12.088 27 27zm-27 123c14.912 0 27-12.088 27-27s-12.088-27-27-27-27 12.088-27 27 12.088 27 27 27zm411-27c0 14.912-12.09 27-27 27s-27-12.088-27-27 12.09-27 27-27 27 12.088 27 27zm-699-69c14.912 0 27-12.088 27-27s-12.088-27-27-27-27 12.088-27 27 12.088 27 27 27zm27 69c0 14.912-12.088 27-27 27s-27-12.088-27-27 12.088-27 27-27 27 12.088 27 27zm357-69c14.912 0 27-12.088 27-27s-12.088-27-27-27-27 12.088-27 27 12.088 27 27 27zm27 69c0 14.912-12.088 27-27 27s-27-12.088-27-27 12.088-27 27-27 27 12.088 27 27zm357 27c14.91 0 27-12.088 27-27s-12.09-27-27-27-27 12.088-27 27 12.09 27 27 27zM534 219c0 14.912-12.088 27-27 27s-27-12.088-27-27 12.088-27 27-27 27 12.088 27 27zm357 27c14.912 0 27-12.088 27-27s-12.088-27-27-27-27 12.088-27 27 12.088 27 27 27zm27 69c0 14.912-12.088 27-27 27s-27-12.088-27-27 12.088-27 27-27 27 12.088 27 27zm453-69c14.91 0 27-12.088 27-27s-12.09-27-27-27-27 12.088-27 27 12.09 27 27 27zm-69 69c0 14.912-12.09 27-27 27s-27-12.088-27-27 12.09-27 27-27 27 12.088 27 27zm69 27c14.91 0 27-12.088 27-27s-12.09-27-27-27-27 12.088-27 27 12.09 27 27 27zm123-27c0 14.912-12.09 27-27 27s-27-12.088-27-27 12.09-27 27-27 27 12.088 27 27zM219 630c14.912 0 27-12.088 27-27s-12.088-27-27-27-27 12.088-27 27 12.088 27 27 27zm-69-27c0 14.912-12.088 27-27 27s-27-12.088-27-27 12.088-27 27-27 27 12.088 27 27zM27 630c14.912 0 27-12.088 27-27s-12.088-27-27-27-27 12.088-27 27 12.088 27 27 27zm603-27c0 14.912-12.088 27-27 27s-27-12.088-27-27 12.088-27 27-27 27 12.088 27 27zm-315 27c14.912 0 27-12.088 27-27s-12.088-27-27-27-27 12.088-27 27 12.088 27 27 27zm411-27c0 14.912-12.088 27-27 27s-27-12.088-27-27 12.088-27 27-27 27 12.088 27 27zm-315 27c14.912 0 27-12.088 27-27s-12.088-27-27-27-27 12.088-27 27 12.088 27 27 27zm411-27c0 14.912-12.088 27-27 27s-27-12.088-27-27 12.088-27 27-27 27 12.088 27 27zm-315 27c14.912 0 27-12.088 27-27s-12.088-27-27-27-27 12.088-27 27 12.088 27 27 27zm411-27c0 14.912-12.088 27-27 27s-27-12.088-27-27 12.088-27 27-27 27 12.088 27 27zM123 438c14.912 0 27-12.088 27-27s-12.088-27-27-27-27 12.088-27 27 12.088 27 27 27zm27-123c0 14.912-12.088 27-27 27s-27-12.088-27-27 12.088-27 27-27 27 12.088 27 27zM27 438c14.912 0 27-12.088 27-27s-12.088-27-27-27-27 12.088-27 27 12.088 27 27 27zm27 69c0 14.912-12.088 27-27 27S0 521.912 0 507s12.088-27 27-27 27 12.088 27 27zm549 27c14.912 0 27-12.088 27-27s-12.088-27-27-27-27 12.088-27 27 12.088 27 27 27zm411-123c0 14.912-12.09 27-27 27-14.912 0-27-12.088-27-27s12.088-27 27-27c14.91 0 27 12.088 27 27zm-27 123c14.91 0 27-12.088 27-27s-12.09-27-27-27c-14.912 0-27 12.088-27 27s12.088 27 27 27zm-261-27c0 14.912-12.088 27-27 27s-27-12.088-27-27 12.088-27 27-27 27 12.088 27 27zm357-69c14.91 0 27-12.088 27-27s-12.09-27-27-27-27 12.088-27 27 12.09 27 27 27zm27 69c0 14.912-12.09 27-27 27s-27-12.088-27-27 12.09-27 27-27 27 12.088 27 27zm-699 27c14.912 0 27-12.088 27-27s-12.088-27-27-27-27 12.088-27 27 12.088 27 27 27zm411-27c0 14.912-12.088 27-27 27s-27-12.088-27-27 12.088-27 27-27 27 12.088 27 27zm357-69c14.91 0 27-12.088 27-27s-12.09-27-27-27-27 12.088-27 27 12.09 27 27 27zm27 69c0 14.912-12.09 27-27 27s-27-12.088-27-27 12.09-27 27-27 27 12.088 27 27zm-699 27c14.912 0 27-12.088 27-27s-12.088-27-27-27-27 12.088-27 27 12.088 27 27 27zm411-27c0 14.912-12.088 27-27 27s-27-12.088-27-27 12.088-27 27-27 27 12.088 27 27zm357-69c14.91 0 27-12.088 27-27s-12.09-27-27-27-27 12.088-27 27 12.09 27 27 27zm123-27c0 14.912-12.09 27-27 27s-27-12.088-27-27 12.09-27 27-27 27 12.088 27 27zm69 27c14.91 0 27-12.088 27-27s-12.09-27-27-27-27 12.088-27 27 12.09 27 27 27zm-165 69c0 14.912-12.09 27-27 27s-27-12.088-27-27 12.09-27 27-27 27 12.088 27 27zm165 27c14.91 0 27-12.088 27-27s-12.09-27-27-27-27 12.088-27 27 12.09 27 27 27z" fill="url(#c)" opacity=".12"/><defs><linearGradient id="a" x1="-488" y1="574.5" x2="822.218" y2="1300.83" gradientUnits="userSpaceOnUse"><stop offset=".069" stop-color="#15E682"/><stop offset="1" stop-color="#fff"/></linearGradient><linearGradient id="b" x1="1982" y1="2644.5" x2="671.782" y2="1918.17" gradientUnits="userSpaceOnUse"><stop offset=".069" stop-color="#15E682"/><stop offset="1" stop-color="#fff"/></linearGradient><linearGradient id="c" x1="1982" y1="801.5" x2="671.782" y2="75.169" gradientUnits="userSpaceOnUse"><stop offset=".069" stop-color="#15E682"/><stop offset="1" stop-color="#fff"/></linearGradient></defs></svg>