<svg version="1.1" id="Layer_1" xmlns="http://www.w3.org/2000/svg" x="0" y="0" width="1548" height="3512" viewBox="468 -1360 1548 3512" style="enable-background:new 468 -1360 1548 3512" xml:space="preserve"><style>.st0{opacity:6.000000e-002}</style><g class="st0"><linearGradient id="SVGID_1_" gradientUnits="userSpaceOnUse" x1="1635.011" y1="-1800.652" x2="987.881" y2="-464.613" gradientTransform="matrix(1 0 0 -1 0 792)"><stop offset=".069" style="stop-color:#15e682"/><stop offset="1" style="stop-color:#fff"/></linearGradient><path d="M1920 1549c0 14.9-12.1 27-27 27s-27-12.1-27-27 12.1-27 27-27 27 12.1 27 27zm-1371 27c14.9 0 27-12.1 27-27s-12.1-27-27-27-27 12.1-27 27 12.1 27 27 27zm123-27c0 14.9-12.1 27-27 27s-27-12.1-27-27 12.1-27 27-27 27 12.1 27 27zm96 0c0 14.9-12.1 27-27 27s-27-12.1-27-27 12.1-27 27-27 27 12.1 27 27zm0 96c0 14.9-12.1 27-27 27s-27-12.1-27-27 12.1-27 27-27 27 12.1 27 27zm-123 27c14.9 0 27-12.1 27-27s-12.1-27-27-27-27 12.1-27 27 12.1 27 27 27zm-69-27c0 14.9-12.1 27-27 27s-27-12.1-27-27 12.1-27 27-27 27 12.1 27 27zm549 27c14.9 0 27-12.1 27-27s-12.1-27-27-27-27 12.1-27 27 12.1 27 27 27zm411-123c0 14.9-12.1 27-27 27s-27-12.1-27-27 12.1-27 27-27 27 12.1 27 27zm-27 123c14.9 0 27-12.1 27-27s-12.1-27-27-27-27 12.1-27 27 12.1 27 27 27zm-645-123c0 14.9-12.1 27-27 27s-27-12.1-27-27 12.1-27 27-27 27 12.1 27 27zm-27 123c14.9 0 27-12.1 27-27s-12.1-27-27-27-27 12.1-27 27 12.1 27 27 27zm411-27c0 14.9-12.1 27-27 27s-27-12.1-27-27 12.1-27 27-27 27 12.1 27 27zm357-69c14.9 0 27-12.1 27-27s-12.1-27-27-27-27 12.1-27 27 12.1 27 27 27zm27 69c0 14.9-12.1 27-27 27s-27-12.1-27-27 12.1-27 27-27 27 12.1 27 27zm-699 27c14.9 0 27-12.1 27-27s-12.1-27-27-27-27 12.1-27 27 12.1 27 27 27zm411-27c0 14.9-12.1 27-27 27s-27-12.1-27-27 12.1-27 27-27 27 12.1 27 27zm357-69c14.9 0 27-12.1 27-27s-12.1-27-27-27-27 12.1-27 27 12.1 27 27 27zm27 69c0 14.9-12.1 27-27 27s-27-12.1-27-27 12.1-27 27-27 27 12.1 27 27zm-699-69c14.9 0 27-12.1 27-27s-12.1-27-27-27-27 12.1-27 27 12.1 27 27 27zm27 69c0 14.9-12.1 27-27 27s-27-12.1-27-27 12.1-27 27-27 27 12.1 27 27zm357-69c14.9 0 27-12.1 27-27s-12.1-27-27-27-27 12.1-27 27 12.1 27 27 27zm27 69c0 14.9-12.1 27-27 27s-27-12.1-27-27 12.1-27 27-27 27 12.1 27 27zm357-69c14.9 0 27-12.1 27-27s-12.1-27-27-27-27 12.1-27 27 12.1 27 27 27zm192 0c14.9 0 27-12.1 27-27s-12.1-27-27-27-27 12.1-27 27 12.1 27 27 27zm-69 69c0 14.9-12.1 27-27 27s-27-12.1-27-27 12.1-27 27-27 27 12.1 27 27zM741 1768c14.9 0 27-12.1 27-27s-12.1-27-27-27-27 12.1-27 27 12.1 27 27 27zm-165-27c0 14.9-12.1 27-27 27s-27-12.1-27-27 12.1-27 27-27 27 12.1 27 27zm-27 123c14.9 0 27-12.1 27-27s-12.1-27-27-27-27 12.1-27 27 12.1 27 27 27zm603-123c0 14.9-12.1 27-27 27s-27-12.1-27-27 12.1-27 27-27 27 12.1 27 27zm-27 123c14.9 0 27-12.1 27-27s-12.1-27-27-27-27 12.1-27 27 12.1 27 27 27zm411-27c0 14.9-12.1 27-27 27s-27-12.1-27-27 12.1-27 27-27 27 12.1 27 27zm-699-69c14.9 0 27-12.1 27-27s-12.1-27-27-27-27 12.1-27 27 12.1 27 27 27zm411-27c0 14.9-12.1 27-27 27s-27-12.1-27-27 12.1-27 27-27 27 12.1 27 27zm-27 123c14.9 0 27-12.1 27-27s-12.1-27-27-27-27 12.1-27 27 12.1 27 27 27zm411-27c0 14.9-12.1 27-27 27s-27-12.1-27-27 12.1-27 27-27 27 12.1 27 27zm-699-69c14.9 0 27-12.1 27-27s-12.1-27-27-27-27 12.1-27 27 12.1 27 27 27zm27 69c0 14.9-12.1 27-27 27s-27-12.1-27-27 12.1-27 27-27 27 12.1 27 27zm357-69c14.9 0 27-12.1 27-27s-12.1-27-27-27-27 12.1-27 27 12.1 27 27 27zm27 69c0 14.9-12.1 27-27 27s-27-12.1-27-27 12.1-27 27-27 27 12.1 27 27zm357 27c14.9 0 27-12.1 27-27s-12.1-27-27-27-27 12.1-27 27 12.1 27 27 27zm-645-123c0 14.9-12.1 27-27 27s-27-12.1-27-27 12.1-27 27-27 27 12.1 27 27zm357 27c14.9 0 27-12.1 27-27s-12.1-27-27-27-27 12.1-27 27 12.1 27 27 27zm27 69c0 14.9-12.1 27-27 27s-27-12.1-27-27 12.1-27 27-27 27 12.1 27 27zm453-69c14.9 0 27-12.1 27-27s-12.1-27-27-27-27 12.1-27 27 12.1 27 27 27zm-69 69c0 14.9-12.1 27-27 27s-27-12.1-27-27 12.1-27 27-27 27 12.1 27 27zm69 27c14.9 0 27-12.1 27-27s-12.1-27-27-27-27 12.1-27 27 12.1 27 27 27zm123-27c0 14.9-12.1 27-27 27s-27-12.1-27-27 12.1-27 27-27 27 12.1 27 27zM741 2152c14.9 0 27-12.1 27-27s-12.1-27-27-27-27 12.1-27 27 12.1 27 27 27zm-69-27c0 14.9-12.1 27-27 27s-27-12.1-27-27 12.1-27 27-27 27 12.1 27 27zm-123 27c14.9 0 27-12.1 27-27s-12.1-27-27-27-27 12.1-27 27 12.1 27 27 27zm603-27c0 14.9-12.1 27-27 27s-27-12.1-27-27 12.1-27 27-27 27 12.1 27 27zm-315 27c14.9 0 27-12.1 27-27s-12.1-27-27-27-27 12.1-27 27 12.1 27 27 27zm411-27c0 14.9-12.1 27-27 27s-27-12.1-27-27 12.1-27 27-27 27 12.1 27 27zm-315 27c14.9 0 27-12.1 27-27s-12.1-27-27-27-27 12.1-27 27 12.1 27 27 27zm411-27c0 14.9-12.1 27-27 27s-27-12.1-27-27 12.1-27 27-27 27 12.1 27 27zm-315 27c14.9 0 27-12.1 27-27s-12.1-27-27-27-27 12.1-27 27 12.1 27 27 27zm411-27c0 14.9-12.1 27-27 27s-27-12.1-27-27 12.1-27 27-27 27 12.1 27 27zm-795-165c14.9 0 27-12.1 27-27s-12.1-27-27-27-27 12.1-27 27 12.1 27 27 27zm27-123c0 14.9-12.1 27-27 27s-27-12.1-27-27 12.1-27 27-27 27 12.1 27 27zm-123 123c14.9 0 27-12.1 27-27s-12.1-27-27-27-27 12.1-27 27 12.1 27 27 27zm27 69c0 14.9-12.1 27-27 27s-27-12.1-27-27 12.1-27 27-27 27 12.1 27 27zm549 27c14.9 0 27-12.1 27-27s-12.1-27-27-27-27 12.1-27 27 12.1 27 27 27zm411-123c0 14.9-12.1 27-27 27s-27-12.1-27-27 12.1-27 27-27 27 12.1 27 27zm-27 123c14.9 0 27-12.1 27-27s-12.1-27-27-27-27 12.1-27 27 12.1 27 27 27zm-261-27c0 14.9-12.1 27-27 27s-27-12.1-27-27 12.1-27 27-27 27 12.1 27 27zm357-69c14.9 0 27-12.1 27-27s-12.1-27-27-27-27 12.1-27 27 12.1 27 27 27zm27 69c0 14.9-12.1 27-27 27s-27-12.1-27-27 12.1-27 27-27 27 12.1 27 27zm-699 27c14.9 0 27-12.1 27-27s-12.1-27-27-27-27 12.1-27 27 12.1 27 27 27zm411-27c0 14.9-12.1 27-27 27s-27-12.1-27-27 12.1-27 27-27 27 12.1 27 27zm357-69c14.9 0 27-12.1 27-27s-12.1-27-27-27-27 12.1-27 27 12.1 27 27 27zm27 69c0 14.9-12.1 27-27 27s-27-12.1-27-27 12.1-27 27-27 27 12.1 27 27zm-699 27c14.9 0 27-12.1 27-27s-12.1-27-27-27-27 12.1-27 27 12.1 27 27 27zm411-27c0 14.9-12.1 27-27 27s-27-12.1-27-27 12.1-27 27-27 27 12.1 27 27zm357-69c14.9 0 27-12.1 27-27s-12.1-27-27-27-27 12.1-27 27 12.1 27 27 27zm123-27c0 14.9-12.1 27-27 27s-27-12.1-27-27 12.1-27 27-27 27 12.1 27 27zm69 27c14.9 0 27-12.1 27-27s-12.1-27-27-27-27 12.1-27 27 12.1 27 27 27zm-165 69c0 14.9-12.1 27-27 27s-27-12.1-27-27 12.1-27 27-27 27 12.1 27 27zm165 27c14.9 0 27-12.1 27-27s-12.1-27-27-27-27 12.1-27 27 12.1 27 27 27z" style="fill:url(#SVGID_1_)"/></g><g class="st0"><linearGradient id="SVGID_2_" gradientUnits="userSpaceOnUse" x1="848.987" y1="1472.653" x2="1496.12" y2="136.613" gradientTransform="matrix(1 0 0 -1 0 792)"><stop offset=".069" style="stop-color:#15e682"/><stop offset="1" style="stop-color:#fff"/></linearGradient><path d="M564 363c0-14.9 12.1-27 27-27s27 12.1 27 27-12.1 27-27 27-27-12.1-27-27zm1371-27c-14.9 0-27 12.1-27 27s12.1 27 27 27 27-12.1 27-27-12.1-27-27-27zm-123 27c0-14.9 12.1-27 27-27s27 12.1 27 27-12.1 27-27 27-27-12.1-27-27zm-96 0c0-14.9 12.1-27 27-27s27 12.1 27 27-12.1 27-27 27-27-12.1-27-27zm0-96c0-14.9 12.1-27 27-27s27 12.1 27 27-12.1 27-27 27-27-12.1-27-27zm123-27c-14.9 0-27 12.1-27 27s12.1 27 27 27 27-12.1 27-27-12.1-27-27-27zm69 27c0-14.9 12.1-27 27-27s27 12.1 27 27-12.1 27-27 27-27-12.1-27-27zm-549-27c-14.9 0-27 12.1-27 27s12.1 27 27 27 27-12.1 27-27-12.1-27-27-27zM948 363c0-14.9 12.1-27 27-27s27 12.1 27 27-12.1 27-27 27-27-12.1-27-27zm27-123c-14.9 0-27 12.1-27 27s12.1 27 27 27 27-12.1 27-27-12.1-27-27-27zm645 123c0-14.9 12.1-27 27-27s27 12.1 27 27-12.1 27-27 27-27-12.1-27-27zm27-123c-14.9 0-27 12.1-27 27s12.1 27 27 27 27-12.1 27-27-12.1-27-27-27zm-411 27c0-14.9 12.1-27 27-27s27 12.1 27 27-12.1 27-27 27-27-12.1-27-27zm-357 69c-14.9 0-27 12.1-27 27s12.1 27 27 27 27-12.1 27-27-12.1-27-27-27zm-27-69c0-14.9 12.1-27 27-27s27 12.1 27 27-12.1 27-27 27-27-12.1-27-27zm699-27c-14.9 0-27 12.1-27 27s12.1 27 27 27 27-12.1 27-27-12.1-27-27-27zm-411 27c0-14.9 12.1-27 27-27s27 12.1 27 27-12.1 27-27 27-27-12.1-27-27zm-357 69c-14.9 0-27 12.1-27 27s12.1 27 27 27 27-12.1 27-27-12.1-27-27-27zm-27-69c0-14.9 12.1-27 27-27s27 12.1 27 27-12.1 27-27 27-27-12.1-27-27zm699 69c-14.9 0-27 12.1-27 27s12.1 27 27 27 27-12.1 27-27-12.1-27-27-27zm-27-69c0-14.9 12.1-27 27-27s27 12.1 27 27-12.1 27-27 27-27-12.1-27-27zm-357 69c-14.9 0-27 12.1-27 27s12.1 27 27 27 27-12.1 27-27-12.1-27-27-27zm-27-69c0-14.9 12.1-27 27-27s27 12.1 27 27-12.1 27-27 27-27-12.1-27-27zm-357 69c-14.9 0-27 12.1-27 27s12.1 27 27 27 27-12.1 27-27-12.1-27-27-27zm-192 0c-14.9 0-27 12.1-27 27s12.1 27 27 27 27-12.1 27-27-12.1-27-27-27zm69-69c0-14.9 12.1-27 27-27s27 12.1 27 27-12.1 27-27 27-27-12.1-27-27zm1179-123c-14.9 0-27 12.1-27 27s12.1 27 27 27 27-12.1 27-27-12.1-27-27-27zm165 27c0-14.9 12.1-27 27-27s27 12.1 27 27-12.1 27-27 27-27-12.1-27-27zm27-123c-14.9 0-27 12.1-27 27s12.1 27 27 27 27-12.1 27-27-12.1-27-27-27zm-603 123c0-14.9 12.1-27 27-27s27 12.1 27 27-12.1 27-27 27-27-12.1-27-27zm27-123c-14.9 0-27 12.1-27 27s12.1 27 27 27 27-12.1 27-27-12.1-27-27-27zM948 75c0-14.9 12.1-27 27-27s27 12.1 27 27-12.1 27-27 27-27-12.1-27-27zm699 69c-14.9 0-27 12.1-27 27s12.1 27 27 27 27-12.1 27-27-12.1-27-27-27zm-411 27c0-14.9 12.1-27 27-27s27 12.1 27 27-12.1 27-27 27-27-12.1-27-27zm27-123c-14.9 0-27 12.1-27 27s12.1 27 27 27 27-12.1 27-27-12.1-27-27-27zM852 75c0-14.9 12.1-27 27-27s27 12.1 27 27-12.1 27-27 27-27-12.1-27-27zm699 69c-14.9 0-27 12.1-27 27s12.1 27 27 27 27-12.1 27-27-12.1-27-27-27zm-27-69c0-14.9 12.1-27 27-27s27 12.1 27 27-12.1 27-27 27-27-12.1-27-27zm-357 69c-14.9 0-27 12.1-27 27s12.1 27 27 27 27-12.1 27-27-12.1-27-27-27zm-27-69c0-14.9 12.1-27 27-27s27 12.1 27 27-12.1 27-27 27-27-12.1-27-27zM783 48c-14.9 0-27 12.1-27 27s12.1 27 27 27 27-12.1 27-27-12.1-27-27-27zm645 123c0-14.9 12.1-27 27-27s27 12.1 27 27-12.1 27-27 27-27-12.1-27-27zm-357-27c-14.9 0-27 12.1-27 27s12.1 27 27 27 27-12.1 27-27-12.1-27-27-27zm-27-69c0-14.9 12.1-27 27-27s27 12.1 27 27-12.1 27-27 27-27-12.1-27-27zm-453 69c-14.9 0-27 12.1-27 27s12.1 27 27 27 27-12.1 27-27-12.1-27-27-27zm69-69c0-14.9 12.1-27 27-27s27 12.1 27 27-12.1 27-27 27-27-12.1-27-27zm-69-27c-14.9 0-27 12.1-27 27s12.1 27 27 27 27-12.1 27-27-12.1-27-27-27zM468 75c0-14.9 12.1-27 27-27s27 12.1 27 27-12.1 27-27 27-27-12.1-27-27zm1275-315c-14.9 0-27 12.1-27 27s12.1 27 27 27 27-12.1 27-27-12.1-27-27-27zm69 27c0-14.9 12.1-27 27-27s27 12.1 27 27-12.1 27-27 27-27-12.1-27-27zm123-27c-14.9 0-27 12.1-27 27s12.1 27 27 27 27-12.1 27-27-12.1-27-27-27zm-603 27c0-14.9 12.1-27 27-27s27 12.1 27 27-12.1 27-27 27-27-12.1-27-27zm315-27c-14.9 0-27 12.1-27 27s12.1 27 27 27 27-12.1 27-27-12.1-27-27-27zm-411 27c0-14.9 12.1-27 27-27s27 12.1 27 27-12.1 27-27 27-27-12.1-27-27zm315-27c-14.9 0-27 12.1-27 27s12.1 27 27 27 27-12.1 27-27-12.1-27-27-27zm-411 27c0-14.9 12.1-27 27-27s27 12.1 27 27-12.1 27-27 27-27-12.1-27-27zm315-27c-14.9 0-27 12.1-27 27s12.1 27 27 27 27-12.1 27-27-12.1-27-27-27zm-411 27c0-14.9 12.1-27 27-27s27 12.1 27 27-12.1 27-27 27-27-12.1-27-27zm795 165c-14.9 0-27 12.1-27 27s12.1 27 27 27 27-12.1 27-27-12.1-27-27-27zm-27 123c0-14.9 12.1-27 27-27s27 12.1 27 27-12.1 27-27 27-27-12.1-27-27zm123-123c-14.9 0-27 12.1-27 27s12.1 27 27 27 27-12.1 27-27-12.1-27-27-27zm-27-69c0-14.9 12.1-27 27-27s27 12.1 27 27-12.1 27-27 27-27-12.1-27-27zm-549-27c-14.9 0-27 12.1-27 27s12.1 27 27 27 27-12.1 27-27-12.1-27-27-27zM948-21c0-14.9 12.1-27 27-27s27 12.1 27 27-12.1 27-27 27-27-12.1-27-27zm27-123c-14.9 0-27 12.1-27 27s12.1 27 27 27 27-12.1 27-27-12.1-27-27-27zm261 27c0-14.9 12.1-27 27-27s27 12.1 27 27-12.1 27-27 27-27-12.1-27-27zM879-48c-14.9 0-27 12.1-27 27s12.1 27 27 27 27-12.1 27-27-12.1-27-27-27zm-27-69c0-14.9 12.1-27 27-27s27 12.1 27 27-12.1 27-27 27-27-12.1-27-27zm699-27c-14.9 0-27 12.1-27 27s12.1 27 27 27 27-12.1 27-27-12.1-27-27-27zm-411 27c0-14.9 12.1-27 27-27s27 12.1 27 27-12.1 27-27 27-27-12.1-27-27zM783-48c-14.9 0-27 12.1-27 27s12.1 27 27 27 27-12.1 27-27-12.1-27-27-27zm-27-69c0-14.9 12.1-27 27-27s27 12.1 27 27-12.1 27-27 27-27-12.1-27-27zm699-27c-14.9 0-27 12.1-27 27s12.1 27 27 27 27-12.1 27-27-12.1-27-27-27zm-411 27c0-14.9 12.1-27 27-27s27 12.1 27 27-12.1 27-27 27-27-12.1-27-27zM687-48c-14.9 0-27 12.1-27 27s12.1 27 27 27 27-12.1 27-27-12.1-27-27-27zM564-21c0-14.9 12.1-27 27-27s27 12.1 27 27-12.1 27-27 27-27-12.1-27-27zm-69-27c-14.9 0-27 12.1-27 27s12.1 27 27 27 27-12.1 27-27-12.1-27-27-27zm165-69c0-14.9 12.1-27 27-27s27 12.1 27 27-12.1 27-27 27-27-12.1-27-27zm-165-27c-14.9 0-27 12.1-27 27s12.1 27 27 27 27-12.1 27-27-12.1-27-27-27z" style="fill:url(#SVGID_2_)"/></g><g class="st0"><linearGradient id="SVGID_3_" gradientUnits="userSpaceOnUse" x1="1581.012" y1="1081.347" x2="933.882" y2="2417.383" gradientTransform="matrix(1 0 0 -1 0 792)"><stop offset=".069" style="stop-color:#15e682"/><stop offset="1" style="stop-color:#fff"/></linearGradient><path d="M495-1306c14.9 0 27-12.1 27-27s-12.1-27-27-27-27 12.1-27 27 12.1 27 27 27zm123-27c0 14.9-12.1 27-27 27s-27-12.1-27-27 12.1-27 27-27 27 12.1 27 27zm96 0c0 14.9-12.1 27-27 27s-27-12.1-27-27 12.1-27 27-27 27 12.1 27 27zm0 96c0 14.9-12.1 27-27 27s-27-12.1-27-27 12.1-27 27-27 27 12.1 27 27zm-123 27c14.9 0 27-12.1 27-27s-12.1-27-27-27-27 12.1-27 27 12.1 27 27 27zm-69-27c0 14.9-12.1 27-27 27s-27-12.1-27-27 12.1-27 27-27 27 12.1 27 27zm549 27c14.9 0 27-12.1 27-27s-12.1-27-27-27-27 12.1-27 27 12.1 27 27 27zm411-123c0 14.9-12.1 27-27 27s-27-12.1-27-27 12.1-27 27-27 27 12.1 27 27zm-27 123c14.9 0 27-12.1 27-27s-12.1-27-27-27-27 12.1-27 27 12.1 27 27 27zm-645-123c0 14.9-12.1 27-27 27s-27-12.1-27-27 12.1-27 27-27 27 12.1 27 27zm-27 123c14.9 0 27-12.1 27-27s-12.1-27-27-27-27 12.1-27 27 12.1 27 27 27zm411-27c0 14.9-12.1 27-27 27s-27-12.1-27-27 12.1-27 27-27 27 12.1 27 27zm357-69c14.9 0 27-12.1 27-27s-12.1-27-27-27-27 12.1-27 27 12.1 27 27 27zm27 69c0 14.9-12.1 27-27 27s-27-12.1-27-27 12.1-27 27-27 27 12.1 27 27zm-699 27c14.9 0 27-12.1 27-27s-12.1-27-27-27-27 12.1-27 27 12.1 27 27 27zm411-27c0 14.9-12.1 27-27 27s-27-12.1-27-27 12.1-27 27-27 27 12.1 27 27zm357-69c14.9 0 27-12.1 27-27s-12.1-27-27-27-27 12.1-27 27 12.1 27 27 27zm27 69c0 14.9-12.1 27-27 27s-27-12.1-27-27 12.1-27 27-27 27 12.1 27 27zm-699-69c14.9 0 27-12.1 27-27s-12.1-27-27-27-27 12.1-27 27 12.1 27 27 27zm27 69c0 14.9-12.1 27-27 27s-27-12.1-27-27 12.1-27 27-27 27 12.1 27 27zm357-69c14.9 0 27-12.1 27-27s-12.1-27-27-27-27 12.1-27 27 12.1 27 27 27zm27 69c0 14.9-12.1 27-27 27s-27-12.1-27-27 12.1-27 27-27 27 12.1 27 27zm357-69c14.9 0 27-12.1 27-27s-12.1-27-27-27-27 12.1-27 27 12.1 27 27 27zm123-27c0 14.9-12.1 27-27 27s-27-12.1-27-27 12.1-27 27-27 27 12.1 27 27zm69 27c14.9 0 27-12.1 27-27s-12.1-27-27-27-27 12.1-27 27 12.1 27 27 27zm-69 69c0 14.9-12.1 27-27 27s-27-12.1-27-27 12.1-27 27-27 27 12.1 27 27zM687-1114c14.9 0 27-12.1 27-27s-12.1-27-27-27-27 12.1-27 27 12.1 27 27 27zm-165-27c0 14.9-12.1 27-27 27s-27-12.1-27-27 12.1-27 27-27 27 12.1 27 27zm-27 123c14.9 0 27-12.1 27-27s-12.1-27-27-27-27 12.1-27 27 12.1 27 27 27zm603-123c0 14.9-12.1 27-27 27s-27-12.1-27-27 12.1-27 27-27 27 12.1 27 27zm-27 123c14.9 0 27-12.1 27-27s-12.1-27-27-27-27 12.1-27 27 12.1 27 27 27zm411-27c0 14.9-12.1 27-27 27s-27-12.1-27-27 12.1-27 27-27 27 12.1 27 27zm-699-69c14.9 0 27-12.1 27-27s-12.1-27-27-27-27 12.1-27 27 12.1 27 27 27zm411-27c0 14.9-12.1 27-27 27s-27-12.1-27-27 12.1-27 27-27 27 12.1 27 27zm-27 123c14.9 0 27-12.1 27-27s-12.1-27-27-27-27 12.1-27 27 12.1 27 27 27zm411-27c0 14.9-12.1 27-27 27s-27-12.1-27-27 12.1-27 27-27 27 12.1 27 27zm-699-69c14.9 0 27-12.1 27-27s-12.1-27-27-27-27 12.1-27 27 12.1 27 27 27zm27 69c0 14.9-12.1 27-27 27s-27-12.1-27-27 12.1-27 27-27 27 12.1 27 27zm357-69c14.9 0 27-12.1 27-27s-12.1-27-27-27-27 12.1-27 27 12.1 27 27 27zm27 69c0 14.9-12.1 27-27 27s-27-12.1-27-27 12.1-27 27-27 27 12.1 27 27zm357 27c14.9 0 27-12.1 27-27s-12.1-27-27-27-27 12.1-27 27 12.1 27 27 27zm-645-123c0 14.9-12.1 27-27 27s-27-12.1-27-27 12.1-27 27-27 27 12.1 27 27zm357 27c14.9 0 27-12.1 27-27s-12.1-27-27-27-27 12.1-27 27 12.1 27 27 27zm27 69c0 14.9-12.1 27-27 27s-27-12.1-27-27 12.1-27 27-27 27 12.1 27 27zm453-69c14.9 0 27-12.1 27-27s-12.1-27-27-27-27 12.1-27 27 12.1 27 27 27zm-69 69c0 14.9-12.1 27-27 27s-27-12.1-27-27 12.1-27 27-27 27 12.1 27 27zm69 27c14.9 0 27-12.1 27-27s-12.1-27-27-27-27 12.1-27 27 12.1 27 27 27zm123-27c0 14.9-12.1 27-27 27s-27-12.1-27-27 12.1-27 27-27 27 12.1 27 27zM687-730c14.9 0 27-12.1 27-27s-12.1-27-27-27-27 12.1-27 27 12.1 27 27 27zm-69-27c0 14.9-12.1 27-27 27s-27-12.1-27-27 12.1-27 27-27 27 12.1 27 27zm-123 27c14.9 0 27-12.1 27-27s-12.1-27-27-27-27 12.1-27 27 12.1 27 27 27zm603-27c0 14.9-12.1 27-27 27s-27-12.1-27-27 12.1-27 27-27 27 12.1 27 27zm-315 27c14.9 0 27-12.1 27-27s-12.1-27-27-27-27 12.1-27 27 12.1 27 27 27zm411-27c0 14.9-12.1 27-27 27s-27-12.1-27-27 12.1-27 27-27 27 12.1 27 27zm-315 27c14.9 0 27-12.1 27-27s-12.1-27-27-27-27 12.1-27 27 12.1 27 27 27zm411-27c0 14.9-12.1 27-27 27s-27-12.1-27-27 12.1-27 27-27 27 12.1 27 27zm-315 27c14.9 0 27-12.1 27-27s-12.1-27-27-27-27 12.1-27 27 12.1 27 27 27zm411-27c0 14.9-12.1 27-27 27s-27-12.1-27-27 12.1-27 27-27 27 12.1 27 27zM591-922c14.9 0 27-12.1 27-27s-12.1-27-27-27-27 12.1-27 27 12.1 27 27 27zm27-123c0 14.9-12.1 27-27 27s-27-12.1-27-27 12.1-27 27-27 27 12.1 27 27zM495-922c14.9 0 27-12.1 27-27s-12.1-27-27-27-27 12.1-27 27 12.1 27 27 27zm27 69c0 14.9-12.1 27-27 27s-27-12.1-27-27 12.1-27 27-27 27 12.1 27 27zm549 27c14.9 0 27-12.1 27-27s-12.1-27-27-27-27 12.1-27 27 12.1 27 27 27zm411-123c0 14.9-12.1 27-27 27s-27-12.1-27-27 12.1-27 27-27 27 12.1 27 27zm-27 123c14.9 0 27-12.1 27-27s-12.1-27-27-27-27 12.1-27 27 12.1 27 27 27zm-261-27c0 14.9-12.1 27-27 27s-27-12.1-27-27 12.1-27 27-27 27 12.1 27 27zm357-69c14.9 0 27-12.1 27-27s-12.1-27-27-27-27 12.1-27 27 12.1 27 27 27zm27 69c0 14.9-12.1 27-27 27s-27-12.1-27-27 12.1-27 27-27 27 12.1 27 27zm-699 27c14.9 0 27-12.1 27-27s-12.1-27-27-27-27 12.1-27 27 12.1 27 27 27zm411-27c0 14.9-12.1 27-27 27s-27-12.1-27-27 12.1-27 27-27 27 12.1 27 27zm357-69c14.9 0 27-12.1 27-27s-12.1-27-27-27-27 12.1-27 27 12.1 27 27 27zm27 69c0 14.9-12.1 27-27 27s-27-12.1-27-27 12.1-27 27-27 27 12.1 27 27zm-699 27c14.9 0 27-12.1 27-27s-12.1-27-27-27-27 12.1-27 27 12.1 27 27 27zm411-27c0 14.9-12.1 27-27 27s-27-12.1-27-27 12.1-27 27-27 27 12.1 27 27zm357-69c14.9 0 27-12.1 27-27s-12.1-27-27-27-27 12.1-27 27 12.1 27 27 27zm123-27c0 14.9-12.1 27-27 27s-27-12.1-27-27 12.1-27 27-27 27 12.1 27 27zm69 27c14.9 0 27-12.1 27-27s-12.1-27-27-27-27 12.1-27 27 12.1 27 27 27zm-165 69c0 14.9-12.1 27-27 27s-27-12.1-27-27 12.1-27 27-27 27 12.1 27 27zm165 27c14.9 0 27-12.1 27-27s-12.1-27-27-27-27 12.1-27 27 12.1 27 27 27z" style="fill:url(#SVGID_3_)"/></g><g class="st0"><linearGradient id="SVGID_4_" gradientUnits="userSpaceOnUse" x1="902.987" y1="821.653" x2="1550.12" y2="-514.387" gradientTransform="matrix(1 0 0 -1 0 792)"><stop offset=".069" style="stop-color:#15e682"/><stop offset="1" style="stop-color:#fff"/></linearGradient><path d="M618 1014c0-14.9 12.1-27 27-27s27 12.1 27 27-12.1 27-27 27-27-12.1-27-27zm1371-27c-14.9 0-27 12.1-27 27s12.1 27 27 27 27-12.1 27-27-12.1-27-27-27zm-123 27c0-14.9 12.1-27 27-27s27 12.1 27 27-12.1 27-27 27-27-12.1-27-27zm-96 0c0-14.9 12.1-27 27-27s27 12.1 27 27-12.1 27-27 27-27-12.1-27-27zm0-96c0-14.9 12.1-27 27-27s27 12.1 27 27-12.1 27-27 27-27-12.1-27-27zm123-27c-14.9 0-27 12.1-27 27s12.1 27 27 27 27-12.1 27-27-12.1-27-27-27zm69 27c0-14.9 12.1-27 27-27s27 12.1 27 27-12.1 27-27 27-27-12.1-27-27zm-549-27c-14.9 0-27 12.1-27 27s12.1 27 27 27 27-12.1 27-27-12.1-27-27-27zm-411 123c0-14.9 12.1-27 27-27s27 12.1 27 27-12.1 27-27 27-27-12.1-27-27zm27-123c-14.9 0-27 12.1-27 27s12.1 27 27 27 27-12.1 27-27-12.1-27-27-27zm645 123c0-14.9 12.1-27 27-27s27 12.1 27 27-12.1 27-27 27-27-12.1-27-27zm27-123c-14.9 0-27 12.1-27 27s12.1 27 27 27 27-12.1 27-27-12.1-27-27-27zm-411 27c0-14.9 12.1-27 27-27s27 12.1 27 27-12.1 27-27 27-27-12.1-27-27zm-357 69c-14.9 0-27 12.1-27 27s12.1 27 27 27 27-12.1 27-27-12.1-27-27-27zm-27-69c0-14.9 12.1-27 27-27s27 12.1 27 27-12.1 27-27 27-27-12.1-27-27zm699-27c-14.9 0-27 12.1-27 27s12.1 27 27 27 27-12.1 27-27-12.1-27-27-27zm-411 27c0-14.9 12.1-27 27-27s27 12.1 27 27-12.1 27-27 27-27-12.1-27-27zm-357 69c-14.9 0-27 12.1-27 27s12.1 27 27 27 27-12.1 27-27-12.1-27-27-27zm-27-69c0-14.9 12.1-27 27-27s27 12.1 27 27-12.1 27-27 27-27-12.1-27-27zm699 69c-14.9 0-27 12.1-27 27s12.1 27 27 27 27-12.1 27-27-12.1-27-27-27zm-27-69c0-14.9 12.1-27 27-27s27 12.1 27 27-12.1 27-27 27-27-12.1-27-27zm-357 69c-14.9 0-27 12.1-27 27s12.1 27 27 27 27-12.1 27-27-12.1-27-27-27zm-27-69c0-14.9 12.1-27 27-27s27 12.1 27 27-12.1 27-27 27-27-12.1-27-27zm-357 69c-14.9 0-27 12.1-27 27s12.1 27 27 27 27-12.1 27-27-12.1-27-27-27zm-192 0c-14.9 0-27 12.1-27 27s12.1 27 27 27 27-12.1 27-27-12.1-27-27-27zm69-69c0-14.9 12.1-27 27-27s27 12.1 27 27-12.1 27-27 27-27-12.1-27-27zm1179-123c-14.9 0-27 12.1-27 27s12.1 27 27 27 27-12.1 27-27-12.1-27-27-27zm165 27c0-14.9 12.1-27 27-27s27 12.1 27 27-12.1 27-27 27-27-12.1-27-27zm27-123c-14.9 0-27 12.1-27 27s12.1 27 27 27 27-12.1 27-27-12.1-27-27-27zm-603 123c0-14.9 12.1-27 27-27s27 12.1 27 27-12.1 27-27 27-27-12.1-27-27zm27-123c-14.9 0-27 12.1-27 27s12.1 27 27 27 27-12.1 27-27-12.1-27-27-27zm-411 27c0-14.9 12.1-27 27-27s27 12.1 27 27-12.1 27-27 27-27-12.1-27-27zm699 69c-14.9 0-27 12.1-27 27s12.1 27 27 27 27-12.1 27-27-12.1-27-27-27zm-411 27c0-14.9 12.1-27 27-27s27 12.1 27 27-12.1 27-27 27-27-12.1-27-27zm27-123c-14.9 0-27 12.1-27 27s12.1 27 27 27 27-12.1 27-27-12.1-27-27-27zm-411 27c0-14.9 12.1-27 27-27s27 12.1 27 27-12.1 27-27 27-27-12.1-27-27zm699 69c-14.9 0-27 12.1-27 27s12.1 27 27 27 27-12.1 27-27-12.1-27-27-27zm-27-69c0-14.9 12.1-27 27-27s27 12.1 27 27-12.1 27-27 27-27-12.1-27-27zm-357 69c-14.9 0-27 12.1-27 27s12.1 27 27 27 27-12.1 27-27-12.1-27-27-27zm-27-69c0-14.9 12.1-27 27-27s27 12.1 27 27-12.1 27-27 27-27-12.1-27-27zm-357-27c-14.9 0-27 12.1-27 27s12.1 27 27 27 27-12.1 27-27-12.1-27-27-27zm645 123c0-14.9 12.1-27 27-27s27 12.1 27 27-12.1 27-27 27-27-12.1-27-27zm-357-27c-14.9 0-27 12.1-27 27s12.1 27 27 27 27-12.1 27-27-12.1-27-27-27zm-27-69c0-14.9 12.1-27 27-27s27 12.1 27 27-12.1 27-27 27-27-12.1-27-27zm-453 69c-14.9 0-27 12.1-27 27s12.1 27 27 27 27-12.1 27-27-12.1-27-27-27zm69-69c0-14.9 12.1-27 27-27s27 12.1 27 27-12.1 27-27 27-27-12.1-27-27zm-69-27c-14.9 0-27 12.1-27 27s12.1 27 27 27 27-12.1 27-27-12.1-27-27-27zm-123 27c0-14.9 12.1-27 27-27s27 12.1 27 27-12.1 27-27 27-27-12.1-27-27zm1275-315c-14.9 0-27 12.1-27 27s12.1 27 27 27 27-12.1 27-27-12.1-27-27-27zm69 27c0-14.9 12.1-27 27-27s27 12.1 27 27-12.1 27-27 27-27-12.1-27-27zm123-27c-14.9 0-27 12.1-27 27s12.1 27 27 27 27-12.1 27-27-12.1-27-27-27zm-603 27c0-14.9 12.1-27 27-27s27 12.1 27 27-12.1 27-27 27-27-12.1-27-27zm315-27c-14.9 0-27 12.1-27 27s12.1 27 27 27 27-12.1 27-27-12.1-27-27-27zm-411 27c0-14.9 12.1-27 27-27s27 12.1 27 27-12.1 27-27 27-27-12.1-27-27zm315-27c-14.9 0-27 12.1-27 27s12.1 27 27 27 27-12.1 27-27-12.1-27-27-27zm-411 27c0-14.9 12.1-27 27-27s27 12.1 27 27-12.1 27-27 27-27-12.1-27-27zm315-27c-14.9 0-27 12.1-27 27s12.1 27 27 27 27-12.1 27-27-12.1-27-27-27zm-411 27c0-14.9 12.1-27 27-27s27 12.1 27 27-12.1 27-27 27-27-12.1-27-27zm795 165c-14.9 0-27 12.1-27 27s12.1 27 27 27 27-12.1 27-27-12.1-27-27-27zm-27 123c0-14.9 12.1-27 27-27s27 12.1 27 27-12.1 27-27 27-27-12.1-27-27zm123-123c-14.9 0-27 12.1-27 27s12.1 27 27 27 27-12.1 27-27-12.1-27-27-27zm-27-69c0-14.9 12.1-27 27-27s27 12.1 27 27-12.1 27-27 27-27-12.1-27-27zm-549-27c-14.9 0-27 12.1-27 27s12.1 27 27 27 27-12.1 27-27-12.1-27-27-27zm-411 123c0-14.9 12.1-27 27-27s27 12.1 27 27-12.1 27-27 27-27-12.1-27-27zm27-123c-14.9 0-27 12.1-27 27s12.1 27 27 27 27-12.1 27-27-12.1-27-27-27zm261 27c0-14.9 12.1-27 27-27s27 12.1 27 27-12.1 27-27 27-27-12.1-27-27zm-357 69c-14.9 0-27 12.1-27 27s12.1 27 27 27 27-12.1 27-27-12.1-27-27-27zm-27-69c0-14.9 12.1-27 27-27s27 12.1 27 27-12.1 27-27 27-27-12.1-27-27zm699-27c-14.9 0-27 12.1-27 27s12.1 27 27 27 27-12.1 27-27-12.1-27-27-27zm-411 27c0-14.9 12.1-27 27-27s27 12.1 27 27-12.1 27-27 27-27-12.1-27-27zm-357 69c-14.9 0-27 12.1-27 27s12.1 27 27 27 27-12.1 27-27-12.1-27-27-27zm-27-69c0-14.9 12.1-27 27-27s27 12.1 27 27-12.1 27-27 27-27-12.1-27-27zm699-27c-14.9 0-27 12.1-27 27s12.1 27 27 27 27-12.1 27-27-12.1-27-27-27zm-411 27c0-14.9 12.1-27 27-27s27 12.1 27 27-12.1 27-27 27-27-12.1-27-27zm-357 69c-14.9 0-27 12.1-27 27s12.1 27 27 27 27-12.1 27-27-12.1-27-27-27zm-123 27c0-14.9 12.1-27 27-27s27 12.1 27 27-12.1 27-27 27-27-12.1-27-27zm-69-27c-14.9 0-27 12.1-27 27s12.1 27 27 27 27-12.1 27-27-12.1-27-27-27zm165-69c0-14.9 12.1-27 27-27s27 12.1 27 27-12.1 27-27 27-27-12.1-27-27zm-165-27c-14.9 0-27 12.1-27 27s12.1 27 27 27 27-12.1 27-27-12.1-27-27-27z" style="fill:url(#SVGID_4_)"/></g></svg>