<svg version="1.1" id="Layer_1" xmlns="http://www.w3.org/2000/svg" x="0" y="0" width="1494" height="3457" viewBox="441 -1332 1494 3457" style="enable-background:new 441 -1332 1494 3457" xml:space="preserve"><style>.st0{opacity:6.000000e-002}</style><g class="st0"><linearGradient id="SVGID_1_" gradientUnits="userSpaceOnUse" x1="821.987" y1="2566.653" x2="1469.12" y2="1230.613" gradientTransform="matrix(1 0 0 -1 0 794)"><stop offset=".069" style="stop-color:#15e682"/><stop offset="1" style="stop-color:#fff"/></linearGradient><path d="M537-729c0-14.9 12.1-27 27-27s27 12.1 27 27-12.1 27-27 27-27-12.1-27-27zm1371-27c-14.9 0-27 12.1-27 27s12.1 27 27 27 27-12.1 27-27-12.1-27-27-27zm-123 27c0-14.9 12.1-27 27-27s27 12.1 27 27-12.1 27-27 27-27-12.1-27-27zm-96 0c0-14.9 12.1-27 27-27s27 12.1 27 27-12.1 27-27 27-27-12.1-27-27zm0-96c0-14.9 12.1-27 27-27s27 12.1 27 27-12.1 27-27 27-27-12.1-27-27zm123-27c-14.9 0-27 12.1-27 27s12.1 27 27 27 27-12.1 27-27-12.1-27-27-27zm69 27c0-14.9 12.1-27 27-27s27 12.1 27 27-12.1 27-27 27-27-12.1-27-27zm-549-27c-14.9 0-27 12.1-27 27s12.1 27 27 27 27-12.1 27-27-12.1-27-27-27zM921-729c0-14.9 12.1-27 27-27s27 12.1 27 27-12.1 27-27 27-27-12.1-27-27zm27-123c-14.9 0-27 12.1-27 27s12.1 27 27 27 27-12.1 27-27-12.1-27-27-27zm645 123c0-14.9 12.1-27 27-27s27 12.1 27 27-12.1 27-27 27-27-12.1-27-27zm27-123c-14.9 0-27 12.1-27 27s12.1 27 27 27 27-12.1 27-27-12.1-27-27-27zm-411 27c0-14.9 12.1-27 27-27s27 12.1 27 27-12.1 27-27 27-27-12.1-27-27zm-357 69c-14.9 0-27 12.1-27 27s12.1 27 27 27 27-12.1 27-27-12.1-27-27-27zm-27-69c0-14.9 12.1-27 27-27s27 12.1 27 27-12.1 27-27 27-27-12.1-27-27zm699-27c-14.9 0-27 12.1-27 27s12.1 27 27 27 27-12.1 27-27-12.1-27-27-27zm-411 27c0-14.9 12.1-27 27-27s27 12.1 27 27-12.1 27-27 27-27-12.1-27-27zm-357 69c-14.9 0-27 12.1-27 27s12.1 27 27 27 27-12.1 27-27-12.1-27-27-27zm-27-69c0-14.9 12.1-27 27-27s27 12.1 27 27-12.1 27-27 27-27-12.1-27-27zm699 69c-14.9 0-27 12.1-27 27s12.1 27 27 27 27-12.1 27-27-12.1-27-27-27zm-27-69c0-14.9 12.1-27 27-27s27 12.1 27 27-12.1 27-27 27-27-12.1-27-27zm-357 69c-14.9 0-27 12.1-27 27s12.1 27 27 27 27-12.1 27-27-12.1-27-27-27zm-27-69c0-14.9 12.1-27 27-27s27 12.1 27 27-12.1 27-27 27-27-12.1-27-27zm-357 69c-14.9 0-27 12.1-27 27s12.1 27 27 27 27-12.1 27-27-12.1-27-27-27zm-192 0c-14.9 0-27 12.1-27 27s12.1 27 27 27 27-12.1 27-27-12.1-27-27-27zm69-69c0-14.9 12.1-27 27-27s27 12.1 27 27-12.1 27-27 27-27-12.1-27-27zm1179-123c-14.9 0-27 12.1-27 27s12.1 27 27 27 27-12.1 27-27-12.1-27-27-27zm165 27c0-14.9 12.1-27 27-27s27 12.1 27 27-12.1 27-27 27-27-12.1-27-27zm27-123c-14.9 0-27 12.1-27 27s12.1 27 27 27 27-12.1 27-27-12.1-27-27-27zm-603 123c0-14.9 12.1-27 27-27s27 12.1 27 27-12.1 27-27 27-27-12.1-27-27zm27-123c-14.9 0-27 12.1-27 27s12.1 27 27 27 27-12.1 27-27-12.1-27-27-27zm-411 27c0-14.9 12.1-27 27-27s27 12.1 27 27-12.1 27-27 27-27-12.1-27-27zm699 69c-14.9 0-27 12.1-27 27s12.1 27 27 27 27-12.1 27-27-12.1-27-27-27zm-411 27c0-14.9 12.1-27 27-27s27 12.1 27 27-12.1 27-27 27-27-12.1-27-27zm27-123c-14.9 0-27 12.1-27 27s12.1 27 27 27 27-12.1 27-27-12.1-27-27-27zm-411 27c0-14.9 12.1-27 27-27s27 12.1 27 27-12.1 27-27 27-27-12.1-27-27zm699 69c-14.9 0-27 12.1-27 27s12.1 27 27 27 27-12.1 27-27-12.1-27-27-27zm-27-69c0-14.9 12.1-27 27-27s27 12.1 27 27-12.1 27-27 27-27-12.1-27-27zm-357 69c-14.9 0-27 12.1-27 27s12.1 27 27 27 27-12.1 27-27-12.1-27-27-27zm-27-69c0-14.9 12.1-27 27-27s27 12.1 27 27-12.1 27-27 27-27-12.1-27-27zm-357-27c-14.9 0-27 12.1-27 27s12.1 27 27 27 27-12.1 27-27-12.1-27-27-27zm645 123c0-14.9 12.1-27 27-27s27 12.1 27 27-12.1 27-27 27-27-12.1-27-27zm-357-27c-14.9 0-27 12.1-27 27s12.1 27 27 27 27-12.1 27-27-12.1-27-27-27zm-27-69c0-14.9 12.1-27 27-27s27 12.1 27 27-12.1 27-27 27-27-12.1-27-27zm-453 69c-14.9 0-27 12.1-27 27s12.1 27 27 27 27-12.1 27-27-12.1-27-27-27zm69-69c0-14.9 12.1-27 27-27s27 12.1 27 27-12.1 27-27 27-27-12.1-27-27zm-69-27c-14.9 0-27 12.1-27 27s12.1 27 27 27 27-12.1 27-27-12.1-27-27-27zm-123 27c0-14.9 12.1-27 27-27s27 12.1 27 27-12.1 27-27 27-27-12.1-27-27zm1275-315c-14.9 0-27 12.1-27 27s12.1 27 27 27 27-12.1 27-27-12.1-27-27-27zm69 27c0-14.9 12.1-27 27-27s27 12.1 27 27-12.1 27-27 27-27-12.1-27-27zm123-27c-14.9 0-27 12.1-27 27s12.1 27 27 27 27-12.1 27-27-12.1-27-27-27zm-603 27c0-14.9 12.1-27 27-27s27 12.1 27 27-12.1 27-27 27-27-12.1-27-27zm315-27c-14.9 0-27 12.1-27 27s12.1 27 27 27 27-12.1 27-27-12.1-27-27-27zm-411 27c0-14.9 12.1-27 27-27s27 12.1 27 27-12.1 27-27 27-27-12.1-27-27zm315-27c-14.9 0-27 12.1-27 27s12.1 27 27 27 27-12.1 27-27-12.1-27-27-27zm-411 27c0-14.9 12.1-27 27-27s27 12.1 27 27-12.1 27-27 27-27-12.1-27-27zm315-27c-14.9 0-27 12.1-27 27s12.1 27 27 27 27-12.1 27-27-12.1-27-27-27zm-411 27c0-14.9 12.1-27 27-27s27 12.1 27 27-12.1 27-27 27-27-12.1-27-27zm795 165c-14.9 0-27 12.1-27 27s12.1 27 27 27 27-12.1 27-27-12.1-27-27-27zm-27 123c0-14.9 12.1-27 27-27s27 12.1 27 27-12.1 27-27 27-27-12.1-27-27zm123-123c-14.9 0-27 12.1-27 27s12.1 27 27 27 27-12.1 27-27-12.1-27-27-27zm-27-69c0-14.9 12.1-27 27-27s27 12.1 27 27-12.1 27-27 27-27-12.1-27-27zm-549-27c-14.9 0-27 12.1-27 27s12.1 27 27 27 27-12.1 27-27-12.1-27-27-27zm-411 123c0-14.9 12.1-27 27-27s27 12.1 27 27-12.1 27-27 27-27-12.1-27-27zm27-123c-14.9 0-27 12.1-27 27s12.1 27 27 27 27-12.1 27-27-12.1-27-27-27zm261 27c0-14.9 12.1-27 27-27s27 12.1 27 27-12.1 27-27 27-27-12.1-27-27zm-357 69c-14.9 0-27 12.1-27 27s12.1 27 27 27 27-12.1 27-27-12.1-27-27-27zm-27-69c0-14.9 12.1-27 27-27s27 12.1 27 27-12.1 27-27 27-27-12.1-27-27zm699-27c-14.9 0-27 12.1-27 27s12.1 27 27 27 27-12.1 27-27-12.1-27-27-27zm-411 27c0-14.9 12.1-27 27-27s27 12.1 27 27-12.1 27-27 27-27-12.1-27-27zm-357 69c-14.9 0-27 12.1-27 27s12.1 27 27 27 27-12.1 27-27-12.1-27-27-27zm-27-69c0-14.9 12.1-27 27-27s27 12.1 27 27-12.1 27-27 27-27-12.1-27-27zm699-27c-14.9 0-27 12.1-27 27s12.1 27 27 27 27-12.1 27-27-12.1-27-27-27zm-411 27c0-14.9 12.1-27 27-27s27 12.1 27 27-12.1 27-27 27-27-12.1-27-27zm-357 69c-14.9 0-27 12.1-27 27s12.1 27 27 27 27-12.1 27-27-12.1-27-27-27zm-123 27c0-14.9 12.1-27 27-27s27 12.1 27 27-12.1 27-27 27-27-12.1-27-27zm-69-27c-14.9 0-27 12.1-27 27s12.1 27 27 27 27-12.1 27-27-12.1-27-27-27zm165-69c0-14.9 12.1-27 27-27s27 12.1 27 27-12.1 27-27 27-27-12.1-27-27zm-165-27c-14.9 0-27 12.1-27 27s12.1 27 27 27 27-12.1 27-27-12.1-27-27-27z" style="fill:url(#SVGID_1_)"/></g><g class="st0"><linearGradient id="SVGID_2_" gradientUnits="userSpaceOnUse" x1="1554.012" y1="503.347" x2="906.882" y2="1839.384" gradientTransform="matrix(1 0 0 -1 0 794)"><stop offset=".069" style="stop-color:#15e682"/><stop offset="1" style="stop-color:#fff"/></linearGradient><path d="M1839-753c0 14.9-12.1 27-27 27s-27-12.1-27-27 12.1-27 27-27 27 12.1 27 27zM468-726c14.9 0 27-12.1 27-27s-12.1-27-27-27-27 12.1-27 27 12.1 27 27 27zm123-27c0 14.9-12.1 27-27 27s-27-12.1-27-27 12.1-27 27-27 27 12.1 27 27zm96 0c0 14.9-12.1 27-27 27s-27-12.1-27-27 12.1-27 27-27 27 12.1 27 27zm0 96c0 14.9-12.1 27-27 27s-27-12.1-27-27 12.1-27 27-27 27 12.1 27 27zm-123 27c14.9 0 27-12.1 27-27s-12.1-27-27-27-27 12.1-27 27 12.1 27 27 27zm-69-27c0 14.9-12.1 27-27 27s-27-12.1-27-27 12.1-27 27-27 27 12.1 27 27zm549 27c14.9 0 27-12.1 27-27s-12.1-27-27-27-27 12.1-27 27 12.1 27 27 27zm411-123c0 14.9-12.1 27-27 27s-27-12.1-27-27 12.1-27 27-27 27 12.1 27 27zm-27 123c14.9 0 27-12.1 27-27s-12.1-27-27-27-27 12.1-27 27 12.1 27 27 27zM783-753c0 14.9-12.1 27-27 27s-27-12.1-27-27 12.1-27 27-27 27 12.1 27 27zm-27 123c14.9 0 27-12.1 27-27s-12.1-27-27-27-27 12.1-27 27 12.1 27 27 27zm411-27c0 14.9-12.1 27-27 27s-27-12.1-27-27 12.1-27 27-27 27 12.1 27 27zm357-69c14.9 0 27-12.1 27-27s-12.1-27-27-27-27 12.1-27 27 12.1 27 27 27zm27 69c0 14.9-12.1 27-27 27s-27-12.1-27-27 12.1-27 27-27 27 12.1 27 27zm-699 27c14.9 0 27-12.1 27-27s-12.1-27-27-27-27 12.1-27 27 12.1 27 27 27zm411-27c0 14.9-12.1 27-27 27s-27-12.1-27-27 12.1-27 27-27 27 12.1 27 27zm357-69c14.9 0 27-12.1 27-27s-12.1-27-27-27-27 12.1-27 27 12.1 27 27 27zm27 69c0 14.9-12.1 27-27 27s-27-12.1-27-27 12.1-27 27-27 27 12.1 27 27zm-699-69c14.9 0 27-12.1 27-27s-12.1-27-27-27-27 12.1-27 27 12.1 27 27 27zm27 69c0 14.9-12.1 27-27 27s-27-12.1-27-27 12.1-27 27-27 27 12.1 27 27zm357-69c14.9 0 27-12.1 27-27s-12.1-27-27-27-27 12.1-27 27 12.1 27 27 27zm27 69c0 14.9-12.1 27-27 27s-27-12.1-27-27 12.1-27 27-27 27 12.1 27 27zm357-69c14.9 0 27-12.1 27-27s-12.1-27-27-27-27 12.1-27 27 12.1 27 27 27zm192 0c14.9 0 27-12.1 27-27s-12.1-27-27-27-27 12.1-27 27 12.1 27 27 27zm-69 69c0 14.9-12.1 27-27 27s-27-12.1-27-27 12.1-27 27-27 27 12.1 27 27zM660-534c14.9 0 27-12.1 27-27s-12.1-27-27-27-27 12.1-27 27 12.1 27 27 27zm-165-27c0 14.9-12.1 27-27 27s-27-12.1-27-27 12.1-27 27-27 27 12.1 27 27zm-27 123c14.9 0 27-12.1 27-27s-12.1-27-27-27-27 12.1-27 27 12.1 27 27 27zm603-123c0 14.9-12.1 27-27 27s-27-12.1-27-27 12.1-27 27-27 27 12.1 27 27zm-27 123c14.9 0 27-12.1 27-27s-12.1-27-27-27-27 12.1-27 27 12.1 27 27 27zm411-27c0 14.9-12.1 27-27 27s-27-12.1-27-27 12.1-27 27-27 27 12.1 27 27zm-699-69c14.9 0 27-12.1 27-27s-12.1-27-27-27-27 12.1-27 27 12.1 27 27 27zm411-27c0 14.9-12.1 27-27 27s-27-12.1-27-27 12.1-27 27-27 27 12.1 27 27zm-27 123c14.9 0 27-12.1 27-27s-12.1-27-27-27-27 12.1-27 27 12.1 27 27 27zm411-27c0 14.9-12.1 27-27 27s-27-12.1-27-27 12.1-27 27-27 27 12.1 27 27zm-699-69c14.9 0 27-12.1 27-27s-12.1-27-27-27-27 12.1-27 27 12.1 27 27 27zm27 69c0 14.9-12.1 27-27 27s-27-12.1-27-27 12.1-27 27-27 27 12.1 27 27zm357-69c14.9 0 27-12.1 27-27s-12.1-27-27-27-27 12.1-27 27 12.1 27 27 27zm27 69c0 14.9-12.1 27-27 27s-27-12.1-27-27 12.1-27 27-27 27 12.1 27 27zm357 27c14.9 0 27-12.1 27-27s-12.1-27-27-27-27 12.1-27 27 12.1 27 27 27zM975-561c0 14.9-12.1 27-27 27s-27-12.1-27-27 12.1-27 27-27 27 12.1 27 27zm357 27c14.9 0 27-12.1 27-27s-12.1-27-27-27-27 12.1-27 27 12.1 27 27 27zm27 69c0 14.9-12.1 27-27 27s-27-12.1-27-27 12.1-27 27-27 27 12.1 27 27zm453-69c14.9 0 27-12.1 27-27s-12.1-27-27-27-27 12.1-27 27 12.1 27 27 27zm-69 69c0 14.9-12.1 27-27 27s-27-12.1-27-27 12.1-27 27-27 27 12.1 27 27zm69 27c14.9 0 27-12.1 27-27s-12.1-27-27-27-27 12.1-27 27 12.1 27 27 27zm123-27c0 14.9-12.1 27-27 27s-27-12.1-27-27 12.1-27 27-27 27 12.1 27 27zM660-150c14.9 0 27-12.1 27-27s-12.1-27-27-27-27 12.1-27 27 12.1 27 27 27zm-69-27c0 14.9-12.1 27-27 27s-27-12.1-27-27 12.1-27 27-27 27 12.1 27 27zm-123 27c14.9 0 27-12.1 27-27s-12.1-27-27-27-27 12.1-27 27 12.1 27 27 27zm603-27c0 14.9-12.1 27-27 27s-27-12.1-27-27 12.1-27 27-27 27 12.1 27 27zm-315 27c14.9 0 27-12.1 27-27s-12.1-27-27-27-27 12.1-27 27 12.1 27 27 27zm411-27c0 14.9-12.1 27-27 27s-27-12.1-27-27 12.1-27 27-27 27 12.1 27 27zm-315 27c14.9 0 27-12.1 27-27s-12.1-27-27-27-27 12.1-27 27 12.1 27 27 27zm411-27c0 14.9-12.1 27-27 27s-27-12.1-27-27 12.1-27 27-27 27 12.1 27 27zm-315 27c14.9 0 27-12.1 27-27s-12.1-27-27-27-27 12.1-27 27 12.1 27 27 27zm411-27c0 14.9-12.1 27-27 27s-27-12.1-27-27 12.1-27 27-27 27 12.1 27 27zM564-342c14.9 0 27-12.1 27-27s-12.1-27-27-27-27 12.1-27 27 12.1 27 27 27zm27-123c0 14.9-12.1 27-27 27s-27-12.1-27-27 12.1-27 27-27 27 12.1 27 27zM468-342c14.9 0 27-12.1 27-27s-12.1-27-27-27-27 12.1-27 27 12.1 27 27 27zm27 69c0 14.9-12.1 27-27 27s-27-12.1-27-27 12.1-27 27-27 27 12.1 27 27zm549 27c14.9 0 27-12.1 27-27s-12.1-27-27-27-27 12.1-27 27 12.1 27 27 27zm411-123c0 14.9-12.1 27-27 27s-27-12.1-27-27 12.1-27 27-27 27 12.1 27 27zm-27 123c14.9 0 27-12.1 27-27s-12.1-27-27-27-27 12.1-27 27 12.1 27 27 27zm-261-27c0 14.9-12.1 27-27 27s-27-12.1-27-27 12.1-27 27-27 27 12.1 27 27zm357-69c14.9 0 27-12.1 27-27s-12.1-27-27-27-27 12.1-27 27 12.1 27 27 27zm27 69c0 14.9-12.1 27-27 27s-27-12.1-27-27 12.1-27 27-27 27 12.1 27 27zm-699 27c14.9 0 27-12.1 27-27s-12.1-27-27-27-27 12.1-27 27 12.1 27 27 27zm411-27c0 14.9-12.1 27-27 27s-27-12.1-27-27 12.1-27 27-27 27 12.1 27 27zm357-69c14.9 0 27-12.1 27-27s-12.1-27-27-27-27 12.1-27 27 12.1 27 27 27zm27 69c0 14.9-12.1 27-27 27s-27-12.1-27-27 12.1-27 27-27 27 12.1 27 27zm-699 27c14.9 0 27-12.1 27-27s-12.1-27-27-27-27 12.1-27 27 12.1 27 27 27zm411-27c0 14.9-12.1 27-27 27s-27-12.1-27-27 12.1-27 27-27 27 12.1 27 27zm357-69c14.9 0 27-12.1 27-27s-12.1-27-27-27-27 12.1-27 27 12.1 27 27 27zm123-27c0 14.9-12.1 27-27 27s-27-12.1-27-27 12.1-27 27-27 27 12.1 27 27zm69 27c14.9 0 27-12.1 27-27s-12.1-27-27-27-27 12.1-27 27 12.1 27 27 27zm-165 69c0 14.9-12.1 27-27 27s-27-12.1-27-27 12.1-27 27-27 27 12.1 27 27zm165 27c14.9 0 27-12.1 27-27s-12.1-27-27-27-27 12.1-27 27 12.1 27 27 27z" style="fill:url(#SVGID_2_)"/></g><g class="st0"><linearGradient id="SVGID_3_" gradientUnits="userSpaceOnUse" x1="821.987" y1="1258.653" x2="1469.12" y2="-77.387" gradientTransform="matrix(1 0 0 -1 0 794)"><stop offset=".069" style="stop-color:#15e682"/><stop offset="1" style="stop-color:#fff"/></linearGradient><path d="M537 579c0-14.9 12.1-27 27-27s27 12.1 27 27-12.1 27-27 27-27-12.1-27-27zm1371-27c-14.9 0-27 12.1-27 27s12.1 27 27 27 27-12.1 27-27-12.1-27-27-27zm-123 27c0-14.9 12.1-27 27-27s27 12.1 27 27-12.1 27-27 27-27-12.1-27-27zm-96 0c0-14.9 12.1-27 27-27s27 12.1 27 27-12.1 27-27 27-27-12.1-27-27zm0-96c0-14.9 12.1-27 27-27s27 12.1 27 27-12.1 27-27 27-27-12.1-27-27zm123-27c-14.9 0-27 12.1-27 27s12.1 27 27 27 27-12.1 27-27-12.1-27-27-27zm69 27c0-14.9 12.1-27 27-27s27 12.1 27 27-12.1 27-27 27-27-12.1-27-27zm-549-27c-14.9 0-27 12.1-27 27s12.1 27 27 27 27-12.1 27-27-12.1-27-27-27zM921 579c0-14.9 12.1-27 27-27s27 12.1 27 27-12.1 27-27 27-27-12.1-27-27zm27-123c-14.9 0-27 12.1-27 27s12.1 27 27 27 27-12.1 27-27-12.1-27-27-27zm645 123c0-14.9 12.1-27 27-27s27 12.1 27 27-12.1 27-27 27-27-12.1-27-27zm27-123c-14.9 0-27 12.1-27 27s12.1 27 27 27 27-12.1 27-27-12.1-27-27-27zm-411 27c0-14.9 12.1-27 27-27s27 12.1 27 27-12.1 27-27 27-27-12.1-27-27zm-357 69c-14.9 0-27 12.1-27 27s12.1 27 27 27 27-12.1 27-27-12.1-27-27-27zm-27-69c0-14.9 12.1-27 27-27s27 12.1 27 27-12.1 27-27 27-27-12.1-27-27zm699-27c-14.9 0-27 12.1-27 27s12.1 27 27 27 27-12.1 27-27-12.1-27-27-27zm-411 27c0-14.9 12.1-27 27-27s27 12.1 27 27-12.1 27-27 27-27-12.1-27-27zm-357 69c-14.9 0-27 12.1-27 27s12.1 27 27 27 27-12.1 27-27-12.1-27-27-27zm-27-69c0-14.9 12.1-27 27-27s27 12.1 27 27-12.1 27-27 27-27-12.1-27-27zm699 69c-14.9 0-27 12.1-27 27s12.1 27 27 27 27-12.1 27-27-12.1-27-27-27zm-27-69c0-14.9 12.1-27 27-27s27 12.1 27 27-12.1 27-27 27-27-12.1-27-27zm-357 69c-14.9 0-27 12.1-27 27s12.1 27 27 27 27-12.1 27-27-12.1-27-27-27zm-27-69c0-14.9 12.1-27 27-27s27 12.1 27 27-12.1 27-27 27-27-12.1-27-27zm-357 69c-14.9 0-27 12.1-27 27s12.1 27 27 27 27-12.1 27-27-12.1-27-27-27zm-192 0c-14.9 0-27 12.1-27 27s12.1 27 27 27 27-12.1 27-27-12.1-27-27-27zm69-69c0-14.9 12.1-27 27-27s27 12.1 27 27-12.1 27-27 27-27-12.1-27-27zm1179-123c-14.9 0-27 12.1-27 27s12.1 27 27 27 27-12.1 27-27-12.1-27-27-27zm165 27c0-14.9 12.1-27 27-27s27 12.1 27 27-12.1 27-27 27-27-12.1-27-27zm27-123c-14.9 0-27 12.1-27 27s12.1 27 27 27 27-12.1 27-27-12.1-27-27-27zm-603 123c0-14.9 12.1-27 27-27s27 12.1 27 27-12.1 27-27 27-27-12.1-27-27zm27-123c-14.9 0-27 12.1-27 27s12.1 27 27 27 27-12.1 27-27-12.1-27-27-27zm-411 27c0-14.9 12.1-27 27-27s27 12.1 27 27-12.1 27-27 27-27-12.1-27-27zm699 69c-14.9 0-27 12.1-27 27s12.1 27 27 27 27-12.1 27-27-12.1-27-27-27zm-411 27c0-14.9 12.1-27 27-27s27 12.1 27 27-12.1 27-27 27-27-12.1-27-27zm27-123c-14.9 0-27 12.1-27 27s12.1 27 27 27 27-12.1 27-27-12.1-27-27-27zm-411 27c0-14.9 12.1-27 27-27s27 12.1 27 27-12.1 27-27 27-27-12.1-27-27zm699 69c-14.9 0-27 12.1-27 27s12.1 27 27 27 27-12.1 27-27-12.1-27-27-27zm-27-69c0-14.9 12.1-27 27-27s27 12.1 27 27-12.1 27-27 27-27-12.1-27-27zm-357 69c-14.9 0-27 12.1-27 27s12.1 27 27 27 27-12.1 27-27-12.1-27-27-27zm-27-69c0-14.9 12.1-27 27-27s27 12.1 27 27-12.1 27-27 27-27-12.1-27-27zm-357-27c-14.9 0-27 12.1-27 27s12.1 27 27 27 27-12.1 27-27-12.1-27-27-27zm645 123c0-14.9 12.1-27 27-27s27 12.1 27 27-12.1 27-27 27-27-12.1-27-27zm-357-27c-14.9 0-27 12.1-27 27s12.1 27 27 27 27-12.1 27-27-12.1-27-27-27zm-27-69c0-14.9 12.1-27 27-27s27 12.1 27 27-12.1 27-27 27-27-12.1-27-27zm-453 69c-14.9 0-27 12.1-27 27s12.1 27 27 27 27-12.1 27-27-12.1-27-27-27zm69-69c0-14.9 12.1-27 27-27s27 12.1 27 27-12.1 27-27 27-27-12.1-27-27zm-69-27c-14.9 0-27 12.1-27 27s12.1 27 27 27 27-12.1 27-27-12.1-27-27-27zm-123 27c0-14.9 12.1-27 27-27s27 12.1 27 27-12.1 27-27 27-27-12.1-27-27zM1716-24c-14.9 0-27 12.1-27 27s12.1 27 27 27 27-12.1 27-27-12.1-27-27-27zm69 27c0-14.9 12.1-27 27-27s27 12.1 27 27-12.1 27-27 27-27-12.1-27-27zm123-27c-14.9 0-27 12.1-27 27s12.1 27 27 27 27-12.1 27-27-12.1-27-27-27zM1305 3c0-14.9 12.1-27 27-27s27 12.1 27 27-12.1 27-27 27-27-12.1-27-27zm315-27c-14.9 0-27 12.1-27 27s12.1 27 27 27 27-12.1 27-27-12.1-27-27-27zM1209 3c0-14.9 12.1-27 27-27s27 12.1 27 27-12.1 27-27 27-27-12.1-27-27zm315-27c-14.9 0-27 12.1-27 27s12.1 27 27 27 27-12.1 27-27-12.1-27-27-27zM1113 3c0-14.9 12.1-27 27-27s27 12.1 27 27-12.1 27-27 27-27-12.1-27-27zm315-27c-14.9 0-27 12.1-27 27s12.1 27 27 27 27-12.1 27-27-12.1-27-27-27zM1017 3c0-14.9 12.1-27 27-27s27 12.1 27 27-12.1 27-27 27-27-12.1-27-27zm795 165c-14.9 0-27 12.1-27 27s12.1 27 27 27 27-12.1 27-27-12.1-27-27-27zm-27 123c0-14.9 12.1-27 27-27s27 12.1 27 27-12.1 27-27 27-27-12.1-27-27zm123-123c-14.9 0-27 12.1-27 27s12.1 27 27 27 27-12.1 27-27-12.1-27-27-27zm-27-69c0-14.9 12.1-27 27-27s27 12.1 27 27-12.1 27-27 27-27-12.1-27-27zm-549-27c-14.9 0-27 12.1-27 27s12.1 27 27 27 27-12.1 27-27-12.1-27-27-27zM921 195c0-14.9 12.1-27 27-27s27 12.1 27 27-12.1 27-27 27-27-12.1-27-27zm27-123c-14.9 0-27 12.1-27 27s12.1 27 27 27 27-12.1 27-27-12.1-27-27-27zm261 27c0-14.9 12.1-27 27-27s27 12.1 27 27-12.1 27-27 27-27-12.1-27-27zm-357 69c-14.9 0-27 12.1-27 27s12.1 27 27 27 27-12.1 27-27-12.1-27-27-27zm-27-69c0-14.9 12.1-27 27-27s27 12.1 27 27-12.1 27-27 27-27-12.1-27-27zm699-27c-14.9 0-27 12.1-27 27s12.1 27 27 27 27-12.1 27-27-12.1-27-27-27zm-411 27c0-14.9 12.1-27 27-27s27 12.1 27 27-12.1 27-27 27-27-12.1-27-27zm-357 69c-14.9 0-27 12.1-27 27s12.1 27 27 27 27-12.1 27-27-12.1-27-27-27zm-27-69c0-14.9 12.1-27 27-27s27 12.1 27 27-12.1 27-27 27-27-12.1-27-27zm699-27c-14.9 0-27 12.1-27 27s12.1 27 27 27 27-12.1 27-27-12.1-27-27-27zm-411 27c0-14.9 12.1-27 27-27s27 12.1 27 27-12.1 27-27 27-27-12.1-27-27zm-357 69c-14.9 0-27 12.1-27 27s12.1 27 27 27 27-12.1 27-27-12.1-27-27-27zm-123 27c0-14.9 12.1-27 27-27s27 12.1 27 27-12.1 27-27 27-27-12.1-27-27zm-69-27c-14.9 0-27 12.1-27 27s12.1 27 27 27 27-12.1 27-27-12.1-27-27-27zm165-69c0-14.9 12.1-27 27-27s27 12.1 27 27-12.1 27-27 27-27-12.1-27-27zM468 72c-14.9 0-27 12.1-27 27s12.1 27 27 27 27-12.1 27-27-12.1-27-27-27z" style="fill:url(#SVGID_3_)"/></g><g class="st0"><linearGradient id="SVGID_4_" gradientUnits="userSpaceOnUse" x1="821.987" y1="373.653" x2="1469.12" y2="-962.387" gradientTransform="matrix(1 0 0 -1 0 794)"><stop offset=".069" style="stop-color:#15e682"/><stop offset="1" style="stop-color:#fff"/></linearGradient><path d="M537 1464c0-14.9 12.1-27 27-27s27 12.1 27 27-12.1 27-27 27-27-12.1-27-27zm1371-27c-14.9 0-27 12.1-27 27s12.1 27 27 27 27-12.1 27-27-12.1-27-27-27zm-123 27c0-14.9 12.1-27 27-27s27 12.1 27 27-12.1 27-27 27-27-12.1-27-27zm-96 0c0-14.9 12.1-27 27-27s27 12.1 27 27-12.1 27-27 27-27-12.1-27-27zm0-96c0-14.9 12.1-27 27-27s27 12.1 27 27-12.1 27-27 27-27-12.1-27-27zm123-27c-14.9 0-27 12.1-27 27s12.1 27 27 27 27-12.1 27-27-12.1-27-27-27zm69 27c0-14.9 12.1-27 27-27s27 12.1 27 27-12.1 27-27 27-27-12.1-27-27zm-549-27c-14.9 0-27 12.1-27 27s12.1 27 27 27 27-12.1 27-27-12.1-27-27-27zm-411 123c0-14.9 12.1-27 27-27s27 12.1 27 27-12.1 27-27 27-27-12.1-27-27zm27-123c-14.9 0-27 12.1-27 27s12.1 27 27 27 27-12.1 27-27-12.1-27-27-27zm645 123c0-14.9 12.1-27 27-27s27 12.1 27 27-12.1 27-27 27-27-12.1-27-27zm27-123c-14.9 0-27 12.1-27 27s12.1 27 27 27 27-12.1 27-27-12.1-27-27-27zm-411 27c0-14.9 12.1-27 27-27s27 12.1 27 27-12.1 27-27 27-27-12.1-27-27zm-357 69c-14.9 0-27 12.1-27 27s12.1 27 27 27 27-12.1 27-27-12.1-27-27-27zm-27-69c0-14.9 12.1-27 27-27s27 12.1 27 27-12.1 27-27 27-27-12.1-27-27zm699-27c-14.9 0-27 12.1-27 27s12.1 27 27 27 27-12.1 27-27-12.1-27-27-27zm-411 27c0-14.9 12.1-27 27-27s27 12.1 27 27-12.1 27-27 27-27-12.1-27-27zm-357 69c-14.9 0-27 12.1-27 27s12.1 27 27 27 27-12.1 27-27-12.1-27-27-27zm-27-69c0-14.9 12.1-27 27-27s27 12.1 27 27-12.1 27-27 27-27-12.1-27-27zm699 69c-14.9 0-27 12.1-27 27s12.1 27 27 27 27-12.1 27-27-12.1-27-27-27zm-27-69c0-14.9 12.1-27 27-27s27 12.1 27 27-12.1 27-27 27-27-12.1-27-27zm-357 69c-14.9 0-27 12.1-27 27s12.1 27 27 27 27-12.1 27-27-12.1-27-27-27zm-27-69c0-14.9 12.1-27 27-27s27 12.1 27 27-12.1 27-27 27-27-12.1-27-27zm-357 69c-14.9 0-27 12.1-27 27s12.1 27 27 27 27-12.1 27-27-12.1-27-27-27zm-192 0c-14.9 0-27 12.1-27 27s12.1 27 27 27 27-12.1 27-27-12.1-27-27-27zm69-69c0-14.9 12.1-27 27-27s27 12.1 27 27-12.1 27-27 27-27-12.1-27-27zm1179-123c-14.9 0-27 12.1-27 27s12.1 27 27 27 27-12.1 27-27-12.1-27-27-27zm165 27c0-14.9 12.1-27 27-27s27 12.1 27 27-12.1 27-27 27-27-12.1-27-27zm27-123c-14.9 0-27 12.1-27 27s12.1 27 27 27 27-12.1 27-27-12.1-27-27-27zm-603 123c0-14.9 12.1-27 27-27s27 12.1 27 27-12.1 27-27 27-27-12.1-27-27zm27-123c-14.9 0-27 12.1-27 27s12.1 27 27 27 27-12.1 27-27-12.1-27-27-27zm-411 27c0-14.9 12.1-27 27-27s27 12.1 27 27-12.1 27-27 27-27-12.1-27-27zm699 69c-14.9 0-27 12.1-27 27s12.1 27 27 27 27-12.1 27-27-12.1-27-27-27zm-411 27c0-14.9 12.1-27 27-27s27 12.1 27 27-12.1 27-27 27-27-12.1-27-27zm27-123c-14.9 0-27 12.1-27 27s12.1 27 27 27 27-12.1 27-27-12.1-27-27-27zm-411 27c0-14.9 12.1-27 27-27s27 12.1 27 27-12.1 27-27 27-27-12.1-27-27zm699 69c-14.9 0-27 12.1-27 27s12.1 27 27 27 27-12.1 27-27-12.1-27-27-27zm-27-69c0-14.9 12.1-27 27-27s27 12.1 27 27-12.1 27-27 27-27-12.1-27-27zm-357 69c-14.9 0-27 12.1-27 27s12.1 27 27 27 27-12.1 27-27-12.1-27-27-27zm-27-69c0-14.9 12.1-27 27-27s27 12.1 27 27-12.1 27-27 27-27-12.1-27-27zm-357-27c-14.9 0-27 12.1-27 27s12.1 27 27 27 27-12.1 27-27-12.1-27-27-27zm645 123c0-14.9 12.1-27 27-27s27 12.1 27 27-12.1 27-27 27-27-12.1-27-27zm-357-27c-14.9 0-27 12.1-27 27s12.1 27 27 27 27-12.1 27-27-12.1-27-27-27zm-27-69c0-14.9 12.1-27 27-27s27 12.1 27 27-12.1 27-27 27-27-12.1-27-27zm-453 69c-14.9 0-27 12.1-27 27s12.1 27 27 27 27-12.1 27-27-12.1-27-27-27zm69-69c0-14.9 12.1-27 27-27s27 12.1 27 27-12.1 27-27 27-27-12.1-27-27zm-69-27c-14.9 0-27 12.1-27 27s12.1 27 27 27 27-12.1 27-27-12.1-27-27-27zm-123 27c0-14.9 12.1-27 27-27s27 12.1 27 27-12.1 27-27 27-27-12.1-27-27zm1275-315c-14.9 0-27 12.1-27 27s12.1 27 27 27 27-12.1 27-27-12.1-27-27-27zm69 27c0-14.9 12.1-27 27-27s27 12.1 27 27-12.1 27-27 27-27-12.1-27-27zm123-27c-14.9 0-27 12.1-27 27s12.1 27 27 27 27-12.1 27-27-12.1-27-27-27zm-603 27c0-14.9 12.1-27 27-27s27 12.1 27 27-12.1 27-27 27-27-12.1-27-27zm315-27c-14.9 0-27 12.1-27 27s12.1 27 27 27 27-12.1 27-27-12.1-27-27-27zm-411 27c0-14.9 12.1-27 27-27s27 12.1 27 27-12.1 27-27 27-27-12.1-27-27zm315-27c-14.9 0-27 12.1-27 27s12.1 27 27 27 27-12.1 27-27-12.1-27-27-27zm-411 27c0-14.9 12.1-27 27-27s27 12.1 27 27-12.1 27-27 27-27-12.1-27-27zm315-27c-14.9 0-27 12.1-27 27s12.1 27 27 27 27-12.1 27-27-12.1-27-27-27zm-411 27c0-14.9 12.1-27 27-27s27 12.1 27 27-12.1 27-27 27-27-12.1-27-27zm795 165c-14.9 0-27 12.1-27 27s12.1 27 27 27 27-12.1 27-27-12.1-27-27-27zm-27 123c0-14.9 12.1-27 27-27s27 12.1 27 27-12.1 27-27 27-27-12.1-27-27zm123-123c-14.9 0-27 12.1-27 27s12.1 27 27 27 27-12.1 27-27-12.1-27-27-27zm-27-69c0-14.9 12.1-27 27-27s27 12.1 27 27-12.1 27-27 27-27-12.1-27-27zm-549-27c-14.9 0-27 12.1-27 27s12.1 27 27 27 27-12.1 27-27-12.1-27-27-27zm-411 123c0-14.9 12.1-27 27-27s27 12.1 27 27-12.1 27-27 27-27-12.1-27-27zm27-123c-14.9 0-27 12.1-27 27s12.1 27 27 27 27-12.1 27-27-12.1-27-27-27zm261 27c0-14.9 12.1-27 27-27s27 12.1 27 27-12.1 27-27 27-27-12.1-27-27zm-357 69c-14.9 0-27 12.1-27 27s12.1 27 27 27 27-12.1 27-27-12.1-27-27-27zm-27-69c0-14.9 12.1-27 27-27s27 12.1 27 27-12.1 27-27 27-27-12.1-27-27zm699-27c-14.9 0-27 12.1-27 27s12.1 27 27 27 27-12.1 27-27-12.1-27-27-27zm-411 27c0-14.9 12.1-27 27-27s27 12.1 27 27-12.1 27-27 27-27-12.1-27-27zm-357 69c-14.9 0-27 12.1-27 27s12.1 27 27 27 27-12.1 27-27-12.1-27-27-27zm-27-69c0-14.9 12.1-27 27-27s27 12.1 27 27-12.1 27-27 27-27-12.1-27-27zm699-27c-14.9 0-27 12.1-27 27s12.1 27 27 27 27-12.1 27-27-12.1-27-27-27zm-411 27c0-14.9 12.1-27 27-27s27 12.1 27 27-12.1 27-27 27-27-12.1-27-27zm-357 69c-14.9 0-27 12.1-27 27s12.1 27 27 27 27-12.1 27-27-12.1-27-27-27zm-123 27c0-14.9 12.1-27 27-27s27 12.1 27 27-12.1 27-27 27-27-12.1-27-27zm-69-27c-14.9 0-27 12.1-27 27s12.1 27 27 27 27-12.1 27-27-12.1-27-27-27zm165-69c0-14.9 12.1-27 27-27s27 12.1 27 27-12.1 27-27 27-27-12.1-27-27zm-165-27c-14.9 0-27 12.1-27 27s12.1 27 27 27 27-12.1 27-27-12.1-27-27-27z" style="fill:url(#SVGID_4_)"/></g><g class="st0"><linearGradient id="SVGID_5_" gradientUnits="userSpaceOnUse" x1="1554.011" y1="-1771.652" x2="906.881" y2="-435.613" gradientTransform="matrix(1 0 0 -1 0 794)"><stop offset=".069" style="stop-color:#15e682"/><stop offset="1" style="stop-color:#fff"/></linearGradient><path d="M1839 1522c0 14.9-12.1 27-27 27s-27-12.1-27-27 12.1-27 27-27 27 12.1 27 27zm-1371 27c14.9 0 27-12.1 27-27s-12.1-27-27-27-27 12.1-27 27 12.1 27 27 27zm123-27c0 14.9-12.1 27-27 27s-27-12.1-27-27 12.1-27 27-27 27 12.1 27 27zm96 0c0 14.9-12.1 27-27 27s-27-12.1-27-27 12.1-27 27-27 27 12.1 27 27zm0 96c0 14.9-12.1 27-27 27s-27-12.1-27-27 12.1-27 27-27 27 12.1 27 27zm-123 27c14.9 0 27-12.1 27-27s-12.1-27-27-27-27 12.1-27 27 12.1 27 27 27zm-69-27c0 14.9-12.1 27-27 27s-27-12.1-27-27 12.1-27 27-27 27 12.1 27 27zm549 27c14.9 0 27-12.1 27-27s-12.1-27-27-27-27 12.1-27 27 12.1 27 27 27zm411-123c0 14.9-12.1 27-27 27s-27-12.1-27-27 12.1-27 27-27 27 12.1 27 27zm-27 123c14.9 0 27-12.1 27-27s-12.1-27-27-27-27 12.1-27 27 12.1 27 27 27zm-645-123c0 14.9-12.1 27-27 27s-27-12.1-27-27 12.1-27 27-27 27 12.1 27 27zm-27 123c14.9 0 27-12.1 27-27s-12.1-27-27-27-27 12.1-27 27 12.1 27 27 27zm411-27c0 14.9-12.1 27-27 27s-27-12.1-27-27 12.1-27 27-27 27 12.1 27 27zm357-69c14.9 0 27-12.1 27-27s-12.1-27-27-27-27 12.1-27 27 12.1 27 27 27zm27 69c0 14.9-12.1 27-27 27s-27-12.1-27-27 12.1-27 27-27 27 12.1 27 27zm-699 27c14.9 0 27-12.1 27-27s-12.1-27-27-27-27 12.1-27 27 12.1 27 27 27zm411-27c0 14.9-12.1 27-27 27s-27-12.1-27-27 12.1-27 27-27 27 12.1 27 27zm357-69c14.9 0 27-12.1 27-27s-12.1-27-27-27-27 12.1-27 27 12.1 27 27 27zm27 69c0 14.9-12.1 27-27 27s-27-12.1-27-27 12.1-27 27-27 27 12.1 27 27zm-699-69c14.9 0 27-12.1 27-27s-12.1-27-27-27-27 12.1-27 27 12.1 27 27 27zm27 69c0 14.9-12.1 27-27 27s-27-12.1-27-27 12.1-27 27-27 27 12.1 27 27zm357-69c14.9 0 27-12.1 27-27s-12.1-27-27-27-27 12.1-27 27 12.1 27 27 27zm27 69c0 14.9-12.1 27-27 27s-27-12.1-27-27 12.1-27 27-27 27 12.1 27 27zm357-69c14.9 0 27-12.1 27-27s-12.1-27-27-27-27 12.1-27 27 12.1 27 27 27zm192 0c14.9 0 27-12.1 27-27s-12.1-27-27-27-27 12.1-27 27 12.1 27 27 27zm-69 69c0 14.9-12.1 27-27 27s-27-12.1-27-27 12.1-27 27-27 27 12.1 27 27zM660 1741c14.9 0 27-12.1 27-27s-12.1-27-27-27-27 12.1-27 27 12.1 27 27 27zm-165-27c0 14.9-12.1 27-27 27s-27-12.1-27-27 12.1-27 27-27 27 12.1 27 27zm-27 123c14.9 0 27-12.1 27-27s-12.1-27-27-27-27 12.1-27 27 12.1 27 27 27zm603-123c0 14.9-12.1 27-27 27s-27-12.1-27-27 12.1-27 27-27 27 12.1 27 27zm-27 123c14.9 0 27-12.1 27-27s-12.1-27-27-27-27 12.1-27 27 12.1 27 27 27zm411-27c0 14.9-12.1 27-27 27s-27-12.1-27-27 12.1-27 27-27 27 12.1 27 27zm-699-69c14.9 0 27-12.1 27-27s-12.1-27-27-27-27 12.1-27 27 12.1 27 27 27zm411-27c0 14.9-12.1 27-27 27s-27-12.1-27-27 12.1-27 27-27 27 12.1 27 27zm-27 123c14.9 0 27-12.1 27-27s-12.1-27-27-27-27 12.1-27 27 12.1 27 27 27zm411-27c0 14.9-12.1 27-27 27s-27-12.1-27-27 12.1-27 27-27 27 12.1 27 27zm-699-69c14.9 0 27-12.1 27-27s-12.1-27-27-27-27 12.1-27 27 12.1 27 27 27zm27 69c0 14.9-12.1 27-27 27s-27-12.1-27-27 12.1-27 27-27 27 12.1 27 27zm357-69c14.9 0 27-12.1 27-27s-12.1-27-27-27-27 12.1-27 27 12.1 27 27 27zm27 69c0 14.9-12.1 27-27 27s-27-12.1-27-27 12.1-27 27-27 27 12.1 27 27zm357 27c14.9 0 27-12.1 27-27s-12.1-27-27-27-27 12.1-27 27 12.1 27 27 27zm-645-123c0 14.9-12.1 27-27 27s-27-12.1-27-27 12.1-27 27-27 27 12.1 27 27zm357 27c14.9 0 27-12.1 27-27s-12.1-27-27-27-27 12.1-27 27 12.1 27 27 27zm27 69c0 14.9-12.1 27-27 27s-27-12.1-27-27 12.1-27 27-27 27 12.1 27 27zm453-69c14.9 0 27-12.1 27-27s-12.1-27-27-27-27 12.1-27 27 12.1 27 27 27zm-69 69c0 14.9-12.1 27-27 27s-27-12.1-27-27 12.1-27 27-27 27 12.1 27 27zm69 27c14.9 0 27-12.1 27-27s-12.1-27-27-27-27 12.1-27 27 12.1 27 27 27zm123-27c0 14.9-12.1 27-27 27s-27-12.1-27-27 12.1-27 27-27 27 12.1 27 27zM660 2125c14.9 0 27-12.1 27-27s-12.1-27-27-27-27 12.1-27 27 12.1 27 27 27zm-69-27c0 14.9-12.1 27-27 27s-27-12.1-27-27 12.1-27 27-27 27 12.1 27 27zm-123 27c14.9 0 27-12.1 27-27s-12.1-27-27-27-27 12.1-27 27 12.1 27 27 27zm603-27c0 14.9-12.1 27-27 27s-27-12.1-27-27 12.1-27 27-27 27 12.1 27 27zm-315 27c14.9 0 27-12.1 27-27s-12.1-27-27-27-27 12.1-27 27 12.1 27 27 27zm411-27c0 14.9-12.1 27-27 27s-27-12.1-27-27 12.1-27 27-27 27 12.1 27 27zm-315 27c14.9 0 27-12.1 27-27s-12.1-27-27-27-27 12.1-27 27 12.1 27 27 27zm411-27c0 14.9-12.1 27-27 27s-27-12.1-27-27 12.1-27 27-27 27 12.1 27 27zm-315 27c14.9 0 27-12.1 27-27s-12.1-27-27-27-27 12.1-27 27 12.1 27 27 27zm411-27c0 14.9-12.1 27-27 27s-27-12.1-27-27 12.1-27 27-27 27 12.1 27 27zm-795-165c14.9 0 27-12.1 27-27s-12.1-27-27-27-27 12.1-27 27 12.1 27 27 27zm27-123c0 14.9-12.1 27-27 27s-27-12.1-27-27 12.1-27 27-27 27 12.1 27 27zm-123 123c14.9 0 27-12.1 27-27s-12.1-27-27-27-27 12.1-27 27 12.1 27 27 27zm27 69c0 14.9-12.1 27-27 27s-27-12.1-27-27 12.1-27 27-27 27 12.1 27 27zm549 27c14.9 0 27-12.1 27-27s-12.1-27-27-27-27 12.1-27 27 12.1 27 27 27zm411-123c0 14.9-12.1 27-27 27s-27-12.1-27-27 12.1-27 27-27 27 12.1 27 27zm-27 123c14.9 0 27-12.1 27-27s-12.1-27-27-27-27 12.1-27 27 12.1 27 27 27zm-261-27c0 14.9-12.1 27-27 27s-27-12.1-27-27 12.1-27 27-27 27 12.1 27 27zm357-69c14.9 0 27-12.1 27-27s-12.1-27-27-27-27 12.1-27 27 12.1 27 27 27zm27 69c0 14.9-12.1 27-27 27s-27-12.1-27-27 12.1-27 27-27 27 12.1 27 27zm-699 27c14.9 0 27-12.1 27-27s-12.1-27-27-27-27 12.1-27 27 12.1 27 27 27zm411-27c0 14.9-12.1 27-27 27s-27-12.1-27-27 12.1-27 27-27 27 12.1 27 27zm357-69c14.9 0 27-12.1 27-27s-12.1-27-27-27-27 12.1-27 27 12.1 27 27 27zm27 69c0 14.9-12.1 27-27 27s-27-12.1-27-27 12.1-27 27-27 27 12.1 27 27zm-699 27c14.9 0 27-12.1 27-27s-12.1-27-27-27-27 12.1-27 27 12.1 27 27 27zm411-27c0 14.9-12.1 27-27 27s-27-12.1-27-27 12.1-27 27-27 27 12.1 27 27zm357-69c14.9 0 27-12.1 27-27s-12.1-27-27-27-27 12.1-27 27 12.1 27 27 27zm123-27c0 14.9-12.1 27-27 27s-27-12.1-27-27 12.1-27 27-27 27 12.1 27 27zm69 27c14.9 0 27-12.1 27-27s-12.1-27-27-27-27 12.1-27 27 12.1 27 27 27zm-165 69c0 14.9-12.1 27-27 27s-27-12.1-27-27 12.1-27 27-27 27 12.1 27 27zm165 27c14.9 0 27-12.1 27-27s-12.1-27-27-27-27 12.1-27 27 12.1 27 27 27z" style="fill:url(#SVGID_5_)"/></g></svg>