<svg width="1469" height="998" fill="none" xmlns="http://www.w3.org/2000/svg"><path fill-rule="evenodd" clip-rule="evenodd" d="M53.096 507c0-14.912-11.886-27-26.548-27C11.886 480 0 492.088 0 507s11.886 27 26.548 27c14.662 0 26.548-12.088 26.548-27zm67.846-27c14.662 0 26.548 12.088 26.548 27s-11.886 27-26.548 27c-14.662 0-26.548-12.088-26.548-27s11.886-27 26.548-27zm94.393 0c14.663 0 26.549 12.088 26.549 27s-11.886 27-26.549 27c-14.662 0-26.548-12.088-26.548-27s11.886-27 26.548-27zm0-96c14.663 0 26.549 12.088 26.549 27s-11.886 27-26.549 27c-14.662 0-26.548-12.088-26.548-27s11.886-27 26.548-27zm-67.845 27c0-14.912-11.886-27-26.548-27-14.662 0-26.548 12.088-26.548 27s11.886 27 26.548 27c14.662 0 26.548-12.088 26.548-27zM26.548 384c14.662 0 26.548 12.088 26.548 27s-11.886 27-26.548 27C11.886 438 0 425.912 0 411s11.886-27 26.548-27zm592.91 27c0-14.912-11.886-27-26.548-27-14.662 0-26.548 12.088-26.548 27s11.886 27 26.548 27c14.662 0 26.548-12.088 26.548-27zm351.026 69c14.662 0 26.548 12.088 26.548 27s-11.886 27-26.548 27c-14.662 0-26.548-12.088-26.548-27s11.886-27 26.548-27zm26.548-69c0-14.912-11.886-27-26.548-27-14.662 0-26.548 12.088-26.548 27s11.886 27 26.548 27c14.662 0 26.548-12.088 26.548-27zm-687.303-27c14.662 0 26.548 12.088 26.548 27s-11.886 27-26.548 27c-14.662 0-26.548-12.088-26.548-27s11.886-27 26.548-27zm404.122 27c0-14.912-11.886-27-26.548-27-14.662 0-26.548 12.088-26.548 27s11.886 27 26.548 27c14.662 0 26.548-12.088 26.548-27zm351.029 69c14.66 0 26.55 12.088 26.55 27s-11.89 27-26.55 27-26.55-12.088-26.55-27 11.89-27 26.55-27zm26.55-69c0-14.912-11.89-27-26.55-27s-26.55 12.088-26.55 27 11.89 27 26.55 27 26.55-12.088 26.55-27zm-687.307-27c14.662 0 26.548 12.088 26.548 27s-11.886 27-26.548 27c-14.663 0-26.549-12.088-26.549-27s11.886-27 26.549-27zm404.122 27c0-14.912-11.886-27-26.548-27-14.662 0-26.548 12.088-26.548 27s11.886 27 26.548 27c14.662 0 26.548-12.088 26.548-27zm351.025 69c14.66 0 26.55 12.088 26.55 27s-11.89 27-26.55 27-26.55-12.088-26.55-27 11.89-27 26.55-27zm26.55-69c0-14.912-11.89-27-26.55-27s-26.55 12.088-26.55 27 11.89 27 26.55 27 26.55-12.088 26.55-27zm-687.304 69c14.662 0 26.548 12.088 26.548 27s-11.886 27-26.548 27c-14.662 0-26.548-12.088-26.548-27s11.886-27 26.548-27zm26.548-69c0-14.912-11.886-27-26.548-27-14.662 0-26.548 12.088-26.548 27s11.886 27 26.548 27c14.662 0 26.548-12.088 26.548-27zm351.026 69c14.663 0 26.549 12.088 26.549 27s-11.886 27-26.549 27c-14.662 0-26.548-12.088-26.548-27s11.886-27 26.548-27zm26.549-69c0-14.912-11.886-27-26.549-27-14.662 0-26.548 12.088-26.548 27s11.886 27 26.548 27c14.663 0 26.549-12.088 26.549-27zm351.021 69c14.67 0 26.55 12.088 26.55 27s-11.88 27-26.55 27c-14.66 0-26.54-12.088-26.54-27s11.88-27 26.54-27zm120.95 27c0-14.912-11.89-27-26.55-27s-26.55 12.088-26.55 27 11.89 27 26.55 27 26.55-12.088 26.55-27zm67.84-27c14.66 0 26.55 12.088 26.55 27s-11.89 27-26.55 27-26.55-12.088-26.55-27 11.89-27 26.55-27zm-67.84-69c0-14.912-11.89-27-26.55-27s-26.55 12.088-26.55 27 11.89 27 26.55 27 26.55-12.088 26.55-27zM215.335 288c14.663 0 26.549 12.088 26.549 27s-11.886 27-26.549 27c-14.662 0-26.548-12.088-26.548-27s11.886-27 26.548-27zM53.096 315c0-14.912-11.886-27-26.548-27C11.886 288 0 300.088 0 315s11.886 27 26.548 27c14.662 0 26.548-12.088 26.548-27zM26.548 192c14.662 0 26.548 12.088 26.548 27s-11.886 27-26.548 27C11.886 246 0 233.912 0 219s11.886-27 26.548-27zm592.91 123c0-14.912-11.886-27-26.548-27-14.662 0-26.548 12.088-26.548 27s11.886 27 26.548 27c14.662 0 26.548-12.088 26.548-27zM592.91 192c14.662 0 26.548 12.088 26.548 27s-11.886 27-26.548 27c-14.662 0-26.548-12.088-26.548-27s11.886-27 26.548-27zm404.122 27c0-14.912-11.886-27-26.548-27-14.662 0-26.548 12.088-26.548 27s11.886 27 26.548 27c14.662 0 26.548-12.088 26.548-27zm-687.303 69c14.662 0 26.548 12.088 26.548 27s-11.886 27-26.548 27c-14.662 0-26.548-12.088-26.548-27s11.886-27 26.548-27zm404.122 27c0-14.912-11.886-27-26.548-27-14.662 0-26.548 12.088-26.548 27s11.886 27 26.548 27c14.662 0 26.548-12.088 26.548-27zm-26.548-123c14.662 0 26.548 12.088 26.548 27s-11.886 27-26.548 27c-14.662 0-26.548-12.088-26.548-27s11.886-27 26.548-27zm404.127 27c0-14.912-11.89-27-26.55-27s-26.55 12.088-26.55 27 11.89 27 26.55 27 26.55-12.088 26.55-27zm-687.307 69c14.662 0 26.548 12.088 26.548 27s-11.886 27-26.548 27c-14.663 0-26.549-12.088-26.549-27s11.886-27 26.549-27zm26.548-69c0-14.912-11.886-27-26.548-27-14.663 0-26.549 12.088-26.549 27s11.886 27 26.549 27c14.662 0 26.548-12.088 26.548-27zm351.026 69c14.662 0 26.548 12.088 26.548 27s-11.886 27-26.548 27c-14.662 0-26.548-12.088-26.548-27s11.886-27 26.548-27zm26.548-69c0-14.912-11.886-27-26.548-27-14.662 0-26.548 12.088-26.548 27s11.886 27 26.548 27c14.662 0 26.548-12.088 26.548-27zm351.025-27c14.66 0 26.55 12.088 26.55 27s-11.89 27-26.55 27-26.55-12.088-26.55-27 11.89-27 26.55-27zM525.064 315c0-14.912-11.886-27-26.548-27-14.662 0-26.548 12.088-26.548 27s11.886 27 26.548 27c14.662 0 26.548-12.088 26.548-27zm351.026-27c14.663 0 26.549 12.088 26.549 27s-11.886 27-26.549 27c-14.662 0-26.548-12.088-26.548-27s11.886-27 26.548-27zm26.549-69c0-14.912-11.886-27-26.549-27-14.662 0-26.548 12.088-26.548 27s11.886 27 26.548 27c14.663 0 26.549-12.088 26.549-27zm445.421 69c14.66 0 26.55 12.088 26.55 27s-11.89 27-26.55 27-26.55-12.088-26.55-27 11.89-27 26.55-27zm-67.85-69c0-14.912-11.88-27-26.55-27-14.66 0-26.54 12.088-26.54 27s11.88 27 26.54 27c14.67 0 26.55-12.088 26.55-27zm67.85-27c14.66 0 26.55 12.088 26.55 27s-11.89 27-26.55 27-26.55-12.088-26.55-27 11.89-27 26.55-27zM1469 219c0-14.912-11.89-27-26.55-27s-26.55 12.088-26.55 27 11.89 27 26.55 27 26.55-12.088 26.55-27zM120.942 96c14.662 0 26.548 12.088 26.548 27s-11.886 27-26.548 27c-14.662 0-26.548-12.088-26.548-27s11.886-27 26.548-27zm26.548 123c0-14.912-11.886-27-26.548-27-14.662 0-26.548 12.088-26.548 27s11.886 27 26.548 27c14.662 0 26.548-12.088 26.548-27zM26.548 96c14.662 0 26.548 12.088 26.548 27s-11.886 27-26.548 27C11.886 150 0 137.912 0 123s11.886-27 26.548-27zm26.548-69c0-14.912-11.886-27-26.548-27C11.886 0 0 12.088 0 27s11.886 27 26.548 27c14.662 0 26.548-12.088 26.548-27zM592.91 0c14.662 0 26.548 12.088 26.548 27s-11.886 27-26.548 27c-14.662 0-26.548-12.088-26.548-27S578.248 0 592.91 0zm404.122 123c0-14.912-11.886-27-26.548-27-14.662 0-26.548 12.088-26.548 27s11.886 27 26.548 27c14.662 0 26.548-12.088 26.548-27zM970.484 0c14.662 0 26.548 12.088 26.548 27s-11.886 27-26.548 27c-14.662 0-26.548-12.088-26.548-27s11.886-27 26.548-27zM713.851 27c0-14.912-11.886-27-26.548-27-14.662 0-26.548 12.088-26.548 27s11.886 27 26.548 27c14.662 0 26.548-12.088 26.548-27zm351.029 69c14.66 0 26.55 12.088 26.55 27s-11.89 27-26.55 27-26.55-12.088-26.55-27 11.89-27 26.55-27zm26.55-69c0-14.912-11.89-27-26.55-27s-26.55 12.088-26.55 27 11.89 27 26.55 27 26.55-12.088 26.55-27zM404.123 0c14.662 0 26.548 12.088 26.548 27s-11.886 27-26.548 27c-14.663 0-26.549-12.088-26.549-27S389.46 0 404.123 0zm404.122 27c0-14.912-11.886-27-26.548-27-14.662 0-26.548 12.088-26.548 27s11.886 27 26.548 27c14.662 0 26.548-12.088 26.548-27zm351.025 69c14.66 0 26.55 12.088 26.55 27s-11.89 27-26.55 27-26.55-12.088-26.55-27 11.89-27 26.55-27zm26.55-69c0-14.912-11.89-27-26.55-27s-26.55 12.088-26.55 27 11.89 27 26.55 27 26.55-12.088 26.55-27zM498.516 0c14.662 0 26.548 12.088 26.548 27s-11.886 27-26.548 27c-14.662 0-26.548-12.088-26.548-27s11.886-27 26.548-27zm404.123 27c0-14.912-11.886-27-26.549-27-14.662 0-26.548 12.088-26.548 27s11.886 27 26.548 27c14.663 0 26.549-12.088 26.549-27zm351.021 69c14.67 0 26.55 12.088 26.55 27s-11.88 27-26.55 27c-14.66 0-26.54-12.088-26.54-27s11.88-27 26.54-27zm120.95 27c0-14.912-11.89-27-26.55-27s-26.55 12.088-26.55 27 11.89 27 26.55 27 26.55-12.088 26.55-27zm67.84-27c14.66 0 26.55 12.088 26.55 27s-11.89 27-26.55 27-26.55-12.088-26.55-27 11.89-27 26.55-27zm-162.24-69c0-14.912-11.88-27-26.55-27-14.66 0-26.54 12.088-26.54 27s11.88 27 26.54 27c14.67 0 26.55-12.088 26.55-27zm162.24-27c14.66 0 26.55 12.088 26.55 27s-11.89 27-26.55 27-26.55-12.088-26.55-27 11.89-27 26.55-27z" fill="url(#a)" opacity=".12"/><path fill-rule="evenodd" clip-rule="evenodd" d="M1415.9 491c0 14.912 11.89 27 26.55 27s26.55-12.088 26.55-27-11.89-27-26.55-27-26.55 12.088-26.55 27zm-67.84 27c-14.66 0-26.55-12.088-26.55-27s11.89-27 26.55-27 26.55 12.088 26.55 27-11.89 27-26.55 27zm-94.4 0c-14.66 0-26.54-12.088-26.54-27s11.88-27 26.54-27c14.67 0 26.55 12.088 26.55 27s-11.88 27-26.55 27zm0 96c-14.66 0-26.54-12.088-26.54-27s11.88-27 26.54-27c14.67 0 26.55 12.088 26.55 27s-11.88 27-26.55 27zm67.85-27c0 14.912 11.89 27 26.55 27s26.55-12.088 26.55-27-11.89-27-26.55-27-26.55 12.088-26.55 27zm120.94 27c-14.66 0-26.55-12.088-26.55-27s11.89-27 26.55-27 26.55 12.088 26.55 27-11.89 27-26.55 27zm-592.908-27c0 14.912 11.886 27 26.548 27 14.662 0 26.549-12.088 26.549-27s-11.887-27-26.549-27c-14.662 0-26.548 12.088-26.548 27zm-351.026-69c-14.662 0-26.548-12.088-26.548-27s11.886-27 26.548-27c14.662 0 26.548 12.088 26.548 27s-11.886 27-26.548 27zm-26.548 69c0 14.912 11.886 27 26.548 27 14.662 0 26.548-12.088 26.548-27s-11.886-27-26.548-27c-14.662 0-26.548 12.088-26.548 27zm687.302 27c-14.66 0-26.55-12.088-26.55-27s11.89-27 26.55-27 26.55 12.088 26.55 27-11.89 27-26.55 27zm-404.121-27c0 14.912 11.886 27 26.548 27 14.662 0 26.548-12.088 26.548-27s-11.886-27-26.548-27c-14.662 0-26.548 12.088-26.548 27zm-351.027-69c-14.662 0-26.548-12.088-26.548-27s11.886-27 26.548-27c14.663 0 26.549 12.088 26.549 27s-11.886 27-26.549 27zm-26.548 69c0 14.912 11.886 27 26.548 27 14.663 0 26.549-12.088 26.549-27s-11.886-27-26.549-27c-14.662 0-26.548 12.088-26.548 27zm687.306 27c-14.66 0-26.55-12.088-26.55-27s11.89-27 26.55-27 26.55 12.088 26.55 27-11.89 27-26.55 27zm-404.125-27c0 14.912 11.886 27 26.548 27 14.662 0 26.548-12.088 26.548-27s-11.886-27-26.548-27c-14.662 0-26.548 12.088-26.548 27zm-351.026-69c-14.662 0-26.548-12.088-26.548-27s11.886-27 26.548-27c14.662 0 26.548 12.088 26.548 27s-11.886 27-26.548 27zm-26.548 69c0 14.912 11.886 27 26.548 27 14.662 0 26.548-12.088 26.548-27s-11.886-27-26.548-27c-14.662 0-26.548 12.088-26.548 27zm687.303-69c-14.662 0-26.548-12.088-26.548-27s11.886-27 26.548-27c14.662 0 26.548 12.088 26.548 27s-11.886 27-26.548 27zm-26.548 69c0 14.912 11.886 27 26.548 27 14.662 0 26.548-12.088 26.548-27s-11.886-27-26.548-27c-14.662 0-26.548 12.088-26.548 27zM592.91 518c-14.663 0-26.549-12.088-26.549-27s11.886-27 26.549-27c14.662 0 26.548 12.088 26.548 27s-11.886 27-26.548 27zm-26.549 69c0 14.912 11.886 27 26.549 27 14.662 0 26.548-12.088 26.548-27s-11.886-27-26.548-27c-14.663 0-26.549 12.088-26.549 27zm-351.026-69c-14.662 0-26.548-12.088-26.548-27s11.886-27 26.548-27c14.663 0 26.549 12.088 26.549 27s-11.886 27-26.549 27zM94.394 491c0 14.912 11.886 27 26.548 27 14.662 0 26.548-12.088 26.548-27s-11.886-27-26.548-27c-14.662 0-26.548 12.088-26.548 27zm-67.846 27C11.886 518 0 505.912 0 491s11.886-27 26.548-27c14.662 0 26.548 12.088 26.548 27s-11.886 27-26.548 27zm67.846 69c0 14.912 11.886 27 26.548 27 14.662 0 26.548-12.088 26.548-27s-11.886-27-26.548-27c-14.662 0-26.548 12.088-26.548 27zM1253.66 710c-14.66 0-26.54-12.088-26.54-27s11.88-27 26.54-27c14.67 0 26.55 12.088 26.55 27s-11.88 27-26.55 27zm162.24-27c0 14.912 11.89 27 26.55 27s26.55-12.088 26.55-27-11.89-27-26.55-27-26.55 12.088-26.55 27zm26.55 123c-14.66 0-26.55-12.088-26.55-27s11.89-27 26.55-27 26.55 12.088 26.55 27-11.89 27-26.55 27zM849.542 683c0 14.912 11.886 27 26.548 27 14.662 0 26.549-12.088 26.549-27s-11.887-27-26.549-27c-14.662 0-26.548 12.088-26.548 27zm26.548 123c-14.662 0-26.548-12.088-26.548-27s11.886-27 26.548-27c14.662 0 26.549 12.088 26.549 27s-11.887 27-26.549 27zm-404.122-27c0 14.912 11.886 27 26.548 27 14.662 0 26.548-12.088 26.548-27s-11.886-27-26.548-27c-14.662 0-26.548 12.088-26.548 27zm687.302-69c-14.66 0-26.55-12.088-26.55-27s11.89-27 26.55-27 26.55 12.088 26.55 27-11.89 27-26.55 27zm-404.121-27c0 14.912 11.886 27 26.548 27 14.662 0 26.548-12.088 26.548-27s-11.886-27-26.548-27c-14.662 0-26.548 12.088-26.548 27zm26.548 123c-14.662 0-26.548-12.088-26.548-27s11.886-27 26.548-27c14.662 0 26.548 12.088 26.548 27s-11.886 27-26.548 27zm-404.123-27c0 14.912 11.886 27 26.548 27 14.663 0 26.549-12.088 26.549-27s-11.886-27-26.549-27c-14.662 0-26.548 12.088-26.548 27zm687.306-69c-14.66 0-26.55-12.088-26.55-27s11.89-27 26.55-27 26.55 12.088 26.55 27-11.89 27-26.55 27zm-26.55 69c0 14.912 11.89 27 26.55 27s26.55-12.088 26.55-27-11.89-27-26.55-27-26.55 12.088-26.55 27zm-351.027-69c-14.662 0-26.548-12.088-26.548-27s11.886-27 26.548-27c14.662 0 26.548 12.088 26.548 27s-11.886 27-26.548 27zm-26.548 69c0 14.912 11.886 27 26.548 27 14.662 0 26.548-12.088 26.548-27s-11.886-27-26.548-27c-14.662 0-26.548 12.088-26.548 27zm-351.026 27c-14.662 0-26.548-12.088-26.548-27s11.886-27 26.548-27c14.662 0 26.548 12.088 26.548 27s-11.886 27-26.548 27zm634.207-123c0 14.912 11.886 27 26.548 27 14.662 0 26.548-12.088 26.548-27s-11.886-27-26.548-27c-14.662 0-26.548 12.088-26.548 27zM592.91 710c-14.663 0-26.549-12.088-26.549-27s11.886-27 26.549-27c14.662 0 26.548 12.088 26.548 27s-11.886 27-26.548 27zm-26.549 69c0 14.912 11.886 27 26.549 27 14.662 0 26.548-12.088 26.548-27s-11.886-27-26.548-27c-14.663 0-26.549 12.088-26.549 27zm-445.419-69c-14.662 0-26.548-12.088-26.548-27s11.886-27 26.548-27c14.662 0 26.548 12.088 26.548 27s-11.886 27-26.548 27zm67.845 69c0 14.912 11.886 27 26.548 27 14.663 0 26.549-12.088 26.549-27s-11.886-27-26.549-27c-14.662 0-26.548 12.088-26.548 27zm-67.845 27c-14.662 0-26.548-12.088-26.548-27s11.886-27 26.548-27c14.662 0 26.548 12.088 26.548 27s-11.886 27-26.548 27zM0 779c0 14.912 11.886 27 26.548 27 14.662 0 26.548-12.088 26.548-27s-11.886-27-26.548-27C11.886 752 0 764.088 0 779zm1348.06 123c-14.66 0-26.55-12.088-26.55-27s11.89-27 26.55-27 26.55 12.088 26.55 27-11.89 27-26.55 27zm-26.55-123c0 14.912 11.89 27 26.55 27s26.55-12.088 26.55-27-11.89-27-26.55-27-26.55 12.088-26.55 27zm120.94 123c-14.66 0-26.55-12.088-26.55-27s11.89-27 26.55-27 26.55 12.088 26.55 27-11.89 27-26.55 27zm-26.55 69c0 14.912 11.89 27 26.55 27s26.55-12.088 26.55-27-11.89-27-26.55-27-26.55 12.088-26.55 27zm-539.81 27c-14.662 0-26.548-12.088-26.548-27s11.886-27 26.548-27c14.662 0 26.549 12.088 26.549 27s-11.887 27-26.549 27zM471.968 875c0 14.912 11.886 27 26.548 27 14.662 0 26.548-12.088 26.548-27s-11.886-27-26.548-27c-14.662 0-26.548 12.088-26.548 27zm26.548 123c-14.662 0-26.548-12.088-26.548-27s11.886-27 26.548-27c14.662 0 26.548 12.088 26.548 27s-11.886 27-26.548 27zm256.633-27c0 14.912 11.886 27 26.548 27 14.662 0 26.548-12.088 26.548-27s-11.886-27-26.548-27c-14.662 0-26.548 12.088-26.548 27zm-351.027-69c-14.662 0-26.548-12.088-26.548-27s11.886-27 26.548-27c14.663 0 26.549 12.088 26.549 27s-11.886 27-26.549 27zm-26.548 69c0 14.912 11.886 27 26.548 27 14.663 0 26.549-12.088 26.549-27s-11.886-27-26.549-27c-14.662 0-26.548 12.088-26.548 27zm687.306 27c-14.66 0-26.55-12.088-26.55-27s11.89-27 26.55-27 26.55 12.088 26.55 27-11.89 27-26.55 27zm-404.125-27c0 14.912 11.886 27 26.548 27 14.662 0 26.548-12.088 26.548-27s-11.886-27-26.548-27c-14.662 0-26.548 12.088-26.548 27zm-351.026-69c-14.662 0-26.548-12.088-26.548-27s11.886-27 26.548-27c14.662 0 26.548 12.088 26.548 27s-11.886 27-26.548 27zm-26.548 69c0 14.912 11.886 27 26.548 27 14.662 0 26.548-12.088 26.548-27s-11.886-27-26.548-27c-14.662 0-26.548 12.088-26.548 27zm687.303 27c-14.662 0-26.548-12.088-26.548-27s11.886-27 26.548-27c14.662 0 26.548 12.088 26.548 27s-11.886 27-26.548 27zm-404.123-27c0 14.912 11.886 27 26.549 27 14.662 0 26.548-12.088 26.548-27s-11.886-27-26.548-27c-14.663 0-26.549 12.088-26.549 27zm-351.026-69c-14.662 0-26.548-12.088-26.548-27s11.886-27 26.548-27c14.663 0 26.549 12.088 26.549 27s-11.886 27-26.549 27zM94.393 875c0 14.912 11.887 27 26.549 27 14.662 0 26.548-12.088 26.548-27s-11.886-27-26.548-27c-14.662 0-26.548 12.088-26.548 27zm-67.845 27C11.886 902 0 889.912 0 875s11.886-27 26.548-27c14.662 0 26.548 12.088 26.548 27s-11.886 27-26.548 27zm162.239 69c0 14.912 11.886 27 26.548 27 14.663 0 26.548-12.088 26.549-27 0-14.912-11.886-27-26.549-27-14.662 0-26.548 12.088-26.548 27zM26.548 998C11.886 998 0 985.912 0 971s11.886-27 26.548-27c14.662 0 26.548 12.088 26.548 27s-11.886 27-26.548 27z" fill="url(#b)" opacity=".12"/><defs><linearGradient id="a" x1="1666.15" y1="-134.771" x2="756.133" y2="576.943" gradientUnits="userSpaceOnUse"><stop offset=".069" stop-color="#15E682"/><stop offset="1" stop-color="#fff"/></linearGradient><linearGradient id="b" x1="-197.145" y1="1132.77" x2="712.867" y2="421.057" gradientUnits="userSpaceOnUse"><stop offset=".069" stop-color="#15E682"/><stop offset="1" stop-color="#fff"/></linearGradient></defs></svg>