<svg xmlns="http://www.w3.org/2000/svg" width="1494" height="630" viewBox="441 82 1494 630" style="enable-background:new 441 82 1494 630" xml:space="preserve"><g style="opacity:.12"><linearGradient id="a" gradientUnits="userSpaceOnUse" x1="821.987" y1="1154.653" x2="1469.12" y2="-181.387" gradientTransform="matrix(1 0 0 -1 0 796)"><stop offset=".069" style="stop-color:#15e682"/><stop offset="1" style="stop-color:#fff"/></linearGradient><path d="M1908 658c-14.9 0-27 12.1-27 27s12.1 27 27 27 27-12.1 27-27-12.1-27-27-27zm-123 27c0-14.9 12.1-27 27-27s27 12.1 27 27-12.1 27-27 27-27-12.1-27-27zm-96 0c0-14.9 12.1-27 27-27s27 12.1 27 27-12.1 27-27 27-27-12.1-27-27zm0-96c0-14.9 12.1-27 27-27s27 12.1 27 27-12.1 27-27 27-27-12.1-27-27zm123-27c-14.9 0-27 12.1-27 27s12.1 27 27 27 27-12.1 27-27-12.1-27-27-27zm69 27c0-14.9 12.1-27 27-27s27 12.1 27 27-12.1 27-27 27-27-12.1-27-27zm-549-27c-14.9 0-27 12.1-27 27s12.1 27 27 27 27-12.1 27-27-12.1-27-27-27zM921 685c0-14.9 12.1-27 27-27s27 12.1 27 27-12.1 27-27 27-27-12.1-27-27zm27-123c-14.9 0-27 12.1-27 27s12.1 27 27 27 27-12.1 27-27-12.1-27-27-27zm645 123c0-14.9 12.1-27 27-27s27 12.1 27 27-12.1 27-27 27-27-12.1-27-27zm27-123c-14.9 0-27 12.1-27 27s12.1 27 27 27 27-12.1 27-27-12.1-27-27-27zm-411 27c0-14.9 12.1-27 27-27s27 12.1 27 27-12.1 27-27 27-27-12.1-27-27zm-357 69c-14.9 0-27 12.1-27 27s12.1 27 27 27 27-12.1 27-27-12.1-27-27-27zm-27-69c0-14.9 12.1-27 27-27s27 12.1 27 27-12.1 27-27 27-27-12.1-27-27zm699-27c-14.9 0-27 12.1-27 27s12.1 27 27 27 27-12.1 27-27-12.1-27-27-27zm-411 27c0-14.9 12.1-27 27-27s27 12.1 27 27-12.1 27-27 27-27-12.1-27-27zm-357 69c-14.9 0-27 12.1-27 27s12.1 27 27 27 27-12.1 27-27-12.1-27-27-27zm-27-69c0-14.9 12.1-27 27-27s27 12.1 27 27-12.1 27-27 27-27-12.1-27-27zm699 69c-14.9 0-27 12.1-27 27s12.1 27 27 27 27-12.1 27-27-12.1-27-27-27zm-27-69c0-14.9 12.1-27 27-27s27 12.1 27 27-12.1 27-27 27-27-12.1-27-27zm-357 69c-14.9 0-27 12.1-27 27s12.1 27 27 27 27-12.1 27-27-12.1-27-27-27zm-27-69c0-14.9 12.1-27 27-27s27 12.1 27 27-12.1 27-27 27-27-12.1-27-27zm-357 69c-14.9 0-27 12.1-27 27s12.1 27 27 27 27-12.1 27-27-12.1-27-27-27zm-123 27c0-14.9 12.1-27 27-27s27 12.1 27 27-12.1 27-27 27-27-12.1-27-27zm-69-27c-14.9 0-27 12.1-27 27s12.1 27 27 27 27-12.1 27-27-12.1-27-27-27zm69-69c0-14.9 12.1-27 27-27s27 12.1 27 27-12.1 27-27 27-27-12.1-27-27zm1179-123c-14.9 0-27 12.1-27 27s12.1 27 27 27 27-12.1 27-27-12.1-27-27-27zm165 27c0-14.9 12.1-27 27-27s27 12.1 27 27-12.1 27-27 27-27-12.1-27-27zm27-123c-14.9 0-27 12.1-27 27s12.1 27 27 27 27-12.1 27-27-12.1-27-27-27zm-603 123c0-14.9 12.1-27 27-27s27 12.1 27 27-12.1 27-27 27-27-12.1-27-27zm27-123c-14.9 0-27 12.1-27 27s12.1 27 27 27 27-12.1 27-27-12.1-27-27-27zm-411 27c0-14.9 12.1-27 27-27s27 12.1 27 27-12.1 27-27 27-27-12.1-27-27zm699 69c-14.9 0-27 12.1-27 27s12.1 27 27 27 27-12.1 27-27-12.1-27-27-27zm-411 27c0-14.9 12.1-27 27-27s27 12.1 27 27-12.1 27-27 27-27-12.1-27-27zm27-123c-14.9 0-27 12.1-27 27s12.1 27 27 27 27-12.1 27-27-12.1-27-27-27zm-411 27c0-14.9 12.1-27 27-27s27 12.1 27 27-12.1 27-27 27-27-12.1-27-27zm699 69c-14.9 0-27 12.1-27 27s12.1 27 27 27 27-12.1 27-27-12.1-27-27-27zm-27-69c0-14.9 12.1-27 27-27s27 12.1 27 27-12.1 27-27 27-27-12.1-27-27zm-357 69c-14.9 0-27 12.1-27 27s12.1 27 27 27 27-12.1 27-27-12.1-27-27-27zm-27-69c0-14.9 12.1-27 27-27s27 12.1 27 27-12.1 27-27 27-27-12.1-27-27zm-357-27c-14.9 0-27 12.1-27 27s12.1 27 27 27 27-12.1 27-27-12.1-27-27-27zm645 123c0-14.9 12.1-27 27-27s27 12.1 27 27-12.1 27-27 27-27-12.1-27-27zm-357-27c-14.9 0-27 12.1-27 27s12.1 27 27 27 27-12.1 27-27-12.1-27-27-27zm-27-69c0-14.9 12.1-27 27-27s27 12.1 27 27-12.1 27-27 27-27-12.1-27-27zm-453 69c-14.9 0-27 12.1-27 27s12.1 27 27 27 27-12.1 27-27-12.1-27-27-27zm69-69c0-14.9 12.1-27 27-27s27 12.1 27 27-12.1 27-27 27-27-12.1-27-27zm-69-27c-14.9 0-27 12.1-27 27s12.1 27 27 27 27-12.1 27-27-12.1-27-27-27zm-123 27c0-14.9 12.1-27 27-27s27 12.1 27 27-12.1 27-27 27-27-12.1-27-27zM1716 82c-14.9 0-27 12.1-27 27s12.1 27 27 27 27-12.1 27-27-12.1-27-27-27zm69 27c0-14.9 12.1-27 27-27s27 12.1 27 27-12.1 27-27 27-27-12.1-27-27zm123-27c-14.9 0-27 12.1-27 27s12.1 27 27 27 27-12.1 27-27-12.1-27-27-27zm-603 27c0-14.9 12.1-27 27-27s27 12.1 27 27-12.1 27-27 27-27-12.1-27-27zm315-27c-14.9 0-27 12.1-27 27s12.1 27 27 27 27-12.1 27-27-12.1-27-27-27zm-411 27c0-14.9 12.1-27 27-27s27 12.1 27 27-12.1 27-27 27-27-12.1-27-27zm315-27c-14.9 0-27 12.1-27 27s12.1 27 27 27 27-12.1 27-27-12.1-27-27-27zm-411 27c0-14.9 12.1-27 27-27s27 12.1 27 27-12.1 27-27 27-27-12.1-27-27zm315-27c-14.9 0-27 12.1-27 27s12.1 27 27 27 27-12.1 27-27-12.1-27-27-27zm-411 27c0-14.9 12.1-27 27-27s27 12.1 27 27-12.1 27-27 27-27-12.1-27-27zm795 165c-14.9 0-27 12.1-27 27s12.1 27 27 27 27-12.1 27-27-12.1-27-27-27zm-27 123c0-14.9 12.1-27 27-27s27 12.1 27 27-12.1 27-27 27-27-12.1-27-27zm123-123c-14.9 0-27 12.1-27 27s12.1 27 27 27 27-12.1 27-27-12.1-27-27-27zm-27-69c0-14.9 12.1-27 27-27s27 12.1 27 27-12.1 27-27 27-27-12.1-27-27zm-549-27c-14.9 0-27 12.1-27 27s12.1 27 27 27 27-12.1 27-27-12.1-27-27-27zM921 301c0-14.9 12.1-27 27-27s27 12.1 27 27-12.1 27-27 27-27-12.1-27-27zm27-123c-14.9 0-27 12.1-27 27s12.1 27 27 27 27-12.1 27-27-12.1-27-27-27zm261 27c0-14.9 12.1-27 27-27s27 12.1 27 27-12.1 27-27 27-27-12.1-27-27zm-357 69c-14.9 0-27 12.1-27 27s12.1 27 27 27 27-12.1 27-27-12.1-27-27-27zm-27-69c0-14.9 12.1-27 27-27s27 12.1 27 27-12.1 27-27 27-27-12.1-27-27zm699-27c-14.9 0-27 12.1-27 27s12.1 27 27 27 27-12.1 27-27-12.1-27-27-27zm-411 27c0-14.9 12.1-27 27-27s27 12.1 27 27-12.1 27-27 27-27-12.1-27-27zm-357 69c-14.9 0-27 12.1-27 27s12.1 27 27 27 27-12.1 27-27-12.1-27-27-27zm-27-69c0-14.9 12.1-27 27-27s27 12.1 27 27-12.1 27-27 27-27-12.1-27-27zm699-27c-14.9 0-27 12.1-27 27s12.1 27 27 27 27-12.1 27-27-12.1-27-27-27zm-411 27c0-14.9 12.1-27 27-27s27 12.1 27 27-12.1 27-27 27-27-12.1-27-27zm-357 69c-14.9 0-27 12.1-27 27s12.1 27 27 27 27-12.1 27-27-12.1-27-27-27zm-123 27c0-14.9 12.1-27 27-27s27 12.1 27 27-12.1 27-27 27-27-12.1-27-27zm-69-27c-14.9 0-27 12.1-27 27s12.1 27 27 27 27-12.1 27-27-12.1-27-27-27zm165-69c0-14.9 12.1-27 27-27s27 12.1 27 27-12.1 27-27 27-27-12.1-27-27zm-165-27c-14.9 0-27 12.1-27 27s12.1 27 27 27 27-12.1 27-27-12.1-27-27-27z" style="fill:url(#a)"/></g></svg>