<svg xmlns="http://www.w3.org/2000/svg" width="408" height="676" viewBox="-133 59 408 676" style="enable-background:new -133 59 408 676" xml:space="preserve"><linearGradient id="a" gradientUnits="userSpaceOnUse" x1="483.197" y1="182.413" x2="-245.59" y2="565.351" gradientTransform="matrix(1 0 0 -1 0 796)"><stop offset=".069" style="stop-color:#15e682"/><stop offset="1" style="stop-color:#fff"/></linearGradient><path d="M206 89c8.3 0 15-6.7 15-15s-6.7-15-15-15-15 6.7-15 15 6.7 15 15 15zm0 60c8.3 0 15-6.7 15-15s-6.7-15-15-15-15 6.7-15 15 6.7 15 15 15zm0 60c8.3 0 15-6.7 15-15s-6.7-15-15-15-15 6.7-15 15 6.7 15 15 15zm0 60c8.3 0 15-6.7 15-15s-6.7-15-15-15-15 6.7-15 15 6.7 15 15 15zm15 45c0 8.3-6.7 15-15 15s-15-6.7-15-15 6.7-15 15-15 15 6.7 15 15zm0 60c0 8.3-6.7 15-15 15s-15-6.7-15-15 6.7-15 15-15 15 6.7 15 15zm-339 75c8.3 0 15-6.7 15-15s-6.7-15-15-15-15 6.7-15 15 6.7 15 15 15zM5 434c0 8.3-6.7 15-15 15s-15-6.7-15-15 6.7-15 15-15 15 6.7 15 15zm93 15c8.3 0 15-6.7 15-15s-6.7-15-15-15-15 6.7-15 15 6.7 15 15 15zm123-15c0 8.3-6.7 15-15 15s-15-6.7-15-15 6.7-15 15-15 15 6.7 15 15zm-15 75c8.3 0 15-6.7 15-15s-6.7-15-15-15-15 6.7-15 15 6.7 15 15 15zm0 54c8.3 0 15-6.7 15-15s-6.7-15-15-15-15 6.7-15 15 6.7 15 15 15zm-93-69c0 8.3-6.7 15-15 15s-15-6.7-15-15 6.7-15 15-15 15 6.7 15 15zm-15 69c8.3 0 15-6.7 15-15s-6.7-15-15-15-15 6.7-15 15 6.7 15 15 15zm15 98c0 8.3-6.7 15-15 15s-15-6.7-15-15 6.7-15 15-15 15 6.7 15 15zm-15 74c8.3 0 15-6.7 15-15s-6.7-15-15-15-15 6.7-15 15 6.7 15 15 15zM-10 509c8.3 0 15-6.7 15-15s-6.7-15-15-15-15 6.7-15 15 6.7 15 15 15zm15 93c0 8.3-6.7 15-15 15s-15-6.7-15-15 6.7-15 15-15 15 6.7 15 15zm-15 74c8.3 0 15-6.7 15-15s-6.7-15-15-15-15 6.7-15 15 6.7 15 15 15zm15 44c0 8.3-6.7 15-15 15s-15-6.7-15-15 6.7-15 15-15 15 6.7 15 15zm-108-57c0 8.3-6.7 15-15 15s-15-6.7-15-15 6.7-15 15-15 15 6.7 15 15zm-15 72c8.3 0 15-6.7 15-15s-6.7-15-15-15-15 6.7-15 15 6.7 15 15 15zm15-187c0 8.3-6.7 15-15 15s-15-6.7-15-15 6.7-15 15-15 15 6.7 15 15zm-15-45c8.3 0 15-6.7 15-15s-6.7-15-15-15-15 6.7-15 15 6.7 15 15 15zm108-114c8.3 0 15-6.7 15-15s-6.7-15-15-15-15 6.7-15 15 6.7 15 15 15zm-93-15c0 8.3-6.7 15-15 15s-15-6.7-15-15 6.7-15 15-15 15 6.7 15 15zm-15 244c8.3 0 15-6.7 15-15s-6.7-15-15-15-15 6.7-15 15 6.7 15 15 15zM98 329c8.3 0 15-6.7 15-15s-6.7-15-15-15-15 6.7-15 15 6.7 15 15 15zm-201-15c0 8.3-6.7 15-15 15s-15-6.7-15-15 6.7-15 15-15 15 6.7 15 15zm216-60c0 8.3-6.7 15-15 15s-15-6.7-15-15 6.7-15 15-15 15 6.7 15 15zm-123 15c8.3 0 15-6.7 15-15s-6.7-15-15-15-15 6.7-15 15 6.7 15 15 15zm-93-15c0 8.3-6.7 15-15 15s-15-6.7-15-15 6.7-15 15-15 15 6.7 15 15zm216-60c0 8.3-6.7 15-15 15s-15-6.7-15-15 6.7-15 15-15 15 6.7 15 15zm-123 15c8.3 0 15-6.7 15-15s-6.7-15-15-15-15 6.7-15 15 6.7 15 15 15zm-93-15c0 8.3-6.7 15-15 15s-15-6.7-15-15 6.7-15 15-15 15 6.7 15 15zm216-60c0 8.3-6.7 15-15 15s-15-6.7-15-15 6.7-15 15-15 15 6.7 15 15zm-123 15c8.3 0 15-6.7 15-15s-6.7-15-15-15-15 6.7-15 15 6.7 15 15 15zm-93-15c0 8.3-6.7 15-15 15s-15-6.7-15-15 6.7-15 15-15 15 6.7 15 15zm216-60c0 8.3-6.7 15-15 15s-15-6.7-15-15 6.7-15 15-15 15 6.7 15 15zM-10 89c8.3 0 15-6.7 15-15s-6.7-15-15-15-15 6.7-15 15 6.7 15 15 15zm-93-15c0 8.3-6.7 15-15 15s-15-6.7-15-15 6.7-15 15-15 15 6.7 15 15zm309 543c8.3 0 15-6.7 15-15s-6.7-15-15-15-15 6.7-15 15 6.7 15 15 15zm15 44c0 8.3-6.7 15-15 15s-15-6.7-15-15 6.7-15 15-15 15 6.7 15 15zm-15 74c8.3 0 15-6.7 15-15s-6.7-15-15-15-15 6.7-15 15 6.7 15 15 15zm69-241c0 8.3-6.7 15-15 15s-15-6.7-15-15 6.7-15 15-15 15 6.7 15 15zm-15-45c8.3 0 15-6.7 15-15s-6.7-15-15-15-15 6.7-15 15 6.7 15 15 15zm-93-15c0 8.3-6.7 15-15 15s-15-6.7-15-15 6.7-15 15-15 15 6.7 15 15zm-15 75c8.3 0 15-6.7 15-15s-6.7-15-15-15-15 6.7-15 15 6.7 15 15 15zm15 39c0 8.3-6.7 15-15 15s-15-6.7-15-15 6.7-15 15-15 15 6.7 15 15zm-15 69c8.3 0 15-6.7 15-15s-6.7-15-15-15-15 6.7-15 15 6.7 15 15 15zm15 44c0 8.3-6.7 15-15 15s-15-6.7-15-15 6.7-15 15-15 15 6.7 15 15zm-15 74c8.3 0 15-6.7 15-15s-6.7-15-15-15-15 6.7-15 15 6.7 15 15 15zM59 434c0 8.3-6.7 15-15 15s-15-6.7-15-15 6.7-15 15-15 15 6.7 15 15zm-15 75c8.3 0 15-6.7 15-15s-6.7-15-15-15-15 6.7-15 15 6.7 15 15 15zm15 152c0 8.3-6.7 15-15 15s-15-6.7-15-15 6.7-15 15-15 15 6.7 15 15zm-15 74c8.3 0 15-6.7 15-15s-6.7-15-15-15-15 6.7-15 15 6.7 15 15 15zm-93-301c0 8.3-6.7 15-15 15s-15-6.7-15-15 6.7-15 15-15 15 6.7 15 15zm-15 244c8.3 0 15-6.7 15-15s-6.7-15-15-15-15 6.7-15 15 6.7 15 15 15zm15 42c0 8.3-6.7 15-15 15s-15-6.7-15-15 6.7-15 15-15 15 6.7 15 15zm-15-217c8.3 0 15-6.7 15-15s-6.7-15-15-15-15 6.7-15 15 6.7 15 15 15zm339-129c0 8.3-6.7 15-15 15s-15-6.7-15-15 6.7-15 15-15 15 6.7 15 15zm-339 15c8.3 0 15-6.7 15-15s-6.7-15-15-15-15 6.7-15 15 6.7 15 15 15zm15 214c0 8.3-6.7 15-15 15s-15-6.7-15-15 6.7-15 15-15 15 6.7 15 15zm309-274c8.3 0 15-6.7 15-15s-6.7-15-15-15-15 6.7-15 15 6.7 15 15 15zm-93-15c0 8.3-6.7 15-15 15s-15-6.7-15-15 6.7-15 15-15 15 6.7 15 15zm-231 15c8.3 0 15-6.7 15-15s-6.7-15-15-15-15 6.7-15 15 6.7 15 15 15zm339-75c0 8.3-6.7 15-15 15s-15-6.7-15-15 6.7-15 15-15 15 6.7 15 15zm-123 15c8.3 0 15-6.7 15-15s-6.7-15-15-15-15 6.7-15 15 6.7 15 15 15zm-93-15c0 8.3-6.7 15-15 15s-15-6.7-15-15 6.7-15 15-15 15 6.7 15 15zm-123 15c8.3 0 15-6.7 15-15s-6.7-15-15-15-15 6.7-15 15 6.7 15 15 15zm339-75c0 8.3-6.7 15-15 15s-15-6.7-15-15 6.7-15 15-15 15 6.7 15 15zm-123 15c8.3 0 15-6.7 15-15s-6.7-15-15-15-15 6.7-15 15 6.7 15 15 15zm-93-15c0 8.3-6.7 15-15 15s-15-6.7-15-15 6.7-15 15-15 15 6.7 15 15zm-123 15c8.3 0 15-6.7 15-15s-6.7-15-15-15-15 6.7-15 15 6.7 15 15 15zm339-75c0 8.3-6.7 15-15 15s-15-6.7-15-15 6.7-15 15-15 15 6.7 15 15zm-123 15c8.3 0 15-6.7 15-15s-6.7-15-15-15-15 6.7-15 15 6.7 15 15 15zm-93-15c0 8.3-6.7 15-15 15s-15-6.7-15-15 6.7-15 15-15 15 6.7 15 15zm-123 15c8.3 0 15-6.7 15-15s-6.7-15-15-15-15 6.7-15 15 6.7 15 15 15zm339-75c0 8.3-6.7 15-15 15s-15-6.7-15-15 6.7-15 15-15 15 6.7 15 15zM152 89c8.3 0 15-6.7 15-15s-6.7-15-15-15-15 6.7-15 15 6.7 15 15 15zM59 74c0 8.3-6.7 15-15 15s-15-6.7-15-15 6.7-15 15-15 15 6.7 15 15zM-64 89c8.3 0 15-6.7 15-15s-6.7-15-15-15-15 6.7-15 15 6.7 15 15 15zm339 459c0 8.3-6.7 15-15 15s-15-6.7-15-15 6.7-15 15-15 15 6.7 15 15zm-15 69c8.3 0 15-6.7 15-15s-6.7-15-15-15-15 6.7-15 15 6.7 15 15 15zm15 44c0 8.3-6.7 15-15 15s-15-6.7-15-15 6.7-15 15-15 15 6.7 15 15zm-15 74c8.3 0 15-6.7 15-15s-6.7-15-15-15-15 6.7-15 15 6.7 15 15 15z" style="opacity:6.000000e-002;fill:url(#a);enable-background:new"/></svg>