<svg version="1.1" id="Layer_1" xmlns="http://www.w3.org/2000/svg" x="0" y="0" width="342" height="914" viewBox="-268 -122 342 914" style="enable-background:new -268 -122 342 914" xml:space="preserve"><style>.st0{opacity:4.000000e-002;fill:#15e682;enable-background:new}</style><circle class="st0" cx="-241" cy="477" r="27"/><circle class="st0" cx="-145" cy="477" r="27"/><circle class="st0" cx="-49" cy="477" r="27"/><circle class="st0" cx="47" cy="477" r="27"/><circle class="st0" cx="-241" cy="669" r="27"/><circle class="st0" cx="-241" cy="765" r="27"/><circle class="st0" cx="-145" cy="669" r="27"/><circle class="st0" cx="-145" cy="765" r="27"/><circle class="st0" cx="-241" cy="1" r="27"/><circle class="st0" cx="47" cy="-95" r="27"/><circle class="st0" cx="-145" cy="1" r="27"/><circle class="st0" cx="-49" cy="1" r="27"/><circle class="st0" cx="47" cy="1" r="27"/><circle class="st0" cx="-241" cy="97" r="27"/><circle class="st0" cx="-145" cy="97" r="27"/><circle class="st0" cx="-49" cy="97" r="27"/><circle class="st0" cx="47" cy="97" r="27"/><circle class="st0" cx="-145" cy="193" r="27"/><circle class="st0" cx="-49" cy="193" r="27"/><circle class="st0" cx="47" cy="193" r="27"/><circle class="st0" cx="-241" cy="289" r="27"/><circle class="st0" cx="-49" cy="289" r="27"/><circle class="st0" cx="47" cy="289" r="27"/><circle class="st0" cx="-145" cy="385" r="27"/><circle class="st0" cx="-49" cy="385" r="27"/><circle class="st0" cx="47" cy="385" r="27"/></svg>