<svg version="1.1" id="Layer_1" xmlns="http://www.w3.org/2000/svg" x="0" y="0" width="1469" height="721" viewBox="429 36 1469 721" style="enable-background:new 429 36 1469 721" xml:space="preserve"><style>.st0{opacity:.12}</style><g class="st0"><linearGradient id="SVGID_1_" gradientUnits="userSpaceOnUse" x1="1936.534" y1="-113.582" x2="1026.517" y2="598.132" gradientTransform="matrix(1 0 0 -1 0 794)"><stop offset=".069" style="stop-color:#15e682"/><stop offset="1" style="stop-color:#fff"/></linearGradient><path d="M482.1 63c0 14.9-11.9 27-26.5 27S429 77.9 429 63s11.9-27 26.5-27 26.6 12.1 26.6 27zm67.8 27c14.7 0 26.5-12.1 26.5-27s-11.9-27-26.5-27-26.5 12.1-26.5 27 11.9 27 26.5 27zm94.4 0c14.7 0 26.5-12.1 26.5-27S659 36 644.3 36s-26.5 12.1-26.5 27 11.9 27 26.5 27zm0 96c14.7 0 26.5-12.1 26.5-27s-11.9-27-26.5-27c-14.7 0-26.5 12.1-26.5 27s11.9 27 26.5 27zm-67.8-27c0 14.9-11.9 27-26.5 27s-26.5-12.1-26.5-27 11.9-27 26.5-27 26.5 12.1 26.5 27zm-121 27c14.7 0 26.5-12.1 26.5-27s-11.9-27-26.5-27-26.5 12.1-26.5 27 11.9 27 26.5 27zm593-27c0 14.9-11.9 27-26.5 27-14.7 0-26.5-12.1-26.5-27s11.9-27 26.5-27 26.5 12.1 26.5 27zm351-69c14.7 0 26.5-12.1 26.5-27s-11.9-27-26.5-27-26.5 12.1-26.5 27 11.8 27 26.5 27zm26.5 69c0 14.9-11.9 27-26.5 27s-26.5-12.1-26.5-27 11.9-27 26.5-27 26.5 12.1 26.5 27zm-687.3 27c14.7 0 26.5-12.1 26.5-27s-11.9-27-26.5-27-26.5 12.1-26.5 27 11.9 27 26.5 27zm404.2-27c0 14.9-11.9 27-26.5 27-14.7 0-26.5-12.1-26.5-27s11.9-27 26.5-27 26.5 12.1 26.5 27zm351-69c14.7 0 26.6-12.1 26.6-27s-11.9-27-26.6-27-26.6 12.1-26.6 27 11.9 27 26.6 27zm26.5 69c0 14.9-11.9 27-26.6 27s-26.6-12.1-26.6-27 11.9-27 26.6-27 26.6 12.1 26.6 27zm-687.3 27c14.7 0 26.5-12.1 26.5-27s-11.9-27-26.5-27c-14.7 0-26.5 12.1-26.5 27s11.9 27 26.5 27zm404.1-27c0 14.9-11.9 27-26.5 27-14.7 0-26.5-12.1-26.5-27s11.9-27 26.5-27c14.7 0 26.5 12.1 26.5 27zm351.1-69c14.7 0 26.5-12.1 26.5-27s-11.9-27-26.5-27-26.6 12.1-26.6 27 11.9 27 26.6 27zm26.5 69c0 14.9-11.9 27-26.5 27s-26.6-12.1-26.6-27 11.9-27 26.6-27 26.5 12.1 26.5 27zM927.5 90c14.7 0 26.5-12.1 26.5-27s-11.9-27-26.5-27S901 48.1 901 63s11.9 27 26.5 27zm26.6 69c0 14.9-11.9 27-26.5 27S901 173.9 901 159s11.9-27 26.5-27 26.6 12.1 26.6 27zm351-69c14.7 0 26.5-12.1 26.5-27s-11.9-27-26.5-27c-14.7 0-26.5 12.1-26.5 27s11.8 27 26.5 27zm26.5 69c0 14.9-11.9 27-26.5 27-14.7 0-26.5-12.1-26.5-27s11.9-27 26.5-27c14.7 0 26.5 12.1 26.5 27zm351.1-69c14.7 0 26.5-12.1 26.5-27s-11.9-27-26.5-27c-14.7 0-26.5 12.1-26.5 27s11.8 27 26.5 27zm120.9-27c0 14.9-11.9 27-26.5 27-14.7 0-26.6-12.1-26.6-27s11.9-27 26.6-27c14.6 0 26.5 12.1 26.5 27zm67.8 27c14.7 0 26.6-12.1 26.6-27s-11.9-27-26.6-27c-14.7 0-26.5 12.1-26.5 27s11.9 27 26.5 27zm-67.8 69c0 14.9-11.9 27-26.5 27-14.7 0-26.6-12.1-26.6-27s11.9-27 26.6-27c14.6 0 26.5 12.1 26.5 27zM644.3 282c14.7 0 26.5-12.1 26.5-27s-11.9-27-26.5-27c-14.7 0-26.5 12.1-26.5 27s11.9 27 26.5 27zm-162.2-27c0 14.9-11.9 27-26.5 27S429 269.9 429 255s11.9-27 26.5-27 26.6 12.1 26.6 27zm-26.6 123c14.7 0 26.5-12.1 26.5-27s-11.9-27-26.5-27-26.5 12.1-26.5 27 11.9 27 26.5 27zm593-123c0 14.9-11.9 27-26.5 27-14.7 0-26.5-12.1-26.5-27s11.9-27 26.5-27 26.5 12.1 26.5 27zm-26.6 123c14.7 0 26.5-12.1 26.5-27s-11.9-27-26.5-27c-14.7 0-26.5 12.1-26.5 27s11.8 27 26.5 27zm404.1-27c0 14.9-11.9 27-26.5 27s-26.5-12.1-26.5-27 11.9-27 26.5-27 26.5 12.1 26.5 27zm-687.3-69c14.7 0 26.5-12.1 26.5-27s-11.9-27-26.5-27-26.5 12.1-26.5 27 11.9 27 26.5 27zm404.2-27c0 14.9-11.9 27-26.5 27-14.7 0-26.5-12.1-26.5-27s11.9-27 26.5-27 26.5 12.1 26.5 27zm-26.6 123c14.7 0 26.5-12.1 26.5-27s-11.9-27-26.5-27c-14.7 0-26.5 12.1-26.5 27s11.8 27 26.5 27zm404.1-27c0 14.9-11.9 27-26.6 27s-26.6-12.1-26.6-27 11.9-27 26.6-27 26.6 12.1 26.6 27zm-687.3-69c14.7 0 26.5-12.1 26.5-27s-11.9-27-26.5-27c-14.7 0-26.5 12.1-26.5 27s11.9 27 26.5 27zm26.6 69c0 14.9-11.9 27-26.5 27-14.7 0-26.5-12.1-26.5-27s11.9-27 26.5-27 26.5 12.1 26.5 27zm351-69c14.7 0 26.5-12.1 26.5-27s-11.9-27-26.5-27c-14.7 0-26.5 12.1-26.5 27-.1 14.9 11.8 27 26.5 27zm26.5 69c0 14.9-11.9 27-26.5 27-14.7 0-26.5-12.1-26.5-27s11.9-27 26.5-27c14.7 0 26.5 12.1 26.5 27zm351.1 27c14.7 0 26.5-12.1 26.5-27s-11.9-27-26.5-27-26.6 12.1-26.6 27 11.9 27 26.6 27zM954.1 255c0 14.9-11.9 27-26.5 27S901 269.9 901 255s11.9-27 26.5-27 26.6 12.1 26.6 27zm351 27c14.7 0 26.5-12.1 26.5-27s-11.9-27-26.5-27c-14.7 0-26.5 12.1-26.5 27-.1 14.9 11.8 27 26.5 27zm26.5 69c0 14.9-11.9 27-26.5 27-14.7 0-26.5-12.1-26.5-27s11.9-27 26.5-27c14.7 0 26.5 12.1 26.5 27zm445.5-69c14.7 0 26.5-12.1 26.5-27s-11.9-27-26.5-27c-14.7 0-26.6 12.1-26.6 27s11.9 27 26.6 27zm-67.9 69c0 14.9-11.9 27-26.5 27-14.7 0-26.5-12.1-26.5-27s11.9-27 26.5-27 26.5 12.1 26.5 27zm67.9 27c14.7 0 26.5-12.1 26.5-27s-11.9-27-26.5-27c-14.7 0-26.6 12.1-26.6 27s11.9 27 26.6 27zm120.9-27c0 14.9-11.9 27-26.6 27-14.7 0-26.5-12.1-26.5-27s11.9-27 26.5-27c14.7 0 26.6 12.1 26.6 27zM549.9 474c14.7 0 26.5-12.1 26.5-27s-11.9-27-26.5-27-26.5 12.1-26.5 27 11.9 27 26.5 27zm26.6-123c0 14.9-11.9 27-26.5 27s-26.5-12.1-26.5-27 11.9-27 26.5-27 26.5 12.1 26.5 27zm-121 123c14.7 0 26.5-12.1 26.5-27s-11.9-27-26.5-27-26.5 12.1-26.5 27 11.9 27 26.5 27zm26.6 69c0 14.9-11.9 27-26.5 27S429 557.9 429 543s11.9-27 26.5-27 26.6 12.1 26.6 27zm539.8 27c14.7 0 26.5-12.1 26.5-27s-11.9-27-26.5-27c-14.7 0-26.5 12.1-26.5 27s11.8 27 26.5 27zM1426 447c0 14.9-11.9 27-26.5 27s-26.5-12.1-26.5-27 11.9-27 26.5-27 26.5 12.1 26.5 27zm-26.5 123c14.7 0 26.5-12.1 26.5-27s-11.9-27-26.5-27-26.5 12.1-26.5 27 11.8 27 26.5 27zm-256.6-27c0 14.9-11.9 27-26.5 27-14.7 0-26.5-12.1-26.5-27s11.9-27 26.5-27 26.5 12.1 26.5 27zm351-69c14.7 0 26.6-12.1 26.6-27s-11.9-27-26.6-27-26.6 12.1-26.6 27 11.9 27 26.6 27zm26.5 69c0 14.9-11.9 27-26.6 27s-26.6-12.1-26.6-27 11.9-27 26.6-27 26.6 12.1 26.6 27zm-687.3 27c14.7 0 26.5-12.1 26.5-27s-11.9-27-26.5-27c-14.7 0-26.5 12.1-26.5 27s11.9 27 26.5 27zm404.1-27c0 14.9-11.9 27-26.5 27-14.7 0-26.5-12.1-26.5-27s11.9-27 26.5-27c14.7 0 26.5 12.1 26.5 27zm351.1-69c14.7 0 26.5-12.1 26.5-27s-11.9-27-26.5-27-26.6 12.1-26.6 27 11.9 27 26.6 27zm26.5 69c0 14.9-11.9 27-26.5 27s-26.6-12.1-26.6-27 11.9-27 26.6-27 26.5 12.1 26.5 27zm-687.3 27c14.7 0 26.5-12.1 26.5-27s-11.9-27-26.5-27-26.5 12.1-26.5 27 11.9 27 26.5 27zm404.1-27c0 14.9-11.9 27-26.5 27-14.7 0-26.5-12.1-26.5-27s11.9-27 26.5-27c14.7 0 26.5 12.1 26.5 27zm351.1-69c14.7 0 26.5-12.1 26.5-27s-11.9-27-26.5-27c-14.7 0-26.5 12.1-26.5 27s11.8 27 26.5 27zm120.9-27c0 14.9-11.9 27-26.5 27-14.7 0-26.6-12.1-26.6-27s11.9-27 26.6-27c14.6 0 26.5 12.1 26.5 27zm67.8 27c14.7 0 26.6-12.1 26.6-27s-11.9-27-26.6-27c-14.7 0-26.5 12.1-26.5 27s11.9 27 26.5 27zm-162.2 69c0 14.9-11.9 27-26.5 27-14.7 0-26.5-12.1-26.5-27s11.9-27 26.5-27 26.5 12.1 26.5 27zm162.2 27c14.7 0 26.6-12.1 26.6-27s-11.9-27-26.6-27c-14.7 0-26.5 12.1-26.5 27s11.9 27 26.5 27z" style="fill:url(#SVGID_1_)"/></g><g class="st0"><linearGradient id="SVGID_2_" gradientUnits="userSpaceOnUse" x1="390.471" y1="-300.58" x2="1300.483" y2="411.134" gradientTransform="matrix(1 0 0 -1 0 794)"><stop offset=".069" style="stop-color:#15e682"/><stop offset="1" style="stop-color:#fff"/></linearGradient><path d="M1844.9 250c0 14.9 11.9 27 26.5 27 14.7 0 26.6-12.1 26.6-27s-11.9-27-26.6-27c-14.6 0-26.5 12.1-26.5 27zm-67.8 27c-14.7 0-26.6-12.1-26.6-27s11.9-27 26.6-27c14.7 0 26.5 12.1 26.5 27s-11.9 27-26.5 27zm-94.4 0c-14.7 0-26.5-12.1-26.5-27s11.9-27 26.5-27c14.7 0 26.5 12.1 26.5 27s-11.9 27-26.5 27zm0 96c-14.7 0-26.5-12.1-26.5-27s11.9-27 26.5-27c14.7 0 26.5 12.1 26.5 27s-11.9 27-26.5 27zm67.8-27c0 14.9 11.9 27 26.6 27 14.7 0 26.5-12.1 26.5-27s-11.9-27-26.5-27c-14.7 0-26.6 12.1-26.6 27zm120.9 27c-14.7 0-26.5-12.1-26.5-27s11.9-27 26.5-27c14.7 0 26.6 12.1 26.6 27s-11.9 27-26.6 27zm-592.9-27c0 14.9 11.9 27 26.5 27 14.7 0 26.5-12.1 26.5-27s-11.9-27-26.5-27-26.5 12.1-26.5 27zm-351-69c-14.7 0-26.5-12.1-26.5-27s11.9-27 26.5-27 26.5 12.1 26.5 27c.1 14.9-11.8 27-26.5 27zM901 346c0 14.9 11.9 27 26.5 27s26.5-12.1 26.5-27-11.9-27-26.5-27-26.5 12.1-26.5 27zm687.3 27c-14.7 0-26.6-12.1-26.6-27s11.9-27 26.6-27 26.5 12.1 26.5 27-11.9 27-26.5 27zm-404.2-27c0 14.9 11.9 27 26.5 27 14.7 0 26.5-12.1 26.5-27s-11.9-27-26.5-27-26.5 12.1-26.5 27zm-351-69c-14.7 0-26.5-12.1-26.5-27s11.9-27 26.5-27c14.7 0 26.5 12.1 26.5 27 .1 14.9-11.8 27-26.5 27zm-26.5 69c0 14.9 11.9 27 26.5 27 14.7 0 26.5-12.1 26.5-27s-11.9-27-26.5-27-26.5 12.1-26.5 27zm687.3 27c-14.7 0-26.6-12.1-26.6-27s11.9-27 26.6-27 26.6 12.1 26.6 27-12 27-26.6 27zm-404.1-27c0 14.9 11.9 27 26.5 27 14.7 0 26.5-12.1 26.5-27s-11.9-27-26.5-27c-14.7 0-26.5 12.1-26.5 27zm-351.1-69c-14.7 0-26.5-12.1-26.5-27s11.9-27 26.5-27 26.5 12.1 26.5 27c.1 14.9-11.8 27-26.5 27zm-26.5 69c0 14.9 11.9 27 26.5 27s26.5-12.1 26.5-27-11.9-27-26.5-27-26.5 12.1-26.5 27zm687.3-69c-14.7 0-26.5-12.1-26.5-27s11.9-27 26.5-27 26.5 12.1 26.5 27-11.9 27-26.5 27zm-26.6 69c0 14.9 11.9 27 26.5 27s26.5-12.1 26.5-27-11.9-27-26.5-27-26.5 12.1-26.5 27zm-351-69c-14.7 0-26.5-12.1-26.5-27s11.9-27 26.5-27c14.7 0 26.5 12.1 26.5 27 .1 14.9-11.8 27-26.5 27zm-26.5 69c0 14.9 11.9 27 26.5 27 14.7 0 26.5-12.1 26.5-27s-11.9-27-26.5-27c-14.7 0-26.5 12.1-26.5 27zm-351.1-69c-14.7 0-26.5-12.1-26.5-27s11.9-27 26.5-27c14.7 0 26.5 12.1 26.5 27 .1 14.9-11.8 27-26.5 27zm-120.9-27c0 14.9 11.9 27 26.5 27s26.5-12.1 26.5-27-11.9-27-26.5-27-26.5 12.1-26.5 27zm-67.9 27c-14.7 0-26.5-12.1-26.5-27s11.9-27 26.5-27c14.7 0 26.5 12.1 26.5 27 .1 14.9-11.8 27-26.5 27zm67.9 69c0 14.9 11.9 27 26.5 27s26.5-12.1 26.5-27-11.9-27-26.5-27-26.5 12.1-26.5 27zm1159.3 123c-14.7 0-26.5-12.1-26.5-27s11.9-27 26.5-27c14.7 0 26.5 12.1 26.5 27s-11.9 27-26.5 27zm162.2-27c0 14.9 11.9 27 26.5 27 14.7 0 26.6-12.1 26.6-27s-11.9-27-26.6-27c-14.6 0-26.5 12.1-26.5 27zm26.5 123c-14.7 0-26.5-12.1-26.5-27s11.9-27 26.5-27c14.7 0 26.6 12.1 26.6 27s-11.9 27-26.6 27zm-592.9-123c0 14.9 11.9 27 26.5 27 14.7 0 26.5-12.1 26.5-27s-11.9-27-26.5-27-26.5 12.1-26.5 27zm26.6 123c-14.7 0-26.5-12.1-26.5-27s11.9-27 26.5-27c14.7 0 26.5 12.1 26.5 27s-11.8 27-26.5 27zM901 538c0 14.9 11.9 27 26.5 27s26.5-12.1 26.5-27-11.9-27-26.5-27-26.5 12.1-26.5 27zm687.3-69c-14.7 0-26.6-12.1-26.6-27s11.9-27 26.6-27 26.5 12.1 26.5 27-11.9 27-26.5 27zm-404.2-27c0 14.9 11.9 27 26.5 27 14.7 0 26.5-12.1 26.5-27s-11.9-27-26.5-27-26.5 12.1-26.5 27zm26.6 123c-14.7 0-26.5-12.1-26.5-27s11.9-27 26.5-27c14.7 0 26.5 12.1 26.5 27s-11.8 27-26.5 27zm-404.1-27c0 14.9 11.9 27 26.5 27 14.7 0 26.5-12.1 26.5-27s-11.9-27-26.5-27-26.5 12.1-26.5 27zm687.3-69c-14.7 0-26.6-12.1-26.6-27s11.9-27 26.6-27 26.6 12.1 26.6 27-12 27-26.6 27zm-26.6 69c0 14.9 11.9 27 26.6 27s26.6-12.1 26.6-27-11.9-27-26.6-27-26.6 12.1-26.6 27zm-351-69c-14.7 0-26.5-12.1-26.5-27s11.9-27 26.5-27c14.7 0 26.5 12.1 26.5 27s-11.8 27-26.5 27zm-26.5 69c0 14.9 11.9 27 26.5 27 14.7 0 26.5-12.1 26.5-27s-11.9-27-26.5-27c-14.7 0-26.5 12.1-26.5 27zm-351.1 27c-14.7 0-26.5-12.1-26.5-27s11.9-27 26.5-27 26.5 12.1 26.5 27-11.8 27-26.5 27zm634.2-123c0 14.9 11.9 27 26.5 27s26.5-12.1 26.5-27-11.9-27-26.5-27-26.5 12.1-26.5 27zm-351 27c-14.7 0-26.5-12.1-26.5-27s11.9-27 26.5-27c14.7 0 26.5 12.1 26.5 27s-11.8 27-26.5 27zm-26.5 69c0 14.9 11.9 27 26.5 27 14.7 0 26.5-12.1 26.5-27s-11.9-27-26.5-27c-14.7 0-26.5 12.1-26.5 27zm-445.5-69c-14.7 0-26.5-12.1-26.5-27s11.9-27 26.5-27 26.5 12.1 26.5 27-11.8 27-26.5 27zm67.9 69c0 14.9 11.9 27 26.5 27 14.7 0 26.5-12.1 26.5-27s-11.9-27-26.5-27-26.5 12.1-26.5 27zm-67.9 27c-14.7 0-26.5-12.1-26.5-27s11.9-27 26.5-27 26.5 12.1 26.5 27-11.8 27-26.5 27zM429 538c0 14.9 11.9 27 26.5 27 14.7 0 26.5-12.1 26.5-27s-11.9-27-26.5-27-26.5 12.1-26.5 27zm1348.1 123c-14.7 0-26.6-12.1-26.6-27s11.9-27 26.6-27c14.7 0 26.5 12.1 26.5 27s-11.9 27-26.5 27zm-26.6-123c0 14.9 11.9 27 26.6 27 14.7 0 26.5-12.1 26.5-27s-11.9-27-26.5-27c-14.7 0-26.6 12.1-26.6 27zm120.9 123c-14.7 0-26.5-12.1-26.5-27s11.9-27 26.5-27c14.7 0 26.6 12.1 26.6 27s-11.9 27-26.6 27zm-26.5 69c0 14.9 11.9 27 26.5 27 14.7 0 26.6-12.1 26.6-27s-11.9-27-26.6-27c-14.6 0-26.5 12.1-26.5 27zm-539.8 27c-14.7 0-26.5-12.1-26.5-27s11.9-27 26.5-27c14.7 0 26.5 12.1 26.5 27s-11.8 27-26.5 27zM901 634c0 14.9 11.9 27 26.5 27s26.5-12.1 26.5-27-11.9-27-26.5-27-26.5 12.1-26.5 27zm26.5 123c-14.7 0-26.5-12.1-26.5-27s11.9-27 26.5-27 26.5 12.1 26.5 27-11.8 27-26.5 27zm256.6-27c0 14.9 11.9 27 26.5 27 14.7 0 26.5-12.1 26.5-27s-11.9-27-26.5-27-26.5 12.1-26.5 27zm-351-69c-14.7 0-26.5-12.1-26.5-27s11.9-27 26.5-27c14.7 0 26.5 12.1 26.5 27s-11.8 27-26.5 27zm-26.5 69c0 14.9 11.9 27 26.5 27 14.7 0 26.5-12.1 26.5-27s-11.9-27-26.5-27-26.5 12.1-26.5 27zm687.3 27c-14.7 0-26.6-12.1-26.6-27s11.9-27 26.6-27 26.6 12.1 26.6 27-12 27-26.6 27zm-404.1-27c0 14.9 11.9 27 26.5 27 14.7 0 26.5-12.1 26.5-27s-11.9-27-26.5-27c-14.7 0-26.5 12.1-26.5 27zm-351.1-69c-14.7 0-26.5-12.1-26.5-27s11.9-27 26.5-27 26.5 12.1 26.5 27-11.8 27-26.5 27zm-26.5 69c0 14.9 11.9 27 26.5 27s26.5-12.1 26.5-27-11.9-27-26.5-27-26.5 12.1-26.5 27zm687.3 27c-14.7 0-26.5-12.1-26.5-27s11.9-27 26.5-27 26.5 12.1 26.5 27-11.9 27-26.5 27zm-404.1-27c0 14.9 11.9 27 26.5 27 14.7 0 26.5-12.1 26.5-27s-11.9-27-26.5-27c-14.7 0-26.5 12.1-26.5 27zm-351.1-69c-14.7 0-26.5-12.1-26.5-27s11.9-27 26.5-27c14.7 0 26.5 12.1 26.5 27s-11.8 27-26.5 27zm-120.9-27c0 14.9 11.9 27 26.5 27s26.5-12.1 26.5-27-11.9-27-26.5-27-26.5 12.1-26.5 27zm-67.9 27c-14.7 0-26.5-12.1-26.5-27s11.9-27 26.5-27c14.7 0 26.5 12.1 26.5 27s-11.8 27-26.5 27zm162.3 69c0 14.9 11.9 27 26.5 27 14.7 0 26.5-12.1 26.5-27s-11.9-27-26.5-27-26.5 12.1-26.5 27zm-162.3 27c-14.7 0-26.5-12.1-26.5-27s11.9-27 26.5-27c14.7 0 26.5 12.1 26.5 27s-11.8 27-26.5 27z" style="fill:url(#SVGID_2_)"/></g></svg>