<svg version="1.1" id="Layer_1" xmlns="http://www.w3.org/2000/svg" x="0" y="0" width="192" height="676" viewBox="-230 59 192 676" style="enable-background:new -230 59 192 676" xml:space="preserve"><style>.st1{fill:#15e682}</style><g style="opacity:4.000000e-002"><circle class="st1" cx="-107" cy="548" r="15"/><circle class="st1" cx="-107" cy="494" r="15"/><circle class="st1" cx="-107" cy="434" r="15"/><circle class="st1" cx="-215" cy="434" r="15"/><circle class="st1" cx="-107" cy="374" r="15"/><circle class="st1" cx="-215" cy="374" r="15"/><circle class="st1" cx="-107" cy="314" r="15"/><circle class="st1" cx="-215" cy="314" r="15"/><circle class="st1" cx="-107" cy="254" r="15"/><circle class="st1" cx="-107" cy="194" r="15"/><circle class="st1" cx="-215" cy="194" r="15"/><circle class="st1" cx="-107" cy="134" r="15"/><circle class="st1" cx="-215" cy="134" r="15"/><circle class="st1" cx="-215" cy="74" r="15"/><circle class="st1" cx="-107" cy="602" r="15"/><circle class="st1" cx="-53" cy="494" r="15"/><circle class="st1" cx="-53" cy="434" r="15"/><circle class="st1" cx="-161" cy="434" r="15"/><circle class="st1" cx="-53" cy="374" r="15"/><circle class="st1" cx="-161" cy="374" r="15"/><circle class="st1" cx="-53" cy="314" r="15"/><circle class="st1" cx="-161" cy="314" r="15"/><circle class="st1" cx="-53" cy="254" r="15"/><circle class="st1" cx="-161" cy="254" r="15"/><circle class="st1" cx="-53" cy="194" r="15"/><circle class="st1" cx="-161" cy="194" r="15"/><circle class="st1" cx="-53" cy="134" r="15"/><circle class="st1" cx="-161" cy="134" r="15"/><circle class="st1" cx="-53" cy="74" r="15"/><circle class="st1" cx="-161" cy="74" r="15"/><circle class="st1" cx="-53" cy="548" r="15"/><circle class="st1" cx="-53" cy="661" r="15"/><circle class="st1" cx="-53" cy="720" r="15"/></g></svg>