<svg xmlns="http://www.w3.org/2000/svg" width="1469" height="534" viewBox="429 130 1469 534" style="enable-background:new 429 130 1469 534" xml:space="preserve"><g style="opacity:.12"><linearGradient id="a" gradientUnits="userSpaceOnUse" x1="390.471" y1="-205.58" x2="1300.483" y2="506.134" gradientTransform="matrix(1 0 0 -1 0 796)"><stop offset=".069" style="stop-color:#15e682"/><stop offset="1" style="stop-color:#fff"/></linearGradient><path d="M1844.9 157c0 14.9 11.9 27 26.5 27 14.7 0 26.6-12.1 26.6-27s-11.9-27-26.6-27c-14.6 0-26.5 12.1-26.5 27zm-67.8 27c-14.7 0-26.6-12.1-26.6-27s11.9-27 26.6-27c14.7 0 26.5 12.1 26.5 27s-11.9 27-26.5 27zm-94.4 0c-14.7 0-26.5-12.1-26.5-27s11.9-27 26.5-27c14.7 0 26.5 12.1 26.5 27s-11.9 27-26.5 27zm0 96c-14.7 0-26.5-12.1-26.5-27s11.9-27 26.5-27c14.7 0 26.5 12.1 26.5 27s-11.9 27-26.5 27zm67.8-27c0 14.9 11.9 27 26.6 27 14.7 0 26.5-12.1 26.5-27s-11.9-27-26.5-27c-14.7 0-26.6 12.1-26.6 27zm120.9 27c-14.7 0-26.5-12.1-26.5-27s11.9-27 26.5-27c14.7 0 26.6 12.1 26.6 27s-11.9 27-26.6 27zm-592.9-27c0 14.9 11.9 27 26.5 27 14.7 0 26.5-12.1 26.5-27s-11.9-27-26.5-27-26.5 12.1-26.5 27zm-351-69c-14.7 0-26.5-12.1-26.5-27s11.9-27 26.5-27 26.5 12.1 26.5 27-11.8 27-26.5 27zM901 253c0 14.9 11.9 27 26.5 27s26.5-12.1 26.5-27-11.9-27-26.5-27-26.5 12.1-26.5 27zm687.3 27c-14.7 0-26.6-12.1-26.6-27s11.9-27 26.6-27 26.5 12.1 26.5 27-11.9 27-26.5 27zm-404.2-27c0 14.9 11.9 27 26.5 27 14.7 0 26.5-12.1 26.5-27s-11.9-27-26.5-27-26.5 12.1-26.5 27zm-351-69c-14.7 0-26.5-12.1-26.5-27s11.9-27 26.5-27c14.7 0 26.5 12.1 26.5 27s-11.8 27-26.5 27zm-26.5 69c0 14.9 11.9 27 26.5 27 14.7 0 26.5-12.1 26.5-27s-11.9-27-26.5-27-26.5 12.1-26.5 27zm687.3 27c-14.7 0-26.6-12.1-26.6-27s11.9-27 26.6-27 26.6 12.1 26.6 27c-.1 14.9-12 27-26.6 27zm-404.1-27c0 14.9 11.9 27 26.5 27 14.7 0 26.5-12.1 26.5-27s-11.9-27-26.5-27c-14.7 0-26.5 12.1-26.5 27zm-351.1-69c-14.7 0-26.5-12.1-26.5-27s11.9-27 26.5-27 26.5 12.1 26.5 27-11.8 27-26.5 27zm-26.5 69c0 14.9 11.9 27 26.5 27s26.5-12.1 26.5-27-11.9-27-26.5-27-26.5 12.1-26.5 27zm687.3-69c-14.7 0-26.5-12.1-26.5-27s11.9-27 26.5-27 26.5 12.1 26.5 27-11.9 27-26.5 27zm-26.6 69c0 14.9 11.9 27 26.5 27s26.5-12.1 26.5-27-11.9-27-26.5-27-26.5 12.1-26.5 27zm-351-69c-14.7 0-26.5-12.1-26.5-27s11.9-27 26.5-27c14.7 0 26.5 12.1 26.5 27s-11.8 27-26.5 27zm-26.5 69c0 14.9 11.9 27 26.5 27 14.7 0 26.5-12.1 26.5-27s-11.9-27-26.5-27c-14.7 0-26.5 12.1-26.5 27zm-351.1-69c-14.7 0-26.5-12.1-26.5-27s11.9-27 26.5-27c14.7 0 26.5 12.1 26.5 27s-11.8 27-26.5 27zm-120.9-27c0 14.9 11.9 27 26.5 27s26.5-12.1 26.5-27-11.9-27-26.5-27-26.5 12.1-26.5 27zm-67.9 27c-14.7 0-26.5-12.1-26.5-27s11.9-27 26.5-27c14.7 0 26.5 12.1 26.5 27s-11.8 27-26.5 27zm67.9 69c0 14.9 11.9 27 26.5 27s26.5-12.1 26.5-27-11.9-27-26.5-27-26.5 12.1-26.5 27zm1159.3 123c-14.7 0-26.5-12.1-26.5-27s11.9-27 26.5-27c14.7 0 26.5 12.1 26.5 27s-11.9 27-26.5 27zm162.2-27c0 14.9 11.9 27 26.5 27 14.7 0 26.6-12.1 26.6-27s-11.9-27-26.6-27c-14.6 0-26.5 12.1-26.5 27zm26.5 123c-14.7 0-26.5-12.1-26.5-27s11.9-27 26.5-27c14.7 0 26.6 12.1 26.6 27s-11.9 27-26.6 27zm-592.9-123c0 14.9 11.9 27 26.5 27 14.7 0 26.5-12.1 26.5-27s-11.9-27-26.5-27-26.5 12.1-26.5 27zm26.6 123c-14.7 0-26.5-12.1-26.5-27s11.9-27 26.5-27c14.7 0 26.5 12.1 26.5 27s-11.8 27-26.5 27zM901 445c0 14.9 11.9 27 26.5 27s26.5-12.1 26.5-27-11.9-27-26.5-27-26.5 12.1-26.5 27zm687.3-69c-14.7 0-26.6-12.1-26.6-27s11.9-27 26.6-27 26.5 12.1 26.5 27-11.9 27-26.5 27zm-404.2-27c0 14.9 11.9 27 26.5 27 14.7 0 26.5-12.1 26.5-27s-11.9-27-26.5-27-26.5 12.1-26.5 27zm26.6 123c-14.7 0-26.5-12.1-26.5-27s11.9-27 26.5-27c14.7 0 26.5 12.1 26.5 27s-11.8 27-26.5 27zm-404.1-27c0 14.9 11.9 27 26.5 27 14.7 0 26.5-12.1 26.5-27s-11.9-27-26.5-27-26.5 12.1-26.5 27zm687.3-69c-14.7 0-26.6-12.1-26.6-27s11.9-27 26.6-27 26.6 12.1 26.6 27-12 27-26.6 27zm-26.6 69c0 14.9 11.9 27 26.6 27s26.6-12.1 26.6-27-11.9-27-26.6-27-26.6 12.1-26.6 27zm-351-69c-14.7 0-26.5-12.1-26.5-27s11.9-27 26.5-27c14.7 0 26.5 12.1 26.5 27s-11.8 27-26.5 27zm-26.5 69c0 14.9 11.9 27 26.5 27 14.7 0 26.5-12.1 26.5-27s-11.9-27-26.5-27c-14.7 0-26.5 12.1-26.5 27zm-351.1 27c-14.7 0-26.5-12.1-26.5-27s11.9-27 26.5-27 26.5 12.1 26.5 27-11.8 27-26.5 27zm634.2-123c0 14.9 11.9 27 26.5 27s26.5-12.1 26.5-27-11.9-27-26.5-27-26.5 12.1-26.5 27zm-351 27c-14.7 0-26.5-12.1-26.5-27s11.9-27 26.5-27c14.7 0 26.5 12.1 26.5 27s-11.8 27-26.5 27zm-26.5 69c0 14.9 11.9 27 26.5 27 14.7 0 26.5-12.1 26.5-27s-11.9-27-26.5-27c-14.7 0-26.5 12.1-26.5 27zm-445.5-69c-14.7 0-26.5-12.1-26.5-27s11.9-27 26.5-27 26.5 12.1 26.5 27-11.8 27-26.5 27zm67.9 69c0 14.9 11.9 27 26.5 27 14.7 0 26.5-12.1 26.5-27s-11.9-27-26.5-27-26.5 12.1-26.5 27zm-67.9 27c-14.7 0-26.5-12.1-26.5-27s11.9-27 26.5-27 26.5 12.1 26.5 27-11.8 27-26.5 27zM429 445c0 14.9 11.9 27 26.5 27 14.7 0 26.5-12.1 26.5-27s-11.9-27-26.5-27-26.5 12.1-26.5 27zm1348.1 123c-14.7 0-26.6-12.1-26.6-27s11.9-27 26.6-27c14.7 0 26.5 12.1 26.5 27s-11.9 27-26.5 27zm-26.6-123c0 14.9 11.9 27 26.6 27 14.7 0 26.5-12.1 26.5-27s-11.9-27-26.5-27c-14.7 0-26.6 12.1-26.6 27zm120.9 123c-14.7 0-26.5-12.1-26.5-27s11.9-27 26.5-27c14.7 0 26.6 12.1 26.6 27s-11.9 27-26.6 27zm-26.5 69c0 14.9 11.9 27 26.5 27 14.7 0 26.6-12.1 26.6-27s-11.9-27-26.6-27c-14.6 0-26.5 12.1-26.5 27zm-539.8 27c-14.7 0-26.5-12.1-26.5-27s11.9-27 26.5-27c14.7 0 26.5 12.1 26.5 27s-11.8 27-26.5 27zM901 541c0 14.9 11.9 27 26.5 27s26.5-12.1 26.5-27-11.9-27-26.5-27-26.5 12.1-26.5 27zm26.5 123c-14.7 0-26.5-12.1-26.5-27s11.9-27 26.5-27 26.5 12.1 26.5 27-11.8 27-26.5 27zm256.6-27c0 14.9 11.9 27 26.5 27 14.7 0 26.5-12.1 26.5-27s-11.9-27-26.5-27-26.5 12.1-26.5 27zm-351-69c-14.7 0-26.5-12.1-26.5-27s11.9-27 26.5-27c14.7 0 26.5 12.1 26.5 27s-11.8 27-26.5 27zm-26.5 69c0 14.9 11.9 27 26.5 27 14.7 0 26.5-12.1 26.5-27s-11.9-27-26.5-27-26.5 12.1-26.5 27zm687.3 27c-14.7 0-26.6-12.1-26.6-27s11.9-27 26.6-27 26.6 12.1 26.6 27-12 27-26.6 27zm-404.1-27c0 14.9 11.9 27 26.5 27 14.7 0 26.5-12.1 26.5-27s-11.9-27-26.5-27c-14.7 0-26.5 12.1-26.5 27zm-351.1-69c-14.7 0-26.5-12.1-26.5-27s11.9-27 26.5-27 26.5 12.1 26.5 27-11.8 27-26.5 27zm-26.5 69c0 14.9 11.9 27 26.5 27s26.5-12.1 26.5-27-11.9-27-26.5-27-26.5 12.1-26.5 27zm687.3 27c-14.7 0-26.5-12.1-26.5-27s11.9-27 26.5-27 26.5 12.1 26.5 27-11.9 27-26.5 27zm-404.1-27c0 14.9 11.9 27 26.5 27 14.7 0 26.5-12.1 26.5-27s-11.9-27-26.5-27c-14.7 0-26.5 12.1-26.5 27zm-351.1-69c-14.7 0-26.5-12.1-26.5-27s11.9-27 26.5-27c14.7 0 26.5 12.1 26.5 27s-11.8 27-26.5 27zm-120.9-27c0 14.9 11.9 27 26.5 27s26.5-12.1 26.5-27-11.9-27-26.5-27-26.5 12.1-26.5 27zm-67.9 27c-14.7 0-26.5-12.1-26.5-27s11.9-27 26.5-27c14.7 0 26.5 12.1 26.5 27s-11.8 27-26.5 27zm162.3 69c0 14.9 11.9 27 26.5 27 14.7 0 26.5-12.1 26.5-27s-11.9-27-26.5-27-26.5 12.1-26.5 27zm-162.3 27c-14.7 0-26.5-12.1-26.5-27s11.9-27 26.5-27c14.7 0 26.5 12.1 26.5 27s-11.8 27-26.5 27z" style="fill:url(#a)"/></g></svg>